<?xml version="1.0" standalone="no"?>
<!DOCTYPE svg PUBLIC "-//W3C//DTD SVG 1.1//EN" "http://www.w3.org/Graphics/SVG/1.1/DTD/svg11.dtd" >
<svg>
<metadata>
Created by FontForge 20090622 at Sat Apr 30 01:18:44 2016
 By deploy user
Copyright &#194;&#169; 2015 by Connary Fagen. All rights reserved.
</metadata>
<defs>
<font id="VentiCF-Medium" horiz-adv-x="799" >
  <font-face 
    font-family="Venti CF Medium"
    font-weight="500"
    font-stretch="normal"
    units-per-em="1180"
    panose-1="0 0 6 0 0 0 0 0 0 0"
    ascent="944"
    descent="-236"
    x-height="495"
    cap-height="800"
    bbox="-127.286 -392.455 1349 1117"
    underline-thickness="50"
    underline-position="-50"
    unicode-range="U+0020-U+FB02"
  />
<missing-glyph horiz-adv-x="500" 
d="M0 0v700h500v-700h-500zM250 395l170 255h-340zM280 350l170 -255v510zM80 50h340l-170 255zM50 605v-510l170 255z" />
    <glyph glyph-name="fi" unicode="fi" horiz-adv-x="608" 
d="M204 495h316q13 0 13 -13v-469q0 -13 -11 -13h-39q-26 0 -26 27v397h-253v-410q0 -14 -12 -14h-38q-25 0 -25 29v395h-84q-10 0 -10 10v40q0 21 21 21h73v107q0 99 57 151t148 52q69 0 124 -35q11 -8 7 -18l-19 -40q-5 -11 -18 -6q-45 28 -92 28q-20 0 -40 -5.5
t-42 -18.5t-36 -41t-14 -67v-107z" />
    <glyph glyph-name="fl" unicode="fl" horiz-adv-x="637" 
d="M502 800h50q12 0 12 -13v-773q0 -14 -12 -14h-36q-27 0 -27 28v653q-68 56 -149 56q-21 0 -42.5 -6t-43.5 -20t-36 -42.5t-14 -68.5v-105h145q10 0 10 -10v-50q0 -11 -10 -11h-145v-410q0 -14 -12 -14h-38q-25 0 -25 29v395h-84q-10 0 -10 10v40q0 21 21 21h73v105
q0 101 57.5 154.5t151.5 53.5q77 0 151 -49v28q0 13 13 13z" />
    <glyph glyph-name="f_f" unicode="ff" horiz-adv-x="777" 
d="M805 770q12 -8 6 -18l-19 -40q-4 -11 -17 -6q-45 28 -93 28q-20 0 -39.5 -5.5t-41.5 -18.5t-36 -41t-14 -67v-107h145q9 0 9 -10v-50q0 -11 -9 -11h-145v-410q0 -14 -12 -14h-39q-25 0 -25 29v395h-271v-410q0 -14 -12 -14h-38q-25 0 -25 29v395h-84q-10 0 -10 10v40
q0 21 21 21h73v105q0 101 57.5 154.5t151.5 53.5q90 0 180 -69q56 66 163 66q69 0 124 -35zM204 495h271v107q0 45 12 81q-66 54 -147 54q-21 0 -42.5 -6t-43.5 -20t-36 -42.5t-14 -68.5v-105z" />
    <glyph glyph-name="f_f_i" unicode="ffi" horiz-adv-x="955" 
d="M551 495h316q13 0 13 -13v-469q0 -13 -12 -13h-39q-25 0 -25 27v397h-253v-410q0 -14 -12 -14h-39q-25 0 -25 29v395h-271v-410q0 -14 -12 -14h-38q-25 0 -25 29v395h-84q-10 0 -10 10v40q0 21 21 21h73v105q0 101 57.5 154.5t151.5 53.5q90 0 180 -69q56 66 163 66
q69 0 124 -35q11 -8 7 -18l-19 -40q-5 -8 -11 -8q-3 0 -7 2q-45 28 -93 28q-19 0 -39 -5.5t-41 -18t-35.5 -38.5t-15.5 -63v-2v-1v-4v-107zM204 495h271v107q0 45 12 81q-66 54 -147 54q-21 0 -42.5 -6t-43.5 -20t-36 -42.5t-14 -68.5v-105z" />
    <glyph glyph-name="f_f_l" unicode="ffl" horiz-adv-x="984" 
d="M849 800h50q13 0 13 -13v-773q0 -14 -13 -14h-36q-27 0 -27 28v653q-68 56 -149 56q-21 0 -42.5 -6t-43.5 -20t-36 -42.5t-14 -68.5v-105h145q10 0 10 -10v-50q0 -11 -10 -11h-145v-410q0 -14 -12 -14h-38q-25 0 -25 29v395h-272v-410q0 -14 -12 -14h-38q-25 0 -25 29
v395h-84q-10 0 -10 10v40q0 21 21 21h73v105q0 101 57.5 154.5t151.5 53.5q92 0 181 -70q55 70 166 70q77 0 151 -49v28q0 13 13 13zM204 495h272v105q0 46 12 82q-69 55 -148 55q-21 0 -42.5 -6t-43.5 -20t-36 -42.5t-14 -68.5v-105z" />
    <glyph glyph-name="f_b.liga" unicode="fb" horiz-adv-x="1010" 
d="M730 500q92 0 161 -69.5t69 -178.5q0 -110 -63.5 -184t-166.5 -74q-85 0 -157 53v-16q0 -14 -11.5 -22.5t-24.5 -8.5h-28q-11 0 -11 12v662q-71 63 -158 63q-21 0 -42.5 -6t-43.5 -20t-36 -42.5t-14 -68.5v-105h145q10 0 10 -10v-50q0 -11 -10 -11h-145v-410
q0 -14 -12 -14h-38q-25 0 -25 29v395h-84q-10 0 -10 10v40q0 21 21 21h73v105q0 101 57.5 154.5t151.5 53.5q79 0 158 -53l-4 29q-2 16 9 16h46q26 0 26 -25v-322q71 47 157 47zM718 64q74 0 121 52t47 136q0 85 -51 131t-117 46q-77 0 -145 -48v-269q70 -48 145 -48z" />
    <glyph glyph-name="f_f_b.liga" unicode="ffb" horiz-adv-x="1361" 
d="M1081 500q92 0 161 -69.5t69 -178.5q0 -110 -63 -184t-167 -74q-85 0 -157 53v-16q0 -14 -11.5 -22.5t-24.5 -8.5h-28q-11 0 -11 12v662q-71 63 -158 63q-21 0 -42.5 -6t-43.5 -20t-36 -42.5t-14 -68.5v-105h145q10 0 10 -10v-50q0 -11 -10 -11h-145v-410q0 -14 -12 -14
h-38q-25 0 -25 29v395h-276v-410q0 -14 -12 -14h-38q-25 0 -25 29v395h-84q-10 0 -10 10v40q0 21 21 21h73v105q0 101 57.5 154.5t151.5 53.5q95 0 183 -72q55 72 168 72q79 0 158 -53l-4 29q-2 16 10 16h45q26 0 26 -25v-322q70 47 157 47zM204 495h276v105q0 43 11 79
q-70 58 -151 58q-21 0 -42.5 -6t-43.5 -20t-36 -42.5t-14 -68.5v-105zM1069 64q74 0 121 52t47 136q0 85 -51 131t-117 46q-75 0 -145 -48v-269q70 -48 145 -48z" />
    <glyph glyph-name="f_f_h.liga" unicode="ffh" horiz-adv-x="1378" 
d="M1327 16q2 -16 -9 -16h-43q-27 0 -27 28v276q0 58 -35.5 93.5t-100.5 35.5q-93 0 -179 -84v-336q0 -7 -4 -10q-3 -3 -7 -3h-53q-4 0 -7 3q-4 3 -4 10v654q-77 70 -166 70q-21 0 -42.5 -6t-43.5 -20t-36 -42.5t-14 -68.5v-105h145q10 0 10 -10v-50q0 -11 -10 -11h-145
v-410q0 -14 -12 -14h-38q-25 0 -25 29v395h-277v-410q0 -14 -12 -14h-38q-25 0 -25 29v395h-84q-10 0 -10 10v40q0 21 21 21h73v105q0 101 57.5 154.5t151.5 53.5q96 0 184 -72q56 72 168 72q86 0 167 -60q-1 18 -5 36q-2 16 9 16h46q26 0 26 -25v-350q89 77 186 77
q84 0 144 -49t60 -139v-225q0 -27 4 -73zM204 495h277v105q0 43 11 79q-70 58 -152 58q-21 0 -42.5 -6t-43.5 -20t-36 -42.5t-14 -68.5v-105z" />
    <glyph glyph-name="f_h.liga" unicode="fh" horiz-adv-x="1026" 
d="M975 16q2 -16 -9 -16h-43q-27 0 -27 28v276q0 58 -35.5 93.5t-100.5 35.5q-92 0 -178 -84v-336q0 -7 -5 -10q-3 -3 -7 -3h-53q-9 0 -11 10v2v1v654q-77 70 -166 70q-21 0 -42.5 -6t-43.5 -20t-36 -42.5t-14 -68.5v-105h145q10 0 10 -10v-50q0 -11 -10 -11h-145v-410
q0 -14 -12 -14h-38q-25 0 -25 29v395h-84q-10 0 -10 10v40q0 21 21 21h73v105q0 101 57.5 154.5t151.5 53.5q85 0 168 -60q-1 18 -5 36q-2 16 9 16h46q26 0 26 -25v-350q89 77 185 77q84 0 144 -49t60 -139v-225q2 -48 4 -73z" />
    <glyph glyph-name="f_j.liga" unicode="fj" horiz-adv-x="607" 
d="M204 495h320q13 0 13 -13v-582q0 -59 -21 -98.5t-76 -62.5q-12 -5 -16 4l-25 50q-5 11 6 15q33 15 44.5 34t11.5 58v524h-257v-410q0 -14 -12 -14h-38q-25 0 -25 29v395h-84q-10 0 -10 10v40q0 21 21 21h73v107q0 99 57 151t148 52q69 0 124 -35q11 -8 7 -18l-19 -40
q-5 -11 -18 -6q-45 28 -92 28q-20 0 -40 -5.5t-42 -18.5t-36 -41t-14 -67v-107z" />
    <glyph glyph-name=".notdef" horiz-adv-x="500" 
d="M0 0v700h500v-700h-500zM250 395l170 255h-340zM280 350l170 -255v510zM80 50h340l-170 255zM50 605v-510l170 255z" />
    <glyph glyph-name=".null" horiz-adv-x="0" 
 />
    <glyph glyph-name="nonmarkingreturn" horiz-adv-x="393" 
 />
    <glyph glyph-name="space" unicode=" " horiz-adv-x="265" 
 />
    <glyph glyph-name="exclam" unicode="!" horiz-adv-x="221" 
d="M81 800h60q11 0 11 -11v-10l-10 -451q-2 -11 -10 -11h-41q-9 0 -11 11l-10 451v10q0 11 11 11zM111 -3q-22 0 -37.5 15t-15.5 37t15.5 37.5t37.5 15.5t37.5 -15.5t15.5 -37.5t-15.5 -37t-37.5 -15z" />
    <glyph glyph-name="quotedbl" unicode="&#x22;" horiz-adv-x="317" 
d="M75 510h-33q-12 0 -12 12v246q0 12 12 12h47q13 0 11 -12l-13 -246q-1 -12 -12 -12zM262 510h-33q-12 0 -12 12v246q0 12 12 12h47q12 0 11 -12l-13 -246q-2 -12 -12 -12z" />
    <glyph glyph-name="numbersign" unicode="#" horiz-adv-x="662" 
d="M491 565h125q10 0 10 -11v-30q0 -11 -10 -11h-132l-29 -205h122q11 0 11 -12v-28q0 -12 -11 -12h-129l-35 -245q-2 -11 -12 -11h-30q-13 0 -11 11l35 245h-169l-35 -245q-2 -11 -12 -11h-29q-12 0 -12 11l35 245h-125q-12 0 -12 11v30q0 11 12 11h132l30 205h-125
q-11 0 -11 11v30q0 11 11 11h132l32 223q1 12 12 12h29q14 0 12 -12l-32 -223h168l32 223q3 12 13 12h29q14 0 11 -12zM402 308l29 205h-169l-29 -205h169z" />
    <glyph glyph-name="dollar" unicode="$" horiz-adv-x="633" 
d="M586 209q0 -83 -65.5 -145.5t-168.5 -72.5v-76q0 -11 -10 -11h-55q-11 0 -11 11v77q-35 4 -69.5 17t-54.5 23.5t-46 31.5t-30 25l-20 20q-12 12 -4 22l29 33q13 13 25 2q1 -1 17.5 -16.5t33 -27t41 -26.5t55 -23.5t62.5 -8.5q92 0 140 44t48 102q0 18 -4 33t-13 28
t-18 23.5t-26 20.5l-28 16.5t-33 15t-33.5 12.5l-37 12.5l-34.5 11.5q-48 17 -81.5 33.5t-66.5 41.5t-50 60.5t-17 80.5q0 78 54.5 140.5t160.5 73.5v74q0 11 11 11h55q10 0 10 -11v-74q47 -6 93.5 -27t69 -37t38.5 -32q13 -10 4 -22l-26 -35q-10 -13 -24 -5q-1 1 -14 11.5
t-23 17.5t-29 18.5t-36.5 19t-41.5 13t-48 5.5q-81 0 -127.5 -40t-46.5 -100q0 -32 13 -55.5t44 -42t54.5 -28.5t72.5 -27q13 -5 20 -7q41 -14 69 -25.5t63.5 -32.5t57 -43t36.5 -56t15 -74z" />
    <glyph glyph-name="percent" unicode="%" horiz-adv-x="623" 
d="M52 19l443 752q6 13 17 13h44q18 0 10 -16l-443 -753q-7 -12 -17 -12h-45q-17 0 -9 16zM98 674q-18 0 -30.5 12t-12.5 30q0 17 13 29.5t30 12.5q18 0 30 -12.5t12 -29.5q0 -18 -12 -30t-30 -12zM525 24q-17 0 -29.5 12t-12.5 30q0 17 12.5 29.5t29.5 12.5q18 0 30 -12.5
t12 -29.5q0 -18 -12 -30t-30 -12z" />
    <glyph glyph-name="ampersand" unicode="&#x26;" horiz-adv-x="675" 
d="M618 373h-34q-48 -138 -95 -216q1 -1 11.5 -13.5t15 -16.5l15.5 -14.5t19 -15.5t20.5 -11.5t26.5 -10.5t29 -5q14 0 14 -13v-41q0 -14 -12 -14q-64 -2 -108 23t-85 69q-59 -62 -120 -80q-48 -12 -97 -13.5t-100.5 18.5t-85.5 59q-42 50 -51 111.5t15 113.5q33 79 146 137
q-23 26 -60 74q-37 50 -40.5 110.5t28.5 107.5q32 48 73 68t99 22q63 2 113.5 -25.5t74.5 -89.5q64 -163 -176 -287l179 -206q44 74 87 210q3 17 21 17h90q14 0 12 -13q-8 -19 -12 -45q-2 -10 -13 -10zM118 645q-4 -39 16 -73t57 -74q17 -18 -25 -46q45 23 75 41t65.5 45.5
t51 57.5t9.5 61q-11 58 -56.5 81.5t-99.5 10.5q-38 -9 -63.5 -38t-29.5 -66zM256 76q83 12 135 74l-204 236q-84 -38 -114.5 -103.5t11.5 -135.5q26 -42 74 -59.5t98 -11.5z" />
    <glyph glyph-name="quotesingle" unicode="'" horiz-adv-x="130" 
d="M75 510h-33q-12 0 -12 12v246q0 12 12 12h47q13 0 11 -12l-13 -246q-1 -12 -12 -12z" />
    <glyph glyph-name="parenleft" unicode="(" horiz-adv-x="415" 
d="M375 -49l-2 -53q0 -12 -11 -10q-158 27 -237.5 155t-79.5 339q0 214 79.5 340.5t238.5 153.5q5 1 7.5 -2t2.5 -9l2 -50q0 -9 -10 -10q-122 -19 -183 -130t-61 -293q0 -183 60.5 -292.5t183.5 -128.5q10 -1 10 -10z" />
    <glyph glyph-name="parenright" unicode=")" horiz-adv-x="415" 
d="M32 -102l-2 53q0 9 10 10q123 19 183.5 128.5t60.5 292.5q0 182 -61 293t-183 130q-10 1 -10 10l2 50q0 6 2.5 9t7.5 2q159 -27 238.5 -154t79.5 -340q0 -211 -80 -339t-237 -155q-11 -2 -11 10z" />
    <glyph glyph-name="asterisk" unicode="*" horiz-adv-x="407" 
d="M245 614l119 -70q12 -6 5 -17l-14 -23q-7 -12 -18 -4l-111 74l4 -133q0 -13 -13 -13h-27q-12 0 -12 13l4 133l-111 -74q-11 -7 -18 4l-14 23q-7 11 4 17l119 70l-118 70q-12 6 -5 17l14 23q7 11 18 4l111 -74l-4 133q0 13 12 13h27q13 0 13 -13l-4 -133l110 74
q11 7 19 -4l14 -23q7 -11 -5 -17z" />
    <glyph glyph-name="plus" unicode="+" horiz-adv-x="622" 
d="M348 410h191q13 0 13 -12v-49q0 -12 -13 -12h-191v-191q0 -13 -13 -13h-48q-13 0 -13 13v191h-191q-13 0 -13 12v49q0 12 13 12h191v192q0 12 13 12h48q13 0 13 -12v-192z" />
    <glyph glyph-name="comma" unicode="," horiz-adv-x="200" 
d="M154 42q5 -47 -8 -107q-15 -60 -60 -105q-7 -9 -14 -4l-10 10q-6 3 -2 10q46 54 46 113q0 22 -1 33l-8 -1q-23 0 -37.5 14.5t-14.5 39.5q0 54 52 54q43 0 51 -38q5 -8 6 -19z" />
    <glyph glyph-name="hyphen" unicode="-" horiz-adv-x="421" 
d="M381 273v-43q0 -13 -12 -13h-315q-14 0 -14 12v44q0 13 14 13h315q12 0 12 -13z" />
    <glyph glyph-name="period" unicode="." horiz-adv-x="191" 
d="M96 -4q-21 0 -36 14.5t-15 35.5q0 20 15.5 35.5t35.5 15.5t35 -15.5t15 -35.5q0 -21 -15 -35.5t-35 -14.5z" />
    <glyph glyph-name="slash" unicode="/" horiz-adv-x="371" 
d="M277 800h47q16 0 13 -14l-229 -771q-3 -15 -15 -15h-47q-15 0 -13 15l228 771q5 14 16 14z" />
    <glyph glyph-name="zero" unicode="0" horiz-adv-x="694" 
d="M346 -12q-77 0 -135 31t-92.5 86t-51.5 124t-17 152q0 84 17 154.5t51.5 126t92.5 87t135 31.5t135.5 -31.5t93.5 -87t52 -126t17 -154.5q0 -173 -74 -283t-224 -110zM348 64q79 0 129.5 45.5t69.5 113t19 158.5q0 92 -19 161t-69.5 115.5t-129.5 46.5q-80 0 -131 -46.5
t-70 -115.5t-19 -161q0 -91 19 -158.5t70 -113t131 -45.5z" />
    <glyph glyph-name="one" unicode="1" horiz-adv-x="277" 
d="M164 770h46q12 0 12 -12v-745q0 -13 -12 -13h-52q-14 0 -14 13v607l-89 -25q-12 -2 -13 9l-7 39q0 10 9 12q63 25 106 105l1 5q3 5 13 5z" />
    <glyph glyph-name="two" unicode="2" horiz-adv-x="583" 
d="M180 76h343q11 0 11 -12v-52q0 -5 -7 -8.5t-13 -3.5h-449q-11 0 -13 12v23l314 345q47 50 70 91t23 89q0 62 -50.5 106t-119.5 44q-112 0 -191 -108q-3 -4 -8.5 -4t-9.5 4l-31 32q-8 8 -1 19q44 64 108.5 98t135.5 34q97 0 170.5 -64.5t72.5 -160.5q0 -96 -77 -182z" />
    <glyph glyph-name="three" unicode="3" horiz-adv-x="601" 
d="M82 770h442q13 0 13 -13v-56q0 -10 -8 -20l-232 -242q48 8 97 -8q72 -14 117 -74t45 -135q0 -99 -72.5 -165.5t-176.5 -66.5q-159 0 -258 138q-7 10 0 18l38 34q9 8 17 -1q33 -49 88 -81t114 -32q84 0 126.5 50t42.5 112t-40 107.5t-107 45.5q-32 0 -99 -23q-9 -3 -15 5
l-29 38q-7 10 1 18l263 275h-367q-13 0 -13 13v50q0 13 13 13z" />
    <glyph glyph-name="four" unicode="4" horiz-adv-x="597" 
d="M452 295h87q13 0 13 -13v-49q0 -13 -13 -13h-87v-207q0 -13 -14 -13h-48q-14 0 -14 13v207h-317q-14 0 -14 13v49q0 9 8 12q140 105 198 260q40 114 40 215q0 11 11 11h58q11 0 11 -11q-2 -164 -70 -304q-47 -91 -137 -170h212v62q0 10 11 12l53 9q5 1 8.5 -2.5t3.5 -8.5
v-72z" />
    <glyph glyph-name="five" unicode="5" horiz-adv-x="588" 
d="M155 694v-280q74 56 163 56q97 0 161 -73t64 -171t-71 -167t-172 -69q-74 0 -140 35t-111 99q-7 8 0 16l37 38q8 8 16 -1q32 -50 84.5 -80.5t113.5 -30.5q76 0 118.5 49t42.5 113q0 69 -46.5 118t-110.5 49q-78 0 -149 -63l-65 13q-14 3 -14 15v397q0 13 13 13
q92 -4 203 -4q110 0 197 4q13 0 13 -13v-48q0 -14 -13 -14q-81 -5 -184 -5q-93 0 -150 4z" />
    <glyph glyph-name="six" unicode="6" horiz-adv-x="612" 
d="M316 482q105 0 178 -71t73 -174q0 -104 -73.5 -175.5t-184.5 -71.5q-126 0 -195 93.5t-69 242.5q0 85 24 164.5t69 144t115.5 104t155.5 41.5q14 0 14 -11l1 -50q0 -10 -12 -10q-72 0 -129.5 -34t-91 -86.5t-51 -110t-17.5 -111.5q27 51 78.5 83t114.5 32zM308 60
q73 0 127.5 51.5t54.5 124.5q0 74 -50.5 125.5t-124.5 51.5q-73 0 -129.5 -51.5t-56.5 -117.5q0 -75 51.5 -129.5t127.5 -54.5z" />
    <glyph glyph-name="seven" unicode="7" horiz-adv-x="586" 
d="M546 757v-25q0 -6 -5 -16l-379 -709q-5 -7 -16 -7h-60q-5 0 -7 5.5t0 8.5l368 679h-399q-13 0 -13 12v52q0 12 12 12h487q12 0 12 -12z" />
    <glyph glyph-name="eight" unicode="8" horiz-adv-x="596" 
d="M199 399l8 -2q-52 -6 -107 -60t-55 -131q0 -94 68.5 -155t184.5 -61t184.5 61t68.5 155q0 78 -53 130t-110 61l8 2q53 17 94.5 61.5t41.5 111.5q0 91 -66.5 149.5t-167.5 58.5t-167.5 -58.5t-66.5 -149.5q0 -66 41.5 -111t93.5 -62zM461 573q0 -54 -48 -96t-115 -42
q-68 0 -116 42t-48 96q0 60 47 100.5t117 40.5q69 0 116 -40.5t47 -100.5zM298 57q-76 0 -127.5 40.5t-51.5 109.5q0 61 49 107t130 46t129.5 -46t48.5 -107q0 -69 -51 -109.5t-127 -40.5z" />
    <glyph glyph-name="nine" unicode="9" horiz-adv-x="612" 
d="M296 288q-105 0 -178 71t-73 174q0 104 73.5 175.5t184.5 71.5q126 0 195 -93.5t69 -242.5q0 -115 -41 -215.5t-126 -168.5t-198 -70q-13 0 -13 11l-2 50q0 10 12 10q72 0 129.5 34t91 86.5t51 110t18.5 111.5q-27 -51 -78.5 -83t-114.5 -32zM304 710q-73 0 -128 -51.5
t-55 -124.5q0 -74 51 -125.5t125 -51.5q73 0 129.5 51.5t56.5 117.5q0 75 -51.5 129.5t-127.5 54.5z" />
    <glyph glyph-name="colon" unicode=":" horiz-adv-x="274" 
d="M138 354q-24 0 -41 17t-17 41q0 23 17 40.5t41 17.5q23 0 40 -17.5t17 -40.5q0 -24 -17 -41t-40 -17zM137 48q-24 0 -41 16.5t-17 40.5t17.5 41t40.5 17t40.5 -17t17.5 -41t-17 -40.5t-41 -16.5z" />
    <glyph glyph-name="semicolon" unicode=";" horiz-adv-x="458" 
d="M138 354q-24 0 -41 17t-17 41q0 23 17 40.5t41 17.5q23 0 40 -17.5t17 -40.5q0 -24 -17 -41t-40 -17zM198 101q6 -54 -8 -111q-16 -64 -62 -108q-8 -8 -15 -4l-11 11q-6 5 -1 10q48 56 48 117q0 22 -1 33l-9 -1q-23 0 -38.5 15t-15.5 41q0 56 54 56q46 0 54 -40
q3 -6 5 -19z" />
    <glyph glyph-name="less" unicode="&#x3c;" horiz-adv-x="504" 
d="M40 376v-10q0 -7 8 -11l380 -232q6 -4 11 -1t5 10v48q0 6 -8 12l-300 180l302 183q6 4 6 10v49q0 7 -5 10t-10 -1l-381 -236q-8 -4 -8 -11z" />
    <glyph glyph-name="equal" unicode="=" horiz-adv-x="600" 
d="M539 524v-43q0 -13 -12 -13h-453q-13 0 -13 12v44q0 13 13 13h453q12 0 12 -13zM539 255v-44q0 -13 -12 -13h-453q-13 0 -13 13v43q0 13 13 13h453q12 0 12 -12z" />
    <glyph glyph-name="greater" unicode="&#x3e;" horiz-adv-x="504" 
d="M464 368v10q0 7 -8 11l-381 234q-5 3 -10 0.5t-5 -9.5v-49q0 -7 5 -10l303 -182l-301 -181q-7 -5 -7 -12v-48q0 -7 4.5 -10t10.5 1l381 234q8 4 8 11z" />
    <glyph glyph-name="question" unicode="?" horiz-adv-x="465" 
d="M51 649l-29 32q-7 8 0 16q85 113 219 113q46 0 90 -16q59 -20 91.5 -75t27 -117.5t-49.5 -104.5q-29 -28 -62.5 -50l-49 -31.5t-26 -31.5t-10.5 -60q0 -13 -13 -13h-46q-12 0 -12 13l-1 43q0 27 20 51t48.5 43l57.5 39t49.5 47.5t21.5 60.5q2 58 -35.5 97t-114.5 39
q-88 0 -161 -94q-8 -8 -15 -1zM216 -4q-22 0 -37.5 16t-15.5 38t15.5 38t37.5 16t38 -16t16 -38t-16 -38t-38 -16z" />
    <glyph glyph-name="at" unicode="@" horiz-adv-x="1167" 
d="M600 815q112 0 209.5 -42t161 -108.5t100 -146t36.5 -157.5q0 -51 -6.5 -98t-23.5 -96t-44 -84.5t-71.5 -58t-101.5 -22.5q-50 0 -76.5 20.5t-38.5 63.5l-7 7q-11 -19 -49 -41q-73 -44 -141 -48q-37 -2 -72 5t-67.5 32t-40.5 66q-19 90 60 135q59 34 244 71q12 2 28 5
q3 52 -26 81.5t-84 31.5q-81 5 -176 -42q-16 -8 -19 5l-13 37q-5 12 8 18q96 53 202 50q92 -2 139 -51.5t45 -133.5q-2 -74 -2 -98q2 -50 8.5 -80t21 -43t27.5 -16t37 -3q86 0 125.5 79t39.5 202q0 67 -30 134.5t-83.5 124.5t-138.5 93t-186 36q-131 0 -237.5 -61.5
t-165.5 -166.5t-59 -232q0 -81 29 -160t81 -143.5t131 -108t172 -52.5q12 -2 12 -14v-50q0 -9 -24 -7q-109 11 -200 61t-150 124.5t-91.5 165t-32.5 184.5q0 145 70 267t194.5 193.5t275.5 71.5zM488 72q49 -16 111 5t104 54q-5 32 -3 128q-14 -3 -44 -8.5l-48 -9
t-44.5 -9.5t-43.5 -12t-35 -14t-28.5 -17.5t-14.5 -20.5q-13 -27 -0.5 -55.5t46.5 -40.5z" />
    <glyph glyph-name="A" unicode="A" horiz-adv-x="872" 
d="M455 796l375 -783q6 -13 -7 -13h-61q-10 0 -14 9l-70 149h-483l-70 -149q-5 -9 -13 -9h-63q-13 0 -7 13l375 783q5 9 12 9h14q8 0 12 -9zM229 230h415l-208 440z" />
    <glyph glyph-name="B" unicode="B" horiz-adv-x="682" 
d="M481 417q70 -23 109.5 -77.5t39.5 -123.5q0 -94 -71.5 -155t-172.5 -61h-318q-13 0 -13 13v774q0 13 13 13h301q95 0 157.5 -62t62.5 -145q0 -61 -30 -107t-78 -69zM134 441h218q42 0 75.5 15.5t51 40.5t26 55t1 60.5t-24 55.5t-49.5 40.5t-76 15.5h-222v-283zM134 76
h237q49 0 88 16t58.5 41.5t29 56.5t0 62.5t-29.5 57t-59 41.5t-89 16h-235v-291z" />
    <glyph glyph-name="C" unicode="C" 
d="M705 169l42 -35q11 -8 -4 -22q-119 -119 -289 -119t-289.5 118t-119.5 288t120 289t289 119q172 0 291 -119q13 -13 4 -21l-42 -35q-10 -9 -20 1q-37 39 -97 68.5t-130 29.5q-78 0 -143.5 -30t-107 -78t-64 -106t-22.5 -118q0 -82 38 -156t117 -124t182 -50q128 0 224 96
q12 12 21 4z" />
    <glyph glyph-name="D" unicode="D" horiz-adv-x="806" 
d="M73 800h270q99 0 178.5 -34.5t128.5 -91t75 -126t26 -143.5q0 -78 -26 -149.5t-75 -129t-128 -92t-176 -34.5h-273q-13 0 -13 13v774q0 13 13 13zM139 76h211q100 0 175 48.5t111 122t35 158.5q0 62 -21 119t-60 102t-101 71.5t-139 26.5h-212z" />
    <glyph glyph-name="E" unicode="E" horiz-adv-x="661" 
d="M588 724h-434v-293h268q14 0 14 -14v-48q0 -13 -14 -13h-268v-280h434q14 0 14 -14v-48q0 -14 -14 -14h-500q-13 0 -13 13v774q0 13 13 13h500q14 0 14 -13v-50q0 -13 -14 -13z" />
    <glyph glyph-name="F" unicode="F" horiz-adv-x="595" 
d="M63 800h488q14 0 14 -13v-50q0 -13 -14 -13h-423v-293h257q13 0 13 -14v-48q0 -13 -13 -13h-257v-343q0 -13 -12 -13h-40q-26 0 -26 27v760q0 13 13 13z" />
    <glyph glyph-name="G" unicode="G" 
d="M462 322h276q14 0 14 -14l-1 -181q0 -7 -8 -15q-119 -119 -289 -119t-289.5 118t-119.5 288t120 289t289 119q172 0 291 -119q13 -13 4 -21l-42 -35q-10 -9 -20 1q-37 39 -97 68.5t-130 29.5q-78 0 -143.5 -30t-107 -78t-64 -106t-22.5 -118q0 -82 38 -156t117 -124
t182 -50q121 0 213 86v92h-211q-13 0 -13 12v49q0 14 13 14z" />
    <glyph glyph-name="H" unicode="H" horiz-adv-x="811" 
d="M670 800h52q14 0 14 -13v-774q0 -13 -12 -13h-40q-26 0 -26 27v328h-505v-341q0 -14 -13 -14h-51q-14 0 -14 14v773q0 13 13 13h52q13 0 13 -13v-354h505v354q0 13 12 13z" />
    <glyph glyph-name="I" unicode="I" horiz-adv-x="237" 
d="M144 800h-51q-13 0 -13 -13v-774q0 -13 13 -13h52q12 0 12 13v774q0 13 -13 13z" />
    <glyph glyph-name="J" unicode="J" horiz-adv-x="284" 
d="M132 800h45q27 0 27 -27v-867q-1 -71 -37.5 -127t-95.5 -86q-12 -7 -19 3l-25 48q-4 12 6 17q92 49 92 152v836q0 14 -4 36q-2 15 11 15z" />
    <glyph glyph-name="K" unicode="K" horiz-adv-x="666" 
d="M231 412l394 -386q8 -8 4 -17t-15 -9h-57q-9 0 -17 8l-402 396v-391q0 -13 -12 -13h-54q-13 0 -13 13v727q0 17 -4 45q-2 15 10 15h46q27 0 27 -25v-355l364 372q8 8 16 8h61q11 0 14 -9t-4 -16z" />
    <glyph glyph-name="L" unicode="L" horiz-adv-x="613" 
d="M144 76h402q12 0 12 -14v-49q0 -13 -12 -13h-469q-12 0 -12 13v774q0 13 13 13h53q13 0 13 -13v-711z" />
    <glyph glyph-name="M" unicode="M" horiz-adv-x="1069" 
d="M935 800h47q12 0 12 -14v-772q0 -14 -13 -14h-52q-14 0 -14 14v626l-364 -614q-6 -10 -15 -10h-4q-9 0 -15 10l-363 614v-626q0 -14 -13 -14h-52q-14 0 -14 14v773q0 13 12 13h48q9 0 15 -9l384 -648l385 648q5 9 16 9z" />
    <glyph glyph-name="N" unicode="N" horiz-adv-x="835" 
d="M693 800h55q12 0 12 -11v-778q0 -11 -12 -11h-21q-20 0 -48 31l-526 621v-639q0 -13 -13 -13h-52q-13 0 -13 13v775q0 12 12 12h33q9 0 19 -11l543 -645v645q0 11 11 11z" />
    <glyph glyph-name="O" unicode="O" horiz-adv-x="941" 
d="M471 -7q170 0 290 118.5t120 288.5t-120 288.5t-290 118.5q-171 0 -291 -118.5t-120 -288.5t120 -288.5t291 -118.5zM471 69q-137 0 -235 97t-98 234t98 234t235 97t234 -97t97 -234t-97 -234t-234 -97z" />
    <glyph glyph-name="P" unicode="P" horiz-adv-x="677" 
d="M83 800h290q65 0 119 -24t87 -63t50.5 -84.5t17.5 -91.5q0 -64 -29.5 -123t-94 -100t-150.5 -41h-224v-259q0 -14 -12 -14h-54q-13 0 -13 14v773q0 13 13 13zM149 348h221q92 0 145 56.5t53 132.5t-53 131.5t-145 55.5h-221v-376z" />
    <glyph glyph-name="Q" unicode="Q" horiz-adv-x="926" 
d="M822 -49q16 -15 0 -24l-40 -25q-24 -16 -38 9l-80 129q-91 -47 -193 -47q-171 0 -291 118.5t-120 288.5t120 288.5t291 118.5q170 0 290 -118.5t120 -288.5q0 -95 -40 -177t-110 -139l37 -61q33 -52 54 -72zM138 400q0 -136 97 -232.5t233 -98.5l-8 1q-63 30 -63 94
q0 50 35.5 84t88.5 34q78 0 132 -75l37 -55q112 99 112 248q0 137 -97 234t-234 97t-235 -97t-98 -234zM488 69q71 4 135 37l-29 46q-32 53 -89 53q-28 0 -47.5 -20.5t-19.5 -49.5q0 -42 50 -66z" />
    <glyph glyph-name="R" unicode="R" horiz-adv-x="690" 
d="M447 283l193 -269q9 -14 -7 -14h-52q-18 0 -33 22l-178 251h-2h-229v-259q0 -14 -14 -14h-52q-13 0 -13 14v773q0 13 13 13h295q67 0 121 -24t86 -63.5t49 -85t17 -91.5q0 -84 -50 -157t-144 -96zM139 724v-376h223q96 0 148.5 56t52.5 134q0 76 -52.5 131t-148.5 55
h-223z" />
    <glyph glyph-name="S" unicode="S" horiz-adv-x="625" 
d="M50 134l28 33q12 12 26 2q1 -1 14 -13t24 -20.5t31.5 -22.5t40 -23t46 -15.5t52.5 -6.5q93 0 141.5 42t48.5 101q0 19 -6 35t-13.5 28.5t-23.5 24.5t-27.5 19.5t-35 17l-36.5 14.5t-40 14.5l-39 13.5q-106 40 -163.5 88.5t-57.5 130.5q0 39 14.5 75t43.5 67t79.5 49.5
t114.5 18.5q127 0 236 -95q14 -12 5 -24l-26 -34q-10 -13 -23 -4q-1 1 -11 9t-18.5 14l-22.5 15.5t-28.5 16t-32.5 13.5t-38 10.5t-40 3.5q-82 0 -128.5 -38t-46.5 -97q0 -26 11.5 -47t25.5 -35t47 -30t54 -24l68 -25q40 -15 66.5 -26.5t62 -32t56.5 -42.5t36 -54.5
t15 -70.5q0 -89 -75 -152.5t-192 -63.5q-141 0 -259 118q-13 13 -4 22z" />
    <glyph glyph-name="T" unicode="T" horiz-adv-x="712" 
d="M59 800h595q13 0 13 -13v-50q0 -13 -13 -13h-258v-710q0 -14 -12 -14h-40q-27 0 -27 28v696h-258q-14 0 -14 13v49q0 14 14 14z" />
    <glyph glyph-name="U" unicode="U" horiz-adv-x="769" 
d="M687 800h-53q-14 0 -14 -13v-481q0 -116 -71.5 -176.5t-166.5 -60.5q-93 0 -163 60.5t-70 176.5v481q0 13 -13 13h-52q-14 0 -14 -13v-492q1 -126 85.5 -214t226.5 -88q143 0 229.5 88t87.5 214v492q0 13 -12 13z" />
    <glyph glyph-name="V" unicode="V" horiz-adv-x="829" 
d="M726 800h67q6 0 9 -5t0 -13l-369 -776q-5 -10 -15 -10h-8q-9 0 -14 10l-369 777q-3 7 0 12t9 5h67q9 0 15 -16l296 -641l297 641q6 16 15 16z" />
    <glyph glyph-name="W" unicode="W" horiz-adv-x="1132" 
d="M1028 801h68q6 0 9 -5t-1 -13l-372 -776q-5 -10 -15 -10h-9q-11 0 -14 10l-128 269l-128 -270q-5 -10 -15 -10h-9q-10 0 -15 10l-372 777q-3 7 0 12t9 5h67q8 0 16 -16l300 -643l104 226l-198 417q-3 7 0 12t9 5h68q9 0 15 -16l149 -324l148 323q8 16 16 16h68
q6 0 8.5 -5t-0.5 -13l-197 -415l104 -225l300 643q6 16 15 16z" />
    <glyph glyph-name="X" unicode="X" horiz-adv-x="723" 
d="M408 400l280 -386q4 -5 3 -9.5t-6 -4.5h-75q-7 0 -16 14l-233 321l-233 -321q-9 -14 -15 -14h-76q-5 0 -6 4.5t3 9.5l280 386l-283 390q-5 10 5 10h77q5 0 12 -10l236 -325l236 325q8 10 13 10h75q11 0 6 -10z" />
    <glyph glyph-name="Y" unicode="Y" horiz-adv-x="749" 
d="M656 800h71q4 0 6 -4t-1 -8l-319 -457v-317q0 -14 -12 -14h-40q-26 0 -26 28v303l-319 457q-2 4 0 8t6 4h70q7 0 12 -10l270 -382l270 382q7 10 12 10z" />
    <glyph glyph-name="Z" unicode="Z" horiz-adv-x="643" 
d="M156 78h439q13 0 13 -13v-38q0 -27 -28 -27h-532q-13 0 -13 13v18l2 3l446 688h-432q-13 0 -13 14v51q0 13 13 13h540q14 0 14 -13v-16l-1 -2z" />
    <glyph glyph-name="bracketleft" unicode="[" horiz-adv-x="358" 
d="M308 834h-199v-942h198q11 0 11 -11v-48q0 -10 -11 -10h-256q-11 0 -11 10v1059q0 11 11 11h256q11 0 11 -11v-48q0 -10 -10 -10z" />
    <glyph glyph-name="backslash" unicode="\" horiz-adv-x="365" 
d="M44 800h47q10 0 15 -14l228 -771q1 -6 -2.5 -10.5t-9.5 -4.5h-48q-10 0 -15 15l-228 771q-3 14 13 14z" />
    <glyph glyph-name="bracketright" unicode="]" horiz-adv-x="358" 
d="M51 903h256q11 0 11 -11v-1059q0 -10 -11 -10h-256q-11 0 -11 10v48q0 11 11 11h198v942h-199q-10 0 -10 10v48q0 11 11 11z" />
    <glyph glyph-name="asciicircum" unicode="^" horiz-adv-x="605" 
d="M286 842l-259 -378q-4 -6 -1 -11.5t11 -5.5h45q8 0 11 6l210 303l207 -302q4 -7 12 -7h46q8 0 10.5 5.5t-1.5 11.5l-256 378q-5 9 -12 9h-11q-5 0 -12 -9z" />
    <glyph glyph-name="underscore" unicode="_" horiz-adv-x="545" 
d="M505 -13v-30q0 -13 -13 -13h-438q-14 0 -14 13v30q0 13 14 13h438q13 0 13 -13z" />
    <glyph glyph-name="grave" unicode="`" horiz-adv-x="331" 
d="M47 755l212 -132q11 -5 17 4l15 26q4 9 -3 14l-207 143q-10 10 -18 -2l-21 -35q-6 -11 5 -18z" />
    <glyph glyph-name="a" unicode="a" horiz-adv-x="525" 
d="M470 19q-14 131 -7 290q4 89 -42.5 140.5t-136.5 51.5q-115 0 -208 -51q-15 -7 -8 -19l17 -38q5 -12 19 -5q96 46 177 46q113 0 109 -114q-71 -12 -117.5 -22t-94 -26t-74 -35t-43 -46.5t-16.5 -63.5q0 -61 43 -96.5t118 -35.5q59 0 101 15t90 46q6 -56 22 -56h42
q12 0 9 19zM219 56q-43 0 -70 17.5t-27 54.5q0 26 18 45.5t54.5 33t73 22.5t90.5 20l31 6q-3 -75 0 -142q-84 -57 -170 -57z" />
    <glyph glyph-name="b" unicode="b" horiz-adv-x="578" 
d="M298 500q92 0 161 -69.5t69 -178.5q0 -110 -63 -184t-167 -74q-85 0 -157 53v-16q0 -14 -11.5 -22.5t-24.5 -8.5h-28q-11 0 -11 12v715q0 6 -6 57q-2 16 9 16h46q26 0 26 -25v-322q71 47 157 47zM286 64q74 0 121 52t47 136q0 85 -51 131t-117 46q-77 0 -145 -48v-269
q70 -48 145 -48z" />
    <glyph glyph-name="c" unicode="c" horiz-adv-x="521" 
d="M451 130l25 -31q8 -9 1 -18q-83 -88 -183 -88q-105 0 -179.5 73.5t-74.5 180.5t74.5 181t179.5 74t175 -79q9 -10 1 -19l-27 -32q-7 -7 -18 2q-52 57 -127 57q-87 0 -136 -56t-49 -128q0 -71 49.5 -127t136.5 -56q71 0 133 67q10 8 19 -1z" />
    <glyph glyph-name="d" unicode="d" horiz-adv-x="567" 
d="M435 800h46q26 0 26 -25v-763q0 -12 -11 -12h-28q-14 0 -25 8.5t-11 22.5v16q-70 -54 -158 -54q-104 0 -169 74t-65 184q0 109 70.5 178.5t163.5 69.5q89 0 158 -48v276q0 6 -6 57q-2 16 9 16zM286 63q76 0 146 50v265q-70 50 -146 50q-67 0 -119 -46t-52 -131
q0 -83 48.5 -135.5t122.5 -52.5z" />
    <glyph glyph-name="e" unicode="e" horiz-adv-x="564" 
d="M118 214h360q48 0 48 47q0 99 -68.5 170t-173.5 71q-104 0 -175 -73.5t-71 -180.5q0 -110 73.5 -182t179.5 -72q124 0 202 100q7 9 -2 18l-13 17q-8 11 -20 1q-68 -68 -160 -68q-76 0 -124.5 45t-55.5 107zM448 275h-331q2 58 45.5 107.5t120.5 49.5q76 0 119 -50
t46 -107z" />
    <glyph glyph-name="f" unicode="f" horiz-adv-x="431" 
d="M458 770q11 -8 7 -18l-19 -40q-5 -11 -18 -6q-45 28 -92 28q-20 0 -40 -5.5t-42 -18.5t-36 -41t-14 -67v-107h145q10 0 10 -10v-50q0 -11 -10 -11h-145v-410q0 -14 -12 -14h-38q-25 0 -25 29v395h-84q-10 0 -10 10v40q0 21 21 21h73v107q0 99 57 151t148 52q69 0 124 -35
z" />
    <glyph glyph-name="g" unicode="g" horiz-adv-x="613" 
d="M402 -24q42 -6 70.5 -13.5t56.5 -23t41 -42.5t11 -65q-5 -88 -84.5 -137t-202.5 -49q-106 0 -171 44t-62 127q3 96 108 124q-55 7 -93.5 34t-41.5 70q-2 43 31.5 67.5t84.5 13.5q-27 18 -48.5 58t-22.5 86q-3 98 61.5 164t160.5 66q28 0 88.5 -6.5t134.5 -3.5
q6 0 9.5 -2.5t2.5 -8.5l-2 -39q-15 -6 -80 -8q75 -53 77 -164q-1 -96 -65.5 -154.5t-157.5 -55.5q-57 1 -119 32q-35 10 -59 -0.5t-22 -34.5q4 -44 115 -57q153 -19 179 -22zM306 428q-65 0 -109.5 -43.5t-43.5 -109.5q-1 -59 44.5 -102t107.5 -44q70 0 110.5 40.5
t41.5 105.5q-1 67 -44.5 110t-106.5 43zM302 -284q82 0 139 30.5t59 82.5q2 31 -18.5 48.5t-73.5 26.5q-50 10 -168 23q-35 4 -69 -24t-35 -74q-2 -58 45.5 -85.5t120.5 -27.5z" />
    <glyph glyph-name="h" unicode="h" horiz-adv-x="585" 
d="M535 16q2 -16 -9 -16h-43q-27 0 -27 28v276q0 58 -35.5 93.5t-100.5 35.5q-93 0 -179 -84v-336q0 -7 -4 -10q-3 -3 -7 -3h-53q-4 0 -7 3q-4 3 -4 10v715q0 20 -6 56q-2 16 9 16h46q26 0 26 -25v-350q89 77 186 77q84 0 144 -49t60 -139v-225q0 -27 4 -73z" />
    <glyph glyph-name="i" unicode="i" horiz-adv-x="227" 
d="M114 711q-19 0 -31.5 12.5t-12.5 30.5t12.5 30.5t31.5 12.5q17 0 30 -12.5t13 -30.5t-13 -30.5t-30 -12.5zM139 495h-50q-13 0 -13 -13v-455q0 -27 25 -27h39q12 0 12 13v469q0 13 -13 13z" />
    <glyph glyph-name="j" unicode="j" horiz-adv-x="219" 
d="M106 711q-19 0 -31.5 12.5t-12.5 30.5t12.5 30.5t31.5 12.5q17 0 30 -12.5t13 -30.5t-13 -30.5t-30 -12.5zM132 495h-51q-12 0 -12 -13v-582q0 -39 -11.5 -58t-44.5 -34q-11 -4 -6 -15l25 -50q4 -9 16 -4q54 23 75.5 62.5t21.5 98.5l-1 582q0 13 -12 13z" />
    <glyph glyph-name="k" unicode="k" horiz-adv-x="532" 
d="M224 257l262 -235q7 -8 4.5 -15t-12.5 -7h-58q-9 0 -17 8l-262 241v-236q0 -13 -13 -13h-49q-13 0 -13 13v715q0 20 -6 56q-2 16 9 16h46q26 0 26 -25v-509l229 222q6 7 15 7h58q9 0 12 -7.5t-3 -14.5z" />
    <glyph glyph-name="l" unicode="l" horiz-adv-x="223" 
d="M138 800h-50q-13 0 -13 -13v-759q0 -28 27 -28h36q13 0 13 14v773q0 13 -13 13z" />
    <glyph glyph-name="m" unicode="m" horiz-adv-x="974" 
d="M924 16q2 -16 -9 -16h-43q-27 0 -27 28v276q0 58 -36 93.5t-100 35.5q-93 0 -181 -90q2 -20 2 -29v-225q2 -48 4 -73q2 -16 -9 -16h-43q-27 0 -27 28v276q0 58 -36 93.5t-100 35.5q-90 0 -178 -88v-332q0 -13 -12 -13h-53q-11 0 -11 13v470q0 12 11 12h38q11 0 18.5 -9
t8.5 -20v-41q89 77 185 77q59 0 108.5 -25t74.5 -72q99 97 207 97q84 0 144 -49.5t60 -138.5v-225q2 -48 4 -73z" />
    <glyph glyph-name="n" unicode="n" horiz-adv-x="579" 
d="M529 16q2 -16 -9 -16h-43q-27 0 -27 28v276q0 58 -35.5 93.5t-100.5 35.5q-92 0 -178 -84v-336q0 -13 -12 -13h-53q-11 0 -11 13v470q0 12 11 12h38q11 0 18.5 -9t8.5 -20v-41q89 77 185 77q84 0 144 -49t60 -139v-225q2 -48 4 -73z" />
    <glyph glyph-name="o" unicode="o" horiz-adv-x="592" 
d="M297 -6q105 0 180 73.5t75 179.5q0 108 -75 182t-180 74q-107 0 -182 -74t-75 -182q0 -106 75.5 -179.5t181.5 -73.5zM297 65q-77 0 -130 54.5t-53 127.5q0 75 53 129.5t130 54.5q76 0 128.5 -54.5t52.5 -129.5q0 -73 -52.5 -127.5t-128.5 -54.5z" />
    <glyph glyph-name="p" unicode="p" horiz-adv-x="578" 
d="M298 500q92 0 161 -69.5t69 -178.5q0 -110 -63 -184t-167 -74q-85 0 -157 53v-310q0 -14 -11.5 -22.5t-24.5 -8.5h-28q-11 0 -11 12v704q0 6 -6 57q-2 16 9 16h46q26 0 26 -25v-17q71 47 157 47zM286 64q74 0 121 52t47 136q0 85 -51 131t-117 46q-77 0 -145 -48v-269
q70 -48 145 -48z" />
    <glyph glyph-name="q" unicode="q" horiz-adv-x="568" 
d="M518 -278q2 -16 -9 -16h-46q-26 0 -26 25v315q-71 -53 -156 -53q-104 0 -167.5 74t-63.5 184q0 109 69 178.5t162 69.5q85 0 156 -47v12q0 14 11.5 22.5t24.5 8.5h28q12 0 12 -12v-704q0 -15 5 -57zM293 63q74 0 144 48v269q-68 48 -144 48q-66 0 -117 -46t-51 -131
q0 -84 47 -136t121 -52z" />
    <glyph glyph-name="r" unicode="r" horiz-adv-x="419" 
d="M390 466q12 -8 6 -17l-29 -42q-4 -9 -15 -4q-47 25 -87 25q-80 0 -127 -78v-337q0 -13 -11 -13h-53q-11 0 -11 13v470q0 12 11 12h38q11 0 18.5 -9t7.5 -20v-28q63 61 141 61q61 0 111 -33z" />
    <glyph glyph-name="s" unicode="s" horiz-adv-x="469" 
d="M47 68l25 36q7 11 17 6q4 -4 20.5 -13.5t51.5 -20.5t69 -11q58 0 84 20t26 49q0 33 -31 50t-93 34q-166 43 -166 145q0 58 48 98.5t131 40.5q76 0 163 -51q14 -7 7 -17l-26 -38q-6 -11 -17 -5q-74 38 -127 38q-56 0 -78 -22t-22 -47q0 -16 9 -28.5t28 -22t35 -15
t43 -13.5q81 -22 130.5 -55.5t49.5 -91.5q0 -63 -53 -102t-141 -39q-54 0 -103.5 20t-75.5 40q-10 8 -4 15z" />
    <glyph glyph-name="t" unicode="t" horiz-adv-x="385" 
d="M335 69l9 -40q4 -7 -10 -15q-36 -19 -91 -19q-75 0 -102 43t-27 141v243h-62q-12 0 -12 12v15q0 9 7 14q49 23 72.5 58t41.5 120q3 10 9 10h12q8 0 8 -11v-145h124q13 0 13 -13v-48q0 -12 -13 -12h-105q-13 0 -20 3v-236q0 -67 11.5 -95t53.5 -28q29 0 61 10q17 5 20 -7z
" />
    <glyph glyph-name="u" unicode="u" horiz-adv-x="574" 
d="M455 495h53q11 0 11 -14v-469q0 -12 -11 -12h-43q-8 0 -14.5 9.5t-6.5 18.5v43q-88 -78 -186 -78q-84 0 -144 49.5t-60 138.5v224q-2 49 -4 73q-2 17 9 17h43q27 0 27 -29v-275q0 -59 35.5 -94.5t100.5 -35.5q92 0 179 89v331q0 14 11 14z" />
    <glyph glyph-name="v" unicode="v" horiz-adv-x="563" 
d="M527 495h-60q-8 0 -12 -10l-173 -362l-174 362q-4 10 -11 10h-63q-11 0 -7 -10l237 -481q6 -10 14 -10h9q8 0 14 10l235 481q4 10 -9 10z" />
    <glyph glyph-name="w" unicode="w" horiz-adv-x="798" 
d="M704 495h60q12 0 7 -12l-180 -474q-3 -9 -13 -9h-10q-10 0 -14 9l-155 356l-155 -356q-4 -9 -13 -9h-11q-8 0 -13 9l-180 474q-5 12 7 12h60q9 0 12 -8l129 -365l141 360q5 9 14 9h18q9 0 14 -9l142 -360l128 365q3 8 12 8z" />
    <glyph glyph-name="x" unicode="x" horiz-adv-x="541" 
d="M316 247l172 -230q4 -6 1 -11.5t-8 -5.5h-60q-8 0 -13 9l-138 188l-137 -188q-6 -9 -15 -9h-57q-6 0 -9 6t1 11l170 230l-171 231q-4 5 -1 11t10 6h57q9 0 15 -9l137 -190l138 190q5 9 14 9h59q6 0 8.5 -5.5t-1.5 -11.5z" />
    <glyph glyph-name="y" unicode="y" horiz-adv-x="558" 
d="M463 495h59q15 0 9 -14l-205 -423q-117 -241 -236 -364q-9 -9 -21 4l-30 29q-11 11 1 24q55 62 113 148t92 165l-212 418q-7 13 7 13h62q7 0 12 -8l171 -347l164 345q4 10 14 10z" />
    <glyph glyph-name="z" unicode="z" horiz-adv-x="485" 
d="M167 76h252q12 0 12 -12v-52q0 -12 -12 -12h-352q-10 0 -15 9t0 17l16 25l248 368h-247q-12 0 -12 12v52q0 12 12 12h350q9 0 13 -8t1 -16l-13 -21z" />
    <glyph glyph-name="braceleft" unicode="{" horiz-adv-x="461" 
d="M136 253v-130q0 -85 25.5 -147.5t68 -96t87.5 -49t94 -17.5q10 0 10 10v38q0 7 -1 8.5t-6 1.5q-98 7 -153 74t-55 169v120q0 55 -33 85t-62 35v12q23 0 59 33t36 88v132q0 100 54 162t154 69q7 0 7 10v37q0 11 -10 11q-50 0 -94.5 -14t-87 -45t-68 -92.5t-25.5 -146.5
v-141q0 -32 -34.5 -54.5t-50.5 -22.5q-11 0 -11 -11v-41q0 -11 11 -11q57 -22 73 -43q12 -15 12 -33z" />
    <glyph glyph-name="bar" unicode="|" horiz-adv-x="275" 
d="M100 -186v1187q0 12 13 12h49q13 0 13 -12v-1187q0 -13 -13 -13h-49q-13 0 -13 13z" />
    <glyph glyph-name="braceright" unicode="}" horiz-adv-x="461" 
d="M325 123v130q0 16 7 28.5t22.5 21.5t24 13t26.5 11q3 1 5 2q11 0 11 11v41q0 11 -11 11q-16 0 -50.5 22.5t-34.5 54.5v141q0 85 -25.5 146.5t-68 92.5t-87 45t-94.5 14q-10 0 -10 -11v-37q0 -10 7 -10q100 -7 154 -69t54 -162v-132q0 -55 36 -88t59 -33v-12
q-29 -5 -62 -35t-33 -85v-120q0 -102 -55 -169t-153 -74q-7 -5 -7 -10v-38q0 -10 10 -10q49 2 94 17.5t87.5 49t68 96t25.5 147.5z" />
    <glyph glyph-name="asciitilde" unicode="~" horiz-adv-x="488" 
d="M23 270l26 -27q8 -7 14 2l5 7q5 6 6.5 7.5t7 8t8.5 9l9 7.5t11 7.5l11.5 5.5t13.5 4t15 1q14 0 28.5 -5.5t21.5 -10.5t21 -16.5t15 -12.5q2 -2 11 -9.5t13 -10.5t13.5 -9t17.5 -8.5t20.5 -5t25.5 -2.5q33 0 65.5 19t47.5 38l16 19q5 6 0 11l-24 25q-8 10 -14 0
q-6 -9 -15 -19t-31 -23.5t-45 -13.5q-16 0 -30.5 6t-21 10.5t-19 16.5l-13.5 13q-55 46 -103 46q-33 0 -65 -20t-47 -40l-16 -19q-4 -6 1 -11z" />
    <glyph glyph-name="exclamdown" unicode="&#xa1;" horiz-adv-x="221" 
d="M111 498q22 0 37.5 -15t15.5 -37t-15.5 -37.5t-37.5 -15.5t-37.5 15.5t-15.5 37.5t15.5 37t37.5 15zM141 -305h-60q-11 0 -11 11v10l10 451q2 11 11 11h41q8 0 10 -11l10 -451v-10q0 -11 -11 -11z" />
    <glyph glyph-name="cent" unicode="&#xa2;" horiz-adv-x="579" 
d="M481 140l30 -26q8 -8 1 -17q-85 -110 -205 -110q-43 0 -81 13l-25 -74q-3 -10 -14 -7l-22 9q-11 4 -7 13l26 77q-63 34 -100.5 96t-37.5 136q0 109 76.5 186t184.5 77q26 0 46 -4l18 52q3 10 15 7l21 -8q10 -5 7 -14l-17 -50q61 -25 102 -77q8 -10 -1 -18l-31 -29
q-9 -8 -20 4q-30 37 -73 54l-124 -362q32 -10 64 -10q83 0 148 80q9 13 19 2zM120 250q0 -44 22.5 -89.5t65.5 -73.5l122 355q-5 1 -16 1q-92 0 -143 -60.5t-51 -132.5z" />
    <glyph glyph-name="sterling" unicode="&#xa3;" horiz-adv-x="593" 
d="M543 717q8 -9 1 -15l-41 -31q-7 -6 -16 0l-7 7q-7 7 -11 10.5t-14 11t-18 12.5t-21 11t-25 10t-28 6.5t-33 2.5q-72 0 -121 -46.5t-48 -110.5q0 -20 5.5 -41t9.5 -31.5t18 -38l17 -33.5q13 -27 24 -62h170q11 0 11 -12v-44q0 -12 -11 -12h-156q1 -9 1 -26q1 -93 -78 -217
h337q11 0 11 -12v-44q0 -12 -11 -12h-424q-12 0 -12 11v14q44 62 72.5 131.5t27.5 122.5q0 17 -3 32h-106q-12 0 -12 12v44q0 12 12 12h91l-9 21l-22 51q-40 87 -41 128q-2 105 70 170t171 65q137 0 219 -97z" />
    <glyph glyph-name="currency" unicode="&#xa4;" horiz-adv-x="660" 
d="M544 308l71 -72q8 -8 1 -15l-46 -46q-7 -7 -15 1l-71 71q-69 -50 -154 -50t-154 50l-72 -71q-7 -7 -15 -1l-45 46q-8 7 0 15l71 72q-48 69 -48 152q0 85 49 153l-71 71q-7 8 0 15l46 46q7 7 15 0l71 -71q68 49 153 49t153 -49l70 71q7 7 15 0l46 -46q7 -7 -1 -15l-70 -70
q50 -69 50 -154q0 -84 -49 -152zM143 461q0 -79 54 -134t134 -55q77 0 132.5 55t55.5 134q0 78 -55 132t-133 54q-80 0 -134 -53.5t-54 -132.5z" />
    <glyph glyph-name="yen" unicode="&#xa5;" horiz-adv-x="730" 
d="M644 800h69q4 0 6 -4t-1 -8l-311 -452h145q14 0 14 -12v-44q0 -12 -14 -12h-148v-85h148q14 0 14 -13v-43q0 -13 -14 -13h-148v-100q0 -14 -12 -14h-40q-27 0 -27 28v86h-147q-13 0 -13 13v43q0 13 13 13h147v85h-147q-13 0 -13 12v43q0 13 13 13h144l-311 452
q-2 4 -0.5 8t6.5 4h68q8 0 13 -10l267 -382l267 382q7 10 12 10z" />
    <glyph glyph-name="brokenbar" unicode="&#xa6;" horiz-adv-x="275" 
d="M100 533v469q0 13 13 13h49q13 0 13 -13v-469q0 -14 -13 -14h-49q-13 0 -13 14zM100 -186v469q0 13 13 13h49q13 0 13 -13v-469q0 -13 -13 -13h-49q-13 0 -13 13z" />
    <glyph glyph-name="section" unicode="&#xa7;" horiz-adv-x="628" 
d="M512 62q66 -59 66 -140q0 -90 -74.5 -158t-187.5 -68q-144 0 -262 118q-11 9 -3 21l24 33q9 12 21 4q112 -106 213 -106q76 0 133 43t57 113q0 25 -9 46.5t-28.5 37.5t-38 28t-49.5 23t-50 16.5l-52 14.5q-216 55 -216 215q0 92 69 148q-69 54 -69 143q0 86 67.5 153
t191.5 67q111 0 228 -93q13 -8 4 -21l-25 -35q-11 -14 -23 -6q-1 1 -9 7.5t-12 9.5l-14 10.5t-16.5 11.5l-18.5 11t-21.5 11.5t-22 9.5t-24 8t-25.5 5t-27 2q-75 0 -125.5 -44.5t-50.5 -106.5q0 -31 12 -54t40 -39.5t50.5 -25t64.5 -22.5q13 -4 19 -6q52 -17 89.5 -33
t80.5 -43.5t66 -67t23 -89.5q0 -92 -66 -152zM129 303q0 -28 11.5 -50t27 -36.5t44 -27t50 -19.5t57.5 -16q77 -20 129 -48q55 40 55 108q0 28 -13.5 51.5t-32.5 39.5t-49.5 30t-55.5 22.5l-60 19.5l-20 6q-48 15 -78 28q-65 -34 -65 -108z" />
    <glyph glyph-name="dieresis" unicode="&#xa8;" horiz-adv-x="439" 
d="M80 707q-18 0 -31 13t-13 32t13 32t31 13q20 0 33 -13t13 -32t-13 -32t-33 -13zM358 707q-18 0 -31.5 13t-13.5 32t13.5 32t31.5 13q19 0 32 -13t13 -32t-13 -32t-32 -13z" />
    <glyph glyph-name="copyright" unicode="&#xa9;" horiz-adv-x="905" 
d="M452 -9q-170 0 -291 120.5t-121 291.5t121 291.5t291 120.5q172 0 292.5 -120.5t120.5 -291.5t-120.5 -291.5t-292.5 -120.5zM453 57q143 0 244.5 101.5t101.5 245.5q0 143 -101.5 244t-244.5 101t-245 -101t-102 -244q0 -144 102 -245.5t245 -101.5zM580 327l28 -22
q6 -6 1 -13q-62 -82 -152 -82q-80 0 -137 57.5t-57 138.5q0 80 57 137t137 57q86 0 142 -69q6 -9 -1 -14l-29 -25q-6 -7 -14 3q-39 46 -93 46q-64 0 -101 -42.5t-37 -92.5t37 -93t101 -43q58 0 104 55q6 10 14 2z" />
    <glyph glyph-name="ordfeminine" unicode="&#xaa;" horiz-adv-x="525" 
d="M470 19q-14 131 -7 290q4 89 -42.5 140.5t-136.5 51.5q-115 0 -208 -51q-15 -7 -8 -19l17 -38q5 -12 19 -5q96 46 177 46q113 0 109 -114q-71 -12 -117.5 -22t-94 -26t-74 -35t-43 -46.5t-16.5 -63.5q0 -61 43 -96.5t118 -35.5q59 0 101 15t90 46q6 -56 22 -56h42
q12 0 9 19zM219 56q-43 0 -70 17.5t-27 54.5q0 26 18 45.5t54.5 33t73 22.5t90.5 20l31 6q-3 -75 0 -142q-84 -57 -170 -57z" />
    <glyph glyph-name="guillemotleft" unicode="&#xab;" horiz-adv-x="521" 
d="M50 215l149 -200q6 -6 11 -6h48q8 0 10.5 5.5t-2.5 12.5l-138 204l140 196q4 7 1.5 13t-9.5 6h-44q-7 0 -13 -8l-153 -194q-4 -4 -4 -13.5t4 -15.5zM249 213l152 -196q5 -8 13 -8h45q8 0 11 5.5t-2 13.5l-142 200l141 200q6 18 -9 18h-47q-7 0 -12 -6l-150 -198
q-5 -5 -5 -14.5t5 -14.5z" />
    <glyph glyph-name="logicalnot" unicode="&#xac;" horiz-adv-x="597" 
d="M53 415h488q12 0 12 -12v-248q0 -14 -12 -14h-43q-13 0 -13 14v192h-432q-13 0 -13 13v43q0 12 13 12z" />
    <glyph glyph-name="softhyphen" unicode="&#xad;" horiz-adv-x="421" 
d="M381 273v-43q0 -13 -12 -13h-315q-14 0 -14 12v44q0 13 14 13h315q12 0 12 -13z" />
    <glyph glyph-name="registered" unicode="&#xae;" horiz-adv-x="599" 
d="M300 933q118 0 201 -83t83 -201q0 -119 -83 -202t-201 -83t-201.5 83t-83.5 202q0 118 83.5 201t201.5 83zM300 413q97 0 166.5 69t69.5 166q0 99 -69 168t-167 69t-167 -69t-69 -168q0 -97 69 -166t167 -69zM352 620l63 -104q5 -8 -5 -8h-33q-5 0 -7 3l-62 105h-65v-102
q0 -6 -7 -6h-30q-7 0 -7 6v270q0 8 7 8h118q39 0 65 -27t26 -60q0 -29 -17.5 -52.5t-45.5 -32.5zM242 750v-94h77q30 0 42.5 23.5t0.5 47t-43 23.5h-77z" />
    <glyph glyph-name="macron" unicode="&#xaf;" horiz-adv-x="512" 
d="M40 713v39q0 10 10 10h411q11 0 11 -10v-39q0 -10 -11 -10h-411q-10 0 -10 10z" />
    <glyph glyph-name="degree" unicode="&#xb0;" horiz-adv-x="394" 
d="M197 515q-55 0 -94 39.5t-39 95.5q0 55 39 94t94 39t94.5 -39t39.5 -94q0 -56 -39.5 -95.5t-94.5 -39.5zM197 569q34 0 57.5 24t23.5 57q0 32 -23.5 55.5t-57.5 23.5q-32 0 -56 -23.5t-24 -55.5q0 -33 24 -57t56 -24z" />
    <glyph glyph-name="plusminus" unicode="&#xb1;" horiz-adv-x="593" 
d="M333 496h191q13 0 13 -13v-48q0 -13 -13 -13h-191v-191q0 -13 -12 -13h-49q-12 0 -12 13v191h-192q-12 0 -12 13v48q0 13 12 13h192v191q0 13 12 13h49q12 0 12 -13v-191zM69 69h456q12 0 12 -12v-44q0 -13 -12 -13h-456q-13 0 -13 13v43q0 13 13 13z" />
    <glyph glyph-name="twosuperior" unicode="&#xb2;" horiz-adv-x="583" 
d="M180 76h343q11 0 11 -12v-52q0 -5 -7 -8.5t-13 -3.5h-449q-11 0 -13 12v23l314 345q47 50 70 91t23 89q0 62 -50.5 106t-119.5 44q-112 0 -191 -108q-3 -4 -8.5 -4t-9.5 4l-31 32q-8 8 -1 19q44 64 108.5 98t135.5 34q97 0 170.5 -64.5t72.5 -160.5q0 -96 -77 -182z" />
    <glyph glyph-name="threesuperior" unicode="&#xb3;" horiz-adv-x="601" 
d="M82 770h442q13 0 13 -13v-56q0 -10 -8 -20l-232 -242q48 8 97 -8q72 -14 117 -74t45 -135q0 -99 -72.5 -165.5t-176.5 -66.5q-159 0 -258 138q-7 10 0 18l38 34q9 8 17 -1q33 -49 88 -81t114 -32q84 0 126.5 50t42.5 112t-40 107.5t-107 45.5q-32 0 -99 -23q-9 -3 -15 5
l-29 38q-7 10 1 18l263 275h-367q-13 0 -13 13v50q0 13 13 13z" />
    <glyph glyph-name="acute" unicode="&#xb4;" horiz-adv-x="355" 
d="M72 623l212 132q11 8 5 18l-21 35q-7 12 -18 2l-207 -143q-8 -6 -2 -14l15 -26q5 -9 16 -4z" />
    <glyph glyph-name="paragraph" unicode="&#xb6;" horiz-adv-x="902" 
d="M298 800h545q14 0 14 -14v-45q0 -14 -14 -14h-119v-713q0 -14 -14 -14h-50q-13 0 -13 14l1 713h-164v-713q0 -14 -14 -14h-50q-13 0 -13 14v274h-109q-113 0 -183 79t-70 181q0 60 29.5 116.5t89 96t134.5 39.5zM407 360l1 367h-98q-51 0 -91 -20t-60.5 -52.5
t-30.5 -71.5t0 -78.5t30.5 -72t60.5 -52.5t91 -20h97z" />
    <glyph glyph-name="periodcentered" unicode="&#xb7;" horiz-adv-x="201" 
d="M101 250q-20 0 -35.5 15t-15.5 36q0 20 15.5 35.5t35.5 15.5t35 -15.5t15 -35.5q0 -21 -15 -36t-35 -15z" />
    <glyph glyph-name="cedilla" unicode="&#xb8;" horiz-adv-x="334" 
d="M159 -64q54 0 92.5 -38t38.5 -92q0 -53 -39 -92t-94 -39q-67 0 -107 51q-5 6 -1 10l17 18q9 8 15 1q32 -34 74 -34q41 0 64.5 24.5t23.5 60.5q0 35 -22.5 59.5t-62.5 24.5q-39 0 -72 -34q-9 -9 -15 -3l-17 19q-4 3 -2 8l7 10l64 110h51l-39 -66q16 2 24 2z" />
    <glyph glyph-name="onesuperior" unicode="&#xb9;" horiz-adv-x="277" 
d="M164 770h46q12 0 12 -12v-745q0 -13 -12 -13h-52q-14 0 -14 13v607l-89 -25q-12 -2 -13 9l-7 39q0 10 9 12q63 25 106 105l1 5q3 5 13 5z" />
    <glyph glyph-name="ordmasculine" unicode="&#xba;" horiz-adv-x="592" 
d="M297 -6q105 0 180 73.5t75 179.5q0 108 -75 182t-180 74q-107 0 -182 -74t-75 -182q0 -106 75.5 -179.5t181.5 -73.5zM297 65q-77 0 -130 54.5t-53 127.5q0 75 53 129.5t130 54.5q76 0 128.5 -54.5t52.5 -129.5q0 -73 -52.5 -127.5t-128.5 -54.5z" />
    <glyph glyph-name="guillemotright" unicode="&#xbb;" horiz-adv-x="521" 
d="M118 17l151 196q5 5 5 14.5t-5 14.5l-149 198q-4 6 -13 6h-46q-17 0 -9 -18l140 -200l-142 -200q-4 -8 -1 -13.5t10 -5.5h45q6 0 14 8zM319 15l150 200q11 15 0 29l-153 194q-6 8 -14 8h-43q-7 0 -10 -6t1 -13l141 -196l-139 -204q-4 -7 -2 -12.5t10 -5.5h49q6 0 10 6z
" />
    <glyph glyph-name="onequarter" unicode="&#xbc;" horiz-adv-x="728" 
d="M557 800h24q19 0 11 -16l-417 -772q-5 -12 -16 -12h-24q-18 0 -11 16l416 772q7 12 17 12zM133 457v231l-71 -17q-9 -2 -10 5l-2 25q0 7 5 9q59 23 83 86q2 3 7 3h32q9 0 9 -8v-334q0 -9 -9 -9h-34q-10 0 -10 9zM632 140h40q6 0 6 -6v-33q0 -7 -6 -7h-40v-88q0 -6 -6 -6
h-34q-6 0 -6 6v88h-135q-6 0 -6 7v33q0 4 3 5q67 48 91 118q18 51 18 96q0 6 6 6h36q5 0 5 -5q-1 -71 -35 -142q-19 -36 -61 -72h78v24q0 6 5 6l36 4q5 0 5 -6v-28z" />
    <glyph glyph-name="onehalf" unicode="&#xbd;" horiz-adv-x="744" 
d="M557 800h24q19 0 11 -16l-417 -772q-5 -12 -16 -12h-24q-18 0 -11 16l416 772q7 12 17 12zM133 457v231l-71 -17q-9 -2 -10 5l-2 25q0 7 5 9q59 23 83 86q2 3 7 3h32q9 0 9 -8v-334q0 -9 -9 -9h-34q-10 0 -10 9zM546 49h141q5 0 5 -5v-38q0 -6 -5 -6h-217q-6 0 -6 6v14
l24 29h1l114 125q2 3 8.5 10.5t9 11l7.5 10t7 10.5t4.5 10.5t3.5 12.5t1 12q0 26 -21.5 45.5t-52.5 19.5q-42 0 -79 -46q-3 -5 -8 0l-23 23q-4 3 -1 8q35 50 90 60t98 -22q39 -29 43 -77t-31 -88z" />
    <glyph glyph-name="threequarters" unicode="&#xbe;" horiz-adv-x="721" 
d="M255 481q-26 -30 -64.5 -40t-79.5 5t-69 54q-3 5 0 8l23 23q5 3 8 -1q26 -38 67.5 -47t74.5 22q14 15 15.5 38.5t-11 42t-36 28t-58.5 -4.5q-2 -2 -6 2l-19 23q-4 4 0 7l109 113h-152q-6 0 -6 5v33q0 8 6 8h206q7 0 7 -7v-36q0 -2 -2 -4l-97 -98q43 1 73 -30t32 -70
t-21 -74zM560 800h25q18 0 10 -16l-416 -772q-7 -12 -16 -12h-25q-8 0 -11 4.5t1 11.5l416 772q5 12 16 12zM634 140h40q7 0 7 -6v-33q0 -7 -7 -7h-40v-88q0 -6 -6 -6h-33q-7 0 -7 6v88h-135q-6 0 -6 7v33q0 4 3 5q67 48 91 118q18 47 18 96q0 6 6 6h36q5 0 5 -5
q0 -68 -34 -142q-18 -35 -62 -72h78v24q0 6 5 6l36 4q5 0 5 -6v-28z" />
    <glyph glyph-name="questiondown" unicode="&#xbf;" horiz-adv-x="462" 
d="M249 538q22 0 38 -15.5t16 -37.5t-16 -38t-38 -16t-37.5 16t-15.5 38t15.5 37.5t37.5 15.5zM415 -116l29 -31q6 -6 0 -16q-59 -76 -142.5 -101.5t-166.5 4.5q-59 20 -91.5 75t-27.5 117.5t49 104.5q30 28 63.5 50.5t49 31.5t26 31t10.5 60q0 13 12 13h46q13 0 13 -13
l1 -43q0 -27 -20 -51t-49 -43l-58 -38.5t-49.5 -47t-21.5 -60.5q-2 -58 36 -97.5t115 -39.5q89 0 162 94q8 8 14 0z" />
    <glyph glyph-name="Agrave" unicode="&#xc0;" horiz-adv-x="872" 
d="M530 896l-212 132q-10 7 -5 18l21 35q8 12 18 2l207 -143q7 -5 3 -14l-15 -26q-6 -9 -17 -4zM455 796l375 -783q6 -13 -7 -13h-61q-10 0 -14 9l-70 149h-483l-70 -149q-5 -9 -13 -9h-63q-13 0 -7 13l375 783q5 9 12 9h14q8 0 12 -9zM229 230h415l-208 440z" />
    <glyph glyph-name="Aacute" unicode="&#xc1;" horiz-adv-x="872" 
d="M317 900l-15 26q-6 8 2 14l207 143q11 10 18 -2l21 -35q6 -10 -5 -18l-212 -132q-11 -5 -16 4zM455 796l375 -783q6 -13 -7 -13h-61q-10 0 -14 9l-70 149h-483l-70 -149q-5 -9 -13 -9h-63q-13 0 -7 13l375 783q5 9 12 9h14q8 0 12 -9zM229 230h415l-208 440z" />
    <glyph glyph-name="Acircumflex" unicode="&#xc2;" horiz-adv-x="872" 
d="M437 1008l-181 -123q-8 -4 -13.5 -2t-5.5 9v36q0 5 7 12l179 134q13 9 28 0l179 -134q7 -5 7 -12v-36q0 -7 -5.5 -9t-12.5 2zM455 796l375 -783q6 -13 -7 -13h-61q-10 0 -14 9l-70 149h-483l-70 -149q-5 -9 -13 -9h-63q-13 0 -7 13l375 783q5 9 12 9h14q8 0 12 -9z
M229 230h415l-208 440z" />
    <glyph glyph-name="Atilde" unicode="&#xc3;" horiz-adv-x="872" 
d="M238 944l-23 25q-6 6 -1 15q6 9 17 22t44 33t68 20q38 0 69 -19.5l59.5 -39t58.5 -19.5q52 0 97 45q6 9 14 1l23 -26q7 -7 0 -14l-2 -3q-3 -3 -6.5 -7t-9 -9.5t-12.5 -11t-15.5 -11.5t-18 -11t-20 -9t-23 -6.5t-25.5 -2.5q-31 0 -56.5 12t-40 27t-38.5 27t-52 12
q-50 0 -92 -48q-7 -8 -15 -2zM455 796l375 -783q6 -13 -7 -13h-61q-10 0 -14 9l-70 149h-483l-70 -149q-5 -9 -13 -9h-63q-13 0 -7 13l375 783q5 9 12 9h14q8 0 12 -9zM229 230h415l-208 440z" />
    <glyph glyph-name="Adieresis" unicode="&#xc4;" horiz-adv-x="872" 
d="M298 980q-18 0 -31 13t-13 32t13 32t31 13q20 0 33 -13t13 -32t-13 -32t-33 -13zM576 980q-18 0 -31.5 13t-13.5 32t13.5 32t31.5 13q19 0 32 -13t13 -32t-13 -32t-32 -13zM455 796l375 -783q6 -13 -7 -13h-61q-10 0 -14 9l-70 149h-483l-70 -149q-5 -9 -13 -9h-63
q-13 0 -7 13l375 783q5 9 12 9h14q8 0 12 -9zM229 230h415l-208 440z" />
    <glyph glyph-name="Aring" unicode="&#xc5;" horiz-adv-x="872" 
d="M438 839q-50 0 -85.5 35.5t-35.5 85.5t35.5 85t85.5 35q49 0 84 -35.5t35 -84.5q0 -50 -35 -85.5t-84 -35.5zM438 1036q-32 0 -54.5 -22.5t-22.5 -53.5q0 -32 22.5 -54.5t54.5 -22.5t54 22.5t22 54.5t-22 54t-54 22zM455 796l375 -783q6 -13 -7 -13h-61q-10 0 -14 9
l-70 149h-483l-70 -149q-5 -9 -13 -9h-63q-13 0 -7 13l375 783q5 9 12 9h14q8 0 12 -9zM229 230h415l-208 440z" />
    <glyph glyph-name="AE" unicode="&#xc6;" horiz-adv-x="1154" 
d="M1081 724h-434v-293h268q14 0 14 -14v-48q0 -13 -14 -13h-268v-280h434q14 0 14 -14v-48q0 -14 -14 -14h-501q-12 0 -12 13v108h-369l-71 -112q-6 -9 -14 -9h-64q-14 0 -8 13l488 774q8 13 18 13h533q14 0 14 -13v-50q0 -13 -14 -13zM245 193h323v508z" />
    <glyph glyph-name="Ccedilla" unicode="&#xc7;" 
d="M705 169l42 -35q11 -8 -4 -22q-119 -119 -289 -119h-1l-35 -59q16 2 24 2q54 0 92.5 -38t38.5 -92q0 -53 -39 -92t-94 -39q-67 0 -107 51q-5 6 -1 10l17 18q9 8 15 1q32 -34 74 -34q41 0 64.5 24.5t23.5 60.5q0 35 -22.5 59.5t-62.5 24.5q-39 0 -72 -34q-9 -9 -15 -3
l-17 19q-4 3 -2 8l7 10l62 106q-153 18 -256 132t-103 271q0 170 120 289t289 119q172 0 291 -119q13 -13 4 -21l-42 -35q-10 -9 -20 1q-37 39 -97 68.5t-130 29.5q-78 0 -143.5 -30t-107 -78t-64 -106t-22.5 -118q0 -82 38 -156t117 -124t182 -50q128 0 224 96q12 12 21 4z
" />
    <glyph glyph-name="Egrave" unicode="&#xc8;" horiz-adv-x="661" 
d="M434 889l-212 132q-10 7 -5 18l21 35q8 12 18 2l207 -143q7 -5 3 -14l-15 -26q-6 -9 -17 -4zM588 724h-434v-293h268q14 0 14 -14v-48q0 -13 -14 -13h-268v-280h434q14 0 14 -14v-48q0 -14 -14 -14h-500q-13 0 -13 13v774q0 13 13 13h500q14 0 14 -13v-50q0 -13 -14 -13z
" />
    <glyph glyph-name="Eacute" unicode="&#xc9;" horiz-adv-x="661" 
d="M220 893l-15 26q-6 8 2 14l207 143q11 10 18 -2l21 -35q6 -10 -5 -18l-212 -132q-11 -5 -16 4zM588 724h-434v-293h268q14 0 14 -14v-48q0 -13 -14 -13h-268v-280h434q14 0 14 -14v-48q0 -14 -14 -14h-500q-13 0 -13 13v774q0 13 13 13h500q14 0 14 -13v-50
q0 -13 -14 -13z" />
    <glyph glyph-name="Ecircumflex" unicode="&#xca;" horiz-adv-x="661" 
d="M341 1001l-181 -123q-8 -4 -13.5 -2t-5.5 9v36q0 5 7 12l179 134q13 9 28 0l179 -134q7 -5 7 -12v-36q0 -7 -5.5 -9t-12.5 2zM588 724h-434v-293h268q14 0 14 -14v-48q0 -13 -14 -13h-268v-280h434q14 0 14 -14v-48q0 -14 -14 -14h-500q-13 0 -13 13v774q0 13 13 13h500
q14 0 14 -13v-50q0 -13 -14 -13z" />
    <glyph glyph-name="Edieresis" unicode="&#xcb;" horiz-adv-x="661" 
d="M201 973q-18 0 -31 13t-13 32t13 32t31 13q20 0 33 -13t13 -32t-13 -32t-33 -13zM479 973q-18 0 -31.5 13t-13.5 32t13.5 32t31.5 13q19 0 32 -13t13 -32t-13 -32t-32 -13zM588 724h-434v-293h268q14 0 14 -14v-48q0 -13 -14 -13h-268v-280h434q14 0 14 -14v-48
q0 -14 -14 -14h-500q-13 0 -13 13v774q0 13 13 13h500q14 0 14 -13v-50q0 -13 -14 -13z" />
    <glyph glyph-name="Igrave" unicode="&#xcc;" horiz-adv-x="237" 
d="M0 1016l212 -132q11 -5 17 4l15 26q4 9 -3 14l-207 143q-10 10 -18 -2l-21 -35q-5 -11 5 -18zM144 800h-51q-13 0 -13 -13v-774q0 -13 13 -13h52q12 0 12 13v774q0 13 -13 13z" />
    <glyph glyph-name="Iacute" unicode="&#xcd;" horiz-adv-x="237" 
d="M15 884l212 132q11 8 5 18l-21 35q-7 12 -18 2l-207 -143q-8 -6 -2 -14l15 -26q5 -9 16 -4zM144 800h-51q-13 0 -13 -13v-774q0 -13 13 -13h52q12 0 12 13v774q0 13 -13 13z" />
    <glyph glyph-name="Icircumflex" unicode="&#xce;" horiz-adv-x="237" 
d="M105 1062l-179 -134q-7 -7 -7 -12v-36q0 -7 5.5 -9t13.5 2l181 123l182 -123q7 -4 12.5 -2t5.5 9v36q0 7 -7 12l-179 134q-15 9 -28 0zM144 800h-51q-13 0 -13 -13v-774q0 -13 13 -13h52q12 0 12 13v774q0 13 -13 13z" />
    <glyph glyph-name="Idieresis" unicode="&#xcf;" horiz-adv-x="237" 
d="M-20 968q-18 0 -31 13t-13 32t13 32t31 13q20 0 33 -13t13 -32t-13 -32t-33 -13zM258 968q-18 0 -31.5 13t-13.5 32t13.5 32t31.5 13q19 0 32 -13t13 -32t-13 -32t-32 -13zM144 800h-51q-13 0 -13 -13v-774q0 -13 13 -13h52q12 0 12 13v774q0 13 -13 13z" />
    <glyph glyph-name="Eth" unicode="&#xd0;" horiz-adv-x="816" 
d="M83 800h270q99 0 178.5 -34.5t128.5 -91t75 -126t26 -143.5q0 -78 -26 -149.5t-75 -129t-128 -92t-176 -34.5h-273q-13 0 -13 13v349h-37q-13 0 -13 13v49q0 14 13 14h37v349q0 13 13 13zM149 76h211q100 0 175 48.5t111 122t35 158.5q0 62 -21 119t-60 102t-101 71.5
t-139 26.5h-212v-286h188q12 0 12 -12v-51q0 -13 -12 -13h-187v-286z" />
    <glyph glyph-name="Ntilde" unicode="&#xd1;" horiz-adv-x="835" 
d="M201 949l23 -25q8 -6 15 2q42 48 92 48q28 0 52 -12t38.5 -27t40 -27t56.5 -12q13 0 25.5 2.5t23 6.5t20 9t18 11t15.5 11.5t12.5 11t9 9.5t6.5 7l2 3q7 7 0 14l-23 26q-8 8 -14 -1q-45 -45 -97 -45q-30 0 -58.5 19.5l-59.5 39t-69 19.5q-35 0 -68 -20t-44 -33t-17 -22
q-5 -9 1 -15zM693 800h55q12 0 12 -11v-778q0 -11 -12 -11h-21q-20 0 -48 31l-526 621v-639q0 -13 -13 -13h-52q-13 0 -13 13v775q0 12 12 12h33q9 0 19 -11l543 -645v645q0 11 11 11z" />
    <glyph glyph-name="Ograve" unicode="&#xd2;" horiz-adv-x="941" 
d="M353 1026l212 -132q11 -5 17 4l15 26q4 9 -3 14l-207 143q-10 10 -18 -2l-21 -35q-6 -11 5 -18zM471 -7q170 0 290 118.5t120 288.5t-120 288.5t-290 118.5q-171 0 -291 -118.5t-120 -288.5t120 -288.5t291 -118.5zM471 69q-137 0 -235 97t-98 234t98 234t235 97t234 -97
t97 -234t-97 -234t-234 -97z" />
    <glyph glyph-name="Oacute" unicode="&#xd3;" horiz-adv-x="941" 
d="M367 894l212 132q11 8 5 18l-21 35q-7 12 -18 2l-207 -143q-8 -6 -2 -14l15 -26q5 -9 16 -4zM471 -7q170 0 290 118.5t120 288.5t-120 288.5t-290 118.5q-171 0 -291 -118.5t-120 -288.5t120 -288.5t291 -118.5zM471 69q-137 0 -235 97t-98 234t98 234t235 97t234 -97
t97 -234t-97 -234t-234 -97z" />
    <glyph glyph-name="Ocircumflex" unicode="&#xd4;" horiz-adv-x="941" 
d="M457 1072l-179 -134q-7 -7 -7 -12v-36q0 -7 5.5 -9t13.5 2l181 123l182 -123q7 -4 12.5 -2t5.5 9v36q0 7 -7 12l-179 134q-15 9 -28 0zM471 -7q170 0 290 118.5t120 288.5t-120 288.5t-290 118.5q-171 0 -291 -118.5t-120 -288.5t120 -288.5t291 -118.5zM471 69
q-137 0 -235 97t-98 234t98 234t235 97t234 -97t97 -234t-97 -234t-234 -97z" />
    <glyph glyph-name="Otilde" unicode="&#xd5;" horiz-adv-x="941" 
d="M249 967l23 -25q8 -6 15 2q42 48 92 48q28 0 52 -12t38.5 -27t40 -27t56.5 -12q13 0 25.5 2.5t23 6.5t20 9t18 11t15.5 11.5t12.5 11t9 9.5t6.5 7l2 3q7 7 0 14l-23 26q-8 8 -14 -1q-45 -45 -97 -45q-30 0 -58.5 19.5l-59.5 39t-69 19.5q-35 0 -68 -20t-44 -33t-17 -22
q-5 -9 1 -15zM471 -7q170 0 290 118.5t120 288.5t-120 288.5t-290 118.5q-171 0 -291 -118.5t-120 -288.5t120 -288.5t291 -118.5zM471 69q-137 0 -235 97t-98 234t98 234t235 97t234 -97t97 -234t-97 -234t-234 -97z" />
    <glyph glyph-name="Odieresis" unicode="&#xd6;" horiz-adv-x="941" 
d="M332 978q-18 0 -31 13t-13 32t13 32t31 13q20 0 33 -13t13 -32t-13 -32t-33 -13zM610 978q-18 0 -31.5 13t-13.5 32t13.5 32t31.5 13q19 0 32 -13t13 -32t-13 -32t-32 -13zM471 -7q170 0 290 118.5t120 288.5t-120 288.5t-290 118.5q-171 0 -291 -118.5t-120 -288.5
t120 -288.5t291 -118.5zM471 69q-137 0 -235 97t-98 234t98 234t235 97t234 -97t97 -234t-97 -234t-234 -97z" />
    <glyph glyph-name="multiply" unicode="&#xd7;" horiz-adv-x="513" 
d="M306 385l142 -143q10 -8 0 -17l-32 -32q-9 -9 -17 1l-142 142l-143 -142q-8 -10 -17 -1l-32 32q-9 9 0 17l143 143l-143 142q-9 9 0 17l32 33q8 7 17 0l143 -143l142 143q9 7 17 0l32 -33q10 -8 0 -17z" />
    <glyph glyph-name="Oslash" unicode="&#xd8;" horiz-adv-x="975" 
d="M874 825l39 -38q8 -9 -1 -18l-108 -108q94 -113 94 -261q0 -170 -119.5 -288.5t-289.5 -118.5q-148 0 -261 91l-107 -107q-9 -9 -17 0l-39 38q-9 9 0 18l107 107q-94 112 -94 260q0 170 120 288.5t291 118.5q148 0 259 -92l109 109q8 10 17 1zM156 400q0 -114 72 -205
l465 465q-88 71 -204 71q-137 0 -235 -97t-98 -234zM820 400q0 115 -71 205l-465 -465q90 -71 205 -71q136 0 233.5 97t97.5 234z" />
    <glyph glyph-name="Ugrave" unicode="&#xd9;" horiz-adv-x="769" 
d="M265 1011l212 -132q11 -5 17 4l15 26q4 9 -3 14l-207 143q-10 10 -18 -2l-21 -35q-6 -11 5 -18zM687 800h-53q-14 0 -14 -13v-481q0 -116 -71.5 -176.5t-166.5 -60.5q-93 0 -163 60.5t-70 176.5v481q0 13 -13 13h-52q-14 0 -14 -13v-492q1 -126 85.5 -214t226.5 -88
q143 0 229.5 88t87.5 214v492q0 13 -12 13z" />
    <glyph glyph-name="Uacute" unicode="&#xda;" horiz-adv-x="769" 
d="M279 879l212 132q11 8 5 18l-21 35q-7 12 -18 2l-207 -143q-8 -6 -2 -14l15 -26q5 -9 16 -4zM687 800h-53q-14 0 -14 -13v-481q0 -116 -71.5 -176.5t-166.5 -60.5q-93 0 -163 60.5t-70 176.5v481q0 13 -13 13h-52q-14 0 -14 -13v-492q1 -126 85.5 -214t226.5 -88
q143 0 229.5 88t87.5 214v492q0 13 -12 13z" />
    <glyph glyph-name="Ucircumflex" unicode="&#xdb;" horiz-adv-x="769" 
d="M370 1056l-179 -134q-7 -7 -7 -12v-36q0 -7 5.5 -9t13.5 2l181 123l182 -123q8 -4 13 -2t5 9v36q0 7 -7 12l-179 134q-15 9 -28 0zM687 800h-53q-14 0 -14 -13v-481q0 -116 -71.5 -176.5t-166.5 -60.5q-93 0 -163 60.5t-70 176.5v481q0 13 -13 13h-52q-14 0 -14 -13v-492
q1 -126 85.5 -214t226.5 -88q143 0 229.5 88t87.5 214v492q0 13 -12 13z" />
    <glyph glyph-name="Udieresis" unicode="&#xdc;" horiz-adv-x="769" 
d="M244 963q-18 0 -31 13t-13 32t13 32t31 13q20 0 33 -13t13 -32t-13 -32t-33 -13zM522 963q-18 0 -31.5 13t-13.5 32t13.5 32t31.5 13q19 0 32 -13t13 -32t-13 -32t-32 -13zM687 800h-53q-14 0 -14 -13v-481q0 -116 -71.5 -176.5t-166.5 -60.5q-93 0 -163 60.5t-70 176.5
v481q0 13 -13 13h-52q-14 0 -14 -13v-492q1 -126 85.5 -214t226.5 -88q143 0 229.5 88t87.5 214v492q0 13 -12 13z" />
    <glyph glyph-name="Yacute" unicode="&#xdd;" horiz-adv-x="749" 
d="M277 881l212 132q11 8 5 18l-21 35q-7 12 -18 2l-207 -143q-8 -6 -2 -14l15 -26q5 -9 16 -4zM656 800h71q4 0 6 -4t-1 -8l-319 -457v-317q0 -14 -12 -14h-40q-26 0 -26 28v303l-319 457q-2 4 0 8t6 4h70q7 0 12 -10l270 -382l270 382q7 10 12 10z" />
    <glyph glyph-name="Thorn" unicode="&#xde;" horiz-adv-x="644" 
d="M149 656h206q116 0 187.5 -78.5t71.5 -173.5q0 -103 -70.5 -181.5t-188.5 -78.5h-206v-130q0 -14 -12 -14h-51q-13 0 -13 14v773q0 13 13 13h50q13 0 13 -13v-131zM149 217h199q51 0 91.5 19.5t61.5 52t30.5 71t0 78t-30.5 72t-61.5 53t-91.5 20.5h-199v-366z" />
    <glyph glyph-name="germandbls" unicode="&#xdf;" horiz-adv-x="640" 
d="M452 421q75 -31 109 -85.5t34 -116.5q0 -101 -70 -160t-167 -59h-31q-11 0 -11 11v43q0 10 14 12q194 4 194 158q0 70 -56.5 119t-151.5 49v46q0 11 8 13l38 3q122 9 122 121q0 64 -46 109.5t-129 45.5q-87 0 -135 -54t-48 -153l-1 -512q0 -11 -10 -11h-54q-11 0 -11 11
l1 523q0 126 70.5 197.5t187.5 71.5q108 0 179 -64.5t72 -163.5q0 -53 -22 -91t-86 -63z" />
    <glyph glyph-name="agrave" unicode="&#xe0;" horiz-adv-x="525" 
d="M153 755l212 -132q11 -5 17 4l15 26q4 9 -3 14l-207 143q-10 10 -18 -2l-21 -35q-6 -11 5 -18zM470 19q-14 131 -7 290q4 89 -42.5 140.5t-136.5 51.5q-115 0 -208 -51q-15 -7 -8 -19l17 -38q5 -12 19 -5q96 46 177 46q113 0 109 -114q-71 -12 -117.5 -22t-94 -26
t-74 -35t-43 -46.5t-16.5 -63.5q0 -61 43 -96.5t118 -35.5q59 0 101 15t90 46q6 -56 22 -56h42q12 0 9 19zM219 56q-43 0 -70 17.5t-27 54.5q0 26 18 45.5t54.5 33t73 22.5t90.5 20l31 6q-3 -75 0 -142q-84 -57 -170 -57z" />
    <glyph glyph-name="aacute" unicode="&#xe1;" horiz-adv-x="525" 
d="M168 623l212 132q11 8 5 18l-21 35q-7 12 -18 2l-207 -143q-8 -6 -2 -14l15 -26q5 -9 16 -4zM470 19q-14 131 -7 290q4 89 -42.5 140.5t-136.5 51.5q-115 0 -208 -51q-15 -7 -8 -19l17 -38q5 -12 19 -5q96 46 177 46q113 0 109 -114q-71 -12 -117.5 -22t-94 -26t-74 -35
t-43 -46.5t-16.5 -63.5q0 -61 43 -96.5t118 -35.5q59 0 101 15t90 46q6 -56 22 -56h42q12 0 9 19zM219 56q-43 0 -70 17.5t-27 54.5q0 26 18 45.5t54.5 33t73 22.5t90.5 20l31 6q-3 -75 0 -142q-84 -57 -170 -57z" />
    <glyph glyph-name="acircumflex" unicode="&#xe2;" horiz-adv-x="525" 
d="M258 801l-179 -134q-7 -7 -7 -12v-36q0 -7 5.5 -9t13.5 2l181 123l182 -123q8 -4 13 -2t5 9v36q0 7 -7 12l-179 134q-15 9 -28 0zM470 19q-14 131 -7 290q4 89 -42.5 140.5t-136.5 51.5q-115 0 -208 -51q-15 -7 -8 -19l17 -38q5 -12 19 -5q96 46 177 46q113 0 109 -114
q-71 -12 -117.5 -22t-94 -26t-74 -35t-43 -46.5t-16.5 -63.5q0 -61 43 -96.5t118 -35.5q59 0 101 15t90 46q6 -56 22 -56h42q12 0 9 19zM219 56q-43 0 -70 17.5t-27 54.5q0 26 18 45.5t54.5 33t73 22.5t90.5 20l31 6q-3 -75 0 -142q-84 -57 -170 -57z" />
    <glyph glyph-name="atilde" unicode="&#xe3;" horiz-adv-x="525" 
d="M50 696l23 -25q8 -6 15 2q42 48 92 48q28 0 52 -12t38.5 -27t40 -27t56.5 -12q13 0 25.5 2.5t23 6.5t20 9t18 11t15.5 11.5t12.5 11t9 9.5t5.5 7l3 3q7 7 0 14l-23 26q-8 8 -14 -1q-45 -45 -97 -45q-30 0 -58.5 19.5l-59.5 39t-69 19.5q-35 0 -68 -20t-44 -33t-17 -22
q-5 -9 1 -15zM470 19q-14 131 -7 290q4 89 -42.5 140.5t-136.5 51.5q-115 0 -208 -51q-15 -7 -8 -19l17 -38q5 -12 19 -5q96 46 177 46q113 0 109 -114q-71 -12 -117.5 -22t-94 -26t-74 -35t-43 -46.5t-16.5 -63.5q0 -61 43 -96.5t118 -35.5q59 0 101 15t90 46q6 -56 22 -56
h42q12 0 9 19zM219 56q-43 0 -70 17.5t-27 54.5q0 26 18 45.5t54.5 33t73 22.5t90.5 20l31 6q-3 -75 0 -142q-84 -57 -170 -57z" />
    <glyph glyph-name="adieresis" unicode="&#xe4;" horiz-adv-x="525" 
d="M133 707q-18 0 -31 13t-13 32t13 32t31 13q20 0 33 -13t13 -32t-13 -32t-33 -13zM411 707q-18 0 -31.5 13t-13.5 32t13.5 32t31.5 13q19 0 32 -13t13 -32t-13 -32t-32 -13zM470 19q-14 131 -7 290q4 89 -42.5 140.5t-136.5 51.5q-115 0 -208 -51q-15 -7 -8 -19l17 -38
q5 -12 19 -5q96 46 177 46q113 0 109 -114q-71 -12 -117.5 -22t-94 -26t-74 -35t-43 -46.5t-16.5 -63.5q0 -61 43 -96.5t118 -35.5q59 0 101 15t90 46q6 -56 22 -56h42q12 0 9 19zM219 56q-43 0 -70 17.5t-27 54.5q0 26 18 45.5t54.5 33t73 22.5t90.5 20l31 6q-3 -75 0 -142
q-84 -57 -170 -57z" />
    <glyph glyph-name="aring" unicode="&#xe5;" horiz-adv-x="525" 
d="M273 566q-50 0 -85.5 35.5t-35.5 85.5t35.5 85t85.5 35q49 0 84 -35.5t35 -84.5q0 -50 -35 -85.5t-84 -35.5zM273 610q32 0 54 22.5t22 54.5t-22 54t-54 22t-54.5 -22.5t-22.5 -53.5q0 -32 22.5 -54.5t54.5 -22.5zM470 19q-14 131 -7 290q4 89 -42.5 140.5t-136.5 51.5
q-115 0 -208 -51q-15 -7 -8 -19l17 -38q5 -12 19 -5q96 46 177 46q113 0 109 -114q-71 -12 -117.5 -22t-94 -26t-74 -35t-43 -46.5t-16.5 -63.5q0 -61 43 -96.5t118 -35.5q59 0 101 15t90 46q6 -56 22 -56h42q12 0 9 19zM219 56q-43 0 -70 17.5t-27 54.5q0 26 18 45.5
t54.5 33t73 22.5t90.5 20l31 6q-3 -75 0 -142q-84 -57 -170 -57z" />
    <glyph glyph-name="ae" unicode="&#xe6;" horiz-adv-x="914" 
d="M876 261q0 -47 -48 -47h-361q7 -62 56 -107t125 -45q93 0 159 68q12 9 20 -1l14 -17q8 -10 1 -18q-76 -100 -202 -100q-102 0 -174 67l4 -42q3 -19 -9 -19h-42q-16 0 -22 56q-48 -31 -90 -46t-101 -15q-75 0 -118 35.5t-43 96.5q0 36 16.5 63.5t43 46.5t74 35t94 26
t117.5 22q4 114 -109 114q-81 0 -177 -46q-14 -7 -19 5l-17 38q-7 12 8 19q93 51 208 51q118 0 161 -88q71 89 189 89q105 0 173.5 -71t68.5 -170zM467 275h330q-2 57 -45 107t-120 50q-76 0 -119.5 -49.5t-45.5 -107.5zM219 56q86 0 170 57q-3 49 -1 122v13v7
q-148 -31 -188 -46q-78 -30 -78 -81q0 -37 27 -54.5t70 -17.5z" />
    <glyph glyph-name="ccedilla" unicode="&#xe7;" horiz-adv-x="521" 
d="M451 130l25 -31q8 -9 1 -18q-77 -83 -173 -88l-35 -59q16 2 24 2q54 0 92.5 -38t38.5 -92q0 -53 -39 -92t-94 -39q-67 0 -107 51q-5 6 -1 10l17 18q9 8 15 1q32 -34 74 -34q41 0 64.5 24.5t23.5 60.5q0 35 -22.5 59.5t-62.5 24.5q-39 0 -72 -34q-9 -9 -15 -3l-17 19
q-4 3 -2 8l7 10l62 106q-92 14 -153.5 84.5t-61.5 166.5q0 107 74.5 181t179.5 74t175 -79q9 -10 1 -19l-27 -32q-7 -7 -18 2q-52 57 -127 57q-87 0 -136 -56t-49 -128q0 -71 49.5 -127t136.5 -56q71 0 133 67q10 8 19 -1z" />
    <glyph glyph-name="egrave" unicode="&#xe8;" horiz-adv-x="564" 
d="M166 754l212 -132q11 -5 17 4l15 26q4 9 -3 14l-207 143q-10 10 -18 -2l-21 -35q-5 -11 5 -18zM118 214h360q48 0 48 47q0 99 -68.5 170t-173.5 71q-104 0 -175 -73.5t-71 -180.5q0 -110 73.5 -182t179.5 -72q124 0 202 100q7 9 -2 18l-13 17q-8 11 -20 1
q-68 -68 -160 -68q-76 0 -124.5 45t-55.5 107zM448 275h-331q2 58 45.5 107.5t120.5 49.5q76 0 119 -50t46 -107z" />
    <glyph glyph-name="eacute" unicode="&#xe9;" horiz-adv-x="564" 
d="M181 622l212 132q11 8 5 18l-21 35q-7 12 -18 2l-207 -143q-8 -6 -2 -14l15 -26q5 -9 16 -4zM118 214h360q48 0 48 47q0 99 -68.5 170t-173.5 71q-104 0 -175 -73.5t-71 -180.5q0 -110 73.5 -182t179.5 -72q124 0 202 100q7 9 -2 18l-13 17q-8 11 -20 1q-68 -68 -160 -68
q-76 0 -124.5 45t-55.5 107zM448 275h-331q2 58 45.5 107.5t120.5 49.5q76 0 119 -50t46 -107z" />
    <glyph glyph-name="ecircumflex" unicode="&#xea;" horiz-adv-x="564" 
d="M271 800l-179 -134q-7 -7 -7 -12v-36q0 -7 5.5 -9t13.5 2l181 123l182 -123q7 -4 12.5 -2t5.5 9v36q0 7 -7 12l-179 134q-15 9 -28 0zM118 214h360q48 0 48 47q0 99 -68.5 170t-173.5 71q-104 0 -175 -73.5t-71 -180.5q0 -110 73.5 -182t179.5 -72q124 0 202 100
q7 9 -2 18l-13 17q-8 11 -20 1q-68 -68 -160 -68q-76 0 -124.5 45t-55.5 107zM448 275h-331q2 58 45.5 107.5t120.5 49.5q76 0 119 -50t46 -107z" />
    <glyph glyph-name="edieresis" unicode="&#xeb;" horiz-adv-x="564" 
d="M146 706q-18 0 -31 13t-13 32t13 32t31 13q20 0 33 -13t13 -32t-13 -32t-33 -13zM424 706q-18 0 -31.5 13t-13.5 32t13.5 32t31.5 13q19 0 32 -13t13 -32t-13 -32t-32 -13zM118 214h360q48 0 48 47q0 99 -68.5 170t-173.5 71q-104 0 -175 -73.5t-71 -180.5
q0 -110 73.5 -182t179.5 -72q124 0 202 100q7 9 -2 18l-13 17q-8 11 -20 1q-68 -68 -160 -68q-76 0 -124.5 45t-55.5 107zM448 275h-331q2 58 45.5 107.5t120.5 49.5q76 0 119 -50t46 -107z" />
    <glyph glyph-name="igrave" unicode="&#xec;" horiz-adv-x="226" 
d="M-4 755l212 -132q11 -5 17 4l15 26q4 9 -3 14l-207 143q-10 10 -18 -2l-21 -35q-5 -11 5 -18zM138 495h-50q-13 0 -13 -13v-455q0 -27 25 -27h39q12 0 12 13v469q0 13 -13 13z" />
    <glyph glyph-name="iacute" unicode="&#xed;" horiz-adv-x="226" 
d="M10 623l212 132q11 8 5 18l-21 35q-7 12 -18 2l-207 -143q-8 -6 -2 -14l15 -26q5 -9 16 -4zM138 495h-50q-13 0 -13 -13v-455q0 -27 25 -27h39q12 0 12 13v469q0 13 -13 13z" />
    <glyph glyph-name="icircumflex" unicode="&#xee;" horiz-adv-x="226" 
d="M101 801l-179 -134q-7 -7 -7 -12v-36q0 -7 5.5 -9t13.5 2l181 123l182 -123q7 -4 12.5 -2t5.5 9v36q0 7 -7 12l-179 134q-15 9 -28 0zM138 495h-50q-13 0 -13 -13v-455q0 -27 25 -27h39q12 0 12 13v469q0 13 -13 13z" />
    <glyph glyph-name="idieresis" unicode="&#xef;" horiz-adv-x="226" 
d="M-25 707q-18 0 -31 13t-13 32t13 32t31 13q20 0 33 -13t13 -32t-13 -32t-33 -13zM253 707q-18 0 -31.5 13t-13.5 32t13.5 32t31.5 13q19 0 32 -13t13 -32t-13 -32t-32 -13zM138 495h-50q-13 0 -13 -13v-455q0 -27 25 -27h39q12 0 12 13v469q0 13 -13 13z" />
    <glyph glyph-name="eth" unicode="&#xf0;" horiz-adv-x="597" 
d="M451 661l10 -12q97 -120 95 -317q-1 -152 -72.5 -245.5t-192.5 -93.5q-105 0 -178 73t-73 175t71.5 171.5t173.5 69.5q62 0 115.5 -35t79.5 -87q4 161 -93 267l-132 -72q-12 -7 -19 4l-5 9q-5 12 7 18l121 66q-76 64 -171 64q-12 0 -12 12l5 50q0 11 13 11
q128 -3 231 -101l58 32q11 6 17 -5l5 -9q7 -11 -5 -18zM468 238q1 69 -53.5 122t-127.5 53q-69 0 -120.5 -51.5t-51.5 -122.5t54 -123t124 -52t121.5 52t53.5 122z" />
    <glyph glyph-name="ntilde" unicode="&#xf1;" horiz-adv-x="579" 
d="M103 671l-23 25q-6 6 -1 15q6 9 17 22t44 33t68 20q38 0 69 -19.5l59.5 -39t58.5 -19.5q52 0 97 45q6 9 14 1l23 -26q7 -7 0 -14l-3 -3q-2 -3 -5.5 -7t-9 -9.5t-12.5 -11t-15.5 -11.5t-18 -11t-20 -9t-23 -6.5t-25.5 -2.5q-31 0 -56.5 12t-40 27t-38.5 27t-52 12
q-50 0 -92 -48q-7 -8 -15 -2zM525 314v-225q2 -48 4 -73q2 -16 -9 -16h-43q-27 0 -27 28v276q0 58 -35.5 93.5t-100.5 35.5q-92 0 -178 -84v-336q0 -13 -12 -13h-53q-11 0 -11 13v470q0 12 11 12h38q11 0 18.5 -9t8.5 -20v-41q89 77 185 77q84 0 144 -49t60 -139z" />
    <glyph glyph-name="ograve" unicode="&#xf2;" horiz-adv-x="592" 
d="M178 755l212 -132q11 -5 17 4l15 26q4 9 -3 14l-207 143q-10 10 -18 -2l-21 -35q-5 -11 5 -18zM297 -6q105 0 180 73.5t75 179.5q0 108 -75 182t-180 74q-107 0 -182 -74t-75 -182q0 -106 75.5 -179.5t181.5 -73.5zM297 65q-77 0 -130 54.5t-53 127.5q0 75 53 129.5
t130 54.5q76 0 128.5 -54.5t52.5 -129.5q0 -73 -52.5 -127.5t-128.5 -54.5z" />
    <glyph glyph-name="oacute" unicode="&#xf3;" horiz-adv-x="592" 
d="M192 623l212 132q11 8 5 18l-21 35q-7 12 -18 2l-207 -143q-8 -6 -2 -14l15 -26q5 -9 16 -4zM297 -6q105 0 180 73.5t75 179.5q0 108 -75 182t-180 74q-107 0 -182 -74t-75 -182q0 -106 75.5 -179.5t181.5 -73.5zM297 65q-77 0 -130 54.5t-53 127.5q0 75 53 129.5
t130 54.5q76 0 128.5 -54.5t52.5 -129.5q0 -73 -52.5 -127.5t-128.5 -54.5z" />
    <glyph glyph-name="ocircumflex" unicode="&#xf4;" horiz-adv-x="592" 
d="M283 801l-179 -134q-7 -7 -7 -12v-36q0 -7 5.5 -9t13.5 2l181 123l182 -123q7 -4 12.5 -2t5.5 9v36q0 7 -7 12l-179 134q-15 9 -28 0zM297 -6q105 0 180 73.5t75 179.5q0 108 -75 182t-180 74q-107 0 -182 -74t-75 -182q0 -106 75.5 -179.5t181.5 -73.5zM297 65
q-77 0 -130 54.5t-53 127.5q0 75 53 129.5t130 54.5q76 0 128.5 -54.5t52.5 -129.5q0 -73 -52.5 -127.5t-128.5 -54.5z" />
    <glyph glyph-name="otilde" unicode="&#xf5;" horiz-adv-x="592" 
d="M75 696l23 -25q8 -6 15 2q42 48 92 48q28 0 52 -12t38.5 -27t40 -27t56.5 -12q13 0 25.5 2.5t23 6.5t20 9t18 11t15.5 11.5t12.5 11t9 9.5t6.5 7l2 3q7 7 0 14l-23 26q-8 8 -14 -1q-45 -45 -97 -45q-30 0 -58.5 19.5l-59.5 39t-69 19.5q-35 0 -68 -20t-44 -33t-17 -22
q-5 -9 1 -15zM297 -6q105 0 180 73.5t75 179.5q0 108 -75 182t-180 74q-107 0 -182 -74t-75 -182q0 -106 75.5 -179.5t181.5 -73.5zM297 65q-77 0 -130 54.5t-53 127.5q0 75 53 129.5t130 54.5q76 0 128.5 -54.5t52.5 -129.5q0 -73 -52.5 -127.5t-128.5 -54.5z" />
    <glyph glyph-name="odieresis" unicode="&#xf6;" horiz-adv-x="592" 
d="M157 707q-18 0 -31 13t-13 32t13 32t31 13q20 0 33 -13t13 -32t-13 -32t-33 -13zM435 707q-18 0 -31.5 13t-13.5 32t13.5 32t31.5 13q19 0 32 -13t13 -32t-13 -32t-32 -13zM297 -6q105 0 180 73.5t75 179.5q0 108 -75 182t-180 74q-107 0 -182 -74t-75 -182
q0 -106 75.5 -179.5t181.5 -73.5zM297 65q-77 0 -130 54.5t-53 127.5q0 75 53 129.5t130 54.5q76 0 128.5 -54.5t52.5 -129.5q0 -73 -52.5 -127.5t-128.5 -54.5z" />
    <glyph glyph-name="divide" unicode="&#xf7;" horiz-adv-x="620" 
d="M309 559q-24 0 -42 18t-18 43q0 23 18 41t42 18q23 0 40 -18t17 -41q0 -25 -17 -43t-40 -18zM570 400v-44q0 -13 -13 -13h-499q-14 0 -14 13v43q0 14 14 14h499q13 0 13 -13zM309 74q-24 0 -42 17.5t-18 42.5q0 23 18 41.5t42 18.5q23 0 40 -18t17 -42q0 -25 -17 -42.5
t-40 -17.5z" />
    <glyph glyph-name="oslash" unicode="&#xf8;" horiz-adv-x="653" 
d="M573 518l27 -27q6 -7 -1 -14l-70 -70q56 -69 56 -160q0 -106 -75 -179.5t-180 -73.5q-90 0 -160 54l-75 -75q-7 -7 -14 0l-27 27q-6 6 0 13l75 75q-56 69 -56 159q0 108 75 182t182 74q89 0 159 -56l70 70q7 7 14 1zM148 247q0 -56 34 -106l255 254q-47 36 -107 36
q-77 0 -129.5 -54.5t-52.5 -129.5zM511 247q0 59 -35 108l-254 -255q48 -35 108 -35q76 0 128.5 54.5t52.5 127.5z" />
    <glyph glyph-name="ugrave" unicode="&#xf9;" horiz-adv-x="574" 
d="M376 623l-212 132q-10 7 -5 18l21 35q8 12 18 2l207 -143q7 -5 3 -14l-15 -26q-6 -9 -17 -4zM455 495h53q11 0 11 -14v-469q0 -12 -11 -12h-43q-8 0 -14.5 9.5t-6.5 18.5v43q-88 -78 -186 -78q-84 0 -144 49.5t-60 138.5v224q-2 49 -4 73q-2 17 9 17h43q27 0 27 -29v-275
q0 -59 35.5 -94.5t100.5 -35.5q92 0 179 89v331q0 14 11 14z" />
    <glyph glyph-name="uacute" unicode="&#xfa;" horiz-adv-x="574" 
d="M162 627l-15 26q-6 8 2 14l207 143q11 10 18 -2l21 -35q6 -10 -5 -18l-212 -132q-11 -5 -16 4zM455 495h53q11 0 11 -14v-469q0 -12 -11 -12h-43q-8 0 -14.5 9.5t-6.5 18.5v43q-88 -78 -186 -78q-84 0 -144 49.5t-60 138.5v224q-2 49 -4 73q-2 17 9 17h43q27 0 27 -29
v-275q0 -59 35.5 -94.5t100.5 -35.5q92 0 179 89v331q0 14 11 14z" />
    <glyph glyph-name="ucircumflex" unicode="&#xfb;" horiz-adv-x="574" 
d="M283 735l-181 -123q-8 -4 -13.5 -2t-5.5 9v36q0 5 7 12l179 134q13 9 28 0l179 -134q7 -5 7 -12v-36q0 -7 -5.5 -9t-12.5 2zM455 495h53q11 0 11 -14v-469q0 -12 -11 -12h-43q-8 0 -14.5 9.5t-6.5 18.5v43q-88 -78 -186 -78q-84 0 -144 49.5t-60 138.5v224q-2 49 -4 73
q-2 17 9 17h43q27 0 27 -29v-275q0 -59 35.5 -94.5t100.5 -35.5q92 0 179 89v331q0 14 11 14z" />
    <glyph glyph-name="udieresis" unicode="&#xfc;" horiz-adv-x="574" 
d="M143 707q-18 0 -31 13t-13 32t13 32t31 13q20 0 33 -13t13 -32t-13 -32t-33 -13zM421 707q-18 0 -31.5 13t-13.5 32t13.5 32t31.5 13q19 0 32 -13t13 -32t-13 -32t-32 -13zM455 495h53q11 0 11 -14v-469q0 -12 -11 -12h-43q-8 0 -14.5 9.5t-6.5 18.5v43q-88 -78 -186 -78
q-84 0 -144 49.5t-60 138.5v224q-2 49 -4 73q-2 17 9 17h43q27 0 27 -29v-275q0 -59 35.5 -94.5t100.5 -35.5q92 0 179 89v331q0 14 11 14z" />
    <glyph glyph-name="yacute" unicode="&#xfd;" horiz-adv-x="558" 
d="M184 623l212 132q11 8 5 18l-21 35q-7 12 -18 2l-207 -143q-8 -6 -2 -14l15 -26q5 -9 16 -4zM463 495h59q15 0 9 -14l-205 -423q-117 -241 -236 -364q-9 -9 -21 4l-30 29q-11 11 1 24q55 62 113 148t92 165l-212 418q-7 13 7 13h62q7 0 12 -8l171 -347l164 345
q4 10 14 10z" />
    <glyph glyph-name="thorn" unicode="&#xfe;" horiz-adv-x="579" 
d="M298 499q92 0 161 -69.5t69 -178.5q0 -110 -63 -184t-167 -74q-85 0 -157 53v-309q0 -14 -11.5 -22.5t-24.5 -8.5h-28q-11 0 -11 12v1009q0 6 -6 57q-2 16 9 16h46q26 0 26 -25v-323q71 47 157 47zM286 63q74 0 121 52t47 136q0 85 -51 131t-117 46q-77 0 -145 -48v-269
q70 -48 145 -48z" />
    <glyph glyph-name="ydieresis" unicode="&#xff;" horiz-adv-x="558" 
d="M149 707q-18 0 -31 13t-13 32t13 32t31 13q20 0 33 -13t13 -32t-13 -32t-33 -13zM427 707q-18 0 -31.5 13t-13.5 32t13.5 32t31.5 13q19 0 32 -13t13 -32t-13 -32t-32 -13zM463 495h59q15 0 9 -14l-205 -423q-117 -241 -236 -364q-9 -9 -21 4l-30 29q-11 11 1 24
q55 62 113 148t92 165l-212 418q-7 13 7 13h62q7 0 12 -8l171 -347l164 345q4 10 14 10z" />
    <glyph glyph-name="Amacron" unicode="&#x100;" horiz-adv-x="872" 
d="M642 976h-411q-10 0 -10 10v39q0 10 10 10h411q11 0 11 -10v-39q0 -10 -11 -10zM455 796l375 -783q6 -13 -7 -13h-61q-10 0 -14 9l-70 149h-483l-70 -149q-5 -9 -13 -9h-63q-13 0 -7 13l375 783q5 9 12 9h14q8 0 12 -9zM229 230h415l-208 440z" />
    <glyph glyph-name="amacron" unicode="&#x101;" horiz-adv-x="525" 
d="M56 713v39q0 10 10 10h411q11 0 11 -10v-39q0 -10 -11 -10h-411q-10 0 -10 10zM470 19q-14 131 -7 290q4 89 -42.5 140.5t-136.5 51.5q-115 0 -208 -51q-15 -7 -8 -19l17 -38q5 -12 19 -5q96 46 177 46q113 0 109 -114q-71 -12 -117.5 -22t-94 -26t-74 -35t-43 -46.5
t-16.5 -63.5q0 -61 43 -96.5t118 -35.5q59 0 101 15t90 46q6 -56 22 -56h42q12 0 9 19zM219 56q-43 0 -70 17.5t-27 54.5q0 26 18 45.5t54.5 33t73 22.5t90.5 20l31 6q-3 -75 0 -142q-84 -57 -170 -57z" />
    <glyph glyph-name="Abreve" unicode="&#x102;" horiz-adv-x="872" 
d="M437 891q-76 0 -127 46.5t-58 117.5q-2 19 12 19h33q9 0 11 -15q8 -55 46 -84t83 -29q42 0 81 29.5t47 82.5q4 16 12 16h33q14 0 11 -21q-8 -70 -59 -116t-125 -46zM455 796l375 -783q6 -13 -7 -13h-61q-10 0 -14 9l-70 149h-483l-70 -149q-5 -9 -13 -9h-63q-13 0 -7 13
l375 783q5 9 12 9h14q8 0 12 -9zM229 230h415l-208 440z" />
    <glyph glyph-name="abreve" unicode="&#x103;" horiz-adv-x="525" 
d="M88 782q7 -71 58 -117.5t127 -46.5q74 0 125 46t59 116q3 21 -11 21h-33q-8 0 -12 -16q-8 -53 -47 -82.5t-81 -29.5q-45 0 -83 29t-46 84q-2 15 -11 15h-33q-14 0 -12 -19zM470 19q-14 131 -7 290q4 89 -42.5 140.5t-136.5 51.5q-115 0 -208 -51q-15 -7 -8 -19l17 -38
q5 -12 19 -5q96 46 177 46q113 0 109 -114q-71 -12 -117.5 -22t-94 -26t-74 -35t-43 -46.5t-16.5 -63.5q0 -61 43 -96.5t118 -35.5q59 0 101 15t90 46q6 -56 22 -56h42q12 0 9 19zM219 56q-43 0 -70 17.5t-27 54.5q0 26 18 45.5t54.5 33t73 22.5t90.5 20l31 6q-3 -75 0 -142
q-84 -57 -170 -57z" />
    <glyph glyph-name="Aogonek" unicode="&#x104;" horiz-adv-x="872" 
d="M842 -192q6 3 12 0t6 -10v-23q0 -6 -8 -12q-59 -40 -137 -30q-48 6 -78 31.5t-30 71.5q0 50 48.5 96t118.5 68h-12q-10 0 -14 9l-70 149h-483l-70 -149q-5 -9 -13 -9h-63q-13 0 -7 13l375 783q5 9 12 9h14q8 0 12 -9l375 -783q6 -13 -7 -13h-8q-153 -72 -153 -148
q0 -36 25 -53t57 -17q51 0 98 26zM229 230h415l-208 440z" />
    <glyph glyph-name="aogonek" unicode="&#x105;" horiz-adv-x="525" 
d="M489 -192q6 3 12 0t6 -10v-23q0 -6 -8 -12q-59 -40 -137 -30q-48 6 -78 31.5t-30 71.5q0 50 48.5 96t118.5 68h-2q-16 0 -22 56q-48 -31 -90 -46t-101 -15q-75 0 -118 35.5t-43 96.5q0 36 16.5 63.5t43 46.5t74 35t94 26t117.5 22q4 114 -109 114q-81 0 -177 -46
q-14 -7 -19 5l-17 38q-7 12 8 19q93 51 208 51q90 0 136.5 -51.5t42.5 -140.5q-7 -159 7 -290q3 -19 -9 -19h1q-153 -72 -153 -148q0 -36 25 -53t57 -17q51 0 98 26zM389 113q-3 67 0 142q-149 -31 -188 -46q-79 -30 -79 -81q0 -37 27 -54.5t70 -17.5q86 0 170 57z" />
    <glyph glyph-name="Cacute" unicode="&#x106;" 
d="M349 886l212 132q11 8 5 18l-21 35q-7 12 -18 2l-207 -143q-8 -6 -2 -14l15 -26q5 -9 16 -4zM705 169l42 -35q11 -8 -4 -22q-119 -119 -289 -119t-289.5 118t-119.5 288t120 289t289 119q172 0 291 -119q13 -13 4 -21l-42 -35q-10 -9 -20 1q-37 39 -97 68.5t-130 29.5
q-78 0 -143.5 -30t-107 -78t-64 -106t-22.5 -118q0 -82 38 -156t117 -124t182 -50q128 0 224 96q12 12 21 4z" />
    <glyph glyph-name="cacute" unicode="&#x107;" horiz-adv-x="521" 
d="M173 623l212 132q11 8 5 18l-21 35q-7 12 -18 2l-207 -143q-8 -6 -2 -14l15 -26q5 -9 16 -4zM451 130l25 -31q8 -9 1 -18q-83 -88 -183 -88q-105 0 -179.5 73.5t-74.5 180.5t74.5 181t179.5 74t175 -79q9 -10 1 -19l-27 -32q-7 -7 -18 2q-52 57 -127 57q-87 0 -136 -56
t-49 -128q0 -71 49.5 -127t136.5 -56q71 0 133 67q10 8 19 -1z" />
    <glyph glyph-name="Cdotaccent" unicode="&#x10a;" 
d="M453 976q-17 0 -29.5 12t-12.5 30q0 17 12.5 29.5t29.5 12.5q18 0 30 -12.5t12 -29.5q0 -18 -12 -30t-30 -12zM705 169l42 -35q11 -8 -4 -22q-119 -119 -289 -119t-289.5 118t-119.5 288t120 289t289 119q172 0 291 -119q13 -13 4 -21l-42 -35q-10 -9 -20 1
q-37 39 -97 68.5t-130 29.5q-78 0 -143.5 -30t-107 -78t-64 -106t-22.5 -118q0 -82 38 -156t117 -124t182 -50q128 0 224 96q12 12 21 4z" />
    <glyph glyph-name="cdotaccent" unicode="&#x10b;" horiz-adv-x="521" 
d="M277 713q-17 0 -29.5 12t-12.5 30q0 17 12.5 29.5t29.5 12.5q18 0 30 -12.5t12 -29.5q0 -18 -12 -30t-30 -12zM451 130l25 -31q8 -9 1 -18q-83 -88 -183 -88q-105 0 -179.5 73.5t-74.5 180.5t74.5 181t179.5 74t175 -79q9 -10 1 -19l-27 -32q-7 -7 -18 2q-52 57 -127 57
q-87 0 -136 -56t-49 -128q0 -71 49.5 -127t136.5 -56q71 0 133 67q10 8 19 -1z" />
    <glyph glyph-name="Ccaron" unicode="&#x10c;" 
d="M467 868l178 134q7 5 7 11v36q0 8 -5 10t-13 -2l-181 -123l-182 123q-7 4 -12.5 2t-5.5 -10v-36q0 -6 7 -11l179 -134q15 -9 28 0zM705 169l42 -35q11 -8 -4 -22q-119 -119 -289 -119t-289.5 118t-119.5 288t120 289t289 119q172 0 291 -119q13 -13 4 -21l-42 -35
q-10 -9 -20 1q-37 39 -97 68.5t-130 29.5q-78 0 -143.5 -30t-107 -78t-64 -106t-22.5 -118q0 -82 38 -156t117 -124t182 -50q128 0 224 96q12 12 21 4z" />
    <glyph glyph-name="ccaron" unicode="&#x10d;" horiz-adv-x="521" 
d="M291 605l178 134q7 5 7 11v36q0 8 -5 10t-13 -2l-181 -123l-182 123q-7 4 -12.5 2t-5.5 -10v-36q0 -6 7 -11l179 -134q15 -9 28 0zM451 130l25 -31q8 -9 1 -18q-83 -88 -183 -88q-105 0 -179.5 73.5t-74.5 180.5t74.5 181t179.5 74t175 -79q9 -10 1 -19l-27 -32
q-7 -7 -18 2q-52 57 -127 57q-87 0 -136 -56t-49 -128q0 -71 49.5 -127t136.5 -56q71 0 133 67q10 8 19 -1z" />
    <glyph glyph-name="Dcaron" unicode="&#x10e;" horiz-adv-x="806" 
d="M387 865l178 134q7 5 7 11v36q0 8 -5 10t-13 -2l-181 -123l-182 123q-7 4 -12.5 2t-5.5 -10v-36q0 -6 7 -11l179 -134q15 -9 28 0zM73 800h270q99 0 178.5 -34.5t128.5 -91t75 -126t26 -143.5q0 -78 -26 -149.5t-75 -129t-128 -92t-176 -34.5h-273q-13 0 -13 13v774
q0 13 13 13zM139 76h211q100 0 175 48.5t111 122t35 158.5q0 62 -21 119t-60 102t-101 71.5t-139 26.5h-212z" />
    <glyph glyph-name="dcaron" unicode="&#x10f;" horiz-adv-x="708" 
d="M681 746q5 -47 -8 -107q-14 -60 -60 -106q-7 -7 -14 -3l-10 10q-6 3 -2 10q47 53 47 113q0 22 -1 33l-8 -1q-23 0 -38 14.5t-15 39.5q0 54 53 54q43 0 51 -39q3 -5 5 -18zM435 800h46q26 0 26 -25v-763q0 -12 -11 -12h-28q-14 0 -25 8.5t-11 22.5v16q-70 -54 -158 -54
q-104 0 -169 74t-65 184q0 109 70.5 178.5t163.5 69.5q89 0 158 -48v276q0 6 -6 57q-2 16 9 16zM286 63q76 0 146 50v265q-70 50 -146 50q-67 0 -119 -46t-52 -131q0 -83 48.5 -135.5t122.5 -52.5z" />
    <glyph glyph-name="Dcroat" unicode="&#x110;" horiz-adv-x="816" 
d="M83 800h270q99 0 178.5 -34.5t128.5 -91t75 -126t26 -143.5q0 -78 -26 -149.5t-75 -129t-128 -92t-176 -34.5h-273q-13 0 -13 13v349h-37q-13 0 -13 13v49q0 14 13 14h37v349q0 13 13 13zM149 76h211q100 0 175 48.5t111 122t35 158.5q0 62 -21 119t-60 102t-101 71.5
t-139 26.5h-212v-286h188q12 0 12 -12v-51q0 -13 -12 -13h-187v-286z" />
    <glyph glyph-name="dcroat" unicode="&#x111;" horiz-adv-x="622" 
d="M507 700h84q11 0 11 -10v-39q0 -10 -11 -10h-84v-629q0 -12 -11 -12h-28q-14 0 -25 8.5t-11 22.5v16q-70 -54 -158 -54q-104 0 -169 74t-65 184q0 109 70.5 178.5t163.5 69.5q89 0 158 -48v190h-251q-11 0 -11 10v39q0 10 11 10h251v27q0 6 -6 57q-2 16 9 16h46
q26 0 26 -25v-75zM286 63q76 0 146 50v265q-70 50 -146 50q-67 0 -119 -46t-52 -131q0 -83 48.5 -135.5t122.5 -52.5z" />
    <glyph glyph-name="Emacron" unicode="&#x112;" horiz-adv-x="661" 
d="M545 969h-411q-10 0 -10 10v39q0 10 10 10h411q11 0 11 -10v-39q0 -10 -11 -10zM588 724h-434v-293h268q14 0 14 -14v-48q0 -13 -14 -13h-268v-280h434q14 0 14 -14v-48q0 -14 -14 -14h-500q-13 0 -13 13v774q0 13 13 13h500q14 0 14 -13v-50q0 -13 -14 -13z" />
    <glyph glyph-name="emacron" unicode="&#x113;" horiz-adv-x="564" 
d="M69 712v39q0 10 10 10h411q11 0 11 -10v-39q0 -10 -11 -10h-411q-10 0 -10 10zM118 214h360q48 0 48 47q0 99 -68.5 170t-173.5 71q-104 0 -175 -73.5t-71 -180.5q0 -110 73.5 -182t179.5 -72q124 0 202 100q7 9 -2 18l-13 17q-8 11 -20 1q-68 -68 -160 -68
q-76 0 -124.5 45t-55.5 107zM448 275h-331q2 58 45.5 107.5t120.5 49.5q76 0 119 -50t46 -107z" />
    <glyph glyph-name="Edotaccent" unicode="&#x116;" horiz-adv-x="661" 
d="M340 979q-17 0 -29.5 12t-12.5 30q0 17 12.5 29.5t29.5 12.5q18 0 30 -12.5t12 -29.5q0 -18 -12 -30t-30 -12zM588 724h-434v-293h268q14 0 14 -14v-48q0 -13 -14 -13h-268v-280h434q14 0 14 -14v-48q0 -14 -14 -14h-500q-13 0 -13 13v774q0 13 13 13h500q14 0 14 -13
v-50q0 -13 -14 -13z" />
    <glyph glyph-name="edotaccent" unicode="&#x117;" horiz-adv-x="564" 
d="M285 712q-17 0 -29.5 12t-12.5 30q0 17 12.5 29.5t29.5 12.5q18 0 30 -12.5t12 -29.5q0 -18 -12 -30t-30 -12zM118 214h360q48 0 48 47q0 99 -68.5 170t-173.5 71q-104 0 -175 -73.5t-71 -180.5q0 -110 73.5 -182t179.5 -72q124 0 202 100q7 9 -2 18l-13 17q-8 11 -20 1
q-68 -68 -160 -68q-76 0 -124.5 45t-55.5 107zM448 275h-331q2 58 45.5 107.5t120.5 49.5q76 0 119 -50t46 -107z" />
    <glyph glyph-name="Eogonek" unicode="&#x118;" horiz-adv-x="661" 
d="M588 724h-434v-293h268q14 0 14 -14v-48q0 -13 -14 -13h-268v-280h434q14 0 14 -14v-48q0 -14 -14 -14h-33q-153 -72 -153 -148q0 -36 25 -53t57 -17q51 0 98 26q6 3 12 0t6 -10v-23q0 -6 -8 -12q-59 -40 -137 -30q-48 6 -78 31.5t-30 71.5q0 50 48.5 96t118.5 68h-426
q-13 0 -13 13v774q0 13 13 13h500q14 0 14 -13v-50q0 -13 -14 -13z" />
    <glyph glyph-name="eogonek" unicode="&#x119;" horiz-adv-x="564" 
d="M526 261q0 -47 -48 -47h-360q7 -62 55.5 -107t124.5 -45q92 0 160 68q12 10 20 -1l13 -17q9 -9 2 -18q-57 -75 -148 -94q-152 -72 -152 -148q0 -36 25 -53t57 -17q51 0 98 26q6 3 12 0t6 -10v-23q0 -6 -8 -12q-59 -40 -137 -30q-48 6 -78 31.5t-30 71.5q0 47 43 90.5
t107 67.5q-106 2 -178 73.5t-72 180.5q0 107 71 180.5t175 73.5q105 0 173.5 -71t68.5 -170zM117 275h331q-3 57 -46 107t-119 50q-77 0 -120.5 -49.5t-45.5 -107.5z" />
    <glyph glyph-name="Ecaron" unicode="&#x11a;" horiz-adv-x="661" 
d="M326 871l-179 134q-7 5 -7 11v36q0 8 5 10t13 -2l182 -123l181 123q7 4 12.5 2t5.5 -10v-36q0 -6 -7 -11l-178 -134q-13 -9 -28 0zM588 724h-434v-293h268q14 0 14 -14v-48q0 -13 -14 -13h-268v-280h434q14 0 14 -14v-48q0 -14 -14 -14h-500q-13 0 -13 13v774q0 13 13 13
h500q14 0 14 -13v-50q0 -13 -14 -13z" />
    <glyph glyph-name="ecaron" unicode="&#x11b;" horiz-adv-x="564" 
d="M299 605l178 134q7 5 7 11v36q0 8 -5 10t-13 -2l-181 -123l-182 123q-7 4 -12.5 2t-5.5 -10v-36q0 -6 7 -11l179 -134q15 -9 28 0zM118 214h360q48 0 48 47q0 99 -68.5 170t-173.5 71q-104 0 -175 -73.5t-71 -180.5q0 -110 73.5 -182t179.5 -72q124 0 202 100q7 9 -2 18
l-13 17q-8 11 -20 1q-68 -68 -160 -68q-76 0 -124.5 45t-55.5 107zM448 275h-331q2 58 45.5 107.5t120.5 49.5q76 0 119 -50t46 -107z" />
    <glyph glyph-name="Gbreve" unicode="&#x11e;" 
d="M438 883q-76 0 -127 46.5t-58 117.5q-2 19 12 19h33q9 0 11 -15q8 -55 46 -84t83 -29q42 0 81 29.5t47 82.5q4 16 12 16h33q6 0 9 -6t2 -15q-8 -70 -59 -116t-125 -46zM462 322h276q14 0 14 -14l-1 -181q0 -7 -8 -15q-119 -119 -289 -119t-289.5 118t-119.5 288t120 289
t289 119q172 0 291 -119q13 -13 4 -21l-42 -35q-10 -9 -20 1q-37 39 -97 68.5t-130 29.5q-78 0 -143.5 -30t-107 -78t-64 -106t-22.5 -118q0 -82 38 -156t117 -124t182 -50q121 0 213 86v92h-211q-13 0 -13 12v49q0 14 13 14z" />
    <glyph glyph-name="gbreve" unicode="&#x11f;" horiz-adv-x="613" 
d="M122 782q7 -71 58 -117.5t127 -46.5q74 0 125 46t59 116q3 21 -11 21h-33q-8 0 -12 -16q-8 -53 -47 -82.5t-81 -29.5q-45 0 -83 29t-46 84q-2 15 -11 15h-33q-14 0 -12 -19zM402 -24q42 -6 70.5 -13.5t56.5 -23t41 -42.5t11 -65q-5 -88 -84.5 -137t-202.5 -49
q-106 0 -171 44t-62 127q3 96 108 124q-55 7 -93.5 34t-41.5 70q-2 43 31.5 67.5t84.5 13.5q-27 18 -48.5 58t-22.5 86q-3 98 61.5 164t160.5 66q28 0 88.5 -6.5t134.5 -3.5q6 0 9.5 -2.5t2.5 -8.5l-2 -39q-15 -6 -80 -8q75 -53 77 -164q-1 -96 -65.5 -154.5t-157.5 -55.5
q-57 1 -119 32q-35 10 -59 -0.5t-22 -34.5q4 -44 115 -57q153 -19 179 -22zM306 428q-65 0 -109.5 -43.5t-43.5 -109.5q-1 -59 44.5 -102t107.5 -44q70 0 110.5 40.5t41.5 105.5q-1 67 -44.5 110t-106.5 43zM302 -284q82 0 139 30.5t59 82.5q2 31 -18.5 48.5t-73.5 26.5
q-50 10 -168 23q-35 4 -69 -24t-35 -74q-2 -58 45.5 -85.5t120.5 -27.5z" />
    <glyph glyph-name="Gdotaccent" unicode="&#x120;" 
d="M437 978q-17 0 -29.5 12t-12.5 30q0 17 12.5 29.5t29.5 12.5q18 0 30 -12.5t12 -29.5q0 -18 -12 -30t-30 -12zM462 322h276q14 0 14 -14l-1 -181q0 -7 -8 -15q-119 -119 -289 -119t-289.5 118t-119.5 288t120 289t289 119q172 0 291 -119q13 -13 4 -21l-42 -35
q-10 -9 -20 1q-37 39 -97 68.5t-130 29.5q-78 0 -143.5 -30t-107 -78t-64 -106t-22.5 -118q0 -82 38 -156t117 -124t182 -50q121 0 213 86v92h-211q-13 0 -13 12v49q0 14 13 14z" />
    <glyph glyph-name="gdotaccent" unicode="&#x121;" horiz-adv-x="613" 
d="M307 713q-17 0 -29.5 12t-12.5 30q0 17 12.5 29.5t29.5 12.5q18 0 30 -12.5t12 -29.5q0 -18 -12 -30t-30 -12zM402 -24q42 -6 70.5 -13.5t56.5 -23t41 -42.5t11 -65q-5 -88 -84.5 -137t-202.5 -49q-106 0 -171 44t-62 127q3 96 108 124q-55 7 -93.5 34t-41.5 70
q-2 43 31.5 67.5t84.5 13.5q-27 18 -48.5 58t-22.5 86q-3 98 61.5 164t160.5 66q28 0 88.5 -6.5t134.5 -3.5q6 0 9.5 -2.5t2.5 -8.5l-2 -39q-15 -6 -80 -8q75 -53 77 -164q-1 -96 -65.5 -154.5t-157.5 -55.5q-57 1 -119 32q-35 10 -59 -0.5t-22 -34.5q4 -44 115 -57
q153 -19 179 -22zM306 428q-65 0 -109.5 -43.5t-43.5 -109.5q-1 -59 44.5 -102t107.5 -44q70 0 110.5 40.5t41.5 105.5q-1 67 -44.5 110t-106.5 43zM302 -284q82 0 139 30.5t59 82.5q2 31 -18.5 48.5t-73.5 26.5q-50 10 -168 23q-35 4 -69 -24t-35 -74q-2 -58 45.5 -85.5
t120.5 -27.5z" />
    <glyph glyph-name="Gcommaaccent" unicode="&#x122;" 
d="M462 322h276q14 0 14 -14l-1 -181q0 -7 -8 -15q-119 -119 -289 -119t-289.5 118t-119.5 288t120 289t289 119q172 0 291 -119q13 -13 4 -21l-42 -35q-10 -9 -20 1q-37 39 -97 68.5t-130 29.5q-78 0 -143.5 -30t-107 -78t-64 -106t-22.5 -118q0 -82 38 -156t117 -124
t182 -50q121 0 213 86v92h-211q-13 0 -13 12v49q0 14 13 14zM506 -157q4 -7 5 -16q5 -48 -8 -108q-15 -63 -60 -106q-7 -7 -14 -3l-12 10q-7 3 -3 10q46 52 46 113v33l-9 -1q-22 0 -38 16.5t-16 38.5t16 37.5t38 15.5q42 0 55 -40z" />
    <glyph glyph-name="gcommaaccent" unicode="&#x123;" horiz-adv-x="613" 
d="M263 713q-4 7 -6 19q-5 48 8 108q15 60 60 105q7 8 14 4l10 -10q6 -4 2 -10q-46 -52 -46 -113v-33l9 1q23 0 37.5 -14.5t14.5 -39.5q0 -54 -52 -54q-44 0 -51 37zM402 -24q42 -6 70.5 -13.5t56.5 -23t41 -42.5t11 -65q-5 -88 -84.5 -137t-202.5 -49q-106 0 -171 44
t-62 127q3 96 108 124q-55 7 -93.5 34t-41.5 70q-2 43 31.5 67.5t84.5 13.5q-27 18 -48.5 58t-22.5 86q-3 98 61.5 164t160.5 66q28 0 88.5 -6.5t134.5 -3.5q6 0 9.5 -2.5t2.5 -8.5l-2 -39q-15 -6 -80 -8q75 -53 77 -164q-1 -96 -65.5 -154.5t-157.5 -55.5q-57 1 -119 32
q-35 10 -59 -0.5t-22 -34.5q4 -44 115 -57q153 -19 179 -22zM306 428q-65 0 -109.5 -43.5t-43.5 -109.5q-1 -59 44.5 -102t107.5 -44q70 0 110.5 40.5t41.5 105.5q-1 67 -44.5 110t-106.5 43zM500 -171q2 31 -18.5 48.5t-73.5 26.5q-50 10 -168 23q-35 4 -69 -24t-35 -74
q-2 -58 45.5 -85.5t120.5 -27.5q82 0 139 30.5t59 82.5z" />
    <glyph glyph-name="Hbar" unicode="&#x126;" horiz-adv-x="811" 
d="M670 800h52q14 0 14 -13v-774q0 -13 -12 -13h-40q-26 0 -26 27v328h-505v-341q0 -14 -13 -14h-51q-14 0 -14 14v773q0 13 13 13h52q13 0 13 -13v-141h505v141q0 13 12 13zM153 433h505v135h-505v-135z" />
    <glyph glyph-name="hbar" unicode="&#x127;" horiz-adv-x="610" 
d="M560 16q2 -16 -9 -16h-43q-27 0 -27 28v276q0 58 -35.5 93.5t-100.5 35.5q-93 0 -179 -84v-336q0 -7 -4 -10q-3 -3 -7 -3h-53q-4 0 -7 3q-4 3 -4 10v616h-48q-13 0 -13 13v45q0 13 13 13h48v28q0 20 -6 56q-2 16 9 16h46q26 0 26 -25v-75h139q13 0 13 -13l1 -45
q0 -13 -14 -13h-139v-204q89 77 186 77q84 0 144 -49t60 -139v-225q0 -27 4 -73z" />
    <glyph glyph-name="Imacron" unicode="&#x12a;" horiz-adv-x="237" 
d="M-97 974v39q0 10 10 10h411q11 0 11 -10v-39q0 -10 -11 -10h-411q-10 0 -10 10zM144 800h-51q-13 0 -13 -13v-774q0 -13 13 -13h52q12 0 12 13v774q0 13 -13 13z" />
    <glyph glyph-name="imacron" unicode="&#x12b;" horiz-adv-x="226" 
d="M-102 713v39q0 10 10 10h411q11 0 11 -10v-39q0 -10 -11 -10h-411q-10 0 -10 10zM138 495h-50q-13 0 -13 -13v-455q0 -27 25 -27h39q12 0 12 13v469q0 13 -13 13z" />
    <glyph glyph-name="Iogonek" unicode="&#x12e;" horiz-adv-x="237" 
d="M171 -191q6 3 12 0t6 -10v-23q0 -6 -8 -12q-59 -40 -137 -30q-48 6 -78 31.5t-30 71.5q0 49 47.5 95t116.5 68h-7q-13 0 -13 13v774q0 13 13 13h51q13 0 13 -13v-774q0 -13 -12 -13h-3q-151 -72 -151 -147q0 -36 25 -53t57 -17q51 0 98 26z" />
    <glyph glyph-name="iogonek" unicode="&#x12f;" horiz-adv-x="226" 
d="M114 713q-17 0 -29.5 12t-12.5 30q0 17 12.5 29.5t29.5 12.5q18 0 30 -12.5t12 -29.5q0 -18 -12 -30t-30 -12zM169 -191q6 3 12 0t6 -10v-23q0 -6 -8 -12q-59 -40 -137 -30q-48 6 -78 31.5t-30 71.5q0 49 47.5 95t116.5 68q-23 2 -23 27v455q0 13 13 13h50q13 0 13 -13
v-469q0 -13 -11 -13q-151 -72 -151 -147q0 -36 25 -53t57 -17q51 0 98 26z" />
    <glyph glyph-name="Idotaccent" unicode="&#x130;" horiz-adv-x="237" 
d="M119 974q-17 0 -29.5 12t-12.5 30q0 17 12.5 29.5t29.5 12.5q18 0 30 -12.5t12 -29.5q0 -18 -12 -30t-30 -12zM144 800h-51q-13 0 -13 -13v-774q0 -13 13 -13h52q12 0 12 13v774q0 13 -13 13z" />
    <glyph glyph-name="dotlessi" unicode="&#x131;" horiz-adv-x="226" 
d="M138 495h-50q-13 0 -13 -13v-455q0 -27 25 -27h39q12 0 12 13v469q0 13 -13 13z" />
    <glyph glyph-name="IJ" unicode="&#x132;" horiz-adv-x="466" 
d="M144 800h-51q-13 0 -13 -13v-774q0 -13 13 -13h52q12 0 12 13v774q0 13 -13 13zM313 800h46q27 0 27 -27v-867q-2 -72 -38 -127.5t-95 -85.5q-13 -7 -19 3l-25 48q-6 12 5 17q93 50 93 152v836q-1 22 -4 36q-2 15 10 15z" />
    <glyph glyph-name="ij" unicode="&#x133;" horiz-adv-x="445" 
d="M114 711q-19 0 -31.5 12.5t-12.5 30.5t12.5 30.5t31.5 12.5q17 0 30 -12.5t13 -30.5t-13 -30.5t-30 -12.5zM333 711q-19 0 -31.5 12.5t-12.5 30.5t12.5 30.5t31.5 12.5q17 0 30 -12.5t13 -30.5t-13 -30.5t-30 -12.5zM139 495h-50q-13 0 -13 -13v-455q0 -27 25 -27h39
q12 0 12 13v469q0 13 -13 13zM359 495h-51q-12 0 -12 -13v-582q0 -39 -11.5 -58t-44.5 -34q-11 -4 -6 -15l25 -50q4 -9 16 -4q54 23 75.5 62.5t21.5 98.5l-1 582q0 13 -12 13z" />
    <glyph glyph-name="Kcommaaccent" unicode="&#x136;" horiz-adv-x="666" 
d="M231 412l394 -386q8 -8 4 -17t-15 -9h-57q-9 0 -17 8l-402 396v-391q0 -13 -12 -13h-54q-13 0 -13 13v727q0 17 -4 45q-2 15 10 15h46q27 0 27 -25v-355l364 372q8 8 16 8h61q11 0 14 -9t-4 -16zM364 -157q4 -7 5 -16q5 -48 -8 -108q-15 -63 -60 -106q-7 -7 -14 -3
l-12 10q-7 3 -3 10q46 52 46 113v33l-9 -1q-22 0 -38 16.5t-16 38.5t16 37.5t38 15.5q42 0 55 -40z" />
    <glyph glyph-name="kcommaaccent" unicode="&#x137;" horiz-adv-x="532" 
d="M224 257l262 -235q7 -8 4.5 -15t-12.5 -7h-58q-9 0 -17 8l-262 241v-236q0 -13 -13 -13h-49q-13 0 -13 13v715q0 20 -6 56q-2 16 9 16h46q26 0 26 -25v-509l229 222q6 7 15 7h58q9 0 12 -7.5t-3 -14.5zM301 -157q3 -7 5 -16q5 -48 -8 -108q-15 -63 -60 -106q-7 -7 -14 -3
l-12 10q-7 3 -3 10q46 52 46 113v33l-9 -1q-22 0 -38 16.5t-16 38.5t16 37.5t38 15.5q42 0 55 -40z" />
    <glyph glyph-name="Lacute" unicode="&#x139;" horiz-adv-x="613" 
d="M112 883l212 132q11 8 5 18l-21 35q-7 12 -18 2l-207 -143q-8 -6 -2 -14l15 -26q5 -9 16 -4zM144 76h402q12 0 12 -14v-49q0 -13 -12 -13h-469q-12 0 -12 13v774q0 13 13 13h53q13 0 13 -13v-711z" />
    <glyph glyph-name="lacute" unicode="&#x13a;" horiz-adv-x="223" 
d="M10 893l212 132q11 8 5 18l-21 35q-7 12 -18 2l-207 -143q-8 -6 -2 -14l15 -26q5 -9 16 -4zM138 800h-50q-13 0 -13 -13v-759q0 -28 27 -28h36q13 0 13 14v773q0 13 -13 13z" />
    <glyph glyph-name="Lcommaaccent" unicode="&#x13b;" horiz-adv-x="613" 
d="M144 76h402q12 0 12 -14v-49q0 -13 -12 -13h-469q-12 0 -12 13v774q0 13 13 13h53q13 0 13 -13v-711zM344 -157q4 -7 5 -16q5 -48 -8 -108q-15 -63 -60 -106q-7 -7 -14 -3l-12 10q-7 3 -3 10q46 52 46 113v33l-9 -1q-22 0 -38 16.5t-16 38.5t16 37.5t38 15.5q42 0 55 -40
z" />
    <glyph glyph-name="lcommaaccent" unicode="&#x13c;" horiz-adv-x="223" 
d="M138 0h-36q-27 0 -27 28v759q0 13 13 13h50q13 0 13 -13v-773q0 -14 -13 -14zM167 -173q5 -48 -8 -108q-15 -63 -60 -106q-7 -7 -14 -3l-12 10q-7 3 -3 10q46 52 46 113v33l-9 -1q-22 0 -38 16.5t-16 38.5t16 37.5t38 15.5q42 0 55 -40q4 -7 5 -16z" />
    <glyph glyph-name="Lcaron" unicode="&#x13d;" horiz-adv-x="613" 
d="M433 696l-8 -1q-23 0 -37.5 14t-14.5 40q0 54 52 54q43 0 51 -39q3 -5 5 -18q5 -47 -8 -107q-14 -60 -60 -106q-7 -7 -14 -3l-10 10q-6 3 -2 10q47 53 47 113q0 22 -1 33zM144 76h402q12 0 12 -14v-49q0 -13 -12 -13h-469q-12 0 -12 13v774q0 13 13 13h53q13 0 13 -13
v-711z" />
    <glyph glyph-name="lcaron" unicode="&#x13e;" horiz-adv-x="383" 
d="M357 746q5 -47 -8 -107q-16 -62 -60 -106q-7 -7 -14 -3l-10 10q-6 3 -2 10q46 52 46 113v33l-9 -1q-23 0 -37.5 14.5t-14.5 39.5q0 54 52 54q43 0 52 -38q3 -5 5 -19zM88 800h50q13 0 13 -13v-773q0 -14 -13 -14h-36q-27 0 -27 28v759q0 13 13 13z" />
    <glyph glyph-name="Ldot" unicode="&#x13f;" horiz-adv-x="613" 
d="M144 76h402q12 0 12 -14v-49q0 -13 -12 -13h-469q-12 0 -12 13v774q0 13 13 13h53q13 0 13 -13v-711zM448 351q-22 0 -36.5 14.5t-14.5 34.5q0 21 15 36t36 15q19 0 34 -15.5t15 -35.5t-14.5 -34.5t-34.5 -14.5z" />
    <glyph glyph-name="ldot" unicode="&#x140;" horiz-adv-x="349" 
d="M138 800h-50q-13 0 -13 -13v-759q0 -28 27 -28h36q13 0 13 14v773q0 13 -13 13zM253 353q-19 0 -33 13.5t-14 33.5q0 19 14 33t33 14t32.5 -14t13.5 -33q0 -20 -13.5 -33.5t-32.5 -13.5z" />
    <glyph glyph-name="Lslash" unicode="&#x141;" horiz-adv-x="654" 
d="M184 76h401q13 0 13 -14v-49q0 -13 -13 -13h-468q-12 0 -12 13v338l-45 -25q-15 -8 -22 7l-11 16q-7 13 8 22l70 39v377q0 13 13 13h53q13 0 13 -13v-334l197 109q14 8 22 -6l10 -17q9 -13 -6 -22l-223 -123v-318z" />
    <glyph glyph-name="lslash" unicode="&#x142;" horiz-adv-x="307" 
d="M294 489l10 -17q9 -13 -5 -22l-98 -54v-382q0 -14 -12 -14h-37q-27 0 -27 28v327l-89 -49q-14 -9 -23 6l-10 16q-7 14 7 22l115 63v374q0 13 13 13h50q13 0 13 -13v-332l72 39q14 8 21 -5z" />
    <glyph glyph-name="Nacute" unicode="&#x143;" horiz-adv-x="835" 
d="M318 876l212 132q11 8 5 18l-21 35q-7 12 -18 2l-207 -143q-8 -6 -2 -14l15 -26q5 -9 16 -4zM693 800h55q12 0 12 -11v-778q0 -11 -12 -11h-21q-20 0 -48 31l-526 621v-639q0 -13 -13 -13h-52q-13 0 -13 13v775q0 12 12 12h33q9 0 19 -11l543 -645v645q0 11 11 11z" />
    <glyph glyph-name="nacute" unicode="&#x144;" horiz-adv-x="579" 
d="M181 627l-15 26q-6 8 2 14l207 143q11 10 18 -2l21 -35q6 -10 -5 -18l-212 -132q-11 -5 -16 4zM529 16q2 -16 -9 -16h-43q-27 0 -27 28v276q0 58 -35.5 93.5t-100.5 35.5q-92 0 -178 -84v-336q0 -13 -12 -13h-53q-11 0 -11 13v470q0 12 11 12h38q11 0 18.5 -9t8.5 -20
v-41q89 77 185 77q84 0 144 -49t60 -139v-225q2 -48 4 -73z" />
    <glyph glyph-name="Ncommaaccent" unicode="&#x145;" horiz-adv-x="835" 
d="M693 800h55q12 0 12 -11v-778q0 -11 -12 -11h-21q-20 0 -48 31l-526 621v-639q0 -13 -13 -13h-52q-13 0 -13 13v775q0 12 12 12h33q9 0 19 -11l543 -645v645q0 11 11 11zM470 -157q4 -7 5 -16q5 -48 -8 -108q-15 -63 -60 -106q-7 -7 -14 -3l-12 10q-7 3 -3 10
q46 52 46 113v33l-9 -1q-22 0 -38 16.5t-16 38.5t16 37.5t38 15.5q42 0 55 -40z" />
    <glyph glyph-name="ncommaaccent" unicode="&#x146;" horiz-adv-x="579" 
d="M529 16q2 -16 -9 -16h-43q-27 0 -27 28v276q0 58 -35.5 93.5t-100.5 35.5q-92 0 -178 -84v-336q0 -13 -12 -13h-53q-11 0 -11 13v470q0 12 11 12h38q11 0 18.5 -9t8.5 -20v-41q89 77 185 77q84 0 144 -49t60 -139v-225q2 -48 4 -73zM357 -157q3 -7 5 -16q5 -48 -8 -108
q-15 -63 -60 -106q-7 -7 -14 -3l-12 10q-7 3 -3 10q46 52 46 113v33l-9 -1q-22 0 -38 16.5t-16 38.5t16 37.5t38 15.5q42 0 55 -40z" />
    <glyph glyph-name="Ncaron" unicode="&#x147;" horiz-adv-x="835" 
d="M436 858l178 134q7 5 7 11v36q0 8 -5.5 10t-12.5 -2l-181 -123l-182 123q-8 4 -13 2t-5 -10v-36q0 -6 7 -11l179 -134q15 -9 28 0zM693 800h55q12 0 12 -11v-778q0 -11 -12 -11h-21q-20 0 -48 31l-526 621v-639q0 -13 -13 -13h-52q-13 0 -13 13v775q0 12 12 12h33
q9 0 19 -11l543 -645v645q0 11 11 11z" />
    <glyph glyph-name="ncaron" unicode="&#x148;" horiz-adv-x="579" 
d="M287 605l-179 134q-7 5 -7 11v36q0 8 5.5 10t12.5 -2l182 -123l181 123q8 4 13 2t5 -10v-36q0 -6 -7 -11l-178 -134q-13 -9 -28 0zM529 16q2 -16 -9 -16h-43q-27 0 -27 28v276q0 58 -35.5 93.5t-100.5 35.5q-92 0 -178 -84v-336q0 -13 -12 -13h-53q-11 0 -11 13v470
q0 12 11 12h38q11 0 18.5 -9t8.5 -20v-41q89 77 185 77q84 0 144 -49t60 -139v-225q2 -48 4 -73z" />
    <glyph glyph-name="Eng" unicode="&#x14a;" horiz-adv-x="838" 
d="M693 800h56q11 0 11 -11v-883q-1 -71 -37 -127t-95 -86q-13 -8 -19 3l-25 48q-6 11 6 17q92 50 92 152v116l-2 2l-526 618v-636q0 -13 -12 -13h-54q-12 0 -12 13v775q0 12 11 12h35q9 0 15 -9l545 -648v646q0 11 11 11z" />
    <glyph glyph-name="eng" unicode="&#x14b;" horiz-adv-x="596" 
d="M525 297l1 -394q0 -58 -20 -95.5t-73 -60.5q-11 -5 -15 4l-26 48q-4 11 6 15q32 14 42 32.5t10 56.5v397q0 58 -35.5 93t-100.5 35q-93 0 -178 -83v-332q0 -13 -12 -13h-53q-11 0 -11 13v470q0 12 11 12h38q11 0 18.5 -9t8.5 -20v-41q87 75 185 75q84 0 144 -48.5
t60 -137.5v-17z" />
    <glyph glyph-name="Omacron" unicode="&#x14c;" horiz-adv-x="941" 
d="M255 984v39q0 10 10 10h411q11 0 11 -10v-39q0 -10 -11 -10h-411q-10 0 -10 10zM471 -7q170 0 290 118.5t120 288.5t-120 288.5t-290 118.5q-171 0 -291 -118.5t-120 -288.5t120 -288.5t291 -118.5zM471 69q-137 0 -235 97t-98 234t98 234t235 97t234 -97t97 -234
t-97 -234t-234 -97z" />
    <glyph glyph-name="omacron" unicode="&#x14d;" horiz-adv-x="592" 
d="M81 713v39q0 10 10 10h411q11 0 11 -10v-39q0 -10 -11 -10h-411q-10 0 -10 10zM297 -6q105 0 180 73.5t75 179.5q0 108 -75 182t-180 74q-107 0 -182 -74t-75 -182q0 -106 75.5 -179.5t181.5 -73.5zM297 65q-77 0 -130 54.5t-53 127.5q0 75 53 129.5t130 54.5
q76 0 128.5 -54.5t52.5 -129.5q0 -73 -52.5 -127.5t-128.5 -54.5z" />
    <glyph glyph-name="Ohungarumlaut" unicode="&#x150;" horiz-adv-x="941" 
d="M376 931h-33q-5 0 -9 3.5t-3 8.5l23 162q0 12 11 12h48q13 0 11 -12l-36 -162q-2 -12 -12 -12zM563 931h-33q-5 0 -9 3.5t-3 8.5l23 162q0 12 11 12h48q12 0 11 -12l-36 -162q-1 -12 -12 -12zM471 -7q170 0 290 118.5t120 288.5t-120 288.5t-290 118.5
q-171 0 -291 -118.5t-120 -288.5t120 -288.5t291 -118.5zM471 69q-137 0 -235 97t-98 234t98 234t235 97t234 -97t97 -234t-97 -234t-234 -97z" />
    <glyph glyph-name="ohungarumlaut" unicode="&#x151;" horiz-adv-x="592" 
d="M201 660h-33q-5 0 -9 3.5t-3 8.5l23 162q0 12 11 12h48q12 0 11 -12l-36 -162q-1 -12 -12 -12zM388 660h-33q-5 0 -9 3.5t-3 8.5l23 162q0 12 11 12h48q13 0 11 -12l-36 -162q-2 -12 -12 -12zM297 -6q105 0 180 73.5t75 179.5q0 108 -75 182t-180 74q-107 0 -182 -74
t-75 -182q0 -106 75.5 -179.5t181.5 -73.5zM297 65q-77 0 -130 54.5t-53 127.5q0 75 53 129.5t130 54.5q76 0 128.5 -54.5t52.5 -129.5q0 -73 -52.5 -127.5t-128.5 -54.5z" />
    <glyph glyph-name="OE" unicode="&#x152;" horiz-adv-x="1408" 
d="M1335 724h-434v-293h268q14 0 14 -14v-48q0 -13 -14 -13h-268v-280h434q14 0 14 -14v-48q0 -14 -14 -14h-500q-13 0 -13 13v175q-55 -90 -148 -142.5t-203 -52.5q-171 0 -291 118.5t-120 288.5t120 288.5t291 118.5q110 0 203 -53t148 -143v176q0 13 13 13h500
q14 0 14 -13v-50q0 -13 -14 -13zM471 69q137 0 234 97t97 234t-97 234t-234 97t-235 -97t-98 -234t98 -234t235 -97z" />
    <glyph glyph-name="oe" unicode="&#x153;" horiz-adv-x="1001" 
d="M962 261q0 -47 -48 -47h-360q7 -62 55.5 -107t124.5 -45q92 0 160 68q12 9 20 -1l13 -17q9 -9 2 -18q-78 -100 -202 -100q-68 0 -124.5 31t-90.5 86q-35 -54 -92 -85.5t-123 -31.5q-106 0 -181.5 73.5t-75.5 179.5q0 108 75 182t182 74q66 0 123 -31.5t92 -85.5
q33 54 87.5 85t120.5 31q105 0 173.5 -71t68.5 -170zM553 275h331q-2 57 -45.5 107t-119.5 50t-119.5 -49.5t-46.5 -107.5zM297 65q68 0 118 44.5t61 108.5q-2 20 -2 30q0 11 2 29q-12 65 -61.5 109.5t-117.5 44.5q-77 0 -130 -54.5t-53 -129.5q0 -73 53 -127.5t130 -54.5z
" />
    <glyph glyph-name="Racute" unicode="&#x154;" horiz-adv-x="690" 
d="M235 887l-15 26q-6 8 2 14l207 143q11 10 18 -2l21 -35q6 -10 -5 -18l-212 -132q-11 -5 -16 4zM447 283l193 -269q9 -14 -7 -14h-52q-18 0 -33 22l-178 251h-2h-229v-259q0 -14 -14 -14h-52q-13 0 -13 14v773q0 13 13 13h295q67 0 121 -24t86 -63.5t49 -85t17 -91.5
q0 -84 -50 -157t-144 -96zM139 724v-376h223q96 0 148.5 56t52.5 134q0 76 -52.5 131t-148.5 55h-223z" />
    <glyph glyph-name="racute" unicode="&#x155;" horiz-adv-x="419" 
d="M102 627l-15 26q-6 8 2 14l207 143q11 10 18 -2l21 -35q6 -10 -5 -18l-212 -132q-11 -5 -16 4zM390 466q12 -8 6 -17l-29 -42q-4 -9 -15 -4q-47 25 -87 25q-80 0 -127 -78v-337q0 -13 -11 -13h-53q-11 0 -11 13v470q0 12 11 12h38q11 0 18.5 -9t7.5 -20v-28q63 61 141 61
q61 0 111 -33z" />
    <glyph glyph-name="Rcommaaccent" unicode="&#x156;" horiz-adv-x="690" 
d="M447 283l193 -269q9 -14 -7 -14h-52q-18 0 -33 22l-178 251h-2h-229v-259q0 -14 -14 -14h-52q-13 0 -13 14v773q0 13 13 13h295q67 0 121 -24t86 -63.5t49 -85t17 -91.5q0 -84 -50 -157t-144 -96zM139 724v-376h223q96 0 148.5 56t52.5 134q0 76 -52.5 131t-148.5 55
h-223zM399 -157q3 -7 5 -16q5 -48 -8 -108q-15 -63 -60 -106q-7 -7 -14 -3l-12 10q-7 3 -3 10q46 52 46 113v33l-9 -1q-22 0 -38 16.5t-16 38.5t16 37.5t38 15.5q42 0 55 -40z" />
    <glyph glyph-name="rcommaaccent" unicode="&#x157;" horiz-adv-x="419" 
d="M390 466q12 -8 6 -17l-29 -42q-4 -9 -15 -4q-47 25 -87 25q-80 0 -127 -78v-337q0 -13 -11 -13h-53q-11 0 -11 13v470q0 12 11 12h38q11 0 18.5 -9t7.5 -20v-28q63 61 141 61q61 0 111 -33zM260 -157q4 -7 5 -16q5 -48 -8 -108q-15 -63 -60 -106q-7 -7 -14 -3l-12 10
q-7 3 -3 10q46 52 46 113v33l-9 -1q-22 0 -38 16.5t-16 38.5t16 37.5t38 15.5q42 0 55 -40z" />
    <glyph glyph-name="Rcaron" unicode="&#x158;" horiz-adv-x="690" 
d="M341 865l-179 134q-7 5 -7 11v36q0 8 5.5 10t12.5 -2l182 -123l181 123q8 4 13 2t5 -10v-36q0 -6 -7 -11l-178 -134q-13 -9 -28 0zM447 283l193 -269q9 -14 -7 -14h-52q-18 0 -33 22l-178 251h-2h-229v-259q0 -14 -14 -14h-52q-13 0 -13 14v773q0 13 13 13h295
q67 0 121 -24t86 -63.5t49 -85t17 -91.5q0 -84 -50 -157t-144 -96zM139 724v-376h223q96 0 148.5 56t52.5 134q0 76 -52.5 131t-148.5 55h-223z" />
    <glyph glyph-name="rcaron" unicode="&#x159;" horiz-adv-x="419" 
d="M222 671l181 123q7 4 12.5 2t5.5 -10v-36q0 -6 -7 -11l-178 -134q-13 -9 -28 0l-179 134q-7 5 -7 11v36q0 8 5 10t13 -2zM390 466q12 -8 6 -17l-29 -42q-4 -9 -15 -4q-47 25 -87 25q-80 0 -127 -78v-337q0 -13 -11 -13h-53q-11 0 -11 13v470q0 12 11 12h38q11 0 18.5 -9
t7.5 -20v-28q63 61 141 61q61 0 111 -33z" />
    <glyph glyph-name="Sacute" unicode="&#x15a;" horiz-adv-x="625" 
d="M204 887l212 132q11 8 5 18l-21 35q-7 12 -18 2l-207 -143q-8 -6 -2 -14l15 -26q5 -9 16 -4zM50 134l28 33q12 12 26 2q1 -1 14 -13t24 -20.5t31.5 -22.5t40 -23t46 -15.5t52.5 -6.5q93 0 141.5 42t48.5 101q0 19 -6 35t-13.5 28.5t-23.5 24.5t-27.5 19.5t-35 17
l-36.5 14.5t-40 14.5l-39 13.5q-106 40 -163.5 88.5t-57.5 130.5q0 39 14.5 75t43.5 67t79.5 49.5t114.5 18.5q127 0 236 -95q14 -12 5 -24l-26 -34q-10 -13 -23 -4q-1 1 -11 9t-18.5 14l-22.5 15.5t-28.5 16t-32.5 13.5t-38 10.5t-40 3.5q-82 0 -128.5 -38t-46.5 -97
q0 -26 11.5 -47t25.5 -35t47 -30t54 -24l68 -25q40 -15 66.5 -26.5t62 -32t56.5 -42.5t36 -54.5t15 -70.5q0 -89 -75 -152.5t-192 -63.5q-141 0 -259 118q-13 13 -4 22z" />
    <glyph glyph-name="sacute" unicode="&#x15b;" horiz-adv-x="469" 
d="M129 624l212 132q11 8 5 18l-21 35q-7 12 -18 2l-207 -143q-8 -6 -2 -14l15 -26q5 -9 16 -4zM47 68l25 36q7 11 17 6q4 -4 20.5 -13.5t51.5 -20.5t69 -11q58 0 84 20t26 49q0 33 -31 50t-93 34q-166 43 -166 145q0 58 48 98.5t131 40.5q76 0 163 -51q14 -7 7 -17l-26 -38
q-6 -11 -17 -5q-74 38 -127 38q-56 0 -78 -22t-22 -47q0 -16 9 -28.5t28 -22t35 -15t43 -13.5q81 -22 130.5 -55.5t49.5 -91.5q0 -63 -53 -102t-141 -39q-54 0 -103.5 20t-75.5 40q-10 8 -4 15z" />
    <glyph glyph-name="Scedilla" unicode="&#x15e;" horiz-adv-x="625" 
d="M580 210q0 -86 -70 -148.5t-180 -67.5l-36 -60q16 2 24 2q54 0 92.5 -38t38.5 -92q0 -53 -39 -92t-94 -39q-67 0 -107 51q-5 6 -1 10l17 18q9 8 15 1q32 -34 74 -34q41 0 64.5 24.5t23.5 60.5q0 35 -22.5 59.5t-62.5 24.5q-39 0 -72 -34q-9 -9 -15 -3l-17 19q-4 3 -2 8
l7 10l61 106q-122 13 -225 116q-13 13 -4 22l28 33q12 12 26 2q1 -1 14 -13t24 -20.5t31.5 -22.5t40 -23t46 -15.5t52.5 -6.5q93 0 141.5 42t48.5 101q0 19 -6 35t-13.5 28.5t-23.5 24.5t-27.5 19.5t-35 17l-36.5 14.5t-40 14.5l-39 13.5q-106 40 -163.5 88.5t-57.5 130.5
q0 39 14.5 75t43.5 67t79.5 49.5t114.5 18.5q127 0 236 -95q14 -12 5 -24l-26 -34q-10 -13 -23 -4q-1 1 -11 9t-18.5 14l-22.5 15.5t-28.5 16t-32.5 13.5t-38 10.5t-40 3.5q-82 0 -128.5 -38t-46.5 -97q0 -26 11.5 -47t25.5 -35t47 -30t54 -24l68 -25q40 -15 66.5 -26.5
t62 -32t56.5 -42.5t36 -54.5t15 -70.5z" />
    <glyph glyph-name="scedilla" unicode="&#x15f;" horiz-adv-x="469" 
d="M424 134q0 -59 -45.5 -97t-123.5 -43l-36 -61q16 2 24 2q54 0 92.5 -38t38.5 -92q0 -53 -39 -92t-94 -39q-67 0 -107 51q-5 6 -1 10l17 18q9 8 15 1q32 -34 74 -34q41 0 64.5 24.5t23.5 60.5q0 35 -22.5 59.5t-62.5 24.5q-39 0 -72 -34q-9 -9 -15 -3l-17 19q-4 3 -2 8
l7 10l61 105q-47 5 -89.5 23.5t-63.5 35.5q-10 8 -4 15l25 36q7 11 17 6q4 -4 20.5 -13.5t51.5 -20.5t69 -11q58 0 84 20t26 49q0 33 -31 50t-93 34q-166 43 -166 145q0 58 48 98.5t131 40.5q76 0 163 -51q14 -7 7 -17l-26 -38q-6 -11 -17 -5q-74 38 -127 38q-56 0 -78 -22
t-22 -47q0 -16 9 -28.5t28 -22t35 -15t43 -13.5q81 -22 130.5 -55.5t49.5 -91.5z" />
    <glyph glyph-name="Scaron" unicode="&#x160;" horiz-adv-x="625" 
d="M322 869l178 134q7 5 7 11v36q0 8 -5.5 10t-12.5 -2l-181 -123l-182 123q-8 4 -13 2t-5 -10v-36q0 -6 7 -11l179 -134q15 -9 28 0zM50 134l28 33q12 12 26 2q1 -1 14 -13t24 -20.5t31.5 -22.5t40 -23t46 -15.5t52.5 -6.5q93 0 141.5 42t48.5 101q0 19 -6 35t-13.5 28.5
t-23.5 24.5t-27.5 19.5t-35 17l-36.5 14.5t-40 14.5l-39 13.5q-106 40 -163.5 88.5t-57.5 130.5q0 39 14.5 75t43.5 67t79.5 49.5t114.5 18.5q127 0 236 -95q14 -12 5 -24l-26 -34q-10 -13 -23 -4q-1 1 -11 9t-18.5 14l-22.5 15.5t-28.5 16t-32.5 13.5t-38 10.5t-40 3.5
q-82 0 -128.5 -38t-46.5 -97q0 -26 11.5 -47t25.5 -35t47 -30t54 -24l68 -25q40 -15 66.5 -26.5t62 -32t56.5 -42.5t36 -54.5t15 -70.5q0 -89 -75 -152.5t-192 -63.5q-141 0 -259 118q-13 13 -4 22z" />
    <glyph glyph-name="scaron" unicode="&#x161;" horiz-adv-x="469" 
d="M247 606l178 134q7 5 7 11v36q0 8 -5 10t-13 -2l-181 -123l-182 123q-7 4 -12.5 2t-5.5 -10v-36q0 -6 7 -11l179 -134q15 -9 28 0zM47 68l25 36q7 11 17 6q4 -4 20.5 -13.5t51.5 -20.5t69 -11q58 0 84 20t26 49q0 33 -31 50t-93 34q-166 43 -166 145q0 58 48 98.5
t131 40.5q76 0 163 -51q14 -7 7 -17l-26 -38q-6 -11 -17 -5q-74 38 -127 38q-56 0 -78 -22t-22 -47q0 -16 9 -28.5t28 -22t35 -15t43 -13.5q81 -22 130.5 -55.5t49.5 -91.5q0 -63 -53 -102t-141 -39q-54 0 -103.5 20t-75.5 40q-10 8 -4 15z" />
    <glyph glyph-name="Tcedilla" unicode="&#x162;" horiz-adv-x="712" 
d="M59 800h595q13 0 13 -13v-50q0 -13 -13 -13h-258v-710q0 -14 -12 -14l-38 -64q16 2 24 2q54 0 92.5 -38t38.5 -92q0 -53 -39 -92t-94 -39q-67 0 -107 51q-5 6 -1 10l17 18q9 8 15 1q32 -34 74 -34q41 0 64.5 24.5t23.5 60.5q0 35 -22.5 59.5t-62.5 24.5q-39 0 -72 -34
q-9 -9 -15 -3l-17 19q-4 3 -2 8l7 10l64 109q-17 6 -17 27v696h-258q-14 0 -14 13v49q0 14 14 14z" />
    <glyph glyph-name="tcedilla" unicode="&#x163;" horiz-adv-x="385" 
d="M255 -64q54 0 92.5 -38t38.5 -92q0 -53 -39 -92t-94 -39q-67 0 -107 51q-5 6 -1 10l17 18q9 8 15 1q32 -34 74 -34q41 0 64.5 24.5t23.5 60.5q0 35 -22.5 59.5t-62.5 24.5q-39 0 -72 -34q-9 -9 -15 -3l-17 19q-4 3 -2 8l7 10l62 106q-59 7 -81 50.5t-22 132.5v243h-62
q-12 0 -12 12v15q0 9 7 14q49 23 72.5 58t41.5 120q3 10 9 10h12q8 0 8 -11v-145h124q13 0 13 -13v-48q0 -12 -13 -12h-105q-13 0 -20 3v-236q0 -67 11.5 -95t53.5 -28q29 0 61 10q17 5 20 -7l9 -40q4 -7 -10 -15q-25 -13 -66 -18l-37 -62q16 2 24 2z" />
    <glyph glyph-name="Tcaron" unicode="&#x164;" horiz-adv-x="712" 
d="M342 860l-179 134q-7 5 -7 11v36q0 8 5 10t13 -2l182 -123l181 123q7 4 12.5 2t5.5 -10v-36q0 -6 -7 -11l-178 -134q-13 -9 -28 0zM59 800h595q13 0 13 -13v-50q0 -13 -13 -13h-258v-710q0 -14 -12 -14h-40q-27 0 -27 28v696h-258q-14 0 -14 13v49q0 14 14 14z" />
    <glyph glyph-name="tcaron" unicode="&#x165;" horiz-adv-x="468" 
d="M461 746q5 -47 -8 -107q-14 -61 -59 -106q-8 -7 -15 -3l-10 10q-5 3 -1 10q46 54 46 113q0 22 -1 33l-8 -1q-23 0 -37.5 14.5t-14.5 39.5q0 54 52 54q43 0 51 -39q3 -5 5 -18zM335 69l9 -40q4 -7 -10 -15q-36 -19 -91 -19q-75 0 -102 43t-27 141v243h-62q-12 0 -12 12v15
q0 9 7 14q49 23 72.5 58t41.5 120q3 10 9 10h12q8 0 8 -11v-145h124q13 0 13 -13v-48q0 -12 -13 -12h-105q-13 0 -20 3v-236q0 -67 11.5 -95t53.5 -28q29 0 61 10q17 5 20 -7z" />
    <glyph glyph-name="Tbar" unicode="&#x166;" horiz-adv-x="712" 
d="M654 724h-259v-226h261q11 0 11 -11v-49q0 -10 -11 -10h-261v-414q0 -14 -12 -14h-39q-28 0 -28 28v400h-260q-11 0 -11 10v49q0 11 11 11h260v226h-258q-14 0 -14 13v49q0 14 14 14h596q13 0 13 -13v-50q0 -13 -13 -13z" />
    <glyph glyph-name="tbar" unicode="&#x167;" horiz-adv-x="385" 
d="M335 69l9 -40q4 -7 -10 -15q-36 -19 -91 -19q-75 0 -102 43t-27 141v102h-61q-12 0 -12 9v39q0 10 12 10h61v83h-62q-12 0 -12 12v15q0 9 7 14q49 23 72.5 58t41.5 120q3 10 9 10h12q8 0 8 -11v-145h124q13 0 13 -13v-48q0 -12 -13 -12h-105q-13 0 -20 3v-86h123
q13 0 13 -10v-38q0 -10 -13 -10h-123v-92q0 -67 11.5 -95t53.5 -28q29 0 61 10q17 5 20 -7z" />
    <glyph glyph-name="Utilde" unicode="&#x168;" horiz-adv-x="769" 
d="M162 952l23 -25q8 -6 15 2q42 48 92 48q28 0 52 -12t38.5 -27t40 -27t56.5 -12q13 0 25.5 2.5t23 6.5t20 9t18 11t15.5 11.5t12.5 11t9 9.5t5.5 7l3 3q7 7 0 14l-23 26q-8 8 -14 -1q-45 -45 -97 -45q-30 0 -58.5 19.5l-59.5 39t-69 19.5q-35 0 -68 -20t-44 -33t-17 -22
q-5 -9 1 -15zM687 800h-53q-14 0 -14 -13v-481q0 -116 -71.5 -176.5t-166.5 -60.5q-93 0 -163 60.5t-70 176.5v481q0 13 -13 13h-52q-14 0 -14 -13v-492q1 -126 85.5 -214t226.5 -88q143 0 229.5 88t87.5 214v492q0 13 -12 13z" />
    <glyph glyph-name="utilde" unicode="&#x169;" horiz-adv-x="574" 
d="M83 671l-23 25q-6 6 -1 15q6 9 17 22t44 33t68 20q38 0 69 -19.5l59.5 -39t58.5 -19.5q52 0 97 45q6 9 14 1l23 -26q7 -7 0 -14l-3 -3q-2 -3 -5.5 -7t-9 -9.5t-12.5 -11t-15.5 -11.5t-18 -11t-20 -9t-23 -6.5t-25.5 -2.5q-31 0 -56.5 12t-40 27t-38.5 27t-52 12
q-50 0 -92 -48q-7 -8 -15 -2zM455 495h53q11 0 11 -14v-469q0 -12 -11 -12h-43q-8 0 -14.5 9.5t-6.5 18.5v43q-88 -78 -186 -78q-84 0 -144 49.5t-60 138.5v224q-2 49 -4 73q-2 17 9 17h43q27 0 27 -29v-275q0 -59 35.5 -94.5t100.5 -35.5q92 0 179 89v331q0 14 11 14z" />
    <glyph glyph-name="Umacron" unicode="&#x16a;" horiz-adv-x="769" 
d="M168 969v39q0 10 10 10h411q11 0 11 -10v-39q0 -10 -11 -10h-411q-10 0 -10 10zM687 800h-53q-14 0 -14 -13v-481q0 -116 -71.5 -176.5t-166.5 -60.5q-93 0 -163 60.5t-70 176.5v481q0 13 -13 13h-52q-14 0 -14 -13v-492q1 -126 85.5 -214t226.5 -88q143 0 229.5 88
t87.5 214v492q0 13 -12 13z" />
    <glyph glyph-name="umacron" unicode="&#x16b;" horiz-adv-x="574" 
d="M487 703h-411q-10 0 -10 10v39q0 10 10 10h411q11 0 11 -10v-39q0 -10 -11 -10zM455 495h53q11 0 11 -14v-469q0 -12 -11 -12h-43q-8 0 -14.5 9.5t-6.5 18.5v43q-88 -78 -186 -78q-84 0 -144 49.5t-60 138.5v224q-2 49 -4 73q-2 17 9 17h43q27 0 27 -29v-275
q0 -59 35.5 -94.5t100.5 -35.5q92 0 179 89v331q0 14 11 14z" />
    <glyph glyph-name="Ubreve" unicode="&#x16c;" horiz-adv-x="769" 
d="M199 1038q7 -71 58 -117.5t127 -46.5q74 0 125 46t59 116q1 9 -2 15t-9 6h-33q-8 0 -12 -16q-8 -53 -47 -82.5t-81 -29.5q-45 0 -83 29t-46 84q-2 15 -11 15h-33q-14 0 -12 -19zM687 800h-53q-14 0 -14 -13v-481q0 -116 -71.5 -176.5t-166.5 -60.5q-93 0 -163 60.5
t-70 176.5v481q0 13 -13 13h-52q-14 0 -14 -13v-492q1 -126 85.5 -214t226.5 -88q143 0 229.5 88t87.5 214v492q0 13 -12 13z" />
    <glyph glyph-name="ubreve" unicode="&#x16d;" horiz-adv-x="574" 
d="M283 618q-76 0 -127 46.5t-58 117.5q-2 19 12 19h33q9 0 11 -15q8 -55 46 -84t83 -29q42 0 81 29.5t47 82.5q4 16 12 16h33q14 0 11 -21q-8 -70 -59 -116t-125 -46zM455 495h53q11 0 11 -14v-469q0 -12 -11 -12h-43q-8 0 -14.5 9.5t-6.5 18.5v43q-88 -78 -186 -78
q-84 0 -144 49.5t-60 138.5v224q-2 49 -4 73q-2 17 9 17h43q27 0 27 -29v-275q0 -59 35.5 -94.5t100.5 -35.5q92 0 179 89v331q0 14 11 14z" />
    <glyph glyph-name="Uring" unicode="&#x16e;" horiz-adv-x="769" 
d="M385 822q-50 0 -85.5 35.5t-35.5 85.5t35.5 85t85.5 35q49 0 84 -35.5t35 -84.5q0 -50 -35 -85.5t-84 -35.5zM385 866q32 0 54 22.5t22 54.5t-22 54t-54 22t-54.5 -22.5t-22.5 -53.5q0 -32 22.5 -54.5t54.5 -22.5zM687 800h-53q-14 0 -14 -13v-481q0 -116 -71.5 -176.5
t-166.5 -60.5q-93 0 -163 60.5t-70 176.5v481q0 13 -13 13h-52q-14 0 -14 -13v-492q1 -126 85.5 -214t226.5 -88q143 0 229.5 88t87.5 214v492q0 13 -12 13z" />
    <glyph glyph-name="uring" unicode="&#x16f;" horiz-adv-x="574" 
d="M283 566q-50 0 -85.5 35.5t-35.5 85.5t35.5 85t85.5 35q49 0 84 -35.5t35 -84.5q0 -50 -35 -85.5t-84 -35.5zM283 763q-32 0 -54.5 -22.5t-22.5 -53.5q0 -32 22.5 -54.5t54.5 -22.5t54 22.5t22 54.5t-22 54t-54 22zM455 495h53q11 0 11 -14v-469q0 -12 -11 -12h-43
q-8 0 -14.5 9.5t-6.5 18.5v43q-88 -78 -186 -78q-84 0 -144 49.5t-60 138.5v224q-2 49 -4 73q-2 17 9 17h43q27 0 27 -29v-275q0 -59 35.5 -94.5t100.5 -35.5q92 0 179 89v331q0 14 11 14z" />
    <glyph glyph-name="Uhungarumlaut" unicode="&#x170;" horiz-adv-x="769" 
d="M288 916h-33q-5 0 -9 3.5t-3 8.5l23 162q0 12 11 12h48q13 0 11 -12l-36 -162q-2 -12 -12 -12zM475 916h-33q-5 0 -9 3.5t-3 8.5l23 162q0 12 11 12h48q12 0 11 -12l-36 -162q-1 -12 -12 -12zM687 800h-53q-14 0 -14 -13v-481q0 -116 -71.5 -176.5t-166.5 -60.5
q-93 0 -163 60.5t-70 176.5v481q0 13 -13 13h-52q-14 0 -14 -13v-492q1 -126 85.5 -214t226.5 -88q143 0 229.5 88t87.5 214v492q0 13 -12 13z" />
    <glyph glyph-name="uhungarumlaut" unicode="&#x171;" horiz-adv-x="574" 
d="M187 660h-33q-5 0 -9 3.5t-3 8.5l23 162q0 12 11 12h48q12 0 11 -12l-36 -162q-1 -12 -12 -12zM374 660h-33q-5 0 -9 3.5t-3 8.5l23 162q0 12 11 12h48q13 0 11 -12l-36 -162q-2 -12 -12 -12zM455 495h53q11 0 11 -14v-469q0 -12 -11 -12h-43q-8 0 -14.5 9.5t-6.5 18.5
v43q-88 -78 -186 -78q-84 0 -144 49.5t-60 138.5v224q-2 49 -4 73q-2 17 9 17h43q27 0 27 -29v-275q0 -59 35.5 -94.5t100.5 -35.5q92 0 179 89v331q0 14 11 14z" />
    <glyph glyph-name="Uogonek" unicode="&#x172;" horiz-adv-x="769" 
d="M634 800h53q12 0 12 -13v-492q-1 -108 -66.5 -190.5t-177.5 -104.5q-153 -72 -153 -148q0 -36 25 -53t57 -17q51 0 98 26q6 3 12 0t6 -10v-23q0 -6 -8 -12q-59 -40 -137 -30q-48 6 -78 31.5t-30 71.5t42 89.5t105 67.5h-12q-142 0 -226.5 88t-85.5 214v492q0 13 14 13h52
q13 0 13 -13v-481q0 -116 70 -176.5t163 -60.5q95 0 166.5 60.5t71.5 176.5v481q0 13 14 13z" />
    <glyph glyph-name="uogonek" unicode="&#x173;" horiz-adv-x="574" 
d="M536 -191q6 3 12 0t6 -10v-23q0 -6 -8 -12q-59 -40 -137 -30q-48 6 -78 31.5t-30 71.5q0 49 47.5 95t116.5 68q-8 0 -14.5 9.5t-6.5 18.5v43q-88 -78 -186 -78q-84 0 -144 49.5t-60 138.5v224q-2 49 -4 73q-2 17 9 17h43q27 0 27 -29v-275q0 -59 35.5 -94.5t100.5 -35.5
q92 0 179 89v331q0 14 11 14h53q11 0 11 -14v-469q0 -12 -11 -12h-1q-151 -72 -151 -147q0 -36 25 -53t57 -17q51 0 98 26z" />
    <glyph glyph-name="Wcircumflex" unicode="&#x174;" horiz-adv-x="1132" 
d="M568 993l-181 -123q-8 -4 -13.5 -2t-5.5 9v36q0 5 7 12l179 134q13 9 28 0l179 -134q7 -5 7 -12v-36q0 -7 -5 -9t-13 2zM1028 801h68q6 0 9 -5t-1 -13l-372 -776q-5 -10 -15 -10h-9q-11 0 -14 10l-128 269l-128 -270q-5 -10 -15 -10h-9q-10 0 -15 10l-372 777q-3 7 0 12
t9 5h67q8 0 16 -16l300 -643l104 226l-198 417q-3 7 0 12t9 5h68q9 0 15 -16l149 -324l148 323q8 16 16 16h68q6 0 8.5 -5t-0.5 -13l-197 -415l104 -225l300 643q6 16 15 16z" />
    <glyph glyph-name="wcircumflex" unicode="&#x175;" horiz-adv-x="798" 
d="M399 735l-181 -123q-8 -4 -13.5 -2t-5.5 9v36q0 5 7 12l179 134q13 9 28 0l179 -134q7 -5 7 -12v-36q0 -7 -5.5 -9t-12.5 2zM704 495h60q12 0 7 -12l-180 -474q-3 -9 -13 -9h-10q-10 0 -14 9l-155 356l-155 -356q-4 -9 -13 -9h-11q-8 0 -13 9l-180 474q-5 12 7 12h60
q9 0 12 -8l129 -365l141 360q5 9 14 9h18q9 0 14 -9l142 -360l128 365q3 8 12 8z" />
    <glyph glyph-name="Ycircumflex" unicode="&#x176;" horiz-adv-x="749" 
d="M367 1059l-179 -134q-7 -7 -7 -12v-36q0 -7 5.5 -9t13.5 2l181 123l182 -123q7 -4 12.5 -2t5.5 9v36q0 7 -7 12l-179 134q-15 9 -28 0zM656 800h71q4 0 6 -4t-1 -8l-319 -457v-317q0 -14 -12 -14h-40q-26 0 -26 28v303l-319 457q-2 4 0 8t6 4h70q7 0 12 -10l270 -382
l270 382q7 10 12 10z" />
    <glyph glyph-name="ycircumflex" unicode="&#x177;" horiz-adv-x="558" 
d="M274 801l-179 -134q-7 -7 -7 -12v-36q0 -7 5.5 -9t13.5 2l181 123l182 -123q8 -4 13 -2t5 9v36q0 7 -7 12l-179 134q-15 9 -28 0zM463 495h59q15 0 9 -14l-205 -423q-117 -241 -236 -364q-9 -9 -21 4l-30 29q-11 11 1 24q55 62 113 148t92 165l-212 418q-7 13 7 13h62
q7 0 12 -8l171 -347l164 345q4 10 14 10z" />
    <glyph glyph-name="Ydieresis" unicode="&#x178;" horiz-adv-x="749" 
d="M242 965q-18 0 -31 13t-13 32t13 32t31 13q20 0 33 -13t13 -32t-13 -32t-33 -13zM520 965q-18 0 -31.5 13t-13.5 32t13.5 32t31.5 13q19 0 32 -13t13 -32t-13 -32t-32 -13zM656 800h71q4 0 6 -4t-1 -8l-319 -457v-317q0 -14 -12 -14h-40q-26 0 -26 28v303l-319 457
q-2 4 0 8t6 4h70q7 0 12 -10l270 -382l270 382q7 10 12 10z" />
    <glyph glyph-name="Zacute" unicode="&#x179;" horiz-adv-x="643" 
d="M200 885l-15 26q-6 8 2 14l207 143q11 10 18 -2l21 -35q6 -10 -5 -18l-212 -132q-11 -5 -16 4zM156 78h439q13 0 13 -13v-38q0 -27 -28 -27h-532q-13 0 -13 13v18l2 3l446 688h-432q-13 0 -13 14v51q0 13 13 13h540q14 0 14 -13v-16l-1 -2z" />
    <glyph glyph-name="zacute" unicode="&#x17a;" horiz-adv-x="485" 
d="M146 623l212 132q11 8 5 18l-21 35q-7 12 -18 2l-207 -143q-8 -6 -2 -14l15 -26q5 -9 16 -4zM167 76h252q12 0 12 -12v-52q0 -12 -12 -12h-352q-10 0 -15 9t0 17l16 25l248 368h-247q-12 0 -12 12v52q0 12 12 12h350q9 0 13 -8t1 -16l-13 -21z" />
    <glyph glyph-name="Zdotaccent" unicode="&#x17b;" horiz-adv-x="643" 
d="M320 971q-17 0 -29.5 12t-12.5 30q0 17 12.5 29.5t29.5 12.5q18 0 30 -12.5t12 -29.5q0 -18 -12 -30t-30 -12zM156 78h439q13 0 13 -13v-38q0 -27 -28 -27h-532q-13 0 -13 13v18l2 3l446 688h-432q-13 0 -13 14v51q0 13 13 13h540q14 0 14 -13v-16l-1 -2z" />
    <glyph glyph-name="zdotaccent" unicode="&#x17c;" horiz-adv-x="485" 
d="M250 713q-17 0 -29.5 12t-12.5 30q0 17 12.5 29.5t29.5 12.5q18 0 30 -12.5t12 -29.5q0 -18 -12 -30t-30 -12zM167 76h252q12 0 12 -12v-52q0 -12 -12 -12h-352q-10 0 -15 9t0 17l16 25l248 368h-247q-12 0 -12 12v52q0 12 12 12h350q9 0 13 -8t1 -16l-13 -21z" />
    <glyph glyph-name="Zcaron" unicode="&#x17d;" horiz-adv-x="643" 
d="M306 863l-179 134q-7 5 -7 11v36q0 8 5 10t13 -2l182 -123l181 123q7 4 12.5 2t5.5 -10v-36q0 -6 -7 -11l-178 -134q-13 -9 -28 0zM156 78h439q13 0 13 -13v-38q0 -27 -28 -27h-532q-13 0 -13 13v18l2 3l446 688h-432q-13 0 -13 14v51q0 13 13 13h540q14 0 14 -13v-16
l-1 -2z" />
    <glyph glyph-name="zcaron" unicode="&#x17e;" horiz-adv-x="485" 
d="M264 605l178 134q7 5 7 11v36q0 8 -5.5 10t-12.5 -2l-181 -123l-182 123q-8 4 -13 2t-5 -10v-36q0 -6 7 -11l179 -134q15 -9 28 0zM167 76h252q12 0 12 -12v-52q0 -12 -12 -12h-352q-10 0 -15 9t0 17l16 25l248 368h-247q-12 0 -12 12v52q0 12 12 12h350q9 0 13 -8t1 -16
l-13 -21z" />
    <glyph glyph-name="florin" unicode="&#x192;" horiz-adv-x="673" 
d="M626 786q10 -6 5 -16l-18 -39q-6 -10 -17 -5q-37 23 -80 23q-25 0 -47.5 -5.5t-45 -19t-36 -40.5t-13.5 -65v-120h104q13 0 13 -13v-38q0 -13 -13 -13h-104l1 -617v-3v-11q-4 -91 -61.5 -139t-147.5 -48q-65 0 -119 34q-11 6 -6 16l19 38q5 11 16 6q37 -23 81 -23
q56 0 98.5 29t42.5 101v617h-90q-13 0 -13 13v37q0 14 13 14h90v121q0 97 57.5 148.5t150.5 51.5q64 0 120 -34z" />
    <glyph glyph-name="Acaron" unicode="&#x1cd;" horiz-adv-x="872" 
d="M423 879l-179 134q-7 5 -7 11v36q0 8 5.5 10t12.5 -2l182 -123l181 123q8 4 13 2t5 -10v-36q0 -6 -7 -11l-178 -134q-13 -9 -28 0zM455 796l375 -783q6 -13 -7 -13h-61q-10 0 -14 9l-70 149h-483l-70 -149q-5 -9 -13 -9h-63q-13 0 -7 13l375 783q5 9 12 9h14q8 0 12 -9z
M229 230h415l-208 440z" />
    <glyph glyph-name="acaron" unicode="&#x1ce;" horiz-adv-x="525" 
d="M286 605l178 134q7 5 7 11v36q0 8 -5.5 10t-12.5 -2l-181 -123l-182 123q-8 4 -13 2t-5 -10v-36q0 -6 7 -11l179 -134q15 -9 28 0zM470 19q-14 131 -7 290q4 89 -42.5 140.5t-136.5 51.5q-115 0 -208 -51q-15 -7 -8 -19l17 -38q5 -12 19 -5q96 46 177 46q113 0 109 -114
q-71 -12 -117.5 -22t-94 -26t-74 -35t-43 -46.5t-16.5 -63.5q0 -61 43 -96.5t118 -35.5q59 0 101 15t90 46q6 -56 22 -56h42q12 0 9 19zM219 56q-43 0 -70 17.5t-27 54.5q0 26 18 45.5t54.5 33t73 22.5t90.5 20l31 6q-3 -75 0 -142q-84 -57 -170 -57z" />
    <glyph glyph-name="Icaron" unicode="&#x1cf;" horiz-adv-x="237" 
d="M133 867l178 134q7 5 7 11v36q0 8 -5 10t-13 -2l-181 -123l-182 123q-7 4 -12.5 2t-5.5 -10v-36q0 -6 7 -11l179 -134q15 -9 28 0zM144 800h-51q-13 0 -13 -13v-774q0 -13 13 -13h52q12 0 12 13v774q0 13 -13 13z" />
    <glyph glyph-name="icaron" unicode="&#x1d0;" horiz-adv-x="226" 
d="M128 605l178 134q7 5 7 11v36q0 8 -5.5 10t-12.5 -2l-181 -123l-182 123q-8 4 -13 2t-5 -10v-36q0 -6 7 -11l179 -134q15 -9 28 0zM138 495h-50q-13 0 -13 -13v-455q0 -27 25 -27h39q12 0 12 13v469q0 13 -13 13z" />
    <glyph glyph-name="Ocaron" unicode="&#x1d1;" horiz-adv-x="941" 
d="M485 877l178 134q7 5 7 11v36q0 8 -5 10t-13 -2l-181 -123l-182 123q-7 4 -12.5 2t-5.5 -10v-36q0 -6 7 -11l179 -134q15 -9 28 0zM471 -7q170 0 290 118.5t120 288.5t-120 288.5t-290 118.5q-171 0 -291 -118.5t-120 -288.5t120 -288.5t291 -118.5zM471 69
q-137 0 -235 97t-98 234t98 234t235 97t234 -97t97 -234t-97 -234t-234 -97z" />
    <glyph glyph-name="ocaron" unicode="&#x1d2;" horiz-adv-x="592" 
d="M310 605l178 134q7 5 7 11v36q0 8 -5.5 10t-12.5 -2l-181 -123l-182 123q-8 4 -13 2t-5 -10v-36q0 -6 7 -11l179 -134q15 -9 28 0zM297 -6q105 0 180 73.5t75 179.5q0 108 -75 182t-180 74q-107 0 -182 -74t-75 -182q0 -106 75.5 -179.5t181.5 -73.5zM297 65
q-77 0 -130 54.5t-53 127.5q0 75 53 129.5t130 54.5q76 0 128.5 -54.5t52.5 -129.5q0 -73 -52.5 -127.5t-128.5 -54.5z" />
    <glyph glyph-name="Ucaron" unicode="&#x1d3;" horiz-adv-x="769" 
d="M397 861l178 134q7 5 7 11v36q0 8 -5 10t-13 -2l-181 -123l-182 123q-7 4 -12.5 2t-5.5 -10v-36q0 -6 7 -11l179 -134q15 -9 28 0zM687 800h-53q-14 0 -14 -13v-481q0 -116 -71.5 -176.5t-166.5 -60.5q-93 0 -163 60.5t-70 176.5v481q0 13 -13 13h-52q-14 0 -14 -13v-492
q1 -126 85.5 -214t226.5 -88q143 0 229.5 88t87.5 214v492q0 13 -12 13z" />
    <glyph glyph-name="ucaron" unicode="&#x1d4;" horiz-adv-x="574" 
d="M268 605l-179 134q-7 5 -7 11v36q0 8 5 10t13 -2l182 -123l181 123q7 4 12.5 2t5.5 -10v-36q0 -6 -7 -11l-178 -134q-13 -9 -28 0zM455 495h53q11 0 11 -14v-469q0 -12 -11 -12h-43q-8 0 -14.5 9.5t-6.5 18.5v43q-88 -78 -186 -78q-84 0 -144 49.5t-60 138.5v224
q-2 49 -4 73q-2 17 9 17h43q27 0 27 -29v-275q0 -59 35.5 -94.5t100.5 -35.5q92 0 179 89v331q0 14 11 14z" />
    <glyph glyph-name="Gcaron" unicode="&#x1e6;" 
d="M423 870l-179 134q-7 5 -7 11v36q0 8 5.5 10t12.5 -2l182 -123l181 123q8 4 13 2t5 -10v-36q0 -6 -7 -11l-178 -134q-13 -9 -28 0zM462 322h276q14 0 14 -14l-1 -181q0 -7 -8 -15q-119 -119 -289 -119t-289.5 118t-119.5 288t120 289t289 119q172 0 291 -119
q13 -13 4 -21l-42 -35q-10 -9 -20 1q-37 39 -97 68.5t-130 29.5q-78 0 -143.5 -30t-107 -78t-64 -106t-22.5 -118q0 -82 38 -156t117 -124t182 -50q121 0 213 86v92h-211q-13 0 -13 12v49q0 14 13 14z" />
    <glyph glyph-name="gcaron" unicode="&#x1e7;" horiz-adv-x="613" 
d="M320 605l178 134q7 5 7 11v36q0 8 -5.5 10t-12.5 -2l-181 -123l-182 123q-8 4 -13 2t-5 -10v-36q0 -6 7 -11l179 -134q15 -9 28 0zM402 -24q42 -6 70.5 -13.5t56.5 -23t41 -42.5t11 -65q-5 -88 -84.5 -137t-202.5 -49q-106 0 -171 44t-62 127q3 96 108 124
q-55 7 -93.5 34t-41.5 70q-2 43 31.5 67.5t84.5 13.5q-27 18 -48.5 58t-22.5 86q-3 98 61.5 164t160.5 66q28 0 88.5 -6.5t134.5 -3.5q6 0 9.5 -2.5t2.5 -8.5l-2 -39q-15 -6 -80 -8q75 -53 77 -164q-1 -96 -65.5 -154.5t-157.5 -55.5q-57 1 -119 32q-35 10 -59 -0.5
t-22 -34.5q4 -44 115 -57q153 -19 179 -22zM306 428q-65 0 -109.5 -43.5t-43.5 -109.5q-1 -59 44.5 -102t107.5 -44q70 0 110.5 40.5t41.5 105.5q-1 67 -44.5 110t-106.5 43zM302 -284q82 0 139 30.5t59 82.5q2 31 -18.5 48.5t-73.5 26.5q-50 10 -168 23q-35 4 -69 -24
t-35 -74q-2 -58 45.5 -85.5t120.5 -27.5z" />
    <glyph glyph-name="Scommaaccent" unicode="&#x218;" horiz-adv-x="625" 
d="M344 436q40 -15 66.5 -26.5t62 -32t56.5 -42.5t36 -54.5t15 -70.5q0 -89 -75 -152.5t-192 -63.5q-141 0 -259 118q-13 13 -4 22l28 33q12 12 26 2q1 -1 14 -13t24 -20.5t31.5 -22.5t40 -23t46 -15.5t52.5 -6.5q93 0 141.5 42t48.5 101q0 19 -6 35t-13.5 28.5t-23.5 24.5
t-27.5 19.5t-35 17l-36.5 14.5t-40 14.5l-39 13.5q-106 40 -163.5 88.5t-57.5 130.5q0 39 14.5 75t43.5 67t79.5 49.5t114.5 18.5q127 0 236 -95q14 -12 5 -24l-26 -34q-10 -13 -23 -4q-1 1 -11 9t-18.5 14l-22.5 15.5t-28.5 16t-32.5 13.5t-38 10.5t-40 3.5
q-82 0 -128.5 -38t-46.5 -97q0 -26 11.5 -47t25.5 -35t47 -30t54 -24zM358 -157q4 -7 5 -16q5 -48 -8 -108q-15 -63 -60 -106q-7 -7 -14 -3l-12 10q-7 3 -3 10q46 52 46 113v33l-9 -1q-22 0 -38 16.5t-16 38.5t16 37.5t38 15.5q42 0 55 -40z" />
    <glyph glyph-name="scommaaccent" unicode="&#x219;" horiz-adv-x="469" 
d="M244 281q81 -22 130.5 -55.5t49.5 -91.5q0 -63 -53 -102t-141 -39q-54 0 -103.5 20t-75.5 40q-10 8 -4 15l25 36q7 11 17 6q4 -4 20.5 -13.5t51.5 -20.5t69 -11q58 0 84 20t26 49q0 33 -31 50t-93 34q-166 43 -166 145q0 58 48 98.5t131 40.5q76 0 163 -51q14 -7 7 -17
l-26 -38q-6 -11 -17 -5q-74 38 -127 38q-56 0 -78 -22t-22 -47q0 -16 9 -28.5t28 -22t35 -15t43 -13.5zM284 -158q4 -7 5 -16q5 -48 -8 -108q-15 -63 -60 -106q-7 -7 -14 -3l-12 10q-7 3 -3 10q46 52 46 113v33l-9 -1q-22 0 -38 16.5t-16 38.5t16 37.5t38 15.5q42 0 55 -40z
" />
    <glyph glyph-name="uni021A" unicode="&#x21a;" horiz-adv-x="712" 
d="M59 800h595q13 0 13 -13v-50q0 -13 -13 -13h-258v-710q0 -14 -12 -14h-40q-27 0 -27 28v696h-258q-14 0 -14 13v49q0 14 14 14zM410 -155q4 -7 5 -16q5 -48 -8 -108q-15 -63 -60 -106q-7 -7 -14 -3l-12 10q-7 3 -3 10q46 52 46 113v33l-9 -1q-22 0 -38 16.5t-16 38.5
t16 37.5t38 15.5q42 0 55 -40z" />
    <glyph glyph-name="uni021B" unicode="&#x21b;" horiz-adv-x="385" 
d="M335 69l9 -40q4 -7 -10 -15q-36 -19 -91 -19q-75 0 -102 43t-27 141v243h-62q-12 0 -12 12v15q0 9 7 14q49 23 72.5 58t41.5 120q3 10 9 10h12q8 0 8 -11v-145h124q13 0 13 -13v-48q0 -12 -13 -12h-105q-13 0 -20 3v-236q0 -67 11.5 -95t53.5 -28q29 0 61 10q17 5 20 -7z
M295 -157q3 -7 5 -16q5 -48 -8 -108q-15 -63 -60 -106q-7 -7 -14 -3l-12 10q-7 3 -3 10q46 52 46 113v33l-9 -1q-22 0 -38 16.5t-16 38.5t16 37.5t38 15.5q42 0 55 -40z" />
    <glyph glyph-name="uni0228" unicode="&#x228;" horiz-adv-x="661" 
d="M588 724h-434v-293h268q14 0 14 -14v-48q0 -13 -14 -13h-268v-280h434q14 0 14 -14v-48q0 -14 -14 -14h-230l-39 -66q16 2 24 2q54 0 92.5 -38t38.5 -92q0 -53 -39 -92t-94 -39q-67 0 -107 51q-5 6 -1 10l17 18q9 8 15 1q32 -34 74 -34q41 0 64.5 24.5t23.5 60.5
q0 35 -22.5 59.5t-62.5 24.5q-39 0 -72 -34q-9 -9 -15 -3l-17 19q-4 3 -2 8l7 10l64 110h-219q-13 0 -13 13v774q0 13 13 13h500q14 0 14 -13v-50q0 -13 -14 -13z" />
    <glyph glyph-name="uni0229" unicode="&#x229;" horiz-adv-x="564" 
d="M526 261q0 -47 -48 -47h-360q7 -62 55.5 -107t124.5 -45q92 0 160 68q12 10 20 -1l13 -17q9 -9 2 -18q-65 -85 -169 -98l2 4h-51l-3 -5q-100 7 -167 78t-67 175q0 107 71 180.5t175 73.5q105 0 173.5 -71t68.5 -170zM117 275h331q-3 57 -46 107t-119 50
q-77 0 -120.5 -49.5t-45.5 -107.5zM211 -110l61 105l19 -1q11 0 33 2l-37 -62q16 2 24 2q54 0 92.5 -38t38.5 -92q0 -53 -39 -92t-94 -39q-67 0 -107 51q-5 6 -1 10l17 18q9 8 15 1q32 -34 74 -34q41 0 64.5 24.5t23.5 60.5q0 35 -22.5 59.5t-62.5 24.5q-39 0 -72 -34
q-9 -9 -15 -3l-17 19q-4 3 -2 8z" />
    <glyph glyph-name="dotlessj" unicode="&#x237;" horiz-adv-x="210" 
d="M127 495h-51q-12 0 -12 -13v-582q0 -39 -11.5 -58t-44.5 -34q-11 -4 -6 -15l25 -50q4 -9 16 -4q54 23 75.5 62.5t21.5 98.5l-1 582q0 13 -12 13z" />
    <glyph glyph-name="circumflex" unicode="&#x2c6;" horiz-adv-x="493" 
d="M233 805l-179 -134q-7 -7 -7 -12v-36q0 -7 5.5 -9t13.5 2l181 123l182 -123q7 -4 12.5 -2t5.5 9v36q0 7 -7 12l-179 134q-15 9 -28 0z" />
    <glyph glyph-name="caron" unicode="&#x2c7;" horiz-adv-x="493" 
d="M261 610l178 134q7 5 7 11v36q0 8 -5 10t-13 -2l-181 -123l-182 123q-7 4 -12.5 2t-5.5 -10v-36q0 -6 7 -11l179 -134q15 -9 28 0z" />
    <glyph glyph-name="breve" unicode="&#x2d8;" horiz-adv-x="447" 
d="M39 782q7 -71 58 -117.5t127 -46.5q74 0 125 46t59 116q1 9 -2 15t-9 6h-33q-8 0 -12 -16q-8 -53 -47 -82.5t-81 -29.5q-45 0 -83 29t-46 84q-2 15 -11 15h-33q-14 0 -12 -19z" />
    <glyph glyph-name="dotaccent" unicode="&#x2d9;" horiz-adv-x="222" 
d="M111 713q-17 0 -29.5 12t-12.5 30q0 17 12.5 29.5t29.5 12.5q18 0 30 -12.5t12 -29.5q0 -18 -12 -30t-30 -12z" />
    <glyph glyph-name="ring" unicode="&#x2da;" horiz-adv-x="352" 
d="M177 566q-50 0 -85.5 35.5t-35.5 85.5t35.5 85t85.5 35q49 0 84 -35.5t35 -84.5q0 -50 -35 -85.5t-84 -35.5zM177 610q32 0 54 22.5t22 54.5t-22 54t-54 22t-54.5 -22.5t-22.5 -53.5q0 -32 22.5 -54.5t54.5 -22.5z" />
    <glyph glyph-name="ogonek" unicode="&#x2db;" horiz-adv-x="333" 
d="M248 0h-41q-70 -22 -118.5 -68t-48.5 -96q0 -46 30 -71.5t78 -31.5q78 -10 137 30q8 6 8 12v23q0 7 -6 10t-12 0q-47 -26 -98 -26q-32 0 -57 17t-25 53q0 76 153 148z" />
    <glyph glyph-name="tilde" unicode="&#x2dc;" horiz-adv-x="535" 
d="M43 696l23 -25q8 -6 15 2q42 48 92 48q28 0 52 -12t38.5 -27t40 -27t56.5 -12q13 0 25.5 2.5t23 6.5t20 9t18 11t15.5 11.5t12.5 11t9 9.5t6.5 7l2 3q7 7 0 14l-23 26q-8 8 -14 -1q-45 -45 -97 -45q-30 0 -58.5 19.5l-59.5 39t-69 19.5q-35 0 -68 -20t-44 -33t-17 -22
q-5 -9 1 -15z" />
    <glyph glyph-name="hungarumlaut" unicode="&#x2dd;" horiz-adv-x="360" 
d="M85 660h-33q-5 0 -9 3.5t-3 8.5l23 162q0 12 11 12h48q12 0 11 -12l-36 -162q-1 -12 -12 -12zM272 660h-33q-5 0 -9 3.5t-3 8.5l23 162q0 12 11 12h48q13 0 11 -12l-36 -162q-2 -12 -12 -12z" />
    <glyph glyph-name="uni0326" unicode="&#x326;" horiz-adv-x="0" 
d="M184 -173q5 -48 -8 -108q-15 -63 -60 -106q-7 -7 -14 -3l-12 10q-7 3 -3 10q46 52 46 113v33l-9 -1q-22 0 -38 16.5t-16 38.5t16 37.5t38 15.5q42 0 55 -40q3 -7 5 -16z" />
    <glyph glyph-name="Delta" unicode="&#x394;" horiz-adv-x="854" 
d="M446 797l371 -786q4 -11 -7 -11h-764q-13 0 -8 12l371 785q6 8 11 8h16q7 0 10 -8zM151 80h552l-275 593z" />
    <glyph glyph-name="Omega" unicode="&#x3a9;" horiz-adv-x="865" 
d="M24 63v-51q0 -12 11 -12h327q11 0 11 12v36q0 7 -2.5 11.5t-3.5 5t-9 5.5q-99 35 -179.5 128t-80.5 201q0 138 97.5 237t237.5 99q139 0 236 -99t97 -237q0 -108 -80 -201t-179 -128q-6 -3 -7 -4t-4 -3.5t-3.5 -5.5t-0.5 -9v-36q0 -12 11 -12h328q10 0 10 12v51
q0 11 -10 11h-214q82 34 155 126.5t73 208.5q0 170 -120 286.5t-292 116.5q-173 0 -293 -116.5t-120 -286.5q0 -61 22 -118.5t57 -99.5t72.5 -72t73.5 -45h-210q-11 0 -11 -11z" />
    <glyph glyph-name="mu" unicode="&#x3bc;" horiz-adv-x="570" 
d="M467 500h49q14 0 14 -13v-272q0 -100 -55 -164t-152 -64q-90 -1 -177 63v-237q0 -13 -14 -13h-48q-14 0 -14 13v674q0 13 14 13h49q14 0 14 -13l-1 -348q59 -56 117.5 -72.5t99 1t66 56t25.5 86.5v277q0 13 13 13z" />
    <glyph glyph-name="pi" unicode="&#x3c0;" horiz-adv-x="720" 
d="M53 500l613 1q14 0 14 -14v-41q0 -15 -14 -15h-109v-277q0 -39 10.5 -57.5t42.5 -33.5q11 -4 6 -15l-24 -48q-4 -9 -16 -5q-93 40 -96 148v288h-234l1 -417q0 -14 -14 -14h-49q-14 0 -14 14v417h-117q-13 0 -13 14v41q0 14 13 14z" />
    <glyph glyph-name="uni0401" unicode="&#x401;" horiz-adv-x="661" 
d="M201 973q-18 0 -31 13t-13 32t13 32t31 13q20 0 33 -13t13 -32t-13 -32t-33 -13zM479 973q-18 0 -31.5 13t-13.5 32t13.5 32t31.5 13q19 0 32 -13t13 -32t-13 -32t-32 -13zM588 724h-434v-293h268q14 0 14 -14v-48q0 -13 -14 -13h-268v-280h434q14 0 14 -14v-48
q0 -14 -14 -14h-500q-13 0 -13 13v774q0 13 13 13h500q14 0 14 -13v-50q0 -13 -14 -13z" />
    <glyph glyph-name="uni0403" unicode="&#x403;" horiz-adv-x="652" 
d="M209 870l-15 26q-6 8 2 14l207 143q11 10 18 -2l21 -35q6 -10 -5 -18l-212 -132q-11 -5 -16 4zM68 800h507q25 0 25 -27v-43q0 -12 -15 -9q-42 3 -45 3h-406v-711q0 -13 -12 -13h-54q-13 0 -13 13v774q0 13 13 13z" />
    <glyph glyph-name="uni0404" unicode="&#x404;" 
d="M705 169l42 -35q11 -8 -4 -22q-119 -119 -289 -119t-289.5 118t-119.5 288t120 289t289 119q172 0 291 -119q13 -13 4 -21l-42 -35q-10 -9 -20 1q-37 39 -97 68.5t-130 29.5q-141 0 -230 -87.5t-105 -205.5h394q13 0 13 -13v-50q0 -13 -13 -13h-394q14 -119 103.5 -206
t231.5 -87q128 0 224 96q12 12 21 4z" />
    <glyph glyph-name="uni0406" unicode="&#x406;" horiz-adv-x="237" 
d="M144 800h-51q-13 0 -13 -13v-774q0 -13 13 -13h52q12 0 12 13v774q0 13 -13 13z" />
    <glyph glyph-name="uni0407" unicode="&#x407;" horiz-adv-x="237" 
d="M-20 968q-18 0 -31 13t-13 32t13 32t31 13q20 0 33 -13t13 -32t-13 -32t-33 -13zM258 968q-18 0 -31.5 13t-13.5 32t13.5 32t31.5 13q19 0 32 -13t13 -32t-13 -32t-32 -13zM144 800h-51q-13 0 -13 -13v-774q0 -13 13 -13h52q12 0 12 13v774q0 13 -13 13z" />
    <glyph glyph-name="uni0408" unicode="&#x408;" horiz-adv-x="284" 
d="M132 800h45q27 0 27 -27v-867q-1 -71 -37.5 -127t-95.5 -86q-12 -7 -19 3l-25 48q-4 12 6 17q92 49 92 152v836q0 14 -4 36q-2 15 11 15z" />
    <glyph glyph-name="uni040C" unicode="&#x40c;" horiz-adv-x="632" 
d="M196 867l-15 26q-6 8 2 14l207 143q11 10 18 -2l21 -35q6 -10 -5 -18l-212 -132q-11 -5 -16 4zM216 421l389 -395q8 -8 4.5 -17t-15.5 -9h-57q-9 0 -17 8l-398 406v-401q0 -13 -13 -13h-52q-13 0 -13 13v727q0 17 -4 45q-2 15 10 15h45q27 0 27 -25v-347l365 364
q8 8 16 8h61q10 0 13.5 -9t-3.5 -16z" />
    <glyph glyph-name="uni040D" unicode="&#x40d;" horiz-adv-x="835" 
d="M290 995l212 -132q11 -5 17 4l15 26q4 9 -3 14l-207 143q-10 10 -18 -2l-21 -35q-5 -11 5 -18zM86 800h56q11 0 11 -11v-645l543 645q10 11 18 11h34q12 0 12 -12v-775q0 -13 -13 -13h-52q-13 0 -13 13v639l-527 -621q-27 -31 -47 -31h-21q-12 0 -12 11v778q0 11 11 11z
" />
    <glyph glyph-name="uni040E" unicode="&#x40e;" horiz-adv-x="644" 
d="M137 1022q7 -71 58 -117.5t127 -46.5q74 0 125 46t59 116q1 9 -2 15t-9 6h-33q-8 0 -12 -16q-8 -53 -47 -82.5t-81 -29.5q-45 0 -83 29t-46 84q-2 15 -11 15h-33q-14 0 -12 -19zM560 800h59q7 0 9.5 -4t-1.5 -10l-258 -494q-81 -157 -222 -303q-9 -9 -19 2l-30 35
q-9 11 1 21q117 124 180 234l-263 505q-5 14 8 14h61q9 0 13 -9l224 -432l223 431q7 10 15 10z" />
    <glyph glyph-name="uni0410" unicode="&#x410;" horiz-adv-x="872" 
d="M455 796l375 -783q6 -13 -7 -13h-61q-10 0 -14 9l-70 149h-483l-70 -149q-5 -9 -13 -9h-63q-13 0 -7 13l375 783q5 9 12 9h14q8 0 12 -9zM229 230h415l-208 440z" />
    <glyph glyph-name="uni0411" unicode="&#x411;" horiz-adv-x="679" 
d="M134 441h233q114 0 187 -64.5t73 -159.5q0 -93 -70.5 -155t-174.5 -62h-314q-13 0 -13 13v774q0 13 13 13h508q25 0 25 -27v-43q0 -12 -15 -9q-42 3 -44 3h-408v-283zM134 76h234q57 0 99 21.5t61 53.5t19 70t-19 70t-61 53.5t-99 21.5h-234v-290z" />
    <glyph glyph-name="uni0412" unicode="&#x412;" horiz-adv-x="682" 
d="M481 417q70 -23 109.5 -77.5t39.5 -123.5q0 -94 -71.5 -155t-172.5 -61h-318q-13 0 -13 13v774q0 13 13 13h301q95 0 157.5 -62t62.5 -145q0 -61 -30 -107t-78 -69zM134 441h218q42 0 75.5 15.5t51 40.5t26 55t1 60.5t-24 55.5t-49.5 40.5t-76 15.5h-222v-283zM134 76
h237q49 0 88 16t58.5 41.5t29 56.5t0 62.5t-29.5 57t-59 41.5t-89 16h-235v-291z" />
    <glyph glyph-name="uni0413" unicode="&#x413;" horiz-adv-x="652" 
d="M68 800h507q25 0 25 -27v-43q0 -12 -15 -9q-42 3 -45 3h-406v-711q0 -13 -12 -13h-54q-13 0 -13 13v774q0 13 13 13z" />
    <glyph glyph-name="uni0414" unicode="&#x414;" horiz-adv-x="800" 
d="M677 76h70q13 0 13 -13v-144q0 -13 -13 -13h-51q-12 0 -12 13v81h-568v-81q0 -13 -12 -13h-51q-13 0 -13 13v144q0 13 13 13h63q47 124 62 294.5t15 408.5v1q0 20 20 20h444q20 0 20 -20v-704zM601 724h-332q0 -144 -2.5 -230t-19 -209.5t-48.5 -208.5h402v648z" />
    <glyph glyph-name="uni0415" unicode="&#x415;" horiz-adv-x="661" 
d="M588 724h-434v-293h268q14 0 14 -14v-48q0 -13 -14 -13h-268v-280h434q14 0 14 -14v-48q0 -14 -14 -14h-500q-13 0 -13 13v774q0 13 13 13h500q14 0 14 -13v-50q0 -13 -14 -13z" />
    <glyph glyph-name="uni0416" unicode="&#x416;" horiz-adv-x="1134" 
d="M700 412l393 -386q8 -8 4.5 -17t-15.5 -9h-57q-9 0 -17 8l-401 395v-390q0 -13 -13 -13h-54q-12 0 -12 13v398l-402 -403q-8 -8 -17 -8h-57q-12 0 -15.5 9t4.5 17l394 393l-358 356q-8 7 -4.5 16t14.5 9h60q10 0 16 -8l365 -365v313l-2.5 25t-1.5 20q-3 15 9 15h46
q28 0 28 -25v-354l364 371q8 8 16 8h61q10 0 13.5 -9t-4.5 -16z" />
    <glyph glyph-name="uni0417" unicode="&#x417;" horiz-adv-x="632" 
d="M412 414q80 -29 127.5 -84.5t47.5 -123.5q0 -92 -81 -153t-194 -61q-180 0 -263 136q-7 13 1 18l38 33q11 8 18 -2q28 -52 83 -80.5t126 -28.5q80 0 136.5 39.5t56.5 101.5q0 69 -66 119.5t-180 51.5v67q112 1 172 45.5t60 104.5q0 58 -51.5 96.5t-127.5 38.5
q-66 0 -118.5 -29t-80.5 -80q-8 -10 -19 -2l-37 33q-10 6 -1 18q80 136 253 136q112 0 187 -60.5t75 -147.5q0 -60 -42.5 -109.5t-119.5 -76.5z" />
    <glyph glyph-name="uni0418" unicode="&#x418;" horiz-adv-x="835" 
d="M86 800h56q11 0 11 -11v-645l543 645q10 11 18 11h34q12 0 12 -12v-775q0 -13 -13 -13h-52q-13 0 -13 13v639l-527 -621q-27 -31 -47 -31h-21q-12 0 -12 11v778q0 11 11 11z" />
    <glyph glyph-name="uni0419" unicode="&#x419;" horiz-adv-x="840" 
d="M243 964q7 -71 58 -117.5t127 -46.5q74 0 125 46t59 116q1 9 -2 15t-9 6h-30q-10 0 -12 -16q-9 -53 -46.5 -83.5t-84.5 -30.5q-49 0 -86 29.5t-46 85.5q-2 15 -10 15h-31q-14 0 -12 -19zM86 800h56q11 0 11 -11v-645l543 645q10 11 18 11h34q12 0 12 -12v-775
q0 -13 -13 -13h-52q-13 0 -13 13v639l-527 -621q-27 -31 -47 -31h-21q-12 0 -12 11v778q0 11 11 11z" />
    <glyph glyph-name="uni041A" unicode="&#x41a;" horiz-adv-x="632" 
d="M216 421l389 -395q8 -8 4.5 -17t-15.5 -9h-57q-9 0 -17 8l-398 406v-401q0 -13 -13 -13h-52q-13 0 -13 13v727q0 17 -4 45q-2 15 10 15h45q27 0 27 -25v-347l365 364q8 8 16 8h61q10 0 13.5 -9t-3.5 -16z" />
    <glyph glyph-name="uni041B" unicode="&#x41b;" horiz-adv-x="758" 
d="M170 800h508q20 0 20 -20v-768q0 -12 -12 -12h-53q-11 0 -11 12v712h-396v-549q0 -96 -46 -138t-118 -42q-22 0 -29.5 3t-7.5 11v45q0 16 18 16q57 0 82 24.5t25 82.5v603q0 20 20 20z" />
    <glyph glyph-name="uni041C" unicode="&#x41c;" horiz-adv-x="1069" 
d="M935 800h47q12 0 12 -14v-772q0 -14 -13 -14h-52q-14 0 -14 14v626l-364 -614q-6 -10 -15 -10h-4q-9 0 -15 10l-363 614v-626q0 -14 -13 -14h-52q-14 0 -14 14v773q0 13 12 13h48q9 0 15 -9l384 -648l385 648q5 9 16 9z" />
    <glyph glyph-name="uni041D" unicode="&#x41d;" horiz-adv-x="811" 
d="M670 800h52q14 0 14 -13v-774q0 -13 -12 -13h-40q-26 0 -26 27v328h-505v-341q0 -14 -13 -14h-51q-14 0 -14 14v773q0 13 13 13h52q13 0 13 -13v-354h505v354q0 13 12 13z" />
    <glyph glyph-name="uni041E" unicode="&#x41e;" horiz-adv-x="941" 
d="M471 -7q170 0 290 118.5t120 288.5t-120 288.5t-290 118.5q-171 0 -291 -118.5t-120 -288.5t120 -288.5t291 -118.5zM471 69q-137 0 -235 97t-98 234t98 234t235 97t234 -97t97 -234t-97 -234t-234 -97z" />
    <glyph glyph-name="uni041F" unicode="&#x41f;" horiz-adv-x="763" 
d="M83 800h597q13 0 13 -13v-774q0 -13 -12 -13h-52q-12 0 -12 13v709h-471v-709q0 -13 -12 -13h-51q-13 0 -13 13v774q0 13 13 13z" />
    <glyph glyph-name="uni0420" unicode="&#x420;" horiz-adv-x="677" 
d="M83 800h290q65 0 119 -24t87 -63t50.5 -84.5t17.5 -91.5q0 -64 -29.5 -123t-94 -100t-150.5 -41h-224v-259q0 -14 -12 -14h-54q-13 0 -13 14v773q0 13 13 13zM149 348h221q92 0 145 56.5t53 132.5t-53 131.5t-145 55.5h-221v-376z" />
    <glyph glyph-name="uni0421" unicode="&#x421;" 
d="M705 169l42 -35q11 -8 -4 -22q-119 -119 -289 -119t-289.5 118t-119.5 288t120 289t289 119q172 0 291 -119q13 -13 4 -21l-42 -35q-10 -9 -20 1q-37 39 -97 68.5t-130 29.5q-78 0 -143.5 -30t-107 -78t-64 -106t-22.5 -118q0 -82 38 -156t117 -124t182 -50q128 0 224 96
q12 12 21 4z" />
    <glyph glyph-name="uni0422" unicode="&#x422;" horiz-adv-x="712" 
d="M59 800h595q13 0 13 -13v-50q0 -13 -13 -13h-258v-710q0 -14 -12 -14h-40q-27 0 -27 28v696h-258q-14 0 -14 13v49q0 14 14 14z" />
    <glyph glyph-name="uni0423" unicode="&#x423;" horiz-adv-x="644" 
d="M560 800h59q7 0 9.5 -4t-1.5 -10l-258 -494q-81 -157 -222 -303q-9 -9 -19 2l-30 35q-9 11 1 21q117 124 180 234l-263 505q-5 14 8 14h61q9 0 13 -9l224 -432l223 431q7 10 15 10z" />
    <glyph glyph-name="uni0424" unicode="&#x424;" horiz-adv-x="856" 
d="M468 700h23q73 0 133 -26t98 -69t58.5 -95.5t20.5 -107.5q0 -121 -83 -210.5t-226 -89.5h-24v-93q0 -10 -10 -10h-55q-9 0 -9 10v93h-25q-143 0 -226 89.5t-83 210.5q0 55 20.5 107.5t58.5 95.5t98 69t133 26h24v92q0 10 9 10h54q9 0 11 -10v-92zM366 175h28v452h-28
q-105 0 -165.5 -66.5t-60.5 -156.5q0 -91 61.5 -160t164.5 -69zM468 175h27q103 0 164.5 69t61.5 160q0 90 -60.5 156.5t-165.5 66.5h-27v-452z" />
    <glyph glyph-name="uni0425" unicode="&#x425;" horiz-adv-x="723" 
d="M408 400l280 -386q4 -5 3 -9.5t-6 -4.5h-75q-7 0 -16 14l-233 321l-233 -321q-9 -14 -15 -14h-76q-5 0 -6 4.5t3 9.5l280 386l-283 390q-5 10 5 10h77q5 0 12 -10l236 -325l236 325q8 10 13 10h75q11 0 6 -10z" />
    <glyph glyph-name="uni0426" unicode="&#x426;" horiz-adv-x="741" 
d="M710 -58q4 -16 -9 -16h-45q-27 0 -27 25v49h-534v1h-42q-13 0 -13 12v775q0 13 12 13h52q12 0 12 -13v-710h451v710q0 13 12 13h52q12 0 12 -13v-710h50q14 0 14 -15l-1 -77l2.5 -24t1.5 -20z" />
    <glyph glyph-name="uni0427" unicode="&#x427;" horiz-adv-x="608" 
d="M557 17q3 -16 -10 -16h-44q-25 0 -28 25v350q-94 -62 -187 -62q-109 0 -178.5 59t-70.5 151v214q0 19 -4 47q-2 16 11 16h44q27 0 27 -28v-239q0 -61 48.5 -104.5t122.5 -43.5q94 0 188 74v328q0 13 13 13h51q13 0 13 -13v-724l2.5 -26.5t1.5 -20.5z" />
    <glyph glyph-name="uni0428" unicode="&#x428;" horiz-adv-x="1190" 
d="M1076 800h52q12 0 12 -13v-774q0 -13 -13 -13h-1064q-13 0 -13 13v774q0 13 12 13h52q12 0 12 -13v-709h431v709q0 13 12 13h52q12 0 12 -13v-709h431v709q0 13 12 13z" />
    <glyph glyph-name="uni0429" unicode="&#x429;" horiz-adv-x="1238" 
d="M1207 -58q2 -16 -9 -16h-45q-27 0 -27 25v49h-1063q-13 0 -13 13v774q0 13 12 13h52q12 0 12 -13v-709h431v709q0 13 12 13h52q12 0 12 -13v-709h431v710q0 13 12 13h52q12 0 12 -13v-710h49q15 0 15 -15l-1 -77q1 -26 4 -44z" />
    <glyph glyph-name="uni042A" unicode="&#x42a;" horiz-adv-x="801" 
d="M253 441h235q114 0 187 -64.5t73 -159.5q0 -93 -70.5 -155t-174.5 -62h-313q-13 0 -13 13v709h-102q-17 0 -45 -4q-15 -2 -15 10v45q0 27 25 27h200q13 0 13 -13v-346zM254 76h235q57 0 99 21.5t61 53.5t19 70t-19 70t-61 53.5t-99 21.5h-235v-290z" />
    <glyph glyph-name="uni042B" unicode="&#x42b;" horiz-adv-x="900" 
d="M126 441h235q114 0 187 -64.5t73 -159.5q0 -93 -70.5 -155t-174.5 -62h-313q-13 0 -13 13v774q0 13 13 13h50q13 0 13 -13v-346zM819 787l1 -774q0 -13 -12 -13h-52q-13 0 -13 13v774q0 13 13 13h51q12 0 12 -13zM126 76h236q57 0 99 21.5t61 53.5t19 70t-19 70t-61 53.5
t-99 21.5h-236v-290z" />
    <glyph glyph-name="uni042C" unicode="&#x42c;" horiz-adv-x="679" 
d="M130 441h235q114 0 187 -64.5t73 -159.5q0 -93 -70.5 -155t-174.5 -62h-313q-13 0 -13 13v774q0 13 13 13h51q12 0 12 -13v-346zM131 76h235q57 0 99.5 21.5t61 53.5t18.5 70t-18.5 70t-61 53.5t-99.5 21.5h-235v-290z" />
    <glyph glyph-name="uni042D" unicode="&#x42d;" 
d="M344 807q169 0 289 -119t120 -289t-119.5 -288t-289.5 -118t-289 119q-15 14 -4 22l42 35q9 8 21 -4q96 -96 224 -96q142 0 231.5 87t103.5 206h-394q-13 0 -13 13v50q0 13 13 13h394q-16 118 -105 205.5t-230 87.5q-70 0 -130 -29.5t-97 -68.5q-10 -10 -20 -1l-42 35
q-9 8 4 21q119 119 291 119z" />
    <glyph glyph-name="uni042E" unicode="&#x42e;" horiz-adv-x="1199" 
d="M730 807q169 0 289 -118.5t120 -288.5t-120 -288.5t-289 -118.5q-161 0 -278.5 105.5t-131.5 263.5h-163v-349q0 -13 -12 -13h-52q-13 0 -13 13v774q0 13 13 13h51q13 0 13 -13v-349h163q14 157 131.5 263t278.5 106zM730 69q136 0 233.5 97t97.5 234t-97.5 234
t-233.5 97q-137 0 -235 -97t-98 -234t98 -234t235 -97z" />
    <glyph glyph-name="uni042F" unicode="&#x42f;" horiz-adv-x="695" 
d="M321 800h301q13 0 13 -13v-773q0 -14 -13 -14h-52q-14 0 -14 14v259h-232l-178 -251q-15 -22 -32 -22h-52q-16 0 -7 14l192 268q-92 23 -142.5 96.5t-50.5 157.5q0 46 16.5 91.5t48 85t84.5 63.5t118 24zM326 349h230l1 375h-231q-91 0 -142 -55t-52 -131
q-1 -77 50.5 -133t143.5 -56z" />
    <glyph glyph-name="uni0430" unicode="&#x430;" horiz-adv-x="530" 
d="M470 19q-14 131 -7 290q4 89 -42.5 140.5t-136.5 51.5q-115 0 -208 -51q-15 -7 -8 -19l17 -38q5 -12 19 -5q96 46 177 46q113 0 109 -114q-71 -12 -117.5 -22t-94 -26t-74 -35t-43 -46.5t-16.5 -63.5q0 -61 43 -96.5t118 -35.5q59 0 101 15t90 46q6 -56 22 -56h42
q12 0 9 19zM219 56q-43 0 -70 17.5t-27 54.5q0 26 18 45.5t54.5 33t73 22.5t90.5 20l31 6q-3 -75 0 -142q-84 -57 -170 -57z" />
    <glyph glyph-name="uni0431" unicode="&#x431;" horiz-adv-x="618" 
d="M320 503q105 0 180 -74t75 -182q0 -106 -75 -179.5t-180 -73.5q-95 0 -167 60t-87 152q-21 60 -21 166q0 81 18.5 154t57 136t106.5 100.5t159 37.5h70q14 0 44 4q15 2 15 -10v-40q0 -27 -25 -27h-102q-131 0 -195 -87.5t-74 -232.5q36 45 88.5 70.5t112.5 25.5zM320 65
q76 0 128.5 54.5t52.5 127.5q0 75 -52.5 129.5t-128.5 54.5q-77 0 -129.5 -54.5t-52.5 -129.5q0 -73 52.5 -127.5t129.5 -54.5z" />
    <glyph glyph-name="uni0432" unicode="&#x432;" horiz-adv-x="555" 
d="M378 264q56 -11 90.5 -47t34.5 -83q0 -59 -51 -96.5t-131 -37.5h-257q-9 0 -9 9v476q0 10 9 10h244q76 0 123 -34t47 -86q0 -40 -29 -71.5t-71 -39.5zM131 283h168q45 0 74.5 24.5t29.5 54.5q0 29 -28 50t-79 21h-165v-150zM131 62h175q57 0 87.5 24t30.5 56
q0 34 -34.5 60t-86.5 26h-172v-166z" />
    <glyph glyph-name="uni0433" unicode="&#x433;" horiz-adv-x="508" 
d="M65 495h366q25 0 25 -27v-41q0 -12 -15 -9q-6 0 -20.5 1.5l-23.5 2.5h-269v-409q0 -13 -12 -13h-51q-13 0 -13 13v469q0 13 13 13z" />
    <glyph glyph-name="uni0434" unicode="&#x434;" horiz-adv-x="694" 
d="M574 73h69q13 0 13 -13v-131q0 -13 -13 -13h-50q-12 0 -12 13v71h-468v-71q0 -13 -11 -13h-51q-13 0 -13 13v131q0 13 13 13h71q43 75 56 171.5t13 229.5v1q0 20 20 20h343q20 0 20 -20v-402zM498 422h-232q0 -66 -3 -113t-18.5 -116t-44.5 -120h298v349z" />
    <glyph glyph-name="uni0435" unicode="&#x435;" horiz-adv-x="564" 
d="M118 214h360q48 0 48 47q0 99 -68.5 170t-173.5 71q-104 0 -175 -73.5t-71 -180.5q0 -110 73.5 -182t179.5 -72q124 0 202 100q7 9 -2 18l-13 17q-8 11 -20 1q-68 -68 -160 -68q-76 0 -124.5 45t-55.5 107zM448 275h-331q2 58 45.5 107.5t120.5 49.5q76 0 119 -50
t46 -107z" />
    <glyph glyph-name="uni0436" unicode="&#x436;" horiz-adv-x="887" 
d="M556 249l290 -228q7 -6 4 -13.5t-12 -7.5h-62q-6 0 -13 7l-282 229v-223q0 -13 -13 -13h-50q-13 0 -13 13v224l-283 -230q-9 -7 -14 -7h-59q-9 0 -12.5 7.5t3.5 13.5l290 228l-264 227q-6 4 -3 11.5t11 7.5h57q10 0 18 -6l256 -227v173q0 17 -4 45q-2 15 10 15h43
q27 0 27 -25v-207l255 226q6 6 17 6h60q8 0 10.5 -7.5t-3.5 -11.5z" />
    <glyph glyph-name="uni0437" unicode="&#x437;" horiz-adv-x="474" 
d="M309 257q56 -12 87.5 -46.5t31.5 -76.5q0 -60 -56 -99.5t-138 -39.5q-58 0 -109 25t-78 69q-5 8 1 12l34 32q8 6 15 -3q18 -30 55.5 -48t82.5 -18q51 0 84.5 23t33.5 58q0 31 -36 57t-104 28l-1 54q68 2 102.5 25t34.5 51q0 30 -33 52.5t-81 22.5q-43 0 -79 -18t-55 -49
q-6 -8 -16 -2l-32 31q-7 5 -2 13q29 44 78 69t105 25q80 0 135 -38t55 -94q0 -40 -29.5 -71t-85.5 -44z" />
    <glyph glyph-name="uni0438" unicode="&#x438;" horiz-adv-x="608" 
d="M502 495h31q10 0 10 -10v-475q0 -10 -11 -10h-54q-11 0 -11 10v366l-349 -368q-8 -8 -16 -8h-27q-10 0 -10 9v476q0 10 10 10h56q9 0 9 -10v-366l348 368q8 8 14 8z" />
    <glyph glyph-name="uni0439" unicode="&#x439;" horiz-adv-x="608" 
d="M117 777q7 -71 58 -117.5t127 -46.5q74 0 125 46t59 116q1 9 -2 15t-9 6h-33q-8 0 -12 -16q-8 -53 -47 -82.5t-81 -29.5q-45 0 -83 29t-46 84q-2 15 -11 15h-33q-14 0 -12 -19zM502 495h31q10 0 10 -10v-475q0 -10 -11 -10h-54q-11 0 -11 10v366l-349 -368q-8 -8 -16 -8
h-27q-10 0 -10 9v476q0 10 10 10h56q9 0 9 -10v-366l348 368q8 8 14 8z" />
    <glyph glyph-name="uni043A" unicode="&#x43a;" horiz-adv-x="531" 
d="M201 249l290 -228q7 -6 3.5 -13.5t-12.5 -7.5h-61q-7 0 -14 7l-282 229v-223q0 -13 -12 -13h-51q-13 0 -13 13v422q0 17 -4 45q-2 15 10 15h43q27 0 27 -25v-207l255 226q6 6 18 6h59q8 0 11 -7.5t-3 -11.5z" />
    <glyph glyph-name="uni043B" unicode="&#x43b;" horiz-adv-x="596" 
d="M138 495h389q20 0 20 -20v-463q0 -12 -12 -12h-52q-12 0 -12 12v410h-278l1 -265q0 -77 -40 -119t-116 -43q-13 0 -13 12v48q0 11 12 13q43 1 62 23.5t19 71.5v312q0 20 20 20z" />
    <glyph glyph-name="uni043C" unicode="&#x43c;" horiz-adv-x="783" 
d="M647 495h61q10 0 10 -10v-474q0 -11 -10 -11h-55q-11 0 -11 11v364l-238 -363q-6 -9 -12 -9h-2q-7 0 -13 9l-236 358v-359q0 -11 -10 -11h-55q-11 0 -11 11v474q0 10 9 10h59q7 0 12 -8l246 -370l243 370q6 8 13 8z" />
    <glyph glyph-name="uni043D" unicode="&#x43d;" horiz-adv-x="611" 
d="M480 495h56q10 0 10 -10v-475q0 -10 -9 -10h-57q-9 0 -9 10v201h-331v-201q0 -10 -10 -10h-55q-10 0 -10 10v475q0 10 9 10h56q10 0 10 -10v-200h331v200q0 10 9 10z" />
    <glyph glyph-name="uni043E" unicode="&#x43e;" horiz-adv-x="590" 
d="M297 -6q105 0 180 73.5t75 179.5q0 108 -75 182t-180 74q-107 0 -182 -74t-75 -182q0 -106 75.5 -179.5t181.5 -73.5zM297 65q-77 0 -130 54.5t-53 127.5q0 75 53 129.5t130 54.5q76 0 128.5 -54.5t52.5 -129.5q0 -73 -52.5 -127.5t-128.5 -54.5z" />
    <glyph glyph-name="uni043F" unicode="&#x43f;" horiz-adv-x="566" 
d="M506 482v-469q0 -13 -12 -13h-51q-13 0 -13 13v409h-294v-409q0 -13 -12 -13h-51q-13 0 -13 13v469q0 13 13 13h420q13 0 13 -13z" />
    <glyph glyph-name="uni0440" unicode="&#x440;" horiz-adv-x="578" 
d="M298 500q92 0 161 -69.5t69 -178.5q0 -110 -63 -184t-167 -74q-85 0 -157 53v-310q0 -14 -11.5 -22.5t-24.5 -8.5h-28q-11 0 -11 12v704q0 6 -6 57q-2 16 9 16h46q26 0 26 -25v-17q71 47 157 47zM286 64q74 0 121 52t47 136q0 85 -51 131t-117 46q-77 0 -145 -48v-269
q70 -48 145 -48z" />
    <glyph glyph-name="uni0441" unicode="&#x441;" horiz-adv-x="521" 
d="M451 130l25 -31q8 -9 1 -18q-83 -88 -183 -88q-105 0 -179.5 73.5t-74.5 180.5t74.5 181t179.5 74t175 -79q9 -10 1 -19l-27 -32q-7 -7 -18 2q-52 57 -127 57q-87 0 -136 -56t-49 -128q0 -71 49.5 -127t136.5 -56q71 0 133 67q10 8 19 -1z" />
    <glyph glyph-name="uni0442" unicode="&#x442;" horiz-adv-x="548" 
d="M55 495h438q10 0 10 -9v-55q0 -9 -10 -9h-181v-412q0 -10 -9 -10h-56q-10 0 -10 10v412h-182q-10 0 -10 9v54q0 10 10 10z" />
    <glyph glyph-name="uni0443" unicode="&#x443;" horiz-adv-x="558" 
d="M463 495h59q15 0 9 -14l-205 -423q-117 -241 -236 -364q-9 -9 -21 4l-30 29q-11 11 1 24q55 62 113 148t92 165l-212 418q-7 13 7 13h62q7 0 12 -8l171 -347l164 345q4 10 14 10z" />
    <glyph glyph-name="uni0444" unicode="&#x444;" horiz-adv-x="943" 
d="M663 499q92 0 161 -69.5t69 -178.5q0 -110 -63 -184t-167 -74q-85 0 -157 53v-309q0 -14 -11.5 -22.5t-24.5 -8.5h-28q-11 0 -11 12v327q-69 -52 -155 -52q-104 0 -167.5 74t-63.5 184q0 109 69 178.5t162 69.5q86 0 155 -46v217q0 7 -6 58q-2 16 9 16h46q12 0 19 -7.5
t7 -18.5v-266q70 47 157 47zM288 63q73 0 143 48v269q-68 48 -143 48q-67 0 -117.5 -46t-50.5 -131q0 -84 47 -136t121 -52zM651 63q74 0 121 52t47 136q0 85 -50.5 131t-117.5 46q-77 0 -145 -48v-269q70 -48 145 -48z" />
    <glyph glyph-name="uni0445" unicode="&#x445;" horiz-adv-x="541" 
d="M316 247l172 -230q4 -6 1 -11.5t-8 -5.5h-60q-8 0 -13 9l-138 188l-137 -188q-6 -9 -15 -9h-57q-6 0 -9 6t1 11l170 230l-171 231q-4 5 -1 11t10 6h57q9 0 15 -9l137 -190l138 190q5 9 14 9h59q6 0 8.5 -5.5t-1.5 -11.5z" />
    <glyph glyph-name="uni0446" unicode="&#x446;" horiz-adv-x="579" 
d="M547 -58q2 -16 -10 -16h-44q-27 0 -27 25v49h-373v1h-40q-13 0 -13 12v469q0 13 12 13h51q13 0 13 -13v-409h289v409q0 13 12 13h51q12 0 12 -13v-409h49q15 0 15 -14l-1 -73q1 -26 4 -44z" />
    <glyph glyph-name="uni0447" unicode="&#x447;" horiz-adv-x="584" 
d="M511 17q2 -16 -11 -16h-43q-26 0 -28 25v180q-87 -61 -175 -61q-85 0 -145 58.5t-60 148.5v80q0 19 -4 47q-2 16 11 16h43q28 0 28 -28v-105q0 -58 42 -100t100 -43q73 -1 161 71v192q0 13 13 13h50q14 0 14 -13v-418q0 -19 4 -47z" />
    <glyph glyph-name="uni0448" unicode="&#x448;" horiz-adv-x="904" 
d="M790 495h52q12 0 12 -13v-469q0 -13 -12 -13h-779q-13 0 -13 13v469q0 13 12 13h51q13 0 13 -13v-409h289l-1 409q0 13 12 13h52q12 0 12 -13v-409h289l-1 409q0 13 12 13z" />
    <glyph glyph-name="uni0449" unicode="&#x449;" horiz-adv-x="963" 
d="M932 -58q2 -16 -10 -16h-45q-26 0 -26 25v49h-778q-13 0 -13 13v469q0 13 12 13h51q13 0 13 -13v-409h289l-1 409q0 13 12 13h52q12 0 12 -13v-409h289l-1 409q0 13 12 13h52q12 0 12 -13v-409h50q14 0 14 -14v-73q0 -16 4 -44z" />
    <glyph glyph-name="uni044A" unicode="&#x44a;" horiz-adv-x="703" 
d="M245 378h185q95 0 157.5 -55t62.5 -134q0 -81 -62.5 -135t-157.5 -54h-248q-13 0 -13 13v409h-94q-11 0 -26.5 -2t-18.5 -2q-15 -3 -15 9v41q0 27 25 27h192q13 0 13 -13v-104zM245 73h182q67 0 105.5 36t38.5 79.5t-38 79.5t-106 36h-182v-231z" />
    <glyph glyph-name="uni044B" unicode="&#x44b;" horiz-adv-x="798" 
d="M126 378h185q95 0 157.5 -55t62.5 -134q0 -81 -62.5 -135t-157.5 -54h-248q-13 0 -13 13v469q0 13 13 13h50q13 0 13 -13v-104zM655 495h50q13 0 13 -13v-469q0 -13 -12 -13h-51q-13 0 -13 13v469q0 13 13 13zM126 73h182q67 0 105.5 36t38.5 79.5t-38 79.5t-106 36h-182
v-231z" />
    <glyph glyph-name="uni044C" unicode="&#x44c;" horiz-adv-x="590" 
d="M130 378h186q95 0 157 -55t62 -134q0 -81 -62 -135t-157 -54h-249q-13 0 -13 13v469q0 13 13 13h50q13 0 13 -13v-104zM130 73h183q67 0 105 36t38.5 79.5t-38 79.5t-105.5 36h-183v-231z" />
    <glyph glyph-name="uni044D" unicode="&#x44d;" horiz-adv-x="532" 
d="M233 502q105 0 179.5 -74t74.5 -181t-74.5 -180.5t-179.5 -73.5q-100 0 -183 88q-7 9 1 18l25 31q9 9 19 1q62 -67 133 -67q77 0 124.5 44t58.5 107h-236q-13 0 -13 13v37q0 13 13 13h236q-10 64 -57.5 108.5t-124.5 44.5q-75 0 -127 -57q-11 -9 -18 -2l-27 32q-8 9 1 19
q70 79 175 79z" />
    <glyph glyph-name="uni044E" unicode="&#x44e;" horiz-adv-x="822" 
d="M514 503q105 0 180 -74t75 -182q0 -106 -75 -179.5t-180 -73.5q-96 0 -168 61.5t-86 154.5h-104v-198q0 -13 -12 -13h-39q-25 0 -25 27v455q0 13 13 13h50q13 0 13 -13v-197h104q13 94 85 156.5t169 62.5zM514 65q76 0 128.5 54.5t52.5 127.5q0 75 -52.5 129.5
t-128.5 54.5q-77 0 -129.5 -54.5t-52.5 -129.5q0 -74 52.5 -128t129.5 -54z" />
    <glyph glyph-name="uni044F" unicode="&#x44f;" horiz-adv-x="561" 
d="M259 495h249q13 0 13 -13v-469q0 -13 -13 -13h-50q-13 0 -13 13v104h-186l-18 1l-98 -106q-12 -12 -16 -12h-65q-5 0 -7 4t1 8l114 120q-59 22 -94.5 69t-35.5 105q0 81 62 135t157 54zM262 191h183v231h-183q-67 0 -105 -36t-38.5 -79.5t38 -79.5t105.5 -36z" />
    <glyph glyph-name="uni0451" unicode="&#x451;" horiz-adv-x="565" 
d="M146 707q-19 0 -32 13t-13 31q0 19 13 32.5t32 13.5t32 -13.5t13 -32.5q0 -18 -13 -31t-32 -13zM424 707q-18 0 -31.5 13t-13.5 31q0 19 13.5 32.5t31.5 13.5q19 0 32 -13.5t13 -32.5q0 -18 -13 -31t-32 -13zM118 214h360q48 0 48 47q0 99 -68.5 170t-173.5 71
q-104 0 -175 -73.5t-71 -180.5q0 -110 73.5 -182t179.5 -72q124 0 202 100q7 9 -2 18l-13 17q-8 11 -20 1q-68 -68 -160 -68q-76 0 -124.5 45t-55.5 107zM448 275h-331q2 58 45.5 107.5t120.5 49.5q76 0 119 -50t46 -107z" />
    <glyph glyph-name="uni0453" unicode="&#x453;" horiz-adv-x="508" 
d="M135 622l-15 26q-6 8 2 14l207 143q11 10 18 -2l21 -35q6 -10 -5 -18l-212 -132q-11 -5 -16 4zM65 495h366q25 0 25 -27v-41q0 -12 -15 -9q-6 0 -20.5 1.5l-23.5 2.5h-269v-409q0 -13 -12 -13h-51q-13 0 -13 13v469q0 13 13 13z" />
    <glyph glyph-name="uni0454" unicode="&#x454;" horiz-adv-x="532" 
d="M456 130l25 -31q8 -9 1 -18q-83 -88 -183 -88q-105 0 -179.5 73.5t-74.5 180.5t74.5 181t179.5 74t175 -79q9 -10 1 -19l-27 -32q-7 -7 -18 2q-52 57 -127 57q-77 0 -124.5 -44.5t-57.5 -108.5h236q13 0 13 -13v-37q0 -13 -13 -13h-236q11 -63 58.5 -107t124.5 -44
q71 0 133 67q10 8 19 -1z" />
    <glyph glyph-name="uni0456" unicode="&#x456;" horiz-adv-x="227" 
d="M114 711q-19 0 -31.5 12.5t-12.5 30.5t12.5 30.5t31.5 12.5q17 0 30 -12.5t13 -30.5t-13 -30.5t-30 -12.5zM139 495h-50q-13 0 -13 -13v-455q0 -27 25 -27h39q12 0 12 13v469q0 13 -13 13z" />
    <glyph glyph-name="uni0457" unicode="&#x457;" horiz-adv-x="327" 
d="M24 707q-18 0 -31 13t-13 32t13 32t31 13q20 0 33 -13t13 -32t-13 -32t-33 -13zM303 707q-19 0 -32.5 13t-13.5 32t13.5 32t32.5 13t31.5 -13t12.5 -32t-12.5 -32t-31.5 -13zM189 495h-50q-13 0 -13 -13v-455q0 -27 26 -27h39q11 0 11 13v469q0 13 -13 13z" />
    <glyph glyph-name="uni0458" unicode="&#x458;" horiz-adv-x="219" 
d="M106 711q-19 0 -31.5 12.5t-12.5 30.5t12.5 30.5t31.5 12.5q17 0 30 -12.5t13 -30.5t-13 -30.5t-30 -12.5zM132 495h-51q-12 0 -12 -13v-582q0 -39 -11.5 -58t-44.5 -34q-11 -4 -6 -15l25 -50q4 -9 16 -4q54 23 75.5 62.5t21.5 98.5l-1 582q0 13 -12 13z" />
    <glyph glyph-name="uni045C" unicode="&#x45c;" horiz-adv-x="531" 
d="M138 622l-15 26q-6 8 2 14l207 143q11 10 18 -2l21 -35q6 -10 -5 -18l-212 -132q-11 -5 -16 4zM201 249l290 -228q7 -6 3.5 -13.5t-12.5 -7.5h-61q-7 0 -14 7l-282 229v-223q0 -13 -12 -13h-51q-13 0 -13 13v422q0 17 -4 45q-2 15 10 15h43q27 0 27 -25v-207l255 226
q6 6 18 6h59q8 0 11 -7.5t-3 -11.5z" />
    <glyph glyph-name="uni045D" unicode="&#x45d;" horiz-adv-x="608" 
d="M183 750l212 -132q11 -5 17 4l15 26q4 9 -3 14l-207 143q-10 10 -18 -2l-21 -35q-6 -11 5 -18zM502 495h31q10 0 10 -10v-475q0 -10 -11 -10h-54q-11 0 -11 10v366l-349 -368q-8 -8 -16 -8h-27q-10 0 -10 9v476q0 10 10 10h56q9 0 9 -10v-366l348 368q8 8 14 8z" />
    <glyph glyph-name="uni045E" unicode="&#x45e;" horiz-adv-x="558" 
d="M103 782q7 -71 58 -117.5t127 -46.5q74 0 125 46t59 116q1 9 -2 15t-9 6h-33q-8 0 -12 -16q-8 -53 -47 -82.5t-81 -29.5q-45 0 -83 29t-46 84q-2 15 -11 15h-33q-14 0 -12 -19zM463 495h59q15 0 9 -14l-205 -423q-117 -241 -236 -364q-9 -9 -21 4l-30 29q-11 11 1 24
q55 62 113 148t92 165l-212 418q-7 13 7 13h62q7 0 12 -8l171 -347l164 345q4 10 14 10z" />
    <glyph glyph-name="uni0490" unicode="&#x490;" horiz-adv-x="657" 
d="M549 874h45q13 0 9 -16q0 -5 -1.5 -19.5l-2.5 -24.5l1 -75q0 -15 -14 -15h-453l1 -711q0 -13 -12 -13h-54q-13 0 -13 13v774q0 13 13 13h454v49q0 25 27 25z" />
    <glyph glyph-name="uni0491" unicode="&#x491;" horiz-adv-x="515" 
d="M405 569h45q13 0 9 -16q0 -5 -1.5 -19.5l-2.5 -24.5l1 -73q0 -14 -14 -14h-314v-409q0 -13 -12 -13h-51q-13 0 -13 13v469q0 13 13 13h313v49q0 25 27 25z" />
    <glyph glyph-name="uni04C0" unicode="&#x4c0;" horiz-adv-x="237" 
d="M144 800h-51q-13 0 -13 -13v-774q0 -13 13 -13h52q12 0 12 13v774q0 13 -13 13z" />
    <glyph glyph-name="uni04E2" unicode="&#x4e2;" horiz-adv-x="835" 
d="M193 953v39q0 10 10 10h411q11 0 11 -10v-39q0 -10 -11 -10h-411q-10 0 -10 10zM86 800h56q11 0 11 -11v-645l543 645q10 11 18 11h34q12 0 12 -12v-775q0 -13 -13 -13h-52q-13 0 -13 13v639l-527 -621q-27 -31 -47 -31h-21q-12 0 -12 11v778q0 11 11 11z" />
    <glyph glyph-name="uni04E3" unicode="&#x4e3;" horiz-adv-x="608" 
d="M86 708v39q0 10 10 10h411q11 0 11 -10v-39q0 -10 -11 -10h-411q-10 0 -10 10zM502 495h31q10 0 10 -10v-475q0 -10 -11 -10h-54q-11 0 -11 10v366l-349 -368q-8 -8 -16 -8h-27q-10 0 -10 9v476q0 10 10 10h56q9 0 9 -10v-366l348 368q8 8 14 8z" />
    <glyph glyph-name="uni04EC" unicode="&#x4ec;" 
d="M225 977q-18 0 -31 13t-13 32t13 32t31 13q20 0 33 -13t13 -32t-13 -32t-33 -13zM504 977q-19 0 -32.5 13t-13.5 32t13.5 32t32.5 13t31.5 -13t12.5 -32t-12.5 -32t-31.5 -13zM344 807q169 0 289 -119t120 -289t-119.5 -288t-289.5 -118t-289 119q-15 14 -4 22l42 35
q9 8 21 -4q96 -96 224 -96q142 0 231.5 87t103.5 206h-394q-13 0 -13 13v50q0 13 13 13h394q-16 118 -105 205.5t-230 87.5q-70 0 -130 -29.5t-97 -68.5q-10 -10 -20 -1l-42 35q-9 8 4 21q119 119 291 119z" />
    <glyph glyph-name="uni04ED" unicode="&#x4ed;" horiz-adv-x="532" 
d="M127 749q-19 0 -32 13t-13 32t13 32t32 13t32.5 -13t13.5 -32t-13.5 -32t-32.5 -13zM405 749q-18 0 -31.5 13t-13.5 32t13.5 32t31.5 13q19 0 32 -13t13 -32t-13 -32t-32 -13zM233 502q104 0 179 -74t75 -181t-74.5 -180.5t-179.5 -73.5q-100 0 -183 88q-7 8 0 18l26 31
q9 9 19 1q60 -67 133 -67q77 0 124 44t58 107h-235q-13 0 -13 13v37q0 13 13 13h235q-10 64 -57 108.5t-124 44.5q-75 0 -127 -57q-10 -9 -19 -2l-26 32q-8 8 1 19q70 79 175 79z" />
    <glyph glyph-name="uni04EE" unicode="&#x4ee;" horiz-adv-x="644" 
d="M106 953v39q0 10 10 10h411q11 0 11 -10v-39q0 -10 -11 -10h-411q-10 0 -10 10zM560 800h59q7 0 9.5 -4t-1.5 -10l-258 -494q-81 -157 -222 -303q-9 -9 -19 2l-30 35q-9 11 1 21q117 124 180 234l-263 505q-5 14 8 14h61q9 0 13 -9l224 -432l223 431q7 10 15 10z" />
    <glyph glyph-name="uni04EF" unicode="&#x4ef;" horiz-adv-x="558" 
d="M72 713v39q0 10 10 10h411q11 0 11 -10v-39q0 -10 -11 -10h-411q-10 0 -10 10zM463 495h59q15 0 9 -14l-205 -423q-117 -241 -236 -364q-9 -9 -21 4l-30 29q-11 11 1 24q55 62 113 148t92 165l-212 418q-7 13 7 13h62q7 0 12 -8l171 -347l164 345q4 10 14 10z" />
    <glyph glyph-name="Macute" unicode="&#x1e3e;" horiz-adv-x="1069" 
d="M425 880l212 132q11 8 5 18l-21 35q-7 12 -18 2l-207 -143q-8 -6 -2 -14l15 -26q5 -9 16 -4zM935 800h47q12 0 12 -14v-772q0 -14 -13 -14h-52q-14 0 -14 14v626l-364 -614q-6 -10 -15 -10h-4q-9 0 -15 10l-363 614v-626q0 -14 -13 -14h-52q-14 0 -14 14v773q0 13 12 13
h48q9 0 15 -9l384 -648l385 648q5 9 16 9z" />
    <glyph glyph-name="macute" unicode="&#x1e3f;" horiz-adv-x="974" 
d="M385 627l-15 26q-6 8 2 14l207 143q11 10 18 -2l21 -35q6 -10 -5 -18l-212 -132q-11 -5 -16 4zM924 16q2 -16 -9 -16h-43q-27 0 -27 28v276q0 58 -36 93.5t-100 35.5q-93 0 -181 -90q2 -20 2 -29v-225q2 -48 4 -73q2 -16 -9 -16h-43q-27 0 -27 28v276q0 58 -36 93.5
t-100 35.5q-90 0 -178 -88v-332q0 -13 -12 -13h-53q-11 0 -11 13v470q0 12 11 12h38q11 0 18.5 -9t8.5 -20v-41q89 77 185 77q59 0 108.5 -25t74.5 -72q99 97 207 97q84 0 144 -49.5t60 -138.5v-225q2 -48 4 -73z" />
    <glyph glyph-name="Wgrave" unicode="&#x1e80;" horiz-adv-x="1132" 
d="M661 881l-212 132q-11 7 -5 18l21 35q8 12 18 2l207 -143q7 -5 3 -14l-15 -26q-6 -9 -17 -4zM1028 801h68q6 0 9 -5t-1 -13l-372 -776q-5 -10 -15 -10h-9q-11 0 -14 10l-128 269l-128 -270q-5 -10 -15 -10h-9q-10 0 -15 10l-372 777q-3 7 0 12t9 5h67q8 0 16 -16
l300 -643l104 226l-198 417q-3 7 0 12t9 5h68q9 0 15 -16l149 -324l148 323q8 16 16 16h68q6 0 8.5 -5t-0.5 -13l-197 -415l104 -225l300 643q6 16 15 16z" />
    <glyph glyph-name="wgrave" unicode="&#x1e81;" horiz-adv-x="798" 
d="M492 623l-212 132q-10 7 -5 18l21 35q8 12 18 2l207 -143q7 -5 3 -14l-15 -26q-6 -9 -17 -4zM704 495h60q12 0 7 -12l-180 -474q-3 -9 -13 -9h-10q-10 0 -14 9l-155 356l-155 -356q-4 -9 -13 -9h-11q-8 0 -13 9l-180 474q-5 12 7 12h60q9 0 12 -8l129 -365l141 360
q5 9 14 9h18q9 0 14 -9l142 -360l128 365q3 8 12 8z" />
    <glyph glyph-name="Wacute" unicode="&#x1e82;" horiz-adv-x="1132" 
d="M447 885l-15 26q-6 8 2 14l207 143q11 10 18 -2l21 -35q6 -10 -5 -18l-212 -132q-11 -5 -16 4zM1028 801h68q6 0 9 -5t-1 -13l-372 -776q-5 -10 -15 -10h-9q-11 0 -14 10l-128 269l-128 -270q-5 -10 -15 -10h-9q-10 0 -15 10l-372 777q-3 7 0 12t9 5h67q8 0 16 -16
l300 -643l104 226l-198 417q-3 7 0 12t9 5h68q9 0 15 -16l149 -324l148 323q8 16 16 16h68q6 0 8.5 -5t-0.5 -13l-197 -415l104 -225l300 643q6 16 15 16z" />
    <glyph glyph-name="wacute" unicode="&#x1e83;" horiz-adv-x="798" 
d="M279 627l-15 26q-6 8 2 14l207 143q11 10 18 -2l21 -35q6 -10 -5 -18l-212 -132q-11 -5 -16 4zM704 495h60q12 0 7 -12l-180 -474q-3 -9 -13 -9h-10q-10 0 -14 9l-155 356l-155 -356q-4 -9 -13 -9h-11q-8 0 -13 9l-180 474q-5 12 7 12h60q9 0 12 -8l129 -365l141 360
q5 9 14 9h18q9 0 14 -9l142 -360l128 365q3 8 12 8z" />
    <glyph glyph-name="Wdieresis" unicode="&#x1e84;" horiz-adv-x="1132" 
d="M428 965q-18 0 -31 13t-13 32t13 32t31 13q20 0 33 -13t13 -32t-13 -32t-33 -13zM706 965q-18 0 -31.5 13t-13.5 32t13.5 32t31.5 13q19 0 32 -13t13 -32t-13 -32t-32 -13zM1028 801h68q6 0 9 -5t-1 -13l-372 -776q-5 -10 -15 -10h-9q-11 0 -14 10l-128 269l-128 -270
q-5 -10 -15 -10h-9q-10 0 -15 10l-372 777q-3 7 0 12t9 5h67q8 0 16 -16l300 -643l104 226l-198 417q-3 7 0 12t9 5h68q9 0 15 -16l149 -324l148 323q8 16 16 16h68q6 0 8.5 -5t-0.5 -13l-197 -415l104 -225l300 643q6 16 15 16z" />
    <glyph glyph-name="wdieresis" unicode="&#x1e85;" horiz-adv-x="798" 
d="M260 707q-18 0 -31 13t-13 32t13 32t31 13q20 0 33 -13t13 -32t-13 -32t-33 -13zM538 707q-18 0 -31.5 13t-13.5 32t13.5 32t31.5 13q19 0 32 -13t13 -32t-13 -32t-32 -13zM704 495h60q12 0 7 -12l-180 -474q-3 -9 -13 -9h-10q-10 0 -14 9l-155 356l-155 -356
q-4 -9 -13 -9h-11q-8 0 -13 9l-180 474q-5 12 7 12h60q9 0 12 -8l129 -365l141 360q5 9 14 9h18q9 0 14 -9l142 -360l128 365q3 8 12 8z" />
    <glyph glyph-name="Ygrave" unicode="&#x1ef2;" horiz-adv-x="749" 
d="M262 1013l212 -132q11 -5 17 4l15 26q4 9 -3 14l-207 143q-10 10 -18 -2l-21 -35q-5 -11 5 -18zM656 800h71q4 0 6 -4t-1 -8l-319 -457v-317q0 -14 -12 -14h-40q-26 0 -26 28v303l-319 457q-2 4 0 8t6 4h70q7 0 12 -10l270 -382l270 382q7 10 12 10z" />
    <glyph glyph-name="ygrave" unicode="&#x1ef3;" horiz-adv-x="558" 
d="M169 755l212 -132q11 -5 17 4l15 26q4 9 -3 14l-207 143q-10 10 -18 -2l-21 -35q-6 -11 5 -18zM463 495h59q15 0 9 -14l-205 -423q-117 -241 -236 -364q-9 -9 -21 4l-30 29q-11 11 1 24q55 62 113 148t92 165l-212 418q-7 13 7 13h62q7 0 12 -8l171 -347l164 345
q4 10 14 10z" />
    <glyph glyph-name="endash" unicode="&#x2013;" horiz-adv-x="701" 
d="M621 326v-27q0 -13 -13 -13h-515q-13 0 -13 13v27q0 13 13 13h515q13 0 13 -13z" />
    <glyph glyph-name="emdash" unicode="&#x2014;" horiz-adv-x="932" 
d="M872 326v-27q0 -13 -13 -13h-786q-13 0 -13 13v27q0 13 13 13h786q13 0 13 -13z" />
    <glyph glyph-name="quoteleft" unicode="&#x2018;" horiz-adv-x="183" 
d="M83 657l9 1q23 0 37.5 -14.5t14.5 -39.5q0 -54 -52 -54q-44 0 -52 39q-3 5 -5 18q-5 47 8 107q16 62 60 106q7 7 14 3l10 -10q6 -3 2 -10q-46 -52 -46 -113v-33z" />
    <glyph glyph-name="quoteright" unicode="&#x2019;" horiz-adv-x="161" 
d="M125 762q6 -49 -8 -107q-14 -61 -59 -106q-8 -8 -15 -4l-9 11q-6 3 -2 10q46 54 46 112q0 23 -1 34l-8 -1q-23 0 -37.5 14.5t-14.5 39.5q0 53 52 53q43 0 51 -38q3 -5 5 -18z" />
    <glyph glyph-name="quotesinglbase" unicode="&#x201a;" horiz-adv-x="423" 
d="M168 52q5 -8 6 -19q5 -47 -8 -107q-16 -62 -60 -106q-8 -8 -14 -3l-10 10q-6 3 -2 10q46 54 46 113q0 22 -1 33l-8 -1q-23 0 -37.5 14.5t-14.5 39.5q0 54 52 54q43 0 51 -38zM361 33q5 -47 -8 -107q-14 -60 -60 -106q-7 -7 -14 -3l-10 10q-6 3 -2 10q47 53 47 113
q0 22 -1 33l-8 -1q-23 0 -37.5 14t-14.5 40q0 54 52 54q43 0 51 -39q3 -5 5 -18z" />
    <glyph glyph-name="quotedblleft" unicode="&#x201c;" horiz-adv-x="375" 
d="M88 651l8 1q23 0 37.5 -14.5t14.5 -39.5q0 -53 -52 -53q-43 0 -51 38q-3 5 -5 18q-5 49 8 107q14 61 59 106q9 8 15 4l10 -11q5 -3 1 -10q-46 -54 -46 -113q0 -22 1 -33zM276 651l8 1q23 0 37.5 -14.5t14.5 -39.5q0 -53 -52 -53q-44 0 -52 38q-3 5 -5 18q-5 49 8 107
q16 62 60 106q8 8 14 4l10 -11q6 -3 2 -10q-46 -52 -46 -113q0 -22 1 -33z" />
    <glyph glyph-name="quotedblright" unicode="&#x201d;" horiz-adv-x="375" 
d="M145 780q3 -5 5 -18q5 -49 -8 -107q-16 -62 -60 -106q-8 -8 -14 -4l-10 11q-6 3 -2 10q46 52 46 112q0 23 -1 34l-8 -1q-23 0 -37.5 14.5t-14.5 39.5q0 53 52 53q44 0 52 -38zM337 762q5 -49 -8 -107q-14 -61 -59 -106q-9 -8 -15 -4l-10 11q-5 3 -1 10q46 54 46 112
q0 23 -1 34l-8 -1q-23 0 -37.5 14.5t-14.5 39.5q0 53 52 53q43 0 51 -38q3 -5 5 -18z" />
    <glyph glyph-name="quotedblbase" unicode="&#x201e;" horiz-adv-x="428" 
d="M168 52q5 -8 6 -19q5 -47 -8 -107q-16 -62 -60 -106q-8 -8 -14 -3l-10 10q-6 3 -2 10q46 54 46 113q0 22 -1 33l-8 -1q-23 0 -37.5 14.5t-14.5 39.5q0 54 52 54q43 0 51 -38zM361 33q5 -47 -8 -107q-14 -60 -60 -106q-7 -7 -14 -3l-10 10q-6 3 -2 10q47 53 47 113
q0 22 -1 33l-8 -1q-23 0 -37.5 14t-14.5 40q0 54 52 54q43 0 51 -39q3 -5 5 -18z" />
    <glyph glyph-name="dagger" unicode="&#x2020;" horiz-adv-x="514" 
d="M293 482h168q13 0 13 -13v-49q0 -13 -13 -13h-168l-3 -597q0 -10 -10 -10h-50q-11 0 -11 10v597h-166q-13 0 -13 13v49q0 13 13 13h166v307q0 11 11 11h54q11 0 11 -11z" />
    <glyph glyph-name="daggerdbl" unicode="&#x2021;" horiz-adv-x="514" 
d="M461 408h-168l-1 -121h169q13 0 13 -13v-50q0 -13 -13 -13h-169l-2 -401q0 -10 -10 -10h-50q-11 0 -11 10v401h-166q-13 0 -13 13v50q0 13 13 13h166v121h-166q-13 0 -13 13v49q0 13 13 13h166v306q0 11 11 11h54q11 0 11 -11l-2 -306h168q13 0 13 -13v-49q0 -13 -13 -13
z" />
    <glyph glyph-name="bullet" unicode="&#x2022;" horiz-adv-x="271" 
d="M137 163q-35 0 -61 25.5t-26 61.5q0 34 26 60.5t61 26.5q34 0 59 -26t25 -61q0 -36 -24.5 -61.5t-59.5 -25.5z" />
    <glyph glyph-name="ellipsis" unicode="&#x2026;" horiz-adv-x="699" 
d="M97 -3q-20 0 -33.5 13t-13.5 33t13.5 33.5t33.5 13.5q19 0 32.5 -14t13.5 -33t-13.5 -32.5t-32.5 -13.5zM350 -3q-19 0 -32.5 13.5t-13.5 32.5t13.5 33t32.5 14q20 0 33.5 -13.5t13.5 -33.5t-13.5 -33t-33.5 -13zM602 -3q-19 0 -32.5 13.5t-13.5 32.5t13.5 33t32.5 14
q20 0 33.5 -13.5t13.5 -33.5t-13.5 -33t-33.5 -13z" />
    <glyph glyph-name="perthousand" unicode="&#x2030;" horiz-adv-x="771" 
d="M32 19l423 749q6 12 17 12h40q18 0 10 -16l-423 -749q-7 -12 -18 -12h-40q-17 0 -9 16zM78 674q-18 0 -30.5 12t-12.5 30q0 17 13 29.5t30 12.5q18 0 30 -12.5t12 -29.5q0 -18 -12 -30t-30 -12zM479 24q-18 0 -30.5 12t-12.5 30q0 17 13 29.5t30 12.5q18 0 30 -12.5
t12 -29.5q0 -18 -12 -30t-30 -12zM694 24q-18 0 -30.5 12t-12.5 30q0 17 12.5 29.5t30.5 12.5q17 0 29 -12.5t12 -29.5q0 -18 -12 -30t-29 -12z" />
    <glyph glyph-name="guilsinglleft" unicode="&#x2039;" horiz-adv-x="326" 
d="M55 215l149 -200q6 -6 11 -6h48q8 0 10.5 5.5t-2.5 12.5l-138 204l140 196q9 19 -8 19h-44q-7 0 -13 -8l-153 -194q-5 -4 -5 -13.5t5 -15.5z" />
    <glyph glyph-name="guilsinglright" unicode="&#x203a;" horiz-adv-x="326" 
d="M122 15l150 200q11 15 0 29l-153 194q-6 8 -14 8h-43q-7 0 -10 -6t1 -13l141 -196l-139 -204q-4 -7 -2 -12.5t10 -5.5h49q6 0 10 6z" />
    <glyph glyph-name="fraction" unicode="&#x2044;" horiz-adv-x="218" 
d="M-125 16l416 772q7 12 16 12h25q18 0 10 -16l-416 -772q-7 -12 -16 -12h-25q-8 0 -11 4.5t1 11.5z" />
    <glyph glyph-name="Euro" unicode="&#x20ac;" horiz-adv-x="803" 
d="M723 161l35 -35q10 -10 -4 -23q-119 -111 -281 -111q-138 0 -246 81t-148 209h-57q-12 0 -12 12v46q0 12 12 12h42q-3 26 -3 51t3 51h-42q-12 0 -12 12v46q0 13 12 13h57q39 127 148 208.5t246 81.5q162 0 282 -112q12 -12 4 -22l-34 -35q-9 -10 -19 0q-39 38 -97 65
t-125 27q-115 0 -197.5 -60t-119.5 -153h301q12 0 12 -12v-47q0 -12 -12 -12h-321q-4 -23 -4 -51t4 -51h321q12 0 12 -12v-46q0 -12 -12 -12h-301q36 -93 119 -153.5t198 -60.5q122 0 219 89q13 13 20 4z" />
    <glyph glyph-name="trademark" unicode="&#x2122;" horiz-adv-x="664" 
d="M41 800h206q11 0 11 -11v-20q0 -11 -11 -11h-82v-247q0 -11 -11 -11h-20q-11 0 -11 11v247h-82q-11 0 -11 11v20q0 11 11 11zM599 800h26q9 0 9 -10v-279q0 -11 -11 -11h-20q-11 0 -11 11v201l-114 -201q-5 -9 -12 -9h-2q-8 0 -12 9l-110 201v-201q0 -11 -11 -11h-19
q-12 0 -12 11v279q0 10 10 10h24q8 0 11 -6l120 -222l122 222q5 6 12 6z" />
    <glyph glyph-name="oneeighth" unicode="&#x215b;" horiz-adv-x="746" 
d="M558 800h25q18 0 10 -16l-417 -772q-5 -12 -15 -12h-25q-8 0 -11 4.5t1 11.5l416 772q5 12 16 12zM133 457v231l-71 -17q-9 -2 -10 5l-2 25q0 7 5 9q59 23 83 86q2 3 7 3h32q9 0 9 -8v-334q0 -9 -9 -9h-34q-10 0 -10 9zM627 181l-4 -1q25 -5 49 -29t24 -61q0 -43 -31 -70
t-87 -27q-55 0 -86.5 27t-31.5 70q0 37 25 62t49 28l-3 1q-64 24 -64 85q0 43 31.5 69.5t79.5 26.5q49 0 80 -26t31 -70q0 -61 -62 -85zM512 264q0 -25 19 -42t48 -17q27 0 46 17t19 42q0 57 -65 57q-31 0 -49 -15t-18 -42zM579 32q73 0 73 60q0 26 -19.5 45t-53.5 19
t-54 -19t-20 -45q0 -60 74 -60z" />
    <glyph glyph-name="threeeighths" unicode="&#x215c;" horiz-adv-x="739" 
d="M255 481q-26 -30 -64.5 -40t-79.5 5t-69 54q-3 5 0 8l23 23q5 3 8 -1q26 -38 67.5 -47t74.5 22q14 15 15.5 38.5t-11 42t-36 28t-58.5 -4.5q-2 -2 -6 2l-19 23q-4 4 0 7l109 113h-152q-6 0 -6 5v33q0 8 6 8h206q7 0 7 -7v-36q0 -2 -2 -4l-97 -98q43 1 73 -30t32 -70
t-21 -74zM560 800h25q18 0 10 -16l-416 -772q-7 -12 -16 -12h-25q-8 0 -11 4.5t1 11.5l416 772q5 12 16 12zM629 181l-4 -1q25 -5 49.5 -29.5t24.5 -60.5q0 -43 -31.5 -70t-86.5 -27q-56 0 -87 27t-31 70q0 37 24.5 62t48.5 28l-3 1q-25 9 -44 30.5t-19 54.5q0 44 31 70
t80 26t80 -26t31 -70q0 -62 -63 -85zM514 264q0 -25 19.5 -42t47.5 -17t46.5 17t18.5 42q0 57 -65 57q-31 0 -49 -15t-18 -42zM581 32q73 0 73 60q0 26 -19.5 45t-53.5 19t-53.5 -19t-19.5 -45q0 -60 73 -60z" />
    <glyph glyph-name="fiveeighths" unicode="&#x215d;" horiz-adv-x="748" 
d="M253 479q-44 -48 -108.5 -42t-102.5 60q-2 5 1 8l23 22q4 5 7 0q24 -38 66.5 -46t72.5 21q31 32 11 72q-18 37 -58 39q-31 1 -60 -24l-40 4q-6 0 -6 8v193q0 6 6 6h186q7 0 7 -6v-34q0 -6 -7 -6h-146v-117q39 19 72.5 18t56 -21t34.5 -46t8 -56.5t-23 -52.5zM570 800h24
q17 0 11 -16l-417 -772q-7 -12 -16 -12h-24q-8 0 -11.5 4.5t0.5 11.5l416 772q7 12 17 12zM638 181l-4 -1q25 -5 49.5 -29.5t24.5 -60.5q0 -43 -31.5 -70t-86.5 -27q-56 0 -87 27t-31 70q0 37 24.5 62t48.5 28l-3 1q-25 9 -44 30.5t-19 54.5q0 44 31 70t80 26t80 -26t31 -70
q0 -62 -63 -85zM524 264q0 -25 19 -42t47 -17t47 17t19 42q0 57 -66 57q-31 0 -48.5 -15t-17.5 -42zM591 32q72 0 72 60q0 26 -19.5 45t-52.5 19q-34 0 -54 -19t-20 -45q0 -60 74 -60z" />
    <glyph glyph-name="seveneighths" unicode="&#x215e;" horiz-adv-x="713" 
d="M273 784l-1 -4l-1 -3l-174 -325q-3 -3 -6 -3h-40q-2 0 -3 2.5t0 3.5l159 299h-162q-5 0 -5 5v36q0 5 5 5h223q5 0 5 -5v-11zM534 800h25q18 0 10 -16l-416 -772q-7 -12 -16 -12h-25q-8 0 -11 4.5t1 11.5l416 772q5 12 16 12zM603 181l-4 -1q25 -5 49.5 -29.5t24.5 -60.5
q0 -43 -31.5 -70t-86.5 -27q-56 0 -87 27t-31 70q0 37 24.5 62t48.5 28l-3 1q-25 9 -44 30.5t-19 54.5q0 44 31 70t80 26t80 -26t31 -70q0 -62 -63 -85zM488 264q0 -25 19.5 -42t47.5 -17t46.5 17t18.5 42q0 57 -65 57q-31 0 -49 -15t-18 -42zM556 32q72 0 72 60
q0 26 -19.5 45t-52.5 19q-35 0 -54.5 -18.5t-19.5 -45.5q0 -60 74 -60z" />
    <glyph glyph-name="partialdiff" unicode="&#x2202;" horiz-adv-x="599" 
d="M464 640q97 -120 95 -317q-1 -98 -25 -159q-23 -79 -89 -129.5t-150 -50.5q-106 0 -180.5 74.5t-74.5 178.5q0 103 72.5 174t176.5 71q56 0 107.5 -25t87.5 -67q-10 137 -94 227t-199 90q-13 0 -11 12l5 50q0 11 12 11q87 -2 157 -45t110 -95zM476 233q1 70 -55 124.5
t-130 54.5q-71 0 -123 -52.5t-52 -125.5q0 -72 55 -125t126 -53q72 0 124.5 53t54.5 124z" />
    <glyph glyph-name="emptyset" unicode="&#x2205;" horiz-adv-x="937" 
d="M854 825l39 -38q8 -9 -1 -18l-103 -103q94 -115 94 -263q0 -171 -120.5 -291.5t-291.5 -120.5q-149 0 -262 94l-108 -108q-9 -9 -17 0l-39 38q-9 9 0 18l108 108q-94 113 -94 262q0 171 120.5 291.5t291.5 120.5q148 0 263 -94l103 103q8 10 17 1zM137 404
q0 -116 72 -207l469 468q-91 72 -206 72q-138 0 -236.5 -98t-98.5 -235zM805 404q0 115 -72 206l-468 -469q91 -72 207 -72q137 0 235 98t98 237z" />
    <glyph glyph-name="product" unicode="&#x220f;" horiz-adv-x="769" 
d="M717 790l1 -779q0 -11 -11 -11h-55q-11 0 -11 11l1 713h-515l1 -713q0 -11 -11 -11h-55q-11 0 -11 11v779q0 10 11 10h645q10 0 10 -10z" />
    <glyph glyph-name="summation" unicode="&#x2211;" horiz-adv-x="677" 
d="M637 786v-49q0 -14 -14 -14h-466l365 -308q10 -10 10 -16v-2q0 -7 -10 -16l-366 -305h467q14 0 14 -13v-49q0 -15 -14 -15l-570 1q-13 0 -13 12v55q0 7 9 15l378 316l-378 315q-9 7 -9 16v58q0 12 13 12h570q14 0 14 -13z" />
    <glyph glyph-name="minus" unicode="&#x2212;" horiz-adv-x="554" 
d="M514 402v-44q0 -13 -12 -13h-448q-14 0 -14 13v44q0 13 14 13h448q12 0 12 -13z" />
    <glyph glyph-name="radical" unicode="&#x221a;" horiz-adv-x="724" 
d="M299 -13h-7q-9 0 -13 8l-252 493q-7 12 7 12h59q8 0 13 -8l189 -378l325 677q4 9 13 9h57q14 0 8 -13l-386 -792q-4 -8 -13 -8z" />
    <glyph glyph-name="infinity" unicode="&#x221e;" horiz-adv-x="861" 
d="M426 362l2 7q6 -49 59 -95.5t131 -46.5q95 0 154 60t59 172q0 113 -58.5 171.5t-154.5 58.5q-75 0 -128 -44.5t-62 -94.5l-3 8q-19 53 -65.5 92t-122.5 39q-93 0 -150 -63.5t-57 -167.5q0 -102 57 -166t150 -64q73 0 121.5 41t67.5 93zM765 460q0 -72 -38.5 -117.5
t-106.5 -45.5q-59 0 -104.5 43t-45.5 121q0 76 45.5 118t104.5 42q68 0 106.5 -44.5t38.5 -116.5zM243 620q59 0 101.5 -44.5t42.5 -114.5t-42 -116t-102 -46q-64 0 -105.5 44.5t-41.5 114.5q0 72 41.5 117t105.5 45z" />
    <glyph glyph-name="integral" unicode="&#x222b;" horiz-adv-x="673" 
d="M626 786q10 -6 5 -16l-18 -39q-6 -10 -17 -5q-37 23 -80 23q-25 0 -47.5 -5.5t-45 -19t-36 -40.5t-13.5 -65l1 -801v-3v-11q-4 -91 -61.5 -139t-147.5 -48q-65 0 -119 34q-11 6 -6 16l19 38q5 11 16 6q37 -23 81 -23q56 0 98.5 29t42.5 101v802q0 97 57.5 148.5
t150.5 51.5q64 0 120 -34z" />
    <glyph glyph-name="approxequal" unicode="&#x2248;" horiz-adv-x="606" 
d="M71 419q8 -9 27 -28q8 -9 16 2q48 58 96 57q15 0 30 -6t22.5 -11t20.5 -16.5t15 -12.5q2 -2 9.5 -8l10.5 -8.5t11 -8t13 -8l13.5 -6.5t16.5 -6t18 -3.5t21 -1.5q35 0 69.5 19.5t51.5 39.5l18 20q5 7 -1 13l-25 27q-7 7 -15 0q-41 -58 -96 -58q-13 0 -25 3t-23 10
t-16.5 11t-16 13.5t-12.5 11.5q-54 48 -108 49q-35 0 -71 -20t-54 -41l-18 -20q-5 -6 2 -13zM66 210q4 -3 13.5 -13t14.5 -14q7 -10 16 1q46 58 96 57q12 0 23 -3t21.5 -9.5t16.5 -11t15.5 -13t11.5 -10.5q1 -1 12.5 -10t15.5 -11.5l15.5 -9.5t20 -9.5t22 -5.5t27.5 -3
q35 0 70 19.5t52 39.5l17 20q5 7 -1 13l-25 27q-8 8 -15 0q-41 -58 -96 -57q-13 0 -25 3t-23 9.5t-16.5 10.5t-16 14t-12.5 11q-55 49 -108 49q-35 0 -71 -20t-54 -40l-18 -21q-4 -6 1 -13z" />
    <glyph glyph-name="notequal" unicode="&#x2260;" horiz-adv-x="600" 
d="M527 471h-163l-57 -200h220q12 0 12 -12v-44q0 -13 -12 -13h-240l-54 -191q-5 -13 -15 -12l-48 1q-16 2 -11 15l53 187h-138q-13 0 -13 13v43q0 13 13 13h158l57 200h-215q-13 0 -13 13v44q0 13 13 13h235l58 203q3 13 14 12l49 -1q14 -2 11 -14l-57 -200h143
q12 0 12 -13v-43q0 -14 -12 -14z" />
    <glyph glyph-name="lessequal" unicode="&#x2264;" horiz-adv-x="504" 
d="M40 467v-10q0 -5 8 -11l380 -227q7 -4 11.5 -1.5t4.5 9.5v49q0 6 -8 12l-296 175l298 179q6 4 6 10v49q0 7 -4.5 9.5t-10.5 -0.5l-381 -231q-8 -6 -8 -12zM55 13v43q0 13 13 13h363q13 0 13 -14v-42q0 -13 -13 -13h-363q-13 0 -13 13z" />
    <glyph glyph-name="greaterequal" unicode="&#x2265;" horiz-adv-x="504" 
d="M464 457v10q0 6 -8 12l-381 231q-6 3 -10.5 0.5t-4.5 -9.5v-49q0 -7 5 -10l299 -179l-297 -175q-7 -5 -7 -12v-49q0 -7 4.5 -9.5t10.5 1.5l381 227q8 6 8 11zM449 56v-43q0 -13 -14 -13h-362q-13 0 -13 13v42q0 14 13 14h362q14 0 14 -13z" />
    <glyph glyph-name="lozenge" unicode="&#x25ca;" horiz-adv-x="869" 
d="M35 402l390 390q10 10 20 0l389 -390q10 -10 0 -20l-389 -390q-10 -10 -20 0l-390 390q-10 10 0 20zM435 696l-304 -304l304 -304l304 304z" />
    <glyph glyph-name="W.ss01" horiz-adv-x="1207" 
d="M36 800h65q10 0 15 -16l208 -626l238 626q6 16 17 16h45q10 0 15 -16l239 -626l208 626q5 16 15 16h65q17 0 9 -18l-273 -776q-3 -10 -15 -10h-9q-11 0 -14 10l-264 682l-262 -682q-3 -10 -14 -10h-10q-11 0 -14 10l-273 776q-7 18 9 18z" />
    <glyph glyph-name="i.loclTRK" horiz-adv-x="226" 
d="M114 713q-17 0 -29.5 12t-12.5 30q0 17 12.5 29.5t29.5 12.5q18 0 30 -12.5t12 -29.5q0 -18 -12 -30t-30 -12zM138 495h-50q-13 0 -13 -13v-455q0 -27 25 -27h39q12 0 12 13v469q0 13 -13 13z" />
    <glyph glyph-name="zero.osf" horiz-adv-x="611" 
d="M306 -13q-109 0 -186.5 77t-77.5 186t77.5 186t186.5 77t186 -77t77 -186t-77 -186t-186 -77zM306 59q79 0 135 56.5t56 136.5q0 77 -56 133t-135 56t-134.5 -55.5t-55.5 -133.5q0 -80 55.5 -136.5t134.5 -56.5z" />
    <glyph glyph-name="one.osf" horiz-adv-x="282" 
d="M155 498h48q13 0 13 -11v-474q0 -13 -13 -13h-52q-13 0 -13 13v342l-87 -18q-13 -2 -13 8l-3 35q0 10 9 12q62 24 101 99v2q3 5 10 5z" />
    <glyph glyph-name="two.osf" horiz-adv-x="593" 
d="M246 71l289 1q13 0 13 -12v-47q0 -13 -13 -13h-463q-12 0 -12 10v16q0 10 9 14l267 135q31 16 46 25t34.5 25.5t28 36.5t8.5 47q0 51 -37.5 89t-117.5 38t-125.5 -40.5t-51.5 -98.5q-3 -14 -16 -14h-47q-13 0 -13 14q6 90 73 150t188 60q102 0 164 -58.5t62 -135.5
q0 -85 -68 -127q-61 -35 -218 -115z" />
    <glyph glyph-name="three.osf" horiz-adv-x="601" 
d="M82 495h442q13 0 13 -13v-56q0 -10 -8 -20l-232 -242q48 8 97 -8q72 -14 117 -74t45 -135q0 -99 -72.5 -165.5t-176.5 -66.5q-159 0 -258 138q-8 11 0 18l38 34q9 8 17 -1q33 -49 88 -81t114 -32q84 0 126.5 50t42.5 112t-40 107.5t-107 45.5q-32 0 -99 -23q-9 -3 -15 5
l-29 38q-7 10 1 18l263 275h-367q-13 0 -13 13v50q0 13 13 13z" />
    <glyph glyph-name="four.osf" horiz-adv-x="607" 
d="M452 10h87q13 0 13 -13v-49q0 -13 -13 -13h-87v-207q0 -13 -14 -13h-48q-14 0 -14 13v207h-317q-14 0 -14 13v49q0 9 8 12q140 105 198 260q40 114 40 215q0 11 11 11h58q11 0 11 -11q-2 -164 -70 -304q-47 -91 -137 -170h212v62q0 10 11 12l53 9q5 1 8.5 -2.5t3.5 -8.5
v-72z" />
    <glyph glyph-name="five.osf" horiz-adv-x="588" 
d="M155 422v-280q74 56 163 56q97 0 161 -73t64 -171t-71 -167t-172 -69q-74 0 -140 35t-111 99q-7 8 0 16l37 38q8 8 16 -1q32 -50 84.5 -80.5t113.5 -30.5q76 0 118.5 49t42.5 113q0 69 -46.5 118t-110.5 49q-78 0 -149 -63l-65 13q-14 3 -14 15v397q0 13 13 13
q92 -4 203 -4q110 0 197 4q13 0 13 -13v-48q0 -14 -13 -14q-81 -5 -184 -5q-93 0 -150 4z" />
    <glyph glyph-name="six.osf" horiz-adv-x="612" 
d="M316 482q105 0 178 -71t73 -174q0 -104 -73.5 -175.5t-184.5 -71.5q-126 0 -195 93.5t-69 242.5q0 85 24 164.5t69 144t115.5 104t155.5 41.5q14 0 14 -11l1 -50q0 -10 -12 -10q-72 0 -129.5 -34t-91 -86.5t-51 -110t-17.5 -111.5q27 51 78.5 83t114.5 32zM308 60
q73 0 127.5 51.5t54.5 124.5q0 74 -50.5 125.5t-124.5 51.5q-73 0 -129.5 -51.5t-56.5 -117.5q0 -75 51.5 -129.5t127.5 -54.5z" />
    <glyph glyph-name="seven.osf" horiz-adv-x="589" 
d="M546 483v-25q0 -6 -5 -16l-379 -709q-5 -7 -16 -7h-60q-5 0 -7 5.5t0 9.5l368 678h-399q-13 0 -13 13v52q0 11 12 11h487q12 0 12 -12z" />
    <glyph glyph-name="eight.osf" horiz-adv-x="596" 
d="M199 399l8 -2q-52 -6 -107 -60t-55 -131q0 -94 68.5 -155t184.5 -61t184.5 61t68.5 155q0 78 -53 130t-110 61l8 2q53 17 94.5 61.5t41.5 111.5q0 91 -66.5 149.5t-167.5 58.5t-167.5 -58.5t-66.5 -149.5q0 -66 41.5 -111t93.5 -62zM461 573q0 -54 -48 -96t-115 -42
q-68 0 -116 42t-48 96q0 60 47 100.5t117 40.5q69 0 116 -40.5t47 -100.5zM298 57q-76 0 -127.5 40.5t-51.5 109.5q0 61 49 107t130 46t129.5 -46t48.5 -107q0 -69 -51 -109.5t-127 -40.5z" />
    <glyph glyph-name="nine.osf" horiz-adv-x="615" 
d="M296 8q-105 0 -178 71t-73 174q0 104 73.5 175.5t184.5 71.5q126 0 195 -93.5t69 -242.5q0 -115 -41 -215.5t-126 -168.5t-198 -70q-13 0 -13 11l-2 50q0 10 12 10q72 0 129.5 34t91 86.5t51 110t18.5 111.5q-27 -51 -78.5 -83t-114.5 -32zM304 430q-73 0 -128 -51.5
t-55 -124.5q0 -74 51 -125.5t125 -51.5q73 0 129.5 51.5t56.5 117.5q0 75 -51.5 129.5t-127.5 54.5z" />
    <glyph glyph-name="zero.dnom" horiz-adv-x="354" 
d="M177 -7q-70 0 -103.5 50t-33.5 129q0 80 33.5 130.5t103.5 50.5q69 0 103 -50.5t34 -130.5q0 -79 -34 -129t-103 -50zM177 42q91 0 91 130q0 132 -91 132t-91 -132q0 -130 91 -130z" />
    <glyph glyph-name="one.dnom" horiz-adv-x="236" 
d="M145 351h32q9 0 9 -8v-334q0 -9 -9 -9h-34q-10 0 -10 9v230l-71 -17q-9 -2 -10 6l-2 25q0 6 5 8q58 22 83 87v-1q1 4 7 4z" />
    <glyph glyph-name="two.dnom" horiz-adv-x="316" 
d="M129 49h141q5 0 5 -5v-38q0 -6 -5 -6h-217q-6 0 -6 6v14l24 29h1l114 125q2 3 8.5 10.5t9 11l7.5 10t7 10.5t4.5 10.5t3.5 12.5t1 12q0 26 -21.5 45.5t-52.5 19.5q-42 0 -79 -46q-4 -6 -8 0l-24 23q-3 3 -1 8q35 50 90.5 60t97.5 -22q39 -29 43 -77t-31 -88z" />
    <glyph glyph-name="three.dnom" horiz-adv-x="316" 
d="M267 308l-97 -98q32 1 57.5 -17.5t37.5 -45t10 -57.5t-21 -54q-26 -30 -64.5 -40t-79 5t-68.5 54q-4 5 0 8l22 23q5 3 8 -1q27 -38 68 -47t74 22q14 15 15.5 38.5t-11 42t-36 28t-58.5 -4.5q-2 -2 -6 2l-19 23q-3 3 0 7l109 113h-152q-6 0 -6 5v33q0 8 6 8h207q6 0 6 -7
v-36q0 -2 -2 -4z" />
    <glyph glyph-name="four.dnom" horiz-adv-x="314" 
d="M227 140h40q7 0 7 -6v-33q0 -7 -7 -7h-40v-88q0 -6 -6 -6h-33q-6 0 -6 6v88h-136q-6 0 -6 7v33q0 4 3 5q67 48 91 118q18 47 18 96q0 6 6 6h36q5 0 5 -5q0 -70 -34 -142q-18 -35 -62 -72h79v24q0 6 4 6l36 4q5 0 5 -6v-28z" />
    <glyph glyph-name="five.dnom" horiz-adv-x="317" 
d="M105 313v-117q39 19 72.5 18t56 -21t34.5 -46t8 -56.5t-23 -52.5q-44 -48 -108.5 -42t-102.5 60q-2 5 1 8l23 22q4 5 7 0q24 -38 66.5 -46t72.5 21q31 32 11 72q-18 37 -58 39q-31 1 -60 -24l-40 4q-6 0 -6 8v193q0 6 6 6h186q7 0 7 -6v-34q0 -6 -7 -6h-146z" />
    <glyph glyph-name="six.dnom" horiz-adv-x="306" 
d="M158 224q49 0 83.5 -33t34.5 -81q0 -49 -35 -83t-85 -34q-38 0 -68 20.5t-42 54.5q-16 32 -16 82q-2 89 46 147q19 24 52 44t74 21q5 0 5 -5l2 -34q2 -5 -5 -5q-46 0 -80.5 -35t-43.5 -88q34 29 78 29zM155 35q32 0 54 21t22 53q0 33 -21 53.5t-52 20.5q-34 0 -56 -21
t-21 -53q1 -33 21.5 -53.5t52.5 -20.5z" />
    <glyph glyph-name="seven.dnom" horiz-adv-x="313" 
d="M273 346v-11l-1 -4q0 -2 -1 -3l-174 -325q-3 -3 -6 -3h-40q-2 0 -3 2.5t0 3.5l159 299h-162q-5 0 -5 5v36q0 5 5 5h223q5 0 5 -5z" />
    <glyph glyph-name="eight.dnom" horiz-adv-x="296" 
d="M100 181l3 -1q-24 -3 -48.5 -28t-24.5 -62q0 -43 31 -70t87 -27q55 0 86.5 27t31.5 70q0 36 -24.5 60.5t-49.5 29.5l4 1q63 23 63 85q0 44 -31 70t-80 26t-80 -26t-31 -70q0 -33 19 -54.5t44 -30.5zM214 264q0 -25 -19 -42t-47 -17t-47 17t-19 42q0 27 17.5 42t48.5 15
q66 0 66 -57zM149 32q-74 0 -74 60q0 26 20 45t54 19q33 0 52.5 -19t19.5 -45q0 -60 -72 -60z" />
    <glyph glyph-name="nine.dnom" horiz-adv-x="304" 
d="M274 204q2 -86 -44 -145q-19 -25 -52 -45t-74 -21q-6 0 -6 5l-2 35q-2 5 5 5q46 0 80 33.5t43 84.5q-33 -25 -77 -25q-48 0 -82.5 33t-34.5 80q0 48 35 82.5t85 34.5q38 0 68 -21.5t41 -56.5q15 -32 15 -79zM148 172q33 0 55 21.5t21 53.5t-20.5 52t-52.5 20
q-31 0 -53.5 -21t-22.5 -53t21 -52.5t52 -20.5z" />
    <glyph glyph-name="zero.numr" horiz-adv-x="354" 
d="M177 442q-70 0 -103.5 49.5t-33.5 129.5t33.5 130.5t103.5 50.5q69 0 103 -50.5t34 -130.5t-34 -129.5t-103 -49.5zM177 490q91 0 91 131t-91 131t-91 -131t91 -131z" />
    <glyph glyph-name="one.numr" horiz-adv-x="236" 
d="M145 800h32q9 0 9 -8v-334q0 -9 -9 -9h-34q-10 0 -10 9v230l-71 -17q-9 -2 -10 6l-2 25q0 6 5 8q58 22 83 87v-1q1 4 7 4z" />
    <glyph glyph-name="two.numr" horiz-adv-x="317" 
d="M129 496h141q5 0 5 -5v-37q0 -7 -5 -7h-217q-6 0 -6 7v13l16 20l6 7l2 2l115 126q2 3 8.5 10.5l9 10.5t7.5 9.5t7 10.5l5 10.5t4 12.5t1 12q0 27 -22 46t-52 19q-43 0 -80 -46q-4 -5 -7 0l-24 23q-5 4 -1 8q34 51 90 61t98 -23q39 -29 43 -76.5t-31 -87.5z" />
    <glyph glyph-name="three.numr" horiz-adv-x="316" 
d="M268 753l-97 -98q43 1 73 -30t32 -70t-21 -74q-26 -30 -64.5 -40t-79.5 5t-69 54q-3 5 0 8l23 23q5 3 8 -1q26 -38 67.5 -47t74.5 22q14 15 15.5 38.5t-11 42t-36 28t-58.5 -4.5q-2 -2 -6 2l-19 23q-4 4 0 7l109 113h-152q-6 0 -6 5v33q0 8 6 8h206q7 0 7 -7v-36
q0 -2 -2 -4z" />
    <glyph glyph-name="four.numr" horiz-adv-x="314" 
d="M227 581h40q7 0 7 -6v-33q0 -7 -7 -7h-40v-88q0 -6 -6 -6h-33q-6 0 -6 6v88h-136q-6 0 -6 7v33q0 3 3 5q67 48 91 118q18 46 18 96q0 6 6 6h36q5 0 5 -5q0 -70 -34 -142q-18 -35 -62 -72h79v24q0 6 4 6l36 4q5 0 5 -6v-28z" />
    <glyph glyph-name="five.numr" horiz-adv-x="317" 
d="M105 754v-117q39 19 72.5 18t56 -21t34.5 -46t8 -56.5t-23 -52.5q-44 -48 -108.5 -42t-102.5 60q-2 5 1 8l23 22q4 5 7 0q24 -38 66.5 -46t72.5 21q31 32 11 72q-18 37 -58 39q-31 1 -60 -24l-40 4q-6 0 -6 8v193q0 6 6 6h186q7 0 7 -6v-34q0 -6 -7 -6h-146z" />
    <glyph glyph-name="six.numr" horiz-adv-x="305" 
d="M158 673q49 0 83 -33t34 -81q0 -49 -35 -83t-85 -34q-40 0 -71 23.5t-42 60.5q-12 33 -12 73q-2 90 45 147q19 24 52 44t74 21q4 0 6 -5l2 -34q0 -5 -6 -5q-46 0 -80.5 -35t-42.5 -87q35 28 78 28zM154 484q32 0 54 21t22 53q0 33 -21 53.5t-52 20.5q-33 0 -55.5 -21.5
t-21.5 -52.5q1 -33 21.5 -53.5t52.5 -20.5z" />
    <glyph glyph-name="seven.numr" horiz-adv-x="313" 
d="M273 795v-11l-1 -4q0 -2 -1 -3l-174 -325q-3 -3 -6 -3h-40q-2 0 -3 2.5t0 3.5l159 299h-162q-5 0 -5 5v36q0 5 5 5h223q5 0 5 -5z" />
    <glyph glyph-name="eight.numr" horiz-adv-x="296" 
d="M100 623l3 -1q-24 -3 -48.5 -28t-24.5 -62q0 -43 31 -70t87 -27q55 0 86.5 27t31.5 70q0 36 -24.5 60.5t-49.5 29.5l4 1q63 23 63 85q0 44 -31 70t-80 26t-80 -26t-31 -70q0 -33 19 -54.5t44 -30.5zM214 706q0 -25 -19 -42t-47 -17t-47 17t-19 42q0 27 17.5 42t48.5 15
q66 0 66 -57zM149 474q-74 0 -74 60q0 26 20 45t54 19q33 0 52.5 -19t19.5 -45q0 -60 -72 -60z" />
    <glyph glyph-name="nine.numr" horiz-adv-x="304" 
d="M274 649q2 -87 -44 -146q-51 -64 -126 -65q-6 0 -6 5l-2 34q-1 5 5 5q46 0 80 34t43 85q-33 -25 -77 -25q-48 0 -82.5 33t-34.5 80q0 48 35 82.5t85 34.5q38 0 67.5 -21t41.5 -55q15 -32 15 -81zM148 616q33 0 55 21.5t21 53.5q-1 33 -20.5 53t-52.5 20q-31 0 -53.5 -21
t-22.5 -53t21 -53t52 -21z" />
    <glyph glyph-name="ligaf" horiz-adv-x="505" 
d="M340 737q-21 0 -42.5 -6t-43.5 -20t-36 -42.5t-14 -68.5v-105h145q10 0 10 -10v-50q0 -11 -10 -11h-145v-410q0 -14 -12 -14h-38q-25 0 -25 29v395h-84q-10 0 -10 10v40q0 21 21 21h73v105q0 101 57.5 154.5t151.5 53.5q58 0 112 -27t91 -62l-28 -59q-79 77 -173 77z" />
    <glyph glyph-name="ligafex" horiz-adv-x="505" 
d="M340 737q-21 0 -42.5 -6t-43.5 -20t-36 -42.5t-14 -68.5v-105h237q10 0 10 -10v-50q0 -11 -10 -11h-237v-410q0 -14 -12 -14h-38q-25 0 -25 29v395h-84q-10 0 -10 10v40q0 21 21 21h73v105q0 101 57.5 154.5t151.5 53.5q58 0 112 -27t91 -62l-28 -59q-79 77 -173 77z" />
    </font>
</defs>
</svg>
