<?xml version="1.0" standalone="no"?>
<!DOCTYPE svg PUBLIC "-//W3C//DTD SVG 1.1//EN" "http://www.w3.org/Graphics/SVG/1.1/DTD/svg11.dtd" >
<svg>
<metadata>
Created by FontForge 20090622 at Sat Apr 30 01:19:03 2016
 By deploy user
Copyright &#194;&#169; 2015 by Connary Fagen. All rights reserved.
</metadata>
<defs>
<font id="VentiCF-Ultra" horiz-adv-x="610" >
  <font-face 
    font-family="Venti CF Ultra"
    font-weight="900"
    font-stretch="normal"
    units-per-em="1180"
    panose-1="0 0 10 0 0 0 0 0 0 0"
    ascent="944"
    descent="-236"
    x-height="495"
    cap-height="800"
    bbox="-135.778 -541.368 1436 1121"
    underline-thickness="50"
    underline-position="-50"
    unicode-range="U+0020-U+FB02"
  />
<missing-glyph horiz-adv-x="500" 
d="M0 0v700h500v-700h-500zM250 395l170 255h-340zM280 350l170 -255v510zM80 50h340l-170 255zM50 605v-510l170 255z" />
    <glyph glyph-name="fi" unicode="fi" horiz-adv-x="728" 
d="M288 495h345q8 0 14 -6t6 -14v-454q0 -21 -19 -21h-118q-24 0 -38 15t-14 39v271h-176v-304q0 -8 -6.5 -14.5t-14.5 -6.5h-113q-24 0 -39.5 15.5t-15.5 39.5v270h-53q-15 0 -15 14v118q0 18 10.5 28t28.5 10h29v109q0 96 57 148.5t151 52.5q39 0 83 -12.5t68 -32.5
q14 -13 6 -31l-53 -105q-10 -19 -27 -10q-20 10 -41 10q-22 0 -38.5 -13t-16.5 -39v-77z" />
    <glyph glyph-name="fl" unicode="fl" horiz-adv-x="731" 
d="M492 800h149q8 0 14 -6t6 -14v-759q0 -21 -19 -21h-118q-24 0 -38 15t-14 39v541q-70 32 -114 32q-70 0 -70 -56v-76h84q15 0 15 -15v-140q0 -6 -4.5 -10.5t-10.5 -4.5h-84v-304q0 -8 -6.5 -14.5t-14.5 -6.5h-113q-24 0 -39.5 15.5t-15.5 39.5v270h-53q-15 0 -15 14v118
q0 18 10.5 28t28.5 10h29v109q0 98 60.5 151t166.5 53q68 0 146 -31v3q0 8 5.5 14t14.5 6z" />
    <glyph glyph-name="f_f" unicode="ff" horiz-adv-x="815" 
d="M842 760q14 -13 6 -31l-53 -105q-8 -18 -27 -10q-20 10 -40 10q-22 0 -38.5 -13t-16.5 -39v-77h83q15 0 15 -15v-140q0 -6 -4.5 -10.5t-10.5 -4.5h-83v-304q0 -8 -6.5 -14.5t-14.5 -6.5h-114q-24 0 -39 15.5t-15 39.5v270h-204v-304q0 -8 -6.5 -14.5t-14.5 -6.5h-114
q-24 0 -39 15.5t-15 39.5v270h-54q-15 0 -15 14v118q0 18 10.5 28t28.5 10h30v109q0 98 60 151t166 53q100 0 216 -63q55 60 159 60q38 0 82 -12.5t68 -32.5zM280 495h204v89q-78 43 -134 43q-70 0 -70 -56v-76z" />
    <glyph glyph-name="f_f_i" unicode="ffi" horiz-adv-x="1121" 
d="M682 495h344q8 0 14 -6t6 -14v-454q0 -21 -19 -21h-118q-24 0 -38 15t-14 39v271h-175v-304q0 -8 -6.5 -14.5t-14.5 -6.5h-114q-24 0 -39.5 15.5t-15.5 39.5v270h-204v-304q0 -8 -6.5 -14.5t-14.5 -6.5h-113q-24 0 -39.5 15.5t-15.5 39.5v270h-53q-15 0 -15 14v118
q0 18 10.5 28t28.5 10h29v109q0 98 60.5 151t166.5 53q100 0 216 -63q56 60 159 60q38 0 81.5 -12t66.5 -32l2 -1q14 -13 6 -31l-53 -105q-10 -19 -27 -10q-20 10 -41 10t-37.5 -13t-16.5 -39v-77zM288 495h204v89q-80 43 -134 43q-70 0 -70 -56v-76z" />
    <glyph glyph-name="f_f_l" unicode="ffl" horiz-adv-x="1124" 
d="M885 800h149q8 0 14 -6t6 -14v-759q0 -21 -19 -21h-118q-24 0 -38 15t-14 39v541q-70 32 -114 32q-70 0 -70 -56v-76h84q15 0 15 -15v-140q0 -6 -4.5 -10.5t-10.5 -4.5h-84v-304q0 -8 -6.5 -14.5t-14.5 -6.5h-113q-24 0 -39.5 15.5t-15.5 39.5v270h-204v-304
q0 -8 -6.5 -14.5t-14.5 -6.5h-113q-24 0 -39.5 15.5t-15.5 39.5v270h-53q-15 0 -15 14v118q0 18 10.5 28t28.5 10h29v109q0 98 60.5 151t166.5 53q100 0 216 -63q60 63 177 63q69 0 146 -31v3q0 8 5.5 14t14.5 6zM288 495h204v89q-80 43 -134 43q-70 0 -70 -56v-76z" />
    <glyph glyph-name="f_b.liga" unicode="fb" horiz-adv-x="1082" 
d="M798 500q103 0 168.5 -70.5t65.5 -178.5q0 -105 -68 -181t-168 -76q-70 0 -115 38q-22 -32 -59 -32h-94q-22 0 -22 23v554q-87 50 -148 50q-70 0 -70 -56v-76h84q15 0 15 -15v-140q0 -6 -4.5 -10.5t-10.5 -4.5h-84v-304q0 -8 -6.5 -14.5t-14.5 -6.5h-113
q-24 0 -39.5 15.5t-15.5 39.5v270h-53q-15 0 -15 14v118q0 18 10.5 28t28.5 10h29v109q0 98 60.5 151t166.5 53q77 0 168 -40l-1 5q-2 11 3 19t15 8h124q60 0 60 -59v-266q43 25 103 25zM763 164q37 0 63.5 24.5t26.5 61.5q0 36 -26 59t-63 23q-32 0 -69 -19v-130
q35 -19 68 -19z" />
    <glyph glyph-name="f_f_b.liga" unicode="ffb" horiz-adv-x="1486" 
d="M1202 500q103 0 168.5 -70.5t65.5 -178.5q0 -105 -68 -181t-169 -76q-70 0 -115 38q-22 -32 -59 -32h-94q-22 0 -22 23v554q-87 50 -147 50q-70 0 -70 -56v-76h83q15 0 15 -15v-140q0 -6 -4.5 -10.5t-10.5 -4.5h-83v-304q0 -8 -6.5 -14.5t-14.5 -6.5h-114q-24 0 -39 15.5
t-15 39.5v270h-215v-304q0 -8 -6.5 -14.5t-14.5 -6.5h-113q-24 0 -39.5 15.5t-15.5 39.5v270h-53q-15 0 -15 14v118q0 18 10.5 28t28.5 10h29v109q0 98 60.5 151t166.5 53q104 0 223 -67q59 67 180 67q78 0 169 -40l-1 5q-2 11 2.5 19t14.5 8h125q59 0 59 -59v-266
q43 25 104 25zM288 495h215v83q-86 49 -145 49q-70 0 -70 -56v-76zM1166 164q37 0 63.5 24.5t26.5 61.5q0 36 -26 59t-63 23q-32 0 -69 -19v-130q35 -19 68 -19z" />
    <glyph glyph-name="f_f_h.liga" unicode="ffh" horiz-adv-x="1465" 
d="M1414 26q2 -10 -1.5 -18t-11.5 -8h-133q-24 0 -37.5 15t-13.5 38v192q0 33 -16.5 51t-45.5 18q-40 0 -69 -26v-268q0 -8 -5.5 -14t-14.5 -6h-149q-13 0 -18 12q-2 4 -2 8v559q-84 48 -144 48q-70 0 -70 -56v-76h84q15 0 15 -15v-140q0 -6 -4.5 -10.5t-10.5 -4.5h-84v-304
q0 -8 -6.5 -14.5t-14.5 -6.5h-113q-24 0 -39.5 15.5t-15.5 39.5v270h-206v-304q0 -8 -6.5 -14.5t-14.5 -6.5h-113q-24 0 -39.5 15.5t-15.5 39.5v270h-53q-15 0 -15 14v118q0 18 10.5 28t28.5 10h29v109q0 98 60.5 151t166.5 53q99 0 217 -64q59 64 178 64q75 0 164 -38l-1 3
q-2 11 2.5 19t14.5 8h125q60 0 60 -59v-272q57 31 113 31q90 0 148.5 -55.5t58.5 -148.5v-202q0 -32 8 -68zM288 495h206v88q-78 44 -136 44q-70 0 -70 -56v-76z" />
    <glyph glyph-name="f_h.liga" unicode="fh" horiz-adv-x="1070" 
d="M1019 26q2 -10 -1.5 -18t-11.5 -8h-133q-24 0 -37.5 15t-13.5 38v192q0 33 -16.5 51t-45.5 18q-40 0 -69 -26v-268q0 -8 -5.5 -14t-14.5 -6h-149q-13 0 -18 12q-2 4 -2 8v559q-84 48 -144 48q-70 0 -70 -56v-76h84q15 0 15 -15v-140q0 -6 -4.5 -10.5t-10.5 -4.5h-84v-304
q0 -8 -6.5 -14.5t-14.5 -6.5h-113q-24 0 -39.5 15.5t-15.5 39.5v270h-53q-15 0 -15 14v118q0 18 10.5 28t28.5 10h29v109q0 98 60.5 151t166.5 53q75 0 164 -38l-1 3q-2 11 2.5 19t14.5 8h125q60 0 60 -59v-272q57 31 113 31q90 0 148.5 -55.5t58.5 -148.5v-202q0 -32 8 -68
z" />
    <glyph glyph-name="f_j.liga" unicode="fj" horiz-adv-x="708" 
d="M288 495h329q8 0 14.5 -6t6.5 -14v-563q0 -182 -152 -257q-18 -8 -27 8l-76 141q-9 16 10 26q56 34 56 83v412h-161v-304q0 -8 -6.5 -14.5t-14.5 -6.5h-113q-24 0 -39.5 15.5t-15.5 39.5v270h-53q-15 0 -15 14v118q0 18 10.5 28t28.5 10h29v109q0 96 57 148.5t151 52.5
q39 0 83 -12.5t68 -32.5q14 -13 6 -31l-53 -105q-10 -19 -27 -10q-20 10 -41 10q-22 0 -38.5 -13t-16.5 -39v-77z" />
    <glyph glyph-name=".notdef" horiz-adv-x="500" 
d="M0 0v700h500v-700h-500zM250 395l170 255h-340zM280 350l170 -255v510zM80 50h340l-170 255zM50 605v-510l170 255z" />
    <glyph glyph-name=".null" horiz-adv-x="0" 
 />
    <glyph glyph-name="nonmarkingreturn" horiz-adv-x="393" 
 />
    <glyph glyph-name="space" unicode=" " horiz-adv-x="311" 
 />
    <glyph glyph-name="exclam" unicode="!" horiz-adv-x="346" 
d="M87 800h172q8 0 14 -6t6 -14v-17l-40 -425q-2 -21 -20 -21h-91q-19 0 -21 21l-40 425v17q0 8 5.5 14t14.5 6zM174 -7q-48 0 -83.5 34.5t-35.5 82.5t35.5 83.5t83.5 35.5t82.5 -35.5t34.5 -83.5t-34.5 -82.5t-82.5 -34.5z" />
    <glyph glyph-name="quotedbl" unicode="&#x22;" horiz-adv-x="476" 
d="M157 501h-106q-8 0 -14.5 6t-6.5 14v238q0 8 6 14.5t14 6.5h136q9 0 15.5 -6t5.5 -15l-30 -238q-2 -20 -20 -20zM396 501h-106q-8 0 -14.5 6t-6.5 14v238q0 8 6 14.5t14 6.5h136q9 0 15.5 -6t5.5 -15l-30 -238q-2 -20 -20 -20z" />
    <glyph glyph-name="numbersign" unicode="#" horiz-adv-x="662" 
d="M548 602h58q8 0 14 -5.5t6 -14.5v-122q0 -8 -6 -14.5t-14 -6.5h-82l-10 -76h54q8 0 14 -5.5t6 -14.5v-122q0 -8 -6 -14.5t-14 -6.5h-78l-25 -179q-4 -21 -20 -21h-114q-9 0 -15.5 6t-5.5 15l25 179h-65l-25 -179q-4 -21 -20 -21h-114q-9 0 -15.5 6t-5.5 15l25 179h-58
q-8 0 -14.5 6t-6.5 14v122q0 9 6 15t15 6h82l10 76h-54q-8 0 -14.5 6t-6.5 14v122q0 9 6 15t15 6h78l25 178q4 20 20 20h114q9 0 15.5 -6t5.5 -14l-25 -178h65l25 178q4 20 20 20h114q9 0 15.5 -6t5.5 -14zM359 363l11 76h-65l-11 -76h65z" />
    <glyph glyph-name="dollar" unicode="$" horiz-adv-x="637" 
d="M365 494q48 -20 78.5 -36.5t72 -48.5t62 -76.5t18.5 -100.5q-4 -79 -51.5 -140.5t-126.5 -87.5v-74q0 -20 -19 -20h-161q-20 0 -20 20v71q-85 23 -165 99q-19 15 -6 34l88 120q8 11 21 12.5t20 -5.5q2 -1 16 -12t29.5 -21.5t38.5 -20t43 -9.5q67 0 67 39q0 13 -1 18.5
t-8.5 16t-26 22t-49.5 25.5q-42 19 -69 33.5t-62.5 39t-56 48.5t-35.5 59.5t-15 75.5q0 72 45.5 133t125.5 88v82q0 20 20 20h161q19 0 19 -20v-76q62 -17 141 -75q22 -16 6 -37l-83 -114q-21 -29 -43 -14q-81 54 -125 54q-27 0 -43 -12.5t-16 -29.5q0 -19 19 -33.5
t91 -46.5z" />
    <glyph glyph-name="percent" unicode="%" horiz-adv-x="725" 
d="M69 20l423 768q7 12 21 12h131q9 0 14 -7t0 -15l-420 -765q-8 -13 -22 -13h-133q-10 0 -14 6t0 14zM174 505q-60 0 -102.5 42t-42.5 102q0 59 42.5 101t102.5 42q58 0 100 -42t42 -101q0 -60 -41.5 -102t-100.5 -42zM555 0q-60 0 -102.5 42t-42.5 102q0 59 42.5 101
t102.5 42q59 0 101 -42.5t42 -100.5q0 -60 -42 -102t-101 -42z" />
    <glyph glyph-name="ampersand" unicode="&#x26;" horiz-adv-x="671" 
d="M596 281h-43q-12 -33 -24 -72q39 -42 96 -51q11 -2 18 -9t7 -16v-106q0 -23 -21 -25q-127 -8 -206 77q-49 -47 -101 -63q-70 -26 -154 -12t-133 73q-82 98 -37 229q26 78 131 136l-56 72q-35 51 -34.5 110.5t33.5 107.5q61 90 186 90q65 0 111 -21t79 -73
q30 -48 32.5 -104t-30.5 -112.5t-101 -92.5l74 -93l9.5 38.5l13.5 54.5q7 22 26 22h157q11 0 17.5 -7t3.5 -17q-27 -87 -32 -119q-3 -17 -22 -17zM259 531q56 51 56 89q0 25 -19.5 41t-46.5 12q-42 -8 -45 -47q-1 -20 11 -40t44 -55zM242 163q45 5 69 33l-97 115
q-38 -18 -51.5 -54.5t8.5 -66.5q23 -31 71 -27z" />
    <glyph glyph-name="quotesingle" unicode="'" horiz-adv-x="228" 
d="M157 501h-106q-8 0 -14.5 6t-6.5 14v238q0 8 6 14.5t14 6.5h136q9 0 15.5 -6t5.5 -15l-30 -238q-2 -20 -20 -20z" />
    <glyph glyph-name="parenleft" unicode="(" horiz-adv-x="452" 
d="M412 60l-4 -155q0 -20 -19 -17q-172 23 -258 151.5t-86 341.5q0 450 345 495q18 2 18 -17l4 -151q0 -18 -17 -19q-47 -6 -77.5 -28.5t-46.5 -64.5t-21.5 -91.5t-5.5 -123.5q0 -153 29 -222t122 -80q17 -1 17 -19z" />
    <glyph glyph-name="parenright" unicode=")" horiz-adv-x="452" 
d="M34 -95l-4 155q0 18 17 19q93 11 122 80t29 222q0 74 -5.5 123.5t-21.5 91.5t-46.5 64.5t-77.5 28.5q-17 1 -17 19l4 151q0 19 18 17q345 -45 345 -495q0 -213 -86 -341.5t-258 -151.5q-19 -3 -19 17z" />
    <glyph glyph-name="asterisk" unicode="*" horiz-adv-x="423" 
d="M305 614l77 -40q18 -9 6 -27l-38 -63q-12 -18 -27 -6l-61 45l6 -75q2 -20 -20 -20h-73q-22 0 -20 20l6 75l-61 -45q-15 -12 -27 6l-38 63q-12 18 6 27l77 40l-77 40q-18 9 -6 27l38 63q12 18 27 6l61 -46l-6 76q-2 20 20 20h73q22 0 20 -20l-6 -76l61 46q15 12 27 -6
l38 -63q12 -18 -6 -27z" />
    <glyph glyph-name="plus" unicode="+" horiz-adv-x="631" 
d="M399 447h142q8 0 14 -5.5t6 -14.5v-126q0 -8 -6 -14t-14 -6h-142v-142q0 -8 -6 -14.5t-14 -6.5h-126q-9 0 -15 6t-6 15v142h-141q-9 0 -15 5.5t-6 14.5v125q0 9 6 15t15 6h141v142q0 8 5.5 14t14.5 6h126q8 0 14.5 -6t6.5 -14v-142z" />
    <glyph glyph-name="comma" unicode="," horiz-adv-x="305" 
d="M270 108q10 -72 -12 -154q-16 -49 -50.5 -90t-71.5 -64q-17 -9 -26 3l-24 29q-6 9 0 14q82 63 94 146q-18 -5 -33 -5q-47 0 -81 35t-34 82q0 48 34 81.5t81 33.5h3q46 0 80 -34q2 -1 3.5 -3t4 -4.5l3.5 -3.5q23 -29 29 -66z" />
    <glyph glyph-name="hyphen" unicode="-" horiz-adv-x="431" 
d="M391 307v-116q0 -8 -6 -14.5t-14 -6.5h-310q-8 0 -14.5 6t-6.5 14v116q0 9 6 15t15 6h310q8 0 14 -5.5t6 -14.5z" />
    <glyph glyph-name="period" unicode="." horiz-adv-x="317" 
d="M158 -13q-49 0 -83 35t-34 84q0 48 34 82.5t83 34.5q48 0 83 -34.5t35 -82.5q0 -49 -35 -84t-83 -35z" />
    <glyph glyph-name="slash" unicode="/" horiz-adv-x="479" 
d="M270 800h164q9 0 15.5 -6t4.5 -14l-224 -759q-5 -21 -21 -21h-164q-8 0 -15 6.5t-5 14.5l224 759q5 20 21 20z" />
    <glyph glyph-name="zero" unicode="0" horiz-adv-x="713" 
d="M356 -12q-148 0 -231.5 112t-83.5 281q0 171 83.5 285t231.5 114q149 0 232 -114t83 -285q0 -110 -35 -197.5t-107.5 -141.5t-172.5 -54zM357 164q61 0 90.5 61t29.5 158q0 98 -29.5 159.5t-90.5 61.5t-91.5 -62t-30.5 -159q0 -96 30.5 -157.5t91.5 -61.5z" />
    <glyph glyph-name="one" unicode="1" horiz-adv-x="421" 
d="M202 770h143q8 0 14.5 -6t6.5 -14v-729q0 -8 -6 -14.5t-14 -6.5h-154q-9 0 -15 6t-6 15v495l-102 -19q-21 -4 -23 16l-11 114q-1 19 17 24q52 16 119 95l13 16q7 8 18 8z" />
    <glyph glyph-name="two" unicode="2" horiz-adv-x="625" 
d="M356 176h203q21 0 21 -20v-135q0 -8 -7.5 -14.5t-15.5 -6.5h-473q-8 0 -15 6.5t-7 14.5v38l252 327q67 87 67 137q0 32 -21.5 56.5t-57.5 24.5q-21 0 -39.5 -7t-36.5 -25t-25 -26t-25 -31q-13 -16 -30 0l-95 87q-13 13 -2 28q56 77 118.5 115.5t152.5 38.5
q98 0 174.5 -67t76.5 -170q0 -95 -65 -177z" />
    <glyph glyph-name="three" unicode="3" horiz-adv-x="618" 
d="M97 770h431q21 0 21 -21v-132q0 -21 -15 -37l-126 -133q55 -16 96 -55q69 -66 69 -172q0 -96 -77.5 -163t-184.5 -67q-146 0 -259 133q-13 14 1 28l102 97q13 13 28 -2q71 -71 126 -71q33 0 52 22.5t19 48.5q0 25 -16 44.5t-43 19.5q-10 0 -24.5 -3.5t-18.5 -3.5
q-10 0 -17 8l-69 94q-13 16 1 30l155 156h-251q-8 0 -14.5 6t-6.5 14v138q0 9 6 15t15 6z" />
    <glyph glyph-name="four" unicode="4" horiz-adv-x="614" 
d="M526 307h23q20 0 20 -20v-134q0 -8 -6 -14.5t-14 -6.5h-23v-112q0 -20 -20 -20h-130q-8 0 -14.5 6t-6.5 14v112h-288q-8 0 -14.5 6t-6.5 14l-1 134q0 10 9 17q136 112 207 291q29 73 30 166q0 20 20 20h150q9 0 15 -6t6 -15q-5 -175 -73 -291q-62 -105 -117 -161h63v26
q0 17 20 22l130 27q9 2 15 -5t6 -17v-53z" />
    <glyph glyph-name="five" unicode="5" horiz-adv-x="624" 
d="M268 591v-95q33 9 86 9q102 0 163.5 -76t61.5 -177q0 -110 -77.5 -186t-195.5 -76q-144 0 -254 130q-12 15 1 29l102 107q14 15 30 -1q68 -66 127 -66q30 0 48 17t18 44q0 26 -17 44t-45 18q-23 0 -47 -11l-165 41q-10 2 -16.5 9.5t-6.5 15.5v378q0 11 6 18t18 6
q128 -4 207 -4q78 0 206 4q25 2 25 -22v-129q0 -8 -5.5 -14t-13.5 -7q-77 -8 -169 -8q-59 0 -87 2z" />
    <glyph glyph-name="six" unicode="6" horiz-adv-x="619" 
d="M326 481q101 0 174.5 -70.5t73.5 -173.5q0 -104 -75 -175.5t-186 -71.5q-122 0 -195 95.5t-73 237.5q0 64 16 128t47.5 122t75.5 103t104.5 73t128.5 31q21 2 23 -22l7 -145q0 -9 -7.5 -15.5t-16.5 -6.5q-122 -1 -165 -118q24 8 68 8zM314 168q28 0 48 20.5t20 49.5
q0 28 -20.5 50t-47.5 22q-28 0 -48.5 -22t-20.5 -50q0 -29 20 -49.5t49 -20.5z" />
    <glyph glyph-name="seven" unicode="7" horiz-adv-x="600" 
d="M560 750v-36q0 -9 -5 -16l-272 -679q-9 -19 -28 -19h-164q-9 0 -12.5 11t-0.5 19l236 555h-257q-8 0 -15 6.5t-7 14.5v142q0 9 6.5 15.5t15.5 6.5h483q20 0 20 -20z" />
    <glyph glyph-name="eight" unicode="8" horiz-adv-x="624" 
d="M175 399v-3q-17 -9 -34 -21t-41.5 -35t-39.5 -57.5t-15 -74.5q0 -95 72 -156.5t193 -61.5q124 0 196.5 61.5t72.5 156.5q0 40 -12.5 73t-35.5 55t-41 34.5t-43 25.5v4q22 13 38 25t34.5 32.5t28.5 49.5t10 65q0 91 -70 149.5t-178 58.5q-105 0 -174 -58.5t-69 -149.5
q0 -114 108 -173zM375 557q0 -23 -18 -42.5t-45 -19.5q-28 0 -46 19t-18 43t18.5 41t43.5 17q28 0 46.5 -17t18.5 -41zM312 155q-30 0 -51.5 18.5t-21.5 44.5q0 25 20.5 45.5t52.5 20.5q33 0 53 -20.5t20 -45.5q0 -26 -21.5 -44.5t-51.5 -18.5z" />
    <glyph glyph-name="nine" unicode="9" horiz-adv-x="619" 
d="M293 289q-101 0 -174.5 70.5t-73.5 173.5q0 104 75 175.5t186 71.5q122 0 195 -95.5t73 -237.5q0 -109 -43 -210.5t-130 -171.5t-200 -75q-21 -2 -23 22l-6 145q-1 9 7 15.5t17 6.5q120 1 165 118q-25 -8 -68 -8zM304 602q-27 0 -47.5 -21t-20.5 -49t20.5 -50t47.5 -22
q29 0 49.5 22t20.5 50q0 29 -20.5 49.5t-49.5 20.5z" />
    <glyph glyph-name="colon" unicode=":" horiz-adv-x="334" 
d="M166 275q-48 0 -82 35t-34 83t34 82t82 34t83 -34t35 -82t-35 -83t-83 -35zM166 -13q-48 0 -82 35t-34 83t34 82t82 34t83 -34t35 -82t-35 -83t-83 -35z" />
    <glyph glyph-name="semicolon" unicode=";" horiz-adv-x="316" 
d="M166 275q-48 0 -82 35t-34 83t34 82t82 34t83 -34t35 -82t-35 -83t-83 -35zM289 109q10 -75 -11 -155q-17 -50 -51.5 -91t-71.5 -64q-17 -8 -27 3l-23 29q-7 10 0 15q82 61 94 146q-18 -5 -33 -5q-48 0 -82 35t-34 83t34 82t82 34q33 0 61 -17t43 -45q14 -21 19 -50z" />
    <glyph glyph-name="less" unicode="&#x3c;" horiz-adv-x="498" 
d="M40 374v-5q0 -12 10 -18l359 -220q11 -6 20 -1t9 18v138q0 11 -10 17l-136 69l136 69q10 8 10 17v138q0 13 -9.5 18t-19.5 -1l-359 -221q-10 -6 -10 -18z" />
    <glyph glyph-name="equal" unicode="=" horiz-adv-x="600" 
d="M545 552v-116q0 -8 -6 -14.5t-14 -6.5h-449q-8 0 -14.5 6t-6.5 14v116q0 9 6 15t15 6h449q8 0 14 -5.5t6 -14.5zM545 305v-116q0 -8 -6 -14.5t-14 -6.5h-449q-8 0 -14.5 6t-6.5 14v116q0 9 6 15t15 6h449q8 0 14 -5.5t6 -14.5z" />
    <glyph glyph-name="greater" unicode="&#x3e;" horiz-adv-x="498" 
d="M458 369v5q0 12 -10 18l-359 221q-10 6 -19.5 1t-9.5 -18v-138q0 -9 10 -17l136 -69l-136 -69q-10 -6 -10 -17v-138q0 -13 9 -18t20 1l359 220q10 6 10 18z" />
    <glyph glyph-name="question" unicode="?" horiz-adv-x="466" 
d="M100 600l-79 86q-12 12 -1 25q92 106 219 104q53 -2 103 -22q54 -23 84.5 -77t24 -116.5t-51.5 -105.5l-39 -36t-27.5 -27t-14.5 -16.5t-9.5 -20.5t-1.5 -20.5t-1 -35.5q0 -8 -6 -14.5t-14 -6.5h-129q-9 0 -15 6t-6 15l-2 93q0 19 31.5 48.5l63.5 59.5t32 50
q1 28 -16.5 42.5t-41.5 14.5q-7 0 -12.5 -1t-11.5 -4t-9.5 -4.5t-11 -7.5l-10 -8t-12 -10.5t-11.5 -10.5q-13 -12 -25 0zM219 -7q-48 0 -83.5 34.5t-35.5 82.5t35.5 83.5t83.5 35.5t82.5 -35.5t34.5 -83.5t-34.5 -82.5t-82.5 -34.5z" />
    <glyph glyph-name="at" unicode="@" horiz-adv-x="1167" 
d="M600 815q112 0 209.5 -42t161 -108.5t100 -146t36.5 -157.5q0 -67 -9.5 -125t-33.5 -115.5t-72 -91.5t-117 -34q-57 0 -86 28.5t-36 63.5q-28 -25 -64 -45q-52 -30 -107 -33q-37 -2 -75.5 6t-75 34.5t-46.5 67.5q-11 34 -4 65.5t31 58.5t81.5 51.5t147.5 43.5q0 8 -7 17
t-17 12q-60 18 -157 -21q-8 -4 -16.5 -1.5t-10.5 11.5l-27 91q-6 19 11 27q98 45 189 44q87 -2 149 -48t58 -127q-2 -50 -2 -89q1 -44 13.5 -60t37.5 -16q34 0 42 33.5t8 134.5q0 118 -83 199t-234 81q-154 0 -248.5 -95t-94.5 -246q0 -132 83 -234.5t209 -119.5
q14 -2 14 -21v-155q0 -16 -28 -14q-108 11 -198.5 62.5t-148.5 127.5t-90.5 168t-32.5 186q0 145 70 267t194.5 193.5t275.5 71.5zM636 171v44q-74 -18 -90 -26q-18 -7 -14.5 -26t24.5 -20q47 -5 80 28z" />
    <glyph glyph-name="A" unicode="A" horiz-adv-x="874" 
d="M457 794l374 -771q5 -10 1 -16.5t-15 -6.5h-164q-15 0 -21 13l-41 89h-308l-41 -89q-6 -13 -21 -13h-164q-10 0 -14.5 6.5t0.5 16.5l374 771q6 10 16 10h8q10 0 16 -10zM363 274h148l-74 160z" />
    <glyph glyph-name="B" unicode="B" horiz-adv-x="684" 
d="M508 432q59 -37 92.5 -90.5t33.5 -113.5q0 -96 -72.5 -162t-170.5 -66h-315q-9 0 -15 6t-6 15v759q0 8 5.5 14t14.5 6h289q99 0 162 -65t63 -143q0 -110 -81 -160zM249 483h74q34 0 53.5 22t20 48.5t-19 48.5t-54.5 22h-74v-141zM249 176h100q36 0 57 22t21 48.5
t-20.5 48.5t-57.5 22h-100v-141z" />
    <glyph glyph-name="C" unicode="C" horiz-adv-x="798" 
d="M621 246l122 -101q16 -14 2 -28q-56 -59 -131.5 -91.5t-158.5 -32.5q-171 0 -290.5 118.5t-119.5 288.5q0 169 119.5 288t290.5 119q83 0 159.5 -33t131.5 -92q14 -14 -1 -28l-123 -103q-15 -12 -28 0q-35 34 -67.5 50.5t-77.5 16.5q-80 0 -143 -66t-63 -151
q0 -87 63 -153t144 -66q45 0 76.5 15.5t66.5 48.5q13 13 28 0z" />
    <glyph glyph-name="D" unicode="D" horiz-adv-x="814" 
d="M80 800h268q94 0 173.5 -35.5t130.5 -93t79 -127.5t28 -140q0 -109 -47.5 -199.5t-142.5 -147.5t-221 -57h-267q-9 0 -15 6t-6 15v759q0 8 5.5 14t14.5 6zM258 193h90q97 0 154.5 64t57.5 147q0 85 -57 144t-155 59h-90v-414z" />
    <glyph glyph-name="E" unicode="E" horiz-adv-x="674" 
d="M588 624h-319v-146h170q8 0 14.5 -6t6.5 -14v-135q0 -9 -6 -15t-15 -6h-170v-126h319q8 0 14.5 -6t6.5 -14v-135q0 -9 -6 -15t-15 -6h-492q-9 0 -15 6t-6 15v759q0 8 5.5 14t14.5 6h493q8 0 14.5 -6t6.5 -14v-135q0 -9 -6 -15t-15 -6z" />
    <glyph glyph-name="F" unicode="F" horiz-adv-x="604" 
d="M70 800h483q8 0 14.5 -6t6.5 -14v-135q0 -9 -6 -15t-15 -6h-309v-146h159q8 0 14.5 -6t6.5 -14v-135q0 -9 -6 -15t-15 -6h-159v-281q0 -8 -6 -14.5t-14 -6.5h-123q-24 0 -37.5 13.5t-13.5 37.5v729q0 8 5.5 14t14.5 6z" />
    <glyph glyph-name="G" unicode="G" horiz-adv-x="798" 
d="M751 416v-281q3 -9 -6 -18q-56 -59 -131.5 -91.5t-158.5 -32.5q-171 0 -290.5 118.5t-119.5 288.5q0 169 119.5 288t290.5 119q83 0 159.5 -33t131.5 -92q14 -14 -1 -28l-123 -103q-15 -12 -28 0q-35 34 -67.5 50.5t-77.5 16.5q-80 0 -143 -66t-63 -151q0 -87 63 -153
t144 -66q72 0 133 55v23h-126q-21 0 -21 20v135q0 21 20 21l275 -3q20 5 20 -17z" />
    <glyph glyph-name="H" unicode="H" horiz-adv-x="835" 
d="M584 800h156q8 0 14 -6t6 -14v-759q0 -21 -19 -21h-125q-24 0 -38 15t-14 39v238h-294v-271q0 -8 -6 -14.5t-14 -6.5h-154q-9 0 -15 6t-6 15v759q0 8 5.5 14t14.5 6h154q8 0 14.5 -6t6.5 -14v-292h294v292q0 8 5.5 14t14.5 6z" />
    <glyph glyph-name="I" unicode="I" horiz-adv-x="353" 
d="M252 800h-152q-9 0 -14.5 -6t-5.5 -14v-759q0 -9 6 -15t15 -6h152q8 0 14 6.5t6 14.5v759q0 8 -6.5 14t-14.5 6z" />
    <glyph glyph-name="J" unicode="J" horiz-adv-x="367" 
d="M93 800h169q10 0 17.5 -7t7.5 -17v-870q-3 -173 -156 -249q-18 -8 -27 8l-76 141q-9 16 10 26q51 31 51 83v795q-1 26 -9 64q-2 10 1.5 18t11.5 8z" />
    <glyph glyph-name="K" unicode="K" horiz-adv-x="756" 
d="M378 415l333 -366q14 -16 7.5 -32.5t-27.5 -16.5h-154q-15 0 -24 10l-254 282v-271q0 -8 -6 -14.5t-14 -6.5h-153q-9 0 -15 6t-6 15v689q-1 26 -9 64q-2 10 1.5 18t11.5 8h165q11 0 18 -6.5t7 -16.5v-237l220 249q10 11 25 11h157q19 0 26.5 -15.5t-5.5 -29.5z" />
    <glyph glyph-name="L" unicode="L" horiz-adv-x="627" 
d="M259 176h293q8 0 14 -5.5t6 -14.5v-135q0 -8 -6 -14.5t-14 -6.5h-467q-8 0 -14 6t-6 15v759q0 8 5.5 14t14.5 6h153q8 0 14.5 -6t6.5 -14v-604z" />
    <glyph glyph-name="M" unicode="M" horiz-adv-x="1067" 
d="M825 800h146q8 0 14.5 -6t6.5 -14v-759q0 -8 -6 -14.5t-14 -6.5h-153q-9 0 -15 6t-6 15v389l-239 -356q-10 -15 -25 -15h-8q-14 0 -24 15l-233 355v-388q0 -8 -6 -14.5t-14 -6.5h-153q-9 0 -15 6t-6 15v759q0 8 5.5 14t14.5 6h146q12 0 21 -14l268 -414l274 414
q9 14 21 14z" />
    <glyph glyph-name="N" unicode="N" horiz-adv-x="850" 
d="M601 799l153 1q8 0 14.5 -6t6.5 -15v-759q0 -8 -6 -14t-14 -6h-53q-53 0 -107 61l-327 368v-408q0 -8 -6 -14.5t-14 -6.5h-152q-9 0 -15 6t-6 15v759q0 8 6 14t14 6h94q14 0 29 -16l363 -415v410q0 8 6 14t14 6z" />
    <glyph glyph-name="O" unicode="O" horiz-adv-x="936" 
d="M469 -7q169 0 288 119t119 288t-119 288t-288 119q-170 0 -289.5 -119t-119.5 -288t119.5 -288t289.5 -119zM468 182q-84 0 -147 66t-63 153t63 152t147 65q85 0 147.5 -65t62.5 -152t-62.5 -153t-147.5 -66z" />
    <glyph glyph-name="P" unicode="P" horiz-adv-x="686" 
d="M90 800h284q114 0 198 -86.5t84 -186.5q0 -107 -83.5 -193t-198.5 -86h-110v-227q0 -8 -6 -14.5t-14 -6.5h-153q-9 0 -15 6t-6 15v759q0 8 5.5 14t14.5 6zM264 437h108q40 0 65 26.5t25 63.5q0 34 -25.5 59t-64.5 25h-108v-174z" />
    <glyph glyph-name="Q" unicode="Q" horiz-adv-x="921" 
d="M857 -21q9 -9 8 -18t-9 -14l-116 -71q-20 -12 -39.5 -8t-32.5 23l-78 120q-57 -18 -121 -18q-170 0 -289.5 119t-119.5 288t119.5 288t289.5 119q169 0 288 -119t119 -288q0 -167 -117 -286l43 -70l13 -20t13 -16.5t10 -11t10.5 -10t8.5 -7.5zM468 618q-84 0 -147 -65
t-63 -152q0 -88 64 -155q-5 23 -5 39q0 55 45 92.5t103 37.5q106 0 168 -98l15 -25q30 52 30 109q0 87 -62.5 152t-147.5 65zM468 182h11v1q-28 44 -42 52q-9 6 -19 6q-14 0 -23 -8.5t-9 -20.5q0 -8 2 -12q38 -18 80 -18z" />
    <glyph glyph-name="R" unicode="R" horiz-adv-x="750" 
d="M546 289l160 -265q6 -10 2 -17t-16 -7h-149q-20 0 -38.5 14t-26.5 29l-118 205h-106v-227q0 -8 -6 -14.5t-14 -6.5h-153q-9 0 -15 6t-6 15v759q0 8 5.5 14t14.5 6h325q80 0 145 -44t97.5 -105.5t32.5 -122.5q0 -68 -36 -134t-98 -105zM254 624v-200h121q55 0 80.5 31
t25.5 70q0 38 -26 68.5t-80 30.5h-121z" />
    <glyph glyph-name="S" unicode="S" horiz-adv-x="643" 
d="M53 140l76 106q8 11 21 12.5t19 -5.5q2 -1 13 -10.5l16.5 -14t17.5 -13t21 -13t21.5 -10t26 -8t26.5 -2.5q36 0 62 15.5t26 40.5q0 17 -14 29.5t-46 28.5q-139 73 -178 100q-96 68 -103 158q-1 9 -1 18q0 94 76 165t203 71q113 0 224 -83q4 -3 6 -4q22 -17 6 -38
l-77 -107q-19 -27 -43 -12q-83 54 -135 54q-25 0 -43.5 -13.5t-18.5 -31.5q0 -19 12 -29.5t50 -28.5l40.5 -20t42 -21l37.5 -20t38.5 -22.5l32.5 -23.5t31 -27.5l23.5 -29.5t20 -35t10.5 -38.5t5 -44.5q0 -100 -79.5 -170t-200.5 -70q-25 0 -48.5 3t-44 8.5t-38.5 12
t-34 15.5l-28 16t-24.5 17l-19 15t-15.5 13.5t-10 9.5q-19 17 -3 37z" />
    <glyph glyph-name="T" unicode="T" horiz-adv-x="740" 
d="M70 800h600q8 0 14 -5.5t6 -14.5v-135q0 -8 -6 -14.5t-14 -6.5h-203v-603q0 -21 -19 -21h-123q-24 0 -38 15t-14 39v570h-203q-8 0 -14.5 6t-6.5 14v135q0 9 6 15t15 6z" />
    <glyph glyph-name="U" unicode="U" horiz-adv-x="790" 
d="M700 800h-154q-9 0 -14.5 -6t-5.5 -14v-463q0 -60 -32.5 -99.5t-100.5 -39.5t-98.5 39t-30.5 100v463q0 8 -6 14t-14 6h-154q-9 0 -14.5 -6t-5.5 -14v-492q1 -127 87 -211t236 -84q151 0 238.5 84t88.5 211v492q0 8 -6 14t-14 6z" />
    <glyph glyph-name="V" unicode="V" horiz-adv-x="847" 
d="M636 800h165q11 0 16 -7t0 -21l-365 -759q-10 -21 -23 -21h-11q-12 0 -23 21l-365 760q-6 13 -0.5 20t16.5 7h165q13 0 26 -25l187 -416l186 416q12 25 26 25z" />
    <glyph glyph-name="W" unicode="W" horiz-adv-x="1149" 
d="M939 800h165q11 0 17 -7.5t0 -20.5l-373 -759q-10 -21 -23 -21h-11q-12 0 -23 21l-113 230l-111 -230q-8 -21 -22 -21h-12q-13 0 -23 21l-381 760q-5 13 0 20t16 7h165q14 0 26 -25l203 -416l39 87l-161 327q-5 13 0 20t16 7h165q14 0 26 -25l52 -111l50 111q11 25 25 25
h165q11 0 17 -7.5t0 -20.5l-156 -323l42 -90l195 416q11 25 25 25z" />
    <glyph glyph-name="X" unicode="X" horiz-adv-x="776" 
d="M496 399l246 -378q5 -7 1 -14t-12 -7h-187q-4 0 -7.5 2.5t-5 4t-4.5 7.5t-4 7l-136 210l-136 -210q-1 -1 -4 -7t-4.5 -7.5t-5 -4t-7.5 -2.5h-185q-8 0 -12 7t1 14l245 378l-246 381q-5 8 -2 14t12 6h185q4 0 7 -2t4.5 -3.5t4.5 -7t4 -7.5l139 -213l138 213q1 2 4 7.5
t4.5 7t4.5 3.5t7 2h187q9 0 12 -6t-2 -14z" />
    <glyph glyph-name="Y" unicode="Y" horiz-adv-x="783" 
d="M572 800h183q9 0 12 -6.5t-2 -14.5l-275 -419v-339q0 -21 -19 -21h-123q-24 0 -38 15t-14 39v303l-277 422q-5 8 -2 14.5t12 6.5h184q3 0 5.5 -1t5 -3.5t3.5 -4t4 -6.5t4 -6l157 -238l157 238q13 21 23 21z" />
    <glyph glyph-name="Z" unicode="Z" horiz-adv-x="663" 
d="M628 780v-29v-1l-290 -554h266q8 0 14 -5.5t6 -14.5v-125q0 -23 -13.5 -37t-36.5 -14h-518q-8 0 -14.5 6.5t-6.5 13.5v29l29 53l265 502h-270q-8 0 -14 5.5t-6 14.5v155q0 8 6 14.5t14 6.5h548q8 0 14.5 -6.5t6.5 -13.5z" />
    <glyph glyph-name="bracketleft" unicode="[" horiz-adv-x="402" 
d="M344 688h-104v-696h104q18 0 18 -18v-156q0 -18 -18 -18h-286q-18 0 -18 18v1044q0 18 18 18h286q18 0 18 -18v-156q0 -18 -18 -18z" />
    <glyph glyph-name="backslash" unicode="\" horiz-adv-x="479" 
d="M45 800h164q16 0 21 -20l224 -759q2 -8 -5 -14.5t-15 -6.5h-165q-14 0 -21 21l-223 759q-2 8 4.5 14t15.5 6z" />
    <glyph glyph-name="bracketright" unicode="]" horiz-adv-x="402" 
d="M58 880h286q18 0 18 -18v-1044q0 -18 -18 -18h-286q-18 0 -18 18v156q0 18 18 18h104v696h-104q-18 0 -18 18v156q0 18 18 18z" />
    <glyph glyph-name="asciicircum" unicode="^" horiz-adv-x="582" 
d="M271 833l-242 -358q-7 -11 -1.5 -20.5t18.5 -9.5h137q9 0 17 10l91 136l91 -136q8 -10 18 -10h137q13 0 18.5 9.5t-1.5 20.5l-241 358q-8 10 -18 10h-5q-13 0 -19 -10z" />
    <glyph glyph-name="underscore" unicode="_" horiz-adv-x="538" 
d="M498 -20v-112q0 -8 -6 -14.5t-14 -6.5h-417q-8 0 -14.5 6t-6.5 14v112q0 9 6 15t15 6h417q8 0 14 -5.5t6 -14.5z" />
    <glyph glyph-name="grave" unicode="`" horiz-adv-x="390" 
d="M51 658l218 -88q22 -8 29 6l49 82q9 15 -5 24l-194 129q-7 6 -16.5 6t-14.5 -8l-72 -119q-13 -22 6 -32z" />
    <glyph glyph-name="a" unicode="a" horiz-adv-x="564" 
d="M508 24q-16 127 -7 311q4 81 -53 123.5t-140 42.5q-111 0 -220 -51q-23 -11 -14 -32l32 -81q9 -21 29 -12q89 36 129 36q56 0 56 -40q-144 -24 -209.5 -69.5t-65.5 -118.5q0 -64 43.5 -101t121.5 -37q94 0 145 47q8 -42 35 -42h98q11 0 16.5 7t3.5 17zM247 120
q-32 0 -32 24q0 18 32.5 32t71.5 20v-46q-29 -30 -72 -30z" />
    <glyph glyph-name="b" unicode="b" horiz-adv-x="650" 
d="M366 500q103 0 168.5 -70.5t65.5 -178.5q0 -105 -68 -181t-169 -76q-69 0 -114 38q-24 -32 -60 -32h-93q-22 0 -22 23v668q0 20 -13 82q-2 11 2.5 19t14.5 8h125q60 0 60 -59v-265q45 24 103 24zM331 164q37 0 63 24.5t26 61.5q0 36 -26 59t-62 23q-32 0 -69 -19v-130
q35 -19 68 -19z" />
    <glyph glyph-name="c" unicode="c" horiz-adv-x="525" 
d="M407 179l67 -95q11 -19 -3 -30q-76 -61 -170 -61q-110 0 -185.5 71t-75.5 182q0 112 75.5 184t185.5 72q99 0 176 -69q15 -14 2 -30l-72 -88q-11 -15 -34 -2q-32 19 -64 19q-35 0 -60 -25.5t-25 -60.5q0 -33 25 -58.5t60 -25.5q29 0 66 21q21 13 32 -4z" />
    <glyph glyph-name="d" unicode="d" horiz-adv-x="632" 
d="M388 800h124q60 0 60 -59v-718q0 -23 -22 -23h-93q-38 0 -60 33q-47 -40 -117 -40q-101 0 -170.5 76.5t-69.5 180.5q0 108 66.5 178.5t170.5 70.5q59 0 106 -26v218q0 20 -13 82q-2 11 3 19t15 8zM220 249q0 -38 27 -62t65 -24q36 0 71 21v127q-37 20 -72 20
q-37 0 -64 -22t-27 -60z" />
    <glyph glyph-name="e" unicode="e" horiz-adv-x="569" 
d="M208 189h238q39 0 61 21.5t22 56.5q0 94 -66.5 164.5t-174.5 70.5q-105 0 -177 -75t-72 -179q0 -110 76 -182t186 -72q130 0 186 76q16 19 4 36l-26 43q-12 21 -35 11q-53 -22 -119 -22q-36 0 -66 14.5t-37 36.5zM368 307h-162q4 16 26 30.5t55 14.5q34 0 55.5 -14.5
t25.5 -30.5z" />
    <glyph glyph-name="f" unicode="f" horiz-adv-x="431" 
d="M458 760q14 -13 6 -31l-53 -105q-10 -19 -27 -10q-20 10 -41 10q-22 0 -38.5 -13t-16.5 -39v-77h84q15 0 15 -15v-140q0 -6 -4.5 -10.5t-10.5 -4.5h-84v-304q0 -8 -6.5 -14.5t-14.5 -6.5h-113q-24 0 -39.5 15.5t-15.5 39.5v270h-53q-15 0 -15 14v118q0 18 10.5 28
t28.5 10h29v109q0 96 57 148.5t151 52.5q39 0 83 -12.5t68 -32.5z" />
    <glyph glyph-name="g" unicode="g" 
d="M379 9q110 -16 155.5 -55t45.5 -128q0 -91 -80 -136.5t-206 -43.5q-112 2 -176.5 47.5t-56.5 127.5q6 70 98 92q-122 28 -124 115q-2 50 28.5 79t87.5 25q-23 12 -47 49.5t-25 88.5q-2 96 62.5 163t159.5 67q24 0 94 -7.5t137 -4.5q8 1 14.5 -5t5.5 -15l-6 -79
q-1 -11 -38 -20q22 -42 22 -103q0 -100 -64.5 -160t-163.5 -56q-25 1 -79 14q-16 4 -24 2.5t-10.5 -5t-1.5 -7.5q1 -15 52 -24l78.5 -11.5t61.5 -9.5zM305 337q-25 0 -43 -18t-18 -44q0 -24 18.5 -41.5t42.5 -17.5q25 0 42 17.5t17 41.5q0 27 -17 44.5t-42 17.5zM302 -199
q94 0 94 38q0 21 -31 29q-47 14 -101 22q-23 4 -36 -9t-13 -37q0 -23 20 -33t67 -10z" />
    <glyph glyph-name="h" unicode="h" horiz-adv-x="642" 
d="M591 26q2 -10 -1.5 -18t-11.5 -8h-133q-24 0 -37.5 15t-13.5 38v192q0 33 -16.5 51t-45.5 18q-40 0 -69 -26v-268q0 -8 -5.5 -14t-14.5 -6h-149q-13 0 -18 12q-2 4 -2 8v671q0 20 -13 82q-2 11 2.5 19t14.5 8h125q60 0 60 -59v-272q57 31 113 31q90 0 148.5 -55.5
t58.5 -148.5v-202q0 -32 8 -68z" />
    <glyph glyph-name="i" unicode="i" horiz-adv-x="330" 
d="M166 611q-40 0 -68 27.5t-28 67.5q0 39 28 67t68 28q38 0 66 -28t28 -67q0 -40 -28 -67.5t-66 -27.5zM240 495h-149q-9 0 -14.5 -6t-5.5 -14v-421q0 -24 14 -39t38 -15h118q19 0 19 21v454q0 8 -6 14t-14 6z" />
    <glyph glyph-name="j" unicode="j" horiz-adv-x="334" 
d="M168 607q-40 0 -68 28.5t-28 68.5t28 68t68 28t68 -28t28 -68t-28 -68.5t-68 -28.5zM243 495h-148q-9 0 -14.5 -6t-5.5 -14v-562q0 -49 -56 -83q-19 -10 -10 -26l76 -141q9 -16 27 -8q152 75 152 257v563q0 8 -6.5 14t-14.5 6z" />
    <glyph glyph-name="k" unicode="k" horiz-adv-x="649" 
d="M406 270l195 -223q13 -15 6 -30.5t-27 -15.5h-151q-16 0 -25 13l-141 171v-165q0 -8 -5.5 -14t-14.5 -6h-149q-8 0 -14 6t-6 14v671q0 20 -13 82q-2 11 2.5 19t14.5 8h125q60 0 60 -59v-391l116 132q12 13 27 13h143q20 0 26.5 -17t-7.5 -32z" />
    <glyph glyph-name="l" unicode="l" horiz-adv-x="334" 
d="M244 800h-149q-9 0 -14.5 -6t-5.5 -14v-726q0 -24 14 -39t38 -15h118q19 0 19 21v759q0 8 -6 14t-14 6z" />
    <glyph glyph-name="m" unicode="m" horiz-adv-x="952" 
d="M901 26q2 -10 -1.5 -18t-11.5 -8h-133q-24 0 -37.5 15t-13.5 38v190q0 69 -63 69q-40 0 -67 -30v-188q0 -32 8 -68q2 -10 -1.5 -18t-11.5 -8h-133q-24 0 -37.5 15t-13.5 38v190q0 33 -16.5 51t-46.5 18q-41 0 -68 -30v-261q0 -8 -6 -14.5t-14 -6.5h-149q-20 0 -20 21v454
q0 8 5.5 14t13.5 6h120q3 -26 24 -42q68 48 139 48q97 0 157 -66q77 66 163 66q89 0 147.5 -56.5t58.5 -148.5v-202q0 -32 8 -68z" />
    <glyph glyph-name="n" unicode="n" horiz-adv-x="628" 
d="M577 26q2 -10 -1.5 -18t-11.5 -8h-133q-24 0 -37.5 15t-13.5 38v192q0 33 -16.5 51t-45.5 18q-40 0 -69 -26v-267q0 -8 -6 -14.5t-14 -6.5h-149q-20 0 -20 21v454q0 8 5.5 14t13.5 6h120q3 -26 24 -42q69 47 139 47q90 0 148.5 -55.5t58.5 -148.5v-202q0 -32 8 -68z" />
    <glyph glyph-name="o" unicode="o" 
d="M305 -7q108 0 186.5 73.5t78.5 179.5q0 109 -78.5 182.5t-186.5 73.5q-109 0 -187 -73.5t-78 -182.5q0 -106 78.5 -179.5t186.5 -73.5zM305 162q-36 0 -60.5 25.5t-24.5 58.5q0 34 24.5 60t60.5 26t60.5 -26t24.5 -60q0 -33 -24.5 -58.5t-60.5 -25.5z" />
    <glyph glyph-name="p" unicode="p" horiz-adv-x="650" 
d="M369 500q101 0 166 -70.5t65 -178.5q0 -105 -68 -181t-169 -76q-58 0 -100 27v-238q0 -33 -22.5 -55t-51.5 -22h-93q-22 0 -22 23v657q0 20 -13 82q-2 11 2.5 19t14.5 8h125q39 0 52 -24q48 29 114 29zM331 164q37 0 63 24.5t26 61.5q0 36 -26 59t-62 23q-32 0 -69 -19
v-130q35 -19 68 -19z" />
    <glyph glyph-name="q" unicode="q" horiz-adv-x="640" 
d="M589 -267q2 -11 -2.5 -19t-14.5 -8h-125q-60 0 -60 59v255q-42 -27 -100 -27q-101 0 -169 76t-68 181q0 108 65.5 178.5t168.5 70.5q67 0 119 -34q22 30 58 30h93q22 0 22 -23v-657q0 -20 13 -82zM319 163q33 0 68 19v130q-37 19 -69 19q-36 0 -62 -23t-26 -59
q0 -37 26 -61.5t63 -24.5z" />
    <glyph glyph-name="r" unicode="r" horiz-adv-x="501" 
d="M466 469q22 -12 10 -35l-64 -115q-9 -17 -28 -7q-23 10 -55 10q-46 0 -80 -37v-264q0 -8 -6 -14.5t-14 -6.5h-149q-20 0 -20 21v454q0 8 5.5 14t13.5 6h120q5 -27 24 -42q64 46 127 46q67 0 116 -30z" />
    <glyph glyph-name="s" unicode="s" horiz-adv-x="483" 
d="M47 76l52 83q13 20 32 10q70 -41 105 -42q35 -2 35 21q0 11 -13 18t-61 21q-68 20 -108 61.5t-41 96.5q-1 63 51 110t139 47q50 0 85.5 -12.5t77.5 -37.5q21 -13 11 -27l-57 -87q-10 -14 -26 -6q-61 34 -88 34q-34 0 -34 -23q0 -11 13 -17.5t46 -15.5q76 -21 124 -62
t48 -103q0 -65 -56.5 -108.5t-145.5 -43.5q-53 0 -105 20t-78 39q-15 11 -6 24z" />
    <glyph glyph-name="t" unicode="t" horiz-adv-x="491" 
d="M400 171l49 -111q5 -11 -7 -23q-23 -20 -58.5 -31.5t-68.5 -11.5q-93 0 -147.5 51t-54.5 148v131h-53q-8 0 -14 6.5t-6 14.5v33q0 17 9 28q138 161 185 225q14 20 28 20h24q8 0 13.5 -6t5.5 -14v-136h88q9 0 15 -6t6 -15v-130q0 -8 -6.5 -14t-14.5 -6h-68q-15 0 -23 1
v-107q0 -40 33 -45q17 -2 39 8q19 9 26 -10z" />
    <glyph glyph-name="u" unicode="u" horiz-adv-x="623" 
d="M399 495h149q20 0 20 -21v-454q0 -8 -5.5 -14t-13.5 -6h-122q-3 26 -22 42q-69 -48 -140 -48q-89 0 -147.5 56.5t-58.5 148.5v206q0 32 -8 68q-2 10 1.5 18t11.5 8h133q24 0 37.5 -15t13.5 -38v-194q0 -33 16.5 -51t46.5 -18q41 0 68 30v261q0 8 6 14.5t14 6.5z" />
    <glyph glyph-name="v" unicode="v" horiz-adv-x="554" 
d="M512 495h-152q-10 0 -20 -21l-63 -146l-63 146q-10 21 -20 21h-151q-11 0 -15.5 -6.5t-0.5 -14.5l223 -460q10 -19 21 -19h12q12 0 23 19l222 460q4 8 -1.5 14.5t-14.5 6.5z" />
    <glyph glyph-name="w" unicode="w" horiz-adv-x="809" 
d="M610 495h156q11 0 15.5 -6.5t0.5 -17.5l-181 -458q-6 -13 -20 -13h-49q-13 0 -20 13l-108 211l-108 -211q-7 -13 -20 -13h-48q-14 0 -20 13l-181 458q-9 24 15 24h157q19 0 24 -15l59 -175l89 174q7 15 24 15h18q17 0 24 -15l89 -174l60 175q5 15 24 15z" />
    <glyph glyph-name="x" unicode="x" 
d="M392 247l163 -213q8 -10 2.5 -22t-16.5 -12h-156q-12 0 -23 15l-58 85l-57 -85q-10 -15 -24 -15h-155q-11 0 -16 12t2 22l162 213l-162 215q-7 10 -2 21.5t16 11.5h155q14 0 24 -15l57 -85l58 85q10 15 23 15h156q11 0 16.5 -11.5t-1.5 -21.5z" />
    <glyph glyph-name="y" unicode="y" horiz-adv-x="650" 
d="M450 495h156q12 0 16.5 -6.5t-1.5 -17.5l-192 -392q-130 -264 -238 -394q-15 -18 -39 0l-90 83q-19 16 1 41q121 142 171 276l-206 386q-6 11 -1.5 17.5t16.5 6.5h155q16 0 23 -15l105 -211l100 211q6 15 24 15z" />
    <glyph glyph-name="z" unicode="z" horiz-adv-x="535" 
d="M323 189h134q8 0 14 -5.5t6 -14.5v-148q0 -8 -6 -14.5t-14 -6.5h-384q-10 0 -17 8t-6 16l2 38l159 244h-133q-8 0 -14 5.5t-6 14.5v148q0 8 6 14.5t14 6.5h385q9 0 15.5 -7.5t5.5 -15.5l-1 -38z" />
    <glyph glyph-name="braceleft" unicode="{" horiz-adv-x="479" 
d="M136 184v-95q0 -68 19 -121t47.5 -84.5t69 -52.5t75.5 -29.5t74 -11.5q6 0 12 6t6 14v137q0 10 -0.5 13t-2 4t-7.5 1q-61 14 -80 42t-19 91v102q0 55 -28 88.5t-58 44.5v10q5 0 18 9.5t28.5 25t27.5 42.5t12 56v102q0 64 19 91.5t80 41.5q10 0 10 19v135q0 9 -3 14
t-6 5.5t-9 0.5q-38 0 -74.5 -8t-75.5 -29t-68 -53t-48 -86t-19 -122v-94q0 -32 -31.5 -54.5t-46.5 -22.5q-6 0 -12 -6t-6 -13v-117q0 -8 6 -14t12 -6q16 -6 25 -10.5t24 -13.5t22 -22t7 -30z" />
    <glyph glyph-name="bar" unicode="|" horiz-adv-x="395" 
d="M100 -179v1173q0 8 5.5 14t14.5 6h154q8 0 14.5 -6t6.5 -14v-1173q0 -8 -6 -14.5t-14 -6.5h-154q-9 0 -15 6t-6 15z" />
    <glyph glyph-name="braceright" unicode="}" horiz-adv-x="479" 
d="M343 89v95q0 17 7 30t22 22t24 13.5t25 10.5q6 0 12 6t6 14v117q0 7 -6 13t-12 6q-15 0 -46.5 22.5t-31.5 54.5v94q0 68 -19 122t-48 86t-68 53t-75.5 29t-74.5 8q-4 0 -6.5 -0.5t-5.5 -2t-4.5 -6t-1.5 -11.5v-135q0 -19 10 -19q61 -14 80 -41.5t19 -91.5v-102
q0 -29 11.5 -56t27 -42.5t28.5 -25t18 -9.5v-10q-29 -11 -57 -44.5t-28 -88.5v-102q0 -63 -19 -91t-80 -42q-8 0 -9 -2.5t-1 -15.5v-137q0 -8 6 -14t12 -6q39 3 74 11.5t75.5 29.5t69 52.5t47.5 84.5t19 121z" />
    <glyph glyph-name="asciitilde" unicode="~" horiz-adv-x="482" 
d="M25 270q21 -31 46 -73q5 -7 13.5 -6t12.5 9q27 42 62 42q31 0 63 -19q2 -1 10 -7.5t10 -7.5t9.5 -6t10.5 -6.5t10 -4.5t12.5 -4t13.5 -2t16 -1q33 0 69.5 20t56.5 40l19 21q8 10 0 24l-44 81q-5 8 -14 7.5t-14 -8.5q-31 -44 -73 -44q-25 0 -57 24q-55 37 -97 37
q-32 0 -66 -23t-52 -46l-18 -23q-8 -9 1 -24z" />
    <glyph glyph-name="exclamdown" unicode="&#xa1;" horiz-adv-x="346" 
d="M174 497q48 0 82.5 -34.5t34.5 -82.5t-34.5 -83.5t-82.5 -35.5t-83.5 35.5t-35.5 83.5t35.5 82.5t83.5 34.5zM259 -310h-172q-9 0 -14.5 6t-5.5 14v17l40 425q2 21 21 21h91q18 0 20 -21l40 -425v-17q0 -8 -6 -14t-14 -6z" />
    <glyph glyph-name="cent" unicode="&#xa2;" horiz-adv-x="553" 
d="M395 199l110 -79q8 -1 8 -10.5t-5 -15.5q-81 -107 -204 -107q-22 0 -43 3l-22 -65q-7 -20 -27 -13l-32 12q-17 7 -12 25l22 64q-68 33 -109 96.5t-41 140.5q0 109 77.5 186t186.5 77q30 0 55 -6l15 45q7 20 27 13l32 -12q17 -7 12 -25l-16 -48q36 -23 65 -56q6 -7 6 -17
t-8 -11l-108 -88q-5 -7 -15 -3l-48 -139q27 6 51 29q12 14 23 4zM220 250q0 -40 29 -64l51 151q-35 -2 -57.5 -27t-22.5 -60z" />
    <glyph glyph-name="sterling" unicode="&#xa3;" horiz-adv-x="586" 
d="M540 711q15 -15 0 -29l-96 -86q-12 -11 -30 1q-36 32 -75 32q-28 0 -49 -17.5t-21 -51.5q0 -19 3 -32.5t10.5 -37.5t12.5 -45l7 -27h43q6 0 10.5 -4.5t4.5 -11.5v-122q0 -6 -4.5 -11t-10.5 -5h-33q-6 -49 -18 -80h203q21 0 21 -30v-132q0 -9 -6 -15.5t-15 -6.5h-411
q-9 0 -15.5 6.5t-6.5 15.5v17q79 109 81 225h-30q-6 0 -11 4.5t-5 10.5v122q0 7 4.5 12t11.5 5h3l-7 35q-4 18 -10.5 42t-10.5 42t-5 34q-6 110 67 176t178 67q43 0 75.5 -7t59.5 -26.5t38.5 -30.5t36.5 -39z" />
    <glyph glyph-name="currency" unicode="&#xa4;" horiz-adv-x="711" 
d="M597 356l66 -66q14 -14 0 -28l-112 -112q-14 -14 -28 0l-67 67q-48 -20 -101 -20q-52 0 -100 20l-67 -67q-14 -14 -28 0l-113 112q-14 14 0 28l66 66q-21 52 -21 104q0 56 21 102l-66 66q-14 14 0 28l113 113q14 14 28 0l66 -66q48 20 101 20t102 -20l66 66q14 14 28 0
l112 -113q14 -14 0 -28l-66 -66q21 -46 21 -102q0 -52 -21 -104zM286 460q0 -29 20.5 -49.5t49.5 -20.5q28 0 49 21t21 49q0 29 -20.5 49.5t-49.5 20.5t-49.5 -20.5t-20.5 -49.5z" />
    <glyph glyph-name="yen" unicode="&#xa5;" horiz-adv-x="753" 
d="M546 800h183q9 0 12 -6t-2 -14l-203 -325h68q8 0 14 -6t6 -14v-144q0 -8 -6 -14.5t-14 -6.5h-129v-28h129q8 0 14 -5.5t6 -14.5v-144q0 -8 -6 -14t-14 -6h-129v-37q0 -21 -19 -21h-125q-24 0 -38 15t-14 39v4h-128q-8 0 -14.5 5.5t-6.5 13.5v144q0 9 6 15t15 6h128v28
h-128q-8 0 -14.5 6t-6.5 14v144q0 8 6 14.5t15 6.5h65l-203 325q-5 8 -2 14t12 6h183q3 0 5.5 -1t4.5 -3t3.5 -4t4 -6t3.5 -6l149 -238l150 238q1 2 4 7.5t4.5 7t4.5 3.5t7 2z" />
    <glyph glyph-name="brokenbar" unicode="&#xa6;" horiz-adv-x="395" 
d="M100 541v453q0 8 5.5 14t14.5 6h154q8 0 14.5 -6t6.5 -14v-453q0 -8 -6 -14.5t-14 -6.5h-154q-9 0 -15 6t-6 15zM100 -179v453q0 8 5.5 14t14.5 6h154q8 0 14.5 -6t6.5 -14v-453q0 -8 -6 -14.5t-14 -6.5h-154q-9 0 -15 6t-6 15z" />
    <glyph glyph-name="section" unicode="&#xa7;" horiz-adv-x="638" 
d="M588 223q0 -77 -54 -140q54 -70 54 -152q0 -92 -76 -163.5t-193 -71.5q-143 0 -253 107l-4 4q-19 15 -6 34l85 120q8 11 21 12.5t19 -5.5q1 0 17.5 -18t43.5 -34.5t57 -16.5q32 0 52.5 13t20.5 35q0 14 -4 23.5t-26.5 25.5t-65.5 32q-91 34 -155.5 104t-64.5 161
q0 80 55 142q-55 68 -55 150q0 40 17 79.5t48 73.5t83 55t115 21q25 0 49 -3.5t44.5 -10.5t37 -14t33.5 -17t26 -16t21 -15t14 -10q21 -15 6 -37l-82 -114q-21 -29 -43 -14q-1 0 -13 11t-25 20.5t-34.5 18.5t-41.5 9q-27 0 -42.5 -13.5t-15.5 -31.5q0 -22 19.5 -40.5
t74.5 -34.5q94 -26 167.5 -103t73.5 -176zM251 285q0 -48 96 -75l9 -3q17 12 17 32q0 14 -4.5 23.5t-27 25.5t-65.5 32l-3 1q-22 -14 -22 -36z" />
    <glyph glyph-name="dieresis" unicode="&#xa8;" horiz-adv-x="568" 
d="M135 607q-40 0 -68.5 29.5t-28.5 68.5q0 41 28 69t69 28t69.5 -28.5t28.5 -68.5q0 -39 -29 -68.5t-69 -29.5zM432 607q-40 0 -68.5 29.5t-28.5 68.5q0 41 28 69t69 28q40 0 69.5 -28.5t29.5 -68.5q0 -39 -29.5 -68.5t-69.5 -29.5z" />
    <glyph glyph-name="copyright" unicode="&#xa9;" horiz-adv-x="904" 
d="M452 -10q-171 0 -291.5 120.5t-120.5 291.5t120.5 291.5t291.5 120.5t291.5 -120.5t120.5 -291.5t-120.5 -291.5t-291.5 -120.5zM452 136q109 0 186.5 78t77.5 188t-77.5 187.5t-186.5 77.5q-110 0 -188 -77.5t-78 -187.5t78 -188t188 -78zM521 366l76 -54q5 -1 5 -7.5
t-3 -11.5q-58 -75 -142 -75q-76 0 -130 54t-54 130t54 129.5t130 53.5q79 0 133 -62q4 -4 4 -11t-6 -8l-75 -61q-7 -8 -15 2q-20 18 -39 18q-27 0 -44.5 -17.5t-17.5 -43.5q0 -24 17.5 -42t44.5 -18q23 0 46 21q8 11 16 3z" />
    <glyph glyph-name="ordfeminine" unicode="&#xaa;" horiz-adv-x="564" 
d="M508 24q-16 127 -7 311q4 81 -53 123.5t-140 42.5q-111 0 -220 -51q-23 -11 -14 -32l32 -81q9 -21 29 -12q89 36 129 36q56 0 56 -40q-144 -24 -209.5 -69.5t-65.5 -118.5q0 -64 43.5 -101t121.5 -37q94 0 145 47q8 -42 35 -42h98q11 0 16.5 7t3.5 17zM247 120
q-32 0 -32 24q0 18 32.5 32t71.5 20v-46q-29 -30 -72 -30z" />
    <glyph glyph-name="guillemotleft" unicode="&#xab;" horiz-adv-x="714" 
d="M48 213l132 -189q8 -15 20 -15h111q33 0 18 40l-71 178l72 179q16 40 -18 40h-111q-13 0 -21 -15l-132 -189q-9 -14 0 -29zM368 213l132 -189q8 -15 21 -15h110q16 0 21 11t-3 29l-72 178l72 179q16 40 -18 40h-112q-13 0 -20 -15l-131 -189q-9 -12 0 -29z" />
    <glyph glyph-name="logicalnot" unicode="&#xac;" horiz-adv-x="599" 
d="M61 446h472q8 0 14 -5.5t6 -14.5v-287q0 -8 -6 -14.5t-14 -6.5h-106q-9 0 -15 6t-6 15v160h-345q-8 0 -14.5 6t-6.5 14v106q0 9 6 15t15 6z" />
    <glyph glyph-name="softhyphen" unicode="&#xad;" horiz-adv-x="431" 
d="M391 307v-116q0 -8 -6 -14.5t-14 -6.5h-310q-8 0 -14.5 6t-6.5 14v116q0 9 6 15t15 6h310q8 0 14 -5.5t6 -14.5z" />
    <glyph glyph-name="registered" unicode="&#xae;" horiz-adv-x="599" 
d="M300 933q118 0 201 -83t83 -201q0 -119 -83 -202t-201 -83t-201.5 83t-83.5 202q0 118 83.5 201t201.5 83zM300 473q73 0 124.5 51.5t51.5 124.5t-51.5 124.5t-124.5 51.5q-74 0 -125.5 -51.5t-51.5 -124.5t52 -124.5t125 -51.5zM354 632l45 -94q3 -6 -4 -6h-62
q-5 0 -7 2l-40 88h-4v-85q0 -5 -6 -5h-58q-6 0 -6 5v226q0 7 6 7h98q32 0 54 -22.5t22 -50.5q0 -44 -38 -65zM281 680h14q10 0 14 7t0 14.5t-14 7.5h-14v-29z" />
    <glyph glyph-name="macron" unicode="&#xaf;" horiz-adv-x="512" 
d="M40 628v114q0 8 6 14t14 6h392q8 0 14 -5.5t6 -13.5v-114q0 -8 -6 -14.5t-14 -6.5h-392q-8 0 -14 6t-6 14z" />
    <glyph glyph-name="degree" unicode="&#xb0;" horiz-adv-x="394" 
d="M197 465q-65 0 -111 46.5t-46 111.5t46 111t111 46t111 -46t46 -111t-46 -111.5t-111 -46.5zM197 583q17 0 28.5 11.5t11.5 28.5q0 16 -12 28t-28 12t-28 -12t-12 -28q0 -17 11.5 -28.5t28.5 -11.5z" />
    <glyph glyph-name="plusminus" unicode="&#xb1;" horiz-adv-x="591" 
d="M379 538h142q8 0 14 -5.5t6 -14.5v-126q0 -8 -6 -14.5t-14 -6.5h-142v-141q0 -8 -6 -14.5t-14 -6.5h-126q-9 0 -15 6t-6 15v141h-141q-8 0 -14.5 6t-6.5 14v126q0 9 6 15t15 6h141v142q0 8 5.5 14t14.5 6h126q8 0 14.5 -6t6.5 -14v-142zM71 165h450q8 0 14 -5.5t6 -14.5
v-124q0 -8 -6 -14.5t-14 -6.5h-450q-8 0 -14.5 6t-6.5 14v124q0 9 6 15t15 6z" />
    <glyph glyph-name="twosuperior" unicode="&#xb2;" horiz-adv-x="625" 
d="M356 176h203q21 0 21 -20v-135q0 -8 -7.5 -14.5t-15.5 -6.5h-473q-8 0 -15 6.5t-7 14.5v38l252 327q67 87 67 137q0 32 -21.5 56.5t-57.5 24.5q-21 0 -39.5 -7t-36.5 -25t-25 -26t-25 -31q-13 -16 -30 0l-95 87q-13 13 -2 28q56 77 118.5 115.5t152.5 38.5
q98 0 174.5 -67t76.5 -170q0 -95 -65 -177z" />
    <glyph glyph-name="threesuperior" unicode="&#xb3;" horiz-adv-x="618" 
d="M97 770h431q21 0 21 -21v-132q0 -21 -15 -37l-126 -133q55 -16 96 -55q69 -66 69 -172q0 -96 -77.5 -163t-184.5 -67q-146 0 -259 133q-13 14 1 28l102 97q13 13 28 -2q71 -71 126 -71q33 0 52 22.5t19 48.5q0 25 -16 44.5t-43 19.5q-10 0 -24.5 -3.5t-18.5 -3.5
q-10 0 -17 8l-69 94q-13 16 1 30l155 156h-251q-8 0 -14.5 6t-6.5 14v138q0 9 6 15t15 6z" />
    <glyph glyph-name="acute" unicode="&#xb4;" horiz-adv-x="390" 
d="M121 579l218 88q19 10 6 32l-72 119q-5 8 -14.5 8t-16.5 -6l-194 -129q-14 -9 -5 -24l49 -82q7 -16 29 -6z" />
    <glyph glyph-name="paragraph" unicode="&#xb6;" horiz-adv-x="902" 
d="M298 800h530q29 0 29 -29v-135q0 -29 -29 -29h-37v-586q0 -8 -6 -14.5t-14 -6.5h-154q-9 0 -15 6t-6 15v586h-53v-586q0 -8 -6 -14.5t-14 -6.5h-155q-9 0 -15 6t-6 15v267h-49q-109 0 -181 79.5t-72 180.5q0 93 72.5 172.5t180.5 79.5zM347 479v128h-37q-29 0 -45.5 -20
t-16 -44t17 -44t44.5 -20h37z" />
    <glyph glyph-name="periodcentered" unicode="&#xb7;" horiz-adv-x="336" 
d="M167 185q-48 0 -82.5 35t-34.5 83q0 49 34.5 83.5t82.5 34.5t83.5 -35t35.5 -83t-35.5 -83t-83.5 -35z" />
    <glyph glyph-name="cedilla" unicode="&#xb8;" horiz-adv-x="321" 
d="M215 0l-32 -69q42 -12 69.5 -46.5t27.5 -78.5q0 -53 -40 -92t-95 -39q-59 0 -97 45q-7 8 2 17l46 45q8 8 18 0q18 -10 30 -10q16 0 26 9.5t10 24.5q0 14 -10 24t-26 10t-33 -15q-7 -7 -14 -1l-53 44q-6 6 -2 14l1 2l57 116h115z" />
    <glyph glyph-name="onesuperior" unicode="&#xb9;" horiz-adv-x="421" 
d="M202 770h143q8 0 14.5 -6t6.5 -14v-729q0 -8 -6 -14.5t-14 -6.5h-154q-9 0 -15 6t-6 15v495l-102 -19q-21 -4 -23 16l-11 114q-1 19 17 24q52 16 119 95l13 16q7 8 18 8z" />
    <glyph glyph-name="ordmasculine" unicode="&#xba;" 
d="M305 -7q108 0 186.5 73.5t78.5 179.5q0 109 -78.5 182.5t-186.5 73.5q-109 0 -187 -73.5t-78 -182.5q0 -106 78.5 -179.5t186.5 -73.5zM305 162q-36 0 -60.5 25.5t-24.5 58.5q0 34 24.5 60t60.5 26t60.5 -26t24.5 -60q0 -33 -24.5 -58.5t-60.5 -25.5z" />
    <glyph glyph-name="guillemotright" unicode="&#xbb;" horiz-adv-x="714" 
d="M209 24l132 189q9 14 0 29l-131 189q-8 15 -20 15h-112q-33 0 -18 -40l72 -178l-72 -179q-8 -18 -3 -29t21 -11h110q14 0 21 15zM529 24l132 189q9 14 0 29l-133 189q-8 15 -20 15h-111q-33 0 -18 -40l72 -178l-71 -179q-16 -40 18 -40h111q13 0 20 15z" />
    <glyph glyph-name="onequarter" unicode="&#xbc;" horiz-adv-x="708" 
d="M125 462v212l-60 -4q-15 -2 -15 10v44q0 12 10 15q32 9 65 46l8 10q5 5 11 5h62q5 0 9 -3.5t4 -8.5v-326q0 -13 -13 -13h-67q-14 0 -14 13zM533 800h50q12 0 16 -7t-1 -17l-397 -762q-7 -14 -23 -14h-50q-12 0 -16 7t1 17l397 762q7 14 23 14zM630 153h18q10 0 10 -10
v-58q0 -9 -10 -9h-18v-67q0 -9 -9 -9h-58q-10 0 -10 9v67h-127q-9 0 -9 9l-1 57q0 5 4 9q66 52 95 125q14 36 14 73q0 10 10 10h61q9 0 9 -10q-1 -59 -34 -131q-17 -32 -59 -65h37v8q0 10 9 10l58 5q10 0 10 -11v-12z" />
    <glyph glyph-name="onehalf" unicode="&#xbd;" horiz-adv-x="747" 
d="M125 462v212l-60 -4q-15 -2 -15 10v44q0 12 10 15q32 9 65 46l8 10q5 5 11 5h62q5 0 9 -3.5t4 -8.5v-326q0 -13 -13 -13h-67q-14 0 -14 13zM533 800h50q12 0 16 -7t-1 -17l-397 -762q-7 -14 -23 -14h-50q-12 0 -16 7t1 17l397 762q7 14 23 14zM603 83h85q9 0 9 -10v-62
q0 -11 -9 -11h-219q-11 0 -11 11v12l48 60l69 88q2 3 10.5 14.5t12.5 17.5t8 15.5t4 17.5q0 19 -14 32.5t-34 13.5q-29 0 -64 -37q-7 -9 -14 0l-39 41q-7 7 -1 14q37 52 97.5 61.5t103.5 -24.5q37 -26 43 -78.5t-22 -90.5z" />
    <glyph glyph-name="threequarters" unicode="&#xbe;" horiz-adv-x="703" 
d="M267 482q-46 -50 -110.5 -46t-113.5 62q-6 7 0 13l37 39q6 6 13 -1q14 -15 29.5 -25t37 -15t36.5 11q30 26 9.5 55t-55.5 14q-6 -6 -12 2l-31 38q-5 7 0 13l66 81h-109q-10 0 -10 8v58q0 11 10 11h204q10 0 10 -10v-57q0 -3 -2 -5l-67 -74q53 -12 73 -70t-15 -102z
M541 800h50q12 0 16 -7t-1 -17l-397 -762q-7 -14 -23 -14h-50q-12 0 -16 7t1 17l397 762q7 14 23 14zM635 153h18q10 0 10 -10v-58q0 -9 -10 -9h-18v-67q0 -9 -9 -9h-58q-10 0 -10 9v67h-127q-9 0 -9 9l-1 57q0 5 4 9q66 52 95 125q14 36 14 73q0 10 10 10h61q9 0 9 -10
q-1 -59 -34 -131q-17 -32 -59 -65h37v8q0 10 9 10l58 5q10 0 10 -11v-12z" />
    <glyph glyph-name="questiondown" unicode="&#xbf;" horiz-adv-x="466" 
d="M247 492q48 0 83.5 -34.5t35.5 -82.5t-35.5 -83.5t-83.5 -35.5t-82.5 35.5t-34.5 83.5t34.5 82.5t82.5 34.5zM367 -116l78 -85q12 -12 1 -25q-65 -75 -151 -96.5t-171 14.5q-54 23 -84.5 77t-24 116.5t51.5 105.5l39 36t27.5 27t14.5 16.5t9.5 20.5t1.5 20.5t1 35.5
q0 8 6 14.5t14 6.5h129q9 0 15 -6t6 -15l2 -93q0 -19 -31.5 -48.5l-63.5 -59.5t-32 -50q-1 -28 17 -42.5t42 -14.5q14 0 28 7t21.5 13t28.5 25q14 12 25 0z" />
    <glyph glyph-name="Agrave" unicode="&#xc0;" horiz-adv-x="874" 
d="M511 849l-218 88q-19 10 -6 32l72 119q5 8 14.5 8t16.5 -6l194 -129q14 -9 5 -24l-49 -82q-7 -14 -29 -6zM457 794l374 -771q5 -10 1 -16.5t-15 -6.5h-164q-15 0 -21 13l-41 89h-308l-41 -89q-6 -13 -21 -13h-164q-10 0 -14.5 6.5t0.5 16.5l374 771q6 10 16 10h8
q10 0 16 -10zM363 274h148l-74 160z" />
    <glyph glyph-name="Aacute" unicode="&#xc1;" horiz-adv-x="874" 
d="M335 864l-49 82q-9 15 5 24l194 129q7 6 16.5 6t14.5 -8l72 -119q13 -22 -6 -32l-218 -88q-22 -10 -29 6zM457 794l374 -771q5 -10 1 -16.5t-15 -6.5h-164q-15 0 -21 13l-41 89h-308l-41 -89q-6 -13 -21 -13h-164q-10 0 -14.5 6.5t0.5 16.5l374 771q6 10 16 10h8
q10 0 16 -10zM363 274h148l-74 160z" />
    <glyph glyph-name="Acircumflex" unicode="&#xc2;" horiz-adv-x="874" 
d="M438 925l-176 -70q-39 -15 -39 18v109q0 12 15 20l186 103q16 9 28 0l187 -103q15 -8 15 -20v-109q0 -34 -40 -18zM457 794l374 -771q5 -10 1 -16.5t-15 -6.5h-164q-15 0 -21 13l-41 89h-308l-41 -89q-6 -13 -21 -13h-164q-10 0 -14.5 6.5t0.5 16.5l374 771q6 10 16 10h8
q10 0 16 -10zM363 274h148l-74 160z" />
    <glyph glyph-name="Atilde" unicode="&#xc3;" horiz-adv-x="874" 
d="M266 883l-55 65q-12 14 1 30l6 9l14 18t20.5 21t27.5 20.5t34 15t42 6.5q38 0 83.5 -27t72.5 -27q36 0 75 31q21 19 35 1l50 -76q11 -16 -3 -30q-63 -74 -147 -74q-48 0 -89.5 25.5t-74.5 25.5q-35 0 -66 -35q-13 -15 -26 1zM457 794l374 -771q5 -10 1 -16.5t-15 -6.5
h-164q-15 0 -21 13l-41 89h-308l-41 -89q-6 -13 -21 -13h-164q-10 0 -14.5 6.5t0.5 16.5l374 771q6 10 16 10h8q10 0 16 -10zM363 274h148l-74 160z" />
    <glyph glyph-name="Adieresis" unicode="&#xc4;" horiz-adv-x="874" 
d="M289 886q-40 0 -68.5 29.5t-28.5 68.5q0 40 28 68.5t69 28.5t69.5 -28.5t28.5 -68.5q0 -39 -29 -68.5t-69 -29.5zM586 886q-40 0 -68.5 29.5t-28.5 68.5q0 41 28 69t69 28q40 0 69.5 -28.5t29.5 -68.5q0 -39 -29.5 -68.5t-69.5 -29.5zM457 794l374 -771q5 -10 1 -16.5
t-15 -6.5h-164q-15 0 -21 13l-41 89h-308l-41 -89q-6 -13 -21 -13h-164q-10 0 -14.5 6.5t0.5 16.5l374 771q6 10 16 10h8q10 0 16 -10zM363 274h148l-74 160z" />
    <glyph glyph-name="Aring" unicode="&#xc5;" horiz-adv-x="874" 
d="M438 835q-51 0 -88 37t-37 88q0 52 37 88.5t88 36.5t88 -36.5t37 -88.5q0 -51 -37 -88t-88 -37zM438 997q-15 0 -26 -11t-11 -26q0 -14 11 -24.5t26 -10.5q14 0 25.5 10.5t11.5 24.5q0 15 -11.5 26t-25.5 11zM457 794l374 -771q5 -10 1 -16.5t-15 -6.5h-164q-15 0 -21 13
l-41 89h-308l-41 -89q-6 -13 -21 -13h-164q-10 0 -14.5 6.5t0.5 16.5l374 771q6 10 16 10h8q10 0 16 -10zM363 274h148l-74 160z" />
    <glyph glyph-name="AE" unicode="&#xc6;" horiz-adv-x="1172" 
d="M1086 624h-318v-146h169q8 0 14.5 -6t6.5 -14v-135q0 -9 -6 -15t-15 -6h-168v-126h317q8 0 14.5 -6t6.5 -14v-135q0 -9 -6 -15t-15 -6h-492q-9 0 -15 6t-6 15v70h-256l-48 -78q-9 -13 -22 -13h-189q-11 0 -15.5 6.5t1.5 16.5l467 759q10 18 22 18h553q8 0 14.5 -6
t6.5 -14v-135q0 -9 -6 -15t-15 -6zM435 280h138v222z" />
    <glyph glyph-name="Ccedilla" unicode="&#xc7;" horiz-adv-x="798" 
d="M621 246l122 -101q16 -14 2 -28q-97 -102 -234 -120l-31 -66q42 -12 69.5 -46.5t27.5 -78.5q0 -53 -40 -92t-95 -39q-59 0 -97 45q-7 8 2 17l46 45q8 8 18 0q18 -10 30 -10q16 0 26 9.5t10 24.5q0 14 -10 24t-26 10t-33 -15q-7 -7 -14 -1l-53 44q-6 6 -2 14l1 2l56 113
q-151 21 -251 135t-100 268q0 169 119.5 288t290.5 119q83 0 159.5 -33t131.5 -92q14 -14 -1 -28l-123 -103q-15 -12 -28 0q-35 34 -67.5 50.5t-77.5 16.5q-80 0 -143 -66t-63 -151q0 -87 63 -153t144 -66q45 0 76.5 15.5t66.5 48.5q13 13 28 0z" />
    <glyph glyph-name="Egrave" unicode="&#xc8;" horiz-adv-x="674" 
d="M415 828l-218 88q-19 10 -6 32l72 119q5 8 14.5 8t16.5 -6l194 -129q14 -9 5 -24l-49 -82q-7 -14 -29 -6zM588 624h-319v-146h170q8 0 14.5 -6t6.5 -14v-135q0 -9 -6 -15t-15 -6h-170v-126h319q8 0 14.5 -6t6.5 -14v-135q0 -9 -6 -15t-15 -6h-492q-9 0 -15 6t-6 15v759
q0 8 5.5 14t14.5 6h493q8 0 14.5 -6t6.5 -14v-135q0 -9 -6 -15t-15 -6z" />
    <glyph glyph-name="Eacute" unicode="&#xc9;" horiz-adv-x="674" 
d="M239 843l-49 82q-9 15 5 24l194 129q7 6 16.5 6t14.5 -8l72 -119q13 -22 -6 -32l-218 -88q-22 -10 -29 6zM588 624h-319v-146h170q8 0 14.5 -6t6.5 -14v-135q0 -9 -6 -15t-15 -6h-170v-126h319q8 0 14.5 -6t6.5 -14v-135q0 -9 -6 -15t-15 -6h-492q-9 0 -15 6t-6 15v759
q0 8 5.5 14t14.5 6h493q8 0 14.5 -6t6.5 -14v-135q0 -9 -6 -15t-15 -6z" />
    <glyph glyph-name="Ecircumflex" unicode="&#xca;" horiz-adv-x="674" 
d="M341 904l-176 -70q-39 -15 -39 18v109q0 13 15 20l186 103q16 9 28 0l187 -103q15 -7 15 -20v-109q0 -34 -40 -18zM588 624h-319v-146h170q8 0 14.5 -6t6.5 -14v-135q0 -9 -6 -15t-15 -6h-170v-126h319q8 0 14.5 -6t6.5 -14v-135q0 -9 -6 -15t-15 -6h-492q-9 0 -15 6
t-6 15v759q0 8 5.5 14t14.5 6h493q8 0 14.5 -6t6.5 -14v-135q0 -9 -6 -15t-15 -6z" />
    <glyph glyph-name="Edieresis" unicode="&#xcb;" horiz-adv-x="674" 
d="M192 865q-40 0 -68.5 29.5t-28.5 68.5q0 41 28.5 69t68.5 28q41 0 69.5 -28.5t28.5 -68.5q0 -39 -29 -68.5t-69 -29.5zM489 865q-40 0 -68.5 29.5t-28.5 68.5q0 41 28 69t69 28q40 0 69.5 -28.5t29.5 -68.5q0 -39 -29.5 -68.5t-69.5 -29.5zM588 624h-319v-146h170
q8 0 14.5 -6t6.5 -14v-135q0 -9 -6 -15t-15 -6h-170v-126h319q8 0 14.5 -6t6.5 -14v-135q0 -9 -6 -15t-15 -6h-492q-9 0 -15 6t-6 15v759q0 8 5.5 14t14.5 6h493q8 0 14.5 -6t6.5 -14v-135q0 -9 -6 -15t-15 -6z" />
    <glyph glyph-name="Igrave" unicode="&#xcc;" horiz-adv-x="353" 
d="M33 918l218 -88q22 -8 29 6l49 82q9 15 -5 24l-194 129q-7 6 -16.5 6t-14.5 -8l-72 -119q-13 -22 6 -32zM252 800h-152q-9 0 -14.5 -6t-5.5 -14v-759q0 -9 6 -15t15 -6h152q8 0 14 6.5t6 14.5v759q0 8 -6.5 14t-14.5 6z" />
    <glyph glyph-name="Iacute" unicode="&#xcd;" horiz-adv-x="353" 
d="M105 839l218 88q19 10 6 32l-72 119q-5 8 -14.5 8t-16.5 -6l-194 -129q-14 -9 -5 -24l49 -82q7 -16 29 -6zM252 800h-152q-9 0 -14.5 -6t-5.5 -14v-759q0 -9 6 -15t15 -6h152q8 0 14 6.5t6 14.5v759q0 8 -6.5 14t-14.5 6z" />
    <glyph glyph-name="Icircumflex" unicode="&#xce;" horiz-adv-x="353" 
d="M164 1086l-186 -103q-15 -7 -15 -20v-109q0 -33 39 -18l176 70l176 -70q40 -16 40 18v109q0 13 -15 20l-187 103q-12 9 -28 0zM252 800h-152q-9 0 -14.5 -6t-5.5 -14v-759q0 -9 6 -15t15 -6h152q8 0 14 6.5t6 14.5v759q0 8 -6.5 14t-14.5 6z" />
    <glyph glyph-name="Idieresis" unicode="&#xcf;" horiz-adv-x="353" 
d="M29 867q-40 0 -68.5 29.5t-28.5 68.5q0 41 28 69t69 28t69.5 -28.5t28.5 -68.5q0 -39 -29 -68.5t-69 -29.5zM326 867q-40 0 -68.5 29.5t-28.5 68.5q0 41 28 69t69 28q40 0 69.5 -28.5t29.5 -68.5q0 -39 -29.5 -68.5t-69.5 -29.5zM252 800h-152q-9 0 -14.5 -6t-5.5 -14
v-759q0 -9 6 -15t15 -6h152q8 0 14 6.5t6 14.5v759q0 8 -6.5 14t-14.5 6z" />
    <glyph glyph-name="Eth" unicode="&#xd0;" horiz-adv-x="824" 
d="M90 800h268q94 0 173.5 -35.5t130.5 -93t79 -127.5t28 -140q0 -109 -47.5 -199.5t-142.5 -147.5t-221 -57h-267q-9 0 -15 6t-6 15v291h-30q-8 0 -14 5.5t-6 14.5v135q0 8 6 14.5t14 6.5h30v292q0 8 5.5 14t14.5 6zM268 193h90q97 0 154.5 64t57.5 147q0 85 -57 144
t-155 59h-90v-119h99q8 0 14.5 -6t6.5 -14v-135q0 -9 -6 -15t-15 -6h-99v-119z" />
    <glyph glyph-name="Ntilde" unicode="&#xd1;" horiz-adv-x="850" 
d="M194 927l55 -65q13 -16 26 -1q31 35 66 35q33 0 74.5 -25.5t89.5 -25.5q84 0 147 74q14 14 3 30l-50 76q-14 19 -35 -1q-39 -31 -75 -31q-27 0 -72.5 27t-83.5 27q-22 0 -42 -6.5t-34 -15t-27.5 -20.5t-20.5 -21t-13 -18l-7 -9q-13 -16 -1 -30zM601 799l153 1
q8 0 14.5 -6t6.5 -15v-759q0 -8 -6 -14t-14 -6h-53q-53 0 -107 61l-327 368v-408q0 -8 -6 -14.5t-14 -6.5h-152q-9 0 -15 6t-6 15v759q0 8 6 14t14 6h94q14 0 29 -16l363 -415v410q0 8 6 14t14 6z" />
    <glyph glyph-name="Ograve" unicode="&#xd2;" horiz-adv-x="936" 
d="M325 924l218 -88q22 -8 29 6l49 82q9 15 -5 24l-194 129q-7 6 -16.5 6t-14.5 -8l-72 -119q-13 -22 6 -32zM469 -7q169 0 288 119t119 288t-119 288t-288 119q-170 0 -289.5 -119t-119.5 -288t119.5 -288t289.5 -119zM468 182q-84 0 -147 66t-63 153t63 152t147 65
q85 0 147.5 -65t62.5 -152t-62.5 -153t-147.5 -66z" />
    <glyph glyph-name="Oacute" unicode="&#xd3;" horiz-adv-x="936" 
d="M396 845l218 88q19 10 6 32l-72 119q-5 8 -14.5 8t-16.5 -6l-194 -129q-14 -9 -5 -24l49 -82q7 -16 29 -6zM469 -7q169 0 288 119t119 288t-119 288t-288 119q-170 0 -289.5 -119t-119.5 -288t119.5 -288t289.5 -119zM468 182q-84 0 -147 66t-63 153t63 152t147 65
q85 0 147.5 -65t62.5 -152t-62.5 -153t-147.5 -66z" />
    <glyph glyph-name="Ocircumflex" unicode="&#xd4;" horiz-adv-x="936" 
d="M455 1092l-186 -103q-15 -7 -15 -20v-109q0 -33 39 -18l176 70l176 -70q40 -16 40 18v109q0 13 -15 20l-187 103q-12 9 -28 0zM469 -7q169 0 288 119t119 288t-119 288t-288 119q-170 0 -289.5 -119t-119.5 -288t119.5 -288t289.5 -119zM468 182q-84 0 -147 66t-63 153
t63 152t147 65q85 0 147.5 -65t62.5 -152t-62.5 -153t-147.5 -66z" />
    <glyph glyph-name="Otilde" unicode="&#xd5;" horiz-adv-x="936" 
d="M242 935l55 -65q13 -16 26 -1q31 35 66 35q33 0 74.5 -25.5t89.5 -25.5q84 0 147 74q14 14 3 30l-50 76q-14 19 -35 -1q-39 -31 -75 -31q-27 0 -72.5 27t-83.5 27q-22 0 -42 -6.5t-34 -15t-27.5 -20.5t-20.5 -21t-13 -18l-7 -9q-13 -16 -1 -30zM469 -7q169 0 288 119
t119 288t-119 288t-288 119q-170 0 -289.5 -119t-119.5 -288t119.5 -288t289.5 -119zM468 182q-84 0 -147 66t-63 153t63 152t147 65q85 0 147.5 -65t62.5 -152t-62.5 -153t-147.5 -66z" />
    <glyph glyph-name="Odieresis" unicode="&#xd6;" horiz-adv-x="936" 
d="M320 873q-40 0 -68.5 29.5t-28.5 68.5q0 41 28.5 69t68.5 28q41 0 69.5 -28.5t28.5 -68.5q0 -39 -29 -68.5t-69 -29.5zM617 873q-40 0 -68.5 29.5t-28.5 68.5q0 41 28 69t69 28q40 0 69.5 -28.5t29.5 -68.5q0 -39 -29.5 -68.5t-69.5 -29.5zM469 -7q169 0 288 119t119 288
t-119 288t-288 119q-170 0 -289.5 -119t-119.5 -288t119.5 -288t289.5 -119zM468 182q-84 0 -147 66t-63 153t63 152t147 65q85 0 147.5 -65t62.5 -152t-62.5 -153t-147.5 -66z" />
    <glyph glyph-name="multiply" unicode="&#xd7;" horiz-adv-x="618" 
d="M433 392l118 -118q15 -16 0 -31l-92 -93q-17 -16 -32 -1l-118 119l-118 -118q-16 -16 -32 -1l-92 93q-16 17 0 33l117 117l-117 118q-16 16 -1 32l92 92q17 16 33 0l118 -117l118 118q15 15 31 0l92 -92q16 -17 1 -32z" />
    <glyph glyph-name="Oslash" unicode="&#xd8;" horiz-adv-x="989" 
d="M822 831l102 -101q14 -14 0 -29l-84 -84q63 -99 63 -217q0 -169 -119 -288t-288 -119q-118 0 -218 62l-82 -82q-6 -6 -14.5 -6t-14.5 6l-101 102q-14 14 0 28l82 82q-61 97 -61 215q0 169 119.5 288t289.5 119q116 0 214 -60l84 84q14 14 28 0zM285 401q0 -33 11 -68
l271 271q-36 14 -72 14q-85 0 -147.5 -65t-62.5 -152zM704 401q0 36 -12 69l-272 -273q35 -15 75 -15q84 0 146.5 66t62.5 153z" />
    <glyph glyph-name="Ugrave" unicode="&#xd9;" horiz-adv-x="790" 
d="M251 917l218 -88q22 -8 29 6l49 82q9 15 -5 24l-194 129q-7 6 -16.5 6t-14.5 -8l-72 -119q-13 -22 6 -32zM700 800h-154q-9 0 -14.5 -6t-5.5 -14v-463q0 -60 -32.5 -99.5t-100.5 -39.5t-98.5 39t-30.5 100v463q0 8 -6 14t-14 6h-154q-9 0 -14.5 -6t-5.5 -14v-492
q1 -127 87 -211t236 -84q151 0 238.5 84t88.5 211v492q0 8 -6 14t-14 6z" />
    <glyph glyph-name="Uacute" unicode="&#xda;" horiz-adv-x="790" 
d="M323 838l218 88q19 10 6 32l-72 119q-5 8 -14.5 8t-16.5 -6l-194 -129q-14 -9 -5 -24l49 -82q7 -16 29 -6zM700 800h-154q-9 0 -14.5 -6t-5.5 -14v-463q0 -60 -32.5 -99.5t-100.5 -39.5t-98.5 39t-30.5 100v463q0 8 -6 14t-14 6h-154q-9 0 -14.5 -6t-5.5 -14v-492
q1 -127 87 -211t236 -84q151 0 238.5 84t88.5 211v492q0 8 -6 14t-14 6z" />
    <glyph glyph-name="Ucircumflex" unicode="&#xdb;" horiz-adv-x="790" 
d="M382 1085l-186 -103q-15 -8 -15 -20v-109q0 -33 39 -18l176 70l176 -70q40 -16 40 18v109q0 12 -15 20l-187 103q-12 9 -28 0zM700 800h-154q-9 0 -14.5 -6t-5.5 -14v-463q0 -60 -32.5 -99.5t-100.5 -39.5t-98.5 39t-30.5 100v463q0 8 -6 14t-14 6h-154q-9 0 -14.5 -6
t-5.5 -14v-492q1 -127 87 -211t236 -84q151 0 238.5 84t88.5 211v492q0 8 -6 14t-14 6z" />
    <glyph glyph-name="Udieresis" unicode="&#xdc;" horiz-adv-x="790" 
d="M247 866q-40 0 -68.5 29.5t-28.5 68.5q0 40 28 68.5t69 28.5t69.5 -28.5t28.5 -68.5q0 -39 -29 -68.5t-69 -29.5zM544 866q-40 0 -68.5 29.5t-28.5 68.5q0 41 28 69t69 28q40 0 69.5 -28.5t29.5 -68.5q0 -39 -29.5 -68.5t-69.5 -29.5zM700 800h-154q-9 0 -14.5 -6
t-5.5 -14v-463q0 -60 -32.5 -99.5t-100.5 -39.5t-98.5 39t-30.5 100v463q0 8 -6 14t-14 6h-154q-9 0 -14.5 -6t-5.5 -14v-492q1 -127 87 -211t236 -84q151 0 238.5 84t88.5 211v492q0 8 -6 14t-14 6z" />
    <glyph glyph-name="Yacute" unicode="&#xdd;" horiz-adv-x="783" 
d="M319 840l218 88q19 10 6 32l-72 119q-5 8 -14.5 8t-16.5 -6l-194 -129q-14 -9 -5 -24l49 -82q7 -16 29 -6zM572 800h183q9 0 12 -6.5t-2 -14.5l-275 -419v-339q0 -21 -19 -21h-123q-24 0 -38 15t-14 39v303l-277 422q-5 8 -2 14.5t12 6.5h184q3 0 5.5 -1t5 -3.5t3.5 -4
t4 -6.5t4 -6l157 -238l157 238q13 21 23 21z" />
    <glyph glyph-name="Thorn" unicode="&#xde;" horiz-adv-x="676" 
d="M265 674h110q109 0 190 -86t81 -184q0 -106 -80.5 -191.5t-190.5 -85.5h-110v-106q0 -8 -6 -14.5t-14 -6.5h-154q-9 0 -15 6t-6 15v759q0 8 5.5 14t14.5 6h154q8 0 14.5 -6t6.5 -14v-106zM265 312h115q48 0 67.5 43.5t0 87t-67.5 43.5h-115v-174z" />
    <glyph glyph-name="germandbls" unicode="&#xdf;" horiz-adv-x="661" 
d="M486 423q60 -26 95 -78t35 -118q0 -93 -72.5 -160t-169.5 -67h-31q-24 0 -24 20v116q0 21 24 21q43 1 65.5 20t22.5 64q0 42 -27 60t-85 18v120q0 21 14 24l31 6q20 4 30.5 16.5t13 26t2.5 38.5q0 33 -26 50t-62 17q-90 0 -90 -98l-1 -498q0 -8 -6 -14.5t-14 -6.5h-140
q-9 0 -15 6t-6 15l1 509q0 118 75 195.5t190 77.5q107 0 186 -67t79 -161q0 -51 -19 -86.5t-76 -65.5z" />
    <glyph glyph-name="agrave" unicode="&#xe0;" horiz-adv-x="564" 
d="M144 658l218 -88q22 -8 29 6l49 82q9 15 -5 24l-194 129q-7 6 -16.5 6t-14.5 -8l-72 -119q-13 -22 6 -32zM508 24q-16 127 -7 311q4 81 -53 123.5t-140 42.5q-111 0 -220 -51q-23 -11 -14 -32l32 -81q9 -21 29 -12q89 36 129 36q56 0 56 -40q-144 -24 -209.5 -69.5
t-65.5 -118.5q0 -64 43.5 -101t121.5 -37q94 0 145 47q8 -42 35 -42h98q11 0 16.5 7t3.5 17zM247 120q-32 0 -32 24q0 18 32.5 32t71.5 20v-46q-29 -30 -72 -30z" />
    <glyph glyph-name="aacute" unicode="&#xe1;" horiz-adv-x="564" 
d="M216 579l218 88q19 10 6 32l-72 119q-5 8 -14.5 8t-16.5 -6l-194 -129q-14 -9 -5 -24l49 -82q7 -16 29 -6zM508 24q-16 127 -7 311q4 81 -53 123.5t-140 42.5q-111 0 -220 -51q-23 -11 -14 -32l32 -81q9 -21 29 -12q89 36 129 36q56 0 56 -40q-144 -24 -209.5 -69.5
t-65.5 -118.5q0 -64 43.5 -101t121.5 -37q94 0 145 47q8 -42 35 -42h98q11 0 16.5 7t3.5 17zM247 120q-32 0 -32 24q0 18 32.5 32t71.5 20v-46q-29 -30 -72 -30z" />
    <glyph glyph-name="acircumflex" unicode="&#xe2;" horiz-adv-x="564" 
d="M275 826l-186 -103q-15 -7 -15 -20v-109q0 -33 39 -18l176 70l176 -70q40 -16 40 18v109q0 13 -15 20l-187 103q-12 9 -28 0zM508 24q-16 127 -7 311q4 81 -53 123.5t-140 42.5q-111 0 -220 -51q-23 -11 -14 -32l32 -81q9 -21 29 -12q89 36 129 36q56 0 56 -40
q-144 -24 -209.5 -69.5t-65.5 -118.5q0 -64 43.5 -101t121.5 -37q94 0 145 47q8 -42 35 -42h98q11 0 16.5 7t3.5 17zM247 120q-32 0 -32 24q0 18 32.5 32t71.5 20v-46q-29 -30 -72 -30z" />
    <glyph glyph-name="atilde" unicode="&#xe3;" horiz-adv-x="564" 
d="M62 669l55 -65q13 -16 26 -1q31 35 66 35q33 0 74.5 -25.5t89.5 -25.5q84 0 147 74q14 14 3 30l-50 76q-14 19 -35 -1q-39 -31 -75 -31q-27 0 -72.5 27t-83.5 27q-22 0 -42 -6.5t-34 -15t-27.5 -20.5t-20.5 -21t-13 -18l-7 -9q-13 -16 -1 -30zM508 24q-16 127 -7 311
q4 81 -53 123.5t-140 42.5q-111 0 -220 -51q-23 -11 -14 -32l32 -81q9 -21 29 -12q89 36 129 36q56 0 56 -40q-144 -24 -209.5 -69.5t-65.5 -118.5q0 -64 43.5 -101t121.5 -37q94 0 145 47q8 -42 35 -42h98q11 0 16.5 7t3.5 17zM247 120q-32 0 -32 24q0 18 32.5 32t71.5 20
v-46q-29 -30 -72 -30z" />
    <glyph glyph-name="adieresis" unicode="&#xe4;" horiz-adv-x="564" 
d="M140 607q-40 0 -68.5 29.5t-28.5 68.5q0 41 28.5 69t68.5 28q41 0 69.5 -28.5t28.5 -68.5q0 -39 -29 -68.5t-69 -29.5zM437 607q-40 0 -68.5 29.5t-28.5 68.5q0 41 28 69t69 28q40 0 69.5 -28.5t29.5 -68.5q0 -39 -29.5 -68.5t-69.5 -29.5zM508 24q-16 127 -7 311
q4 81 -53 123.5t-140 42.5q-111 0 -220 -51q-23 -11 -14 -32l32 -81q9 -21 29 -12q89 36 129 36q56 0 56 -40q-144 -24 -209.5 -69.5t-65.5 -118.5q0 -64 43.5 -101t121.5 -37q94 0 145 47q8 -42 35 -42h98q11 0 16.5 7t3.5 17zM247 120q-32 0 -32 24q0 18 32.5 32t71.5 20
v-46q-29 -30 -72 -30z" />
    <glyph glyph-name="aring" unicode="&#xe5;" horiz-adv-x="564" 
d="M289 556q-51 0 -88 37t-37 88q0 52 37 88.5t88 36.5t88 -36.5t37 -88.5q0 -51 -37 -88t-88 -37zM289 646q14 0 25.5 10.5t11.5 24.5q0 15 -11.5 26t-25.5 11q-15 0 -26 -11t-11 -26q0 -14 11 -24.5t26 -10.5zM508 24q-16 127 -7 311q4 81 -53 123.5t-140 42.5
q-111 0 -220 -51q-23 -11 -14 -32l32 -81q9 -21 29 -12q89 36 129 36q56 0 56 -40q-144 -24 -209.5 -69.5t-65.5 -118.5q0 -64 43.5 -101t121.5 -37q94 0 145 47q8 -42 35 -42h98q11 0 16.5 7t3.5 17zM247 120q-32 0 -32 24q0 18 32.5 32t71.5 20v-46q-29 -30 -72 -30z" />
    <glyph glyph-name="ae" unicode="&#xe6;" horiz-adv-x="858" 
d="M819 267q0 -35 -22 -56.5t-61 -21.5h-238q7 -22 36.5 -36.5t65.5 -14.5q66 0 120 22q22 9 34 -11l26 -43q12 -18 -3 -36q-57 -76 -187 -76q-42 0 -86 13q-5 -7 -16 -7h-98q-27 0 -35 42q-51 -47 -145 -47q-78 0 -121.5 37t-43.5 101q0 73 65.5 118.5t209.5 69.5
q0 40 -56 40q-40 0 -129 -36q-20 -9 -29 12l-32 81q-9 21 14 32q109 51 220 51q83 0 135 -39q61 40 134 40q108 0 175 -70.5t67 -164.5zM500 307h157q-3 16 -25 30.5t-55 14.5q-55 0 -77 -35v-10zM319 150v46q-39 -6 -71.5 -20t-32.5 -32q0 -24 32 -24q43 0 72 30z" />
    <glyph glyph-name="ccedilla" unicode="&#xe7;" horiz-adv-x="525" 
d="M309 332q-35 0 -60 -25.5t-25 -60.5q0 -33 25 -58.5t60 -25.5q29 0 66 21q21 13 32 -4l67 -95q11 -19 -3 -30q-64 -51 -137 -59l-30 -64q42 -12 69.5 -46.5t27.5 -78.5q0 -53 -40 -92t-95 -39q-59 0 -97 45q-7 8 2 17l46 45q8 8 18 0q18 -10 30 -10q16 0 26 9.5t10 24.5
q0 14 -10 24t-26 10t-33 -15q-7 -7 -14 -1l-53 44q-6 6 -2 14l1 2l57 116h16q-87 20 -142 86.5t-55 159.5q0 112 75.5 184t185.5 72q99 0 176 -69q15 -14 2 -30l-72 -88q-11 -15 -34 -2q-32 19 -64 19z" />
    <glyph glyph-name="egrave" unicode="&#xe8;" horiz-adv-x="569" 
d="M144 654l218 -88q22 -8 29 6l49 82q9 15 -5 24l-194 129q-7 6 -16.5 6t-14.5 -8l-72 -119q-13 -22 6 -32zM208 189h238q39 0 61 21.5t22 56.5q0 94 -66.5 164.5t-174.5 70.5q-105 0 -177 -75t-72 -179q0 -110 76 -182t186 -72q130 0 186 76q16 19 4 36l-26 43
q-12 21 -35 11q-53 -22 -119 -22q-36 0 -66 14.5t-37 36.5zM368 307h-162q4 16 26 30.5t55 14.5q34 0 55.5 -14.5t25.5 -30.5z" />
    <glyph glyph-name="eacute" unicode="&#xe9;" horiz-adv-x="569" 
d="M215 575l218 88q19 10 6 32l-72 119q-5 8 -14.5 8t-16.5 -6l-194 -129q-14 -9 -5 -24l49 -82q7 -16 29 -6zM208 189h238q39 0 61 21.5t22 56.5q0 94 -66.5 164.5t-174.5 70.5q-105 0 -177 -75t-72 -179q0 -110 76 -182t186 -72q130 0 186 76q16 19 4 36l-26 43
q-12 21 -35 11q-53 -22 -119 -22q-36 0 -66 14.5t-37 36.5zM368 307h-162q4 16 26 30.5t55 14.5q34 0 55.5 -14.5t25.5 -30.5z" />
    <glyph glyph-name="ecircumflex" unicode="&#xea;" horiz-adv-x="569" 
d="M275 822l-186 -103q-15 -7 -15 -20v-109q0 -33 39 -18l176 70l176 -70q40 -16 40 18v109q0 13 -15 20l-187 103q-12 9 -28 0zM208 189h238q39 0 61 21.5t22 56.5q0 94 -66.5 164.5t-174.5 70.5q-105 0 -177 -75t-72 -179q0 -110 76 -182t186 -72q130 0 186 76q16 19 4 36
l-26 43q-12 21 -35 11q-53 -22 -119 -22q-36 0 -66 14.5t-37 36.5zM368 307h-162q4 16 26 30.5t55 14.5q34 0 55.5 -14.5t25.5 -30.5z" />
    <glyph glyph-name="edieresis" unicode="&#xeb;" horiz-adv-x="569" 
d="M140 603q-40 0 -68.5 29.5t-28.5 68.5q0 41 28.5 69t68.5 28q41 0 69.5 -28.5t28.5 -68.5q0 -39 -29 -68.5t-69 -29.5zM437 603q-40 0 -68.5 29.5t-28.5 68.5q0 41 28 69t69 28q40 0 69.5 -28.5t29.5 -68.5q0 -39 -29.5 -68.5t-69.5 -29.5zM208 189h238q39 0 61 21.5
t22 56.5q0 94 -66.5 164.5t-174.5 70.5q-105 0 -177 -75t-72 -179q0 -110 76 -182t186 -72q130 0 186 76q16 19 4 36l-26 43q-12 21 -35 11q-53 -22 -119 -22q-36 0 -66 14.5t-37 36.5zM368 307h-162q4 16 26 30.5t55 14.5q34 0 55.5 -14.5t25.5 -30.5z" />
    <glyph glyph-name="igrave" unicode="&#xec;" horiz-adv-x="339" 
d="M26 658l218 -88q22 -8 29 6l49 82q9 15 -5 24l-194 129q-7 6 -16.5 6t-14.5 -8l-72 -119q-13 -22 6 -32zM244 495h-149q-9 0 -14.5 -6t-5.5 -14v-421q0 -24 14 -39t38 -15h118q19 0 19 21v454q0 8 -6 14t-14 6z" />
    <glyph glyph-name="iacute" unicode="&#xed;" horiz-adv-x="339" 
d="M97 579l218 88q19 10 6 32l-72 119q-5 8 -14.5 8t-16.5 -6l-194 -129q-14 -9 -5 -24l49 -82q7 -16 29 -6zM244 495h-149q-9 0 -14.5 -6t-5.5 -14v-421q0 -24 14 -39t38 -15h118q19 0 19 21v454q0 8 -6 14t-14 6z" />
    <glyph glyph-name="icircumflex" unicode="&#xee;" horiz-adv-x="339" 
d="M156 826l-186 -103q-15 -7 -15 -20v-109q0 -33 39 -18l176 70l176 -70q40 -16 40 18v109q0 13 -15 20l-187 103q-12 9 -28 0zM244 495h-149q-9 0 -14.5 -6t-5.5 -14v-421q0 -24 14 -39t38 -15h118q19 0 19 21v454q0 8 -6 14t-14 6z" />
    <glyph glyph-name="idieresis" unicode="&#xef;" horiz-adv-x="339" 
d="M22 607q-40 0 -68.5 29.5t-28.5 68.5q0 41 28.5 69t68.5 28q41 0 69.5 -28.5t28.5 -68.5q0 -39 -29 -68.5t-69 -29.5zM319 607q-40 0 -68.5 29.5t-28.5 68.5q0 41 28 69t69 28q40 0 69.5 -28.5t29.5 -68.5q0 -39 -29.5 -68.5t-69.5 -29.5zM244 495h-149q-9 0 -14.5 -6
t-5.5 -14v-421q0 -24 14 -39t38 -15h118q19 0 19 21v454q0 8 -6 14t-14 6z" />
    <glyph glyph-name="eth" unicode="&#xf0;" horiz-adv-x="596" 
d="M513 648l-36 -20q79 -114 79 -296q0 -156 -74 -247.5t-191 -91.5q-104 0 -177.5 73t-73.5 176q0 102 73.5 171t178.5 69q33 0 64 -11q-12 40 -38 69l-63 -34q-18 -10 -28 8l-22 36q-10 18 9 28l23 13q-25 7 -58 9q-22 0 -20 21l16 148q2 20 21 20q125 -5 225 -96l50 28
q18 9 27 -7l23 -38q10 -17 -8 -28zM363 236q3 27 -18 49.5t-50 22.5q-27 0 -47 -20.5t-20 -48.5t20 -48.5t47 -20.5q28 0 47.5 19.5t20.5 46.5z" />
    <glyph glyph-name="ntilde" unicode="&#xf1;" horiz-adv-x="628" 
d="M135 604l-55 65q-12 14 1 30l7 9q6 9 13 18t20.5 21t27.5 20.5t34 15t42 6.5q38 0 83.5 -27t72.5 -27q36 0 75 31q21 20 35 1l50 -76q11 -16 -3 -30q-63 -74 -147 -74q-48 0 -89.5 25.5t-74.5 25.5q-35 0 -66 -35q-13 -15 -26 1zM577 26q2 -10 -1.5 -18t-11.5 -8h-133
q-24 0 -37.5 15t-13.5 38v192q0 33 -16.5 51t-45.5 18q-40 0 -69 -26v-267q0 -8 -6 -14.5t-14 -6.5h-149q-20 0 -20 21v454q0 8 5.5 14t13.5 6h120q3 -26 24 -42q69 47 139 47q90 0 148.5 -55.5t58.5 -148.5v-202q0 -32 8 -68z" />
    <glyph glyph-name="ograve" unicode="&#xf2;" 
d="M160 658l218 -88q22 -8 29 6l49 82q9 15 -5 24l-194 129q-7 6 -16.5 6t-14.5 -8l-72 -119q-13 -22 6 -32zM305 -7q108 0 186.5 73.5t78.5 179.5q0 109 -78.5 182.5t-186.5 73.5q-109 0 -187 -73.5t-78 -182.5q0 -106 78.5 -179.5t186.5 -73.5zM305 162q-36 0 -60.5 25.5
t-24.5 58.5q0 34 24.5 60t60.5 26t60.5 -26t24.5 -60q0 -33 -24.5 -58.5t-60.5 -25.5z" />
    <glyph glyph-name="oacute" unicode="&#xf3;" 
d="M232 579l218 88q19 10 6 32l-72 119q-5 8 -14.5 8t-16.5 -6l-194 -129q-14 -9 -5 -24l49 -82q7 -16 29 -6zM305 -7q108 0 186.5 73.5t78.5 179.5q0 109 -78.5 182.5t-186.5 73.5q-109 0 -187 -73.5t-78 -182.5q0 -106 78.5 -179.5t186.5 -73.5zM305 162q-36 0 -60.5 25.5
t-24.5 58.5q0 34 24.5 60t60.5 26t60.5 -26t24.5 -60q0 -33 -24.5 -58.5t-60.5 -25.5z" />
    <glyph glyph-name="ocircumflex" unicode="&#xf4;" 
d="M291 826l-186 -103q-15 -7 -15 -20v-109q0 -33 39 -18l176 70l176 -70q40 -16 40 18v109q0 13 -15 20l-187 103q-12 9 -28 0zM305 -7q108 0 186.5 73.5t78.5 179.5q0 109 -78.5 182.5t-186.5 73.5q-109 0 -187 -73.5t-78 -182.5q0 -106 78.5 -179.5t186.5 -73.5zM305 162
q-36 0 -60.5 25.5t-24.5 58.5q0 34 24.5 60t60.5 26t60.5 -26t24.5 -60q0 -33 -24.5 -58.5t-60.5 -25.5z" />
    <glyph glyph-name="otilde" unicode="&#xf5;" 
d="M78 669l55 -65q13 -16 26 -1q31 35 66 35q33 0 74.5 -25.5t89.5 -25.5q84 0 147 74q14 14 3 30l-50 76q-14 19 -35 -1q-39 -31 -75 -31q-27 0 -72.5 27t-83.5 27q-22 0 -42 -6.5t-34 -15t-27.5 -20.5t-20.5 -21t-13 -18l-7 -9q-13 -16 -1 -30zM305 -7q108 0 186.5 73.5
t78.5 179.5q0 109 -78.5 182.5t-186.5 73.5q-109 0 -187 -73.5t-78 -182.5q0 -106 78.5 -179.5t186.5 -73.5zM305 162q-36 0 -60.5 25.5t-24.5 58.5q0 34 24.5 60t60.5 26t60.5 -26t24.5 -60q0 -33 -24.5 -58.5t-60.5 -25.5z" />
    <glyph glyph-name="odieresis" unicode="&#xf6;" 
d="M156 607q-40 0 -68.5 29.5t-28.5 68.5q0 41 28.5 69t68.5 28q41 0 69.5 -28.5t28.5 -68.5q0 -39 -29 -68.5t-69 -29.5zM453 607q-40 0 -68.5 29.5t-28.5 68.5q0 41 28 69t69 28q40 0 69.5 -28.5t29.5 -68.5q0 -39 -29.5 -68.5t-69.5 -29.5zM305 -7q108 0 186.5 73.5
t78.5 179.5q0 109 -78.5 182.5t-186.5 73.5q-109 0 -187 -73.5t-78 -182.5q0 -106 78.5 -179.5t186.5 -73.5zM305 162q-36 0 -60.5 25.5t-24.5 58.5q0 34 24.5 60t60.5 26t60.5 -26t24.5 -60q0 -33 -24.5 -58.5t-60.5 -25.5z" />
    <glyph glyph-name="divide" unicode="&#xf7;" horiz-adv-x="631" 
d="M317 480q-47 0 -82 34.5t-35 80.5q0 48 35 82t82 34t80.5 -34t33.5 -82q0 -47 -33.5 -81t-80.5 -34zM581 426v-107q0 -8 -6 -14.5t-14 -6.5h-490q-8 0 -14.5 6t-6.5 14v107q0 9 6 15t15 6h490q8 0 14 -5.5t6 -14.5zM317 32q-47 0 -82 34.5t-35 80.5q0 48 35 82t82 34
t80.5 -34t33.5 -82q0 -47 -33.5 -81t-80.5 -34z" />
    <glyph glyph-name="oslash" unicode="&#xf8;" horiz-adv-x="667" 
d="M558 525l54 -54q9 -9 0 -19l-54 -54q50 -68 50 -152q0 -106 -78.5 -179.5t-186.5 -73.5q-80 0 -147 43l-69 -69q-10 -10 -18 0l-54 54q-9 9 0 18l67 67q-44 63 -44 140q0 109 78 182.5t187 73.5q74 0 137 -36l59 59q10 9 19 0zM258 246v-3l89 89h-4q-36 0 -60.5 -26
t-24.5 -60zM428 246q0 6 -2 20l-102 -102q12 -2 19 -2q36 0 60.5 25.5t24.5 58.5z" />
    <glyph glyph-name="ugrave" unicode="&#xf9;" horiz-adv-x="623" 
d="M374 570l-218 88q-19 10 -6 32l72 119q5 8 14.5 8t16.5 -6l194 -129q14 -9 5 -24l-49 -82q-7 -14 -29 -6zM399 495h149q20 0 20 -21v-454q0 -8 -5.5 -14t-13.5 -6h-122q-3 26 -22 42q-69 -48 -140 -48q-89 0 -147.5 56.5t-58.5 148.5v206q0 32 -8 68q-2 10 1.5 18t11.5 8
h133q24 0 37.5 -15t13.5 -38v-194q0 -33 16.5 -51t46.5 -18q41 0 68 30v261q0 8 6 14.5t14 6.5z" />
    <glyph glyph-name="uacute" unicode="&#xfa;" horiz-adv-x="623" 
d="M198 585l-49 82q-9 15 5 24l194 129q7 6 16.5 6t14.5 -8l72 -119q13 -22 -6 -32l-218 -88q-22 -10 -29 6zM399 495h149q20 0 20 -21v-454q0 -8 -5.5 -14t-13.5 -6h-122q-3 26 -22 42q-69 -48 -140 -48q-89 0 -147.5 56.5t-58.5 148.5v206q0 32 -8 68q-2 10 1.5 18t11.5 8
h133q24 0 37.5 -15t13.5 -38v-194q0 -33 16.5 -51t46.5 -18q41 0 68 30v261q0 8 6 14.5t14 6.5z" />
    <glyph glyph-name="ucircumflex" unicode="&#xfb;" horiz-adv-x="623" 
d="M301 646l-176 -70q-39 -15 -39 18v109q0 13 15 20l186 103q16 9 28 0l187 -103q15 -7 15 -20v-109q0 -34 -40 -18zM399 495h149q20 0 20 -21v-454q0 -8 -5.5 -14t-13.5 -6h-122q-3 26 -22 42q-69 -48 -140 -48q-89 0 -147.5 56.5t-58.5 148.5v206q0 32 -8 68
q-2 10 1.5 18t11.5 8h133q24 0 37.5 -15t13.5 -38v-194q0 -33 16.5 -51t46.5 -18q41 0 68 30v261q0 8 6 14.5t14 6.5z" />
    <glyph glyph-name="udieresis" unicode="&#xfc;" horiz-adv-x="623" 
d="M152 607q-40 0 -68.5 29.5t-28.5 68.5q0 41 28.5 69t68.5 28q41 0 69.5 -28.5t28.5 -68.5q0 -39 -29 -68.5t-69 -29.5zM449 607q-40 0 -68.5 29.5t-28.5 68.5q0 41 28 69t69 28q40 0 69.5 -28.5t29.5 -68.5q0 -39 -29.5 -68.5t-69.5 -29.5zM399 495h149q20 0 20 -21v-454
q0 -8 -5.5 -14t-13.5 -6h-122q-3 26 -22 42q-69 -48 -140 -48q-89 0 -147.5 56.5t-58.5 148.5v206q0 32 -8 68q-2 10 1.5 18t11.5 8h133q24 0 37.5 -15t13.5 -38v-194q0 -33 16.5 -51t46.5 -18q41 0 68 30v261q0 8 6 14.5t14 6.5z" />
    <glyph glyph-name="yacute" unicode="&#xfd;" horiz-adv-x="650" 
d="M256 579l218 88q19 10 6 32l-72 119q-5 8 -14.5 8t-16.5 -6l-194 -129q-14 -9 -5 -24l49 -82q7 -16 29 -6zM450 495h156q12 0 16.5 -6.5t-1.5 -17.5l-192 -392q-130 -264 -238 -394q-15 -18 -39 0l-90 83q-19 16 1 41q121 142 171 276l-206 386q-6 11 -1.5 17.5t16.5 6.5
h155q16 0 23 -15l105 -211l100 211q6 15 24 15z" />
    <glyph glyph-name="thorn" unicode="&#xfe;" horiz-adv-x="648" 
d="M366 499q103 0 168.5 -70.5t65.5 -178.5q0 -105 -68 -181t-169 -76q-58 0 -100 27v-237q0 -33 -22.5 -55t-51.5 -22h-93q-22 0 -22 23v962q0 20 -13 82q-2 11 2.5 19t14.5 8h125q60 0 60 -59v-266q45 24 103 24zM331 163q37 0 63 24.5t26 61.5q0 36 -26 59t-62 23
q-32 0 -69 -19v-130q35 -19 68 -19z" />
    <glyph glyph-name="ydieresis" unicode="&#xff;" horiz-adv-x="650" 
d="M181 607q-40 0 -68.5 29.5t-28.5 68.5q0 41 28 69t69 28t69.5 -28.5t28.5 -68.5q0 -39 -29 -68.5t-69 -29.5zM478 607q-40 0 -68.5 29.5t-28.5 68.5q0 41 28 69t69 28q40 0 69.5 -28.5t29.5 -68.5q0 -39 -29.5 -68.5t-69.5 -29.5zM450 495h156q12 0 16.5 -6.5t-1.5 -17.5
l-192 -392q-130 -264 -238 -394q-15 -18 -39 0l-90 83q-19 16 1 41q121 142 171 276l-206 386q-6 11 -1.5 17.5t16.5 6.5h155q16 0 23 -15l105 -211l100 211q6 15 24 15z" />
    <glyph glyph-name="Amacron" unicode="&#x100;" horiz-adv-x="874" 
d="M634 887h-392q-8 0 -14 6t-6 14v114q0 8 6 14t14 6h392q8 0 14 -5.5t6 -13.5v-114q0 -8 -6 -14.5t-14 -6.5zM457 794l374 -771q5 -10 1 -16.5t-15 -6.5h-164q-15 0 -21 13l-41 89h-308l-41 -89q-6 -13 -21 -13h-164q-10 0 -14.5 6.5t0.5 16.5l374 771q6 10 16 10h8
q10 0 16 -10zM363 274h148l-74 160z" />
    <glyph glyph-name="amacron" unicode="&#x101;" horiz-adv-x="564" 
d="M73 628v114q0 8 6 14t14 6h392q8 0 14 -5.5t6 -13.5v-114q0 -8 -6 -14.5t-14 -6.5h-392q-8 0 -14 6t-6 14zM508 24q-16 127 -7 311q4 81 -53 123.5t-140 42.5q-111 0 -220 -51q-23 -11 -14 -32l32 -81q9 -21 29 -12q89 36 129 36q56 0 56 -40q-144 -24 -209.5 -69.5
t-65.5 -118.5q0 -64 43.5 -101t121.5 -37q94 0 145 47q8 -42 35 -42h98q11 0 16.5 7t3.5 17zM247 120q-32 0 -32 24q0 18 32.5 32t71.5 20v-46q-29 -30 -72 -30z" />
    <glyph glyph-name="Abreve" unicode="&#x102;" horiz-adv-x="874" 
d="M438 907q-75 0 -131.5 47t-59.5 118q-2 29 20 29h82q10 0 19 -22q20 -47 70 -47t69 47q10 22 21 22h82q22 0 20 -29q-4 -71 -60.5 -118t-131.5 -47zM457 794l374 -771q5 -10 1 -16.5t-15 -6.5h-164q-15 0 -21 13l-41 89h-308l-41 -89q-6 -13 -21 -13h-164
q-10 0 -14.5 6.5t0.5 16.5l374 771q6 10 16 10h8q10 0 16 -10zM363 274h148l-74 160z" />
    <glyph glyph-name="abreve" unicode="&#x103;" horiz-adv-x="564" 
d="M98 793q3 -71 59.5 -118t131.5 -47t131.5 47t60.5 118q2 29 -20 29h-82q-11 0 -21 -22q-19 -47 -69 -47t-70 47q-9 22 -19 22h-82q-22 0 -20 -29zM508 24q-16 127 -7 311q4 81 -53 123.5t-140 42.5q-111 0 -220 -51q-23 -11 -14 -32l32 -81q9 -21 29 -12q89 36 129 36
q56 0 56 -40q-144 -24 -209.5 -69.5t-65.5 -118.5q0 -64 43.5 -101t121.5 -37q94 0 145 47q8 -42 35 -42h98q11 0 16.5 7t3.5 17zM247 120q-32 0 -32 24q0 18 32.5 32t71.5 20v-46q-29 -30 -72 -30z" />
    <glyph glyph-name="Aogonek" unicode="&#x104;" horiz-adv-x="874" 
d="M457 794l374 -771q5 -10 1 -16.5t-15 -6.5h-28q-126 -69 -126 -112q0 -14 10 -23t29 -9q30 0 69 14q12 4 21 -1t9 -16v-66q0 -14 -13 -23q-34 -25 -83.5 -32t-85.5 5q-88 26 -88 106q0 48 46.5 93t110.5 64h-35q-15 0 -21 13l-41 89h-308l-41 -89q-6 -13 -21 -13h-164
q-10 0 -14.5 6.5t0.5 16.5l374 771q6 10 16 10h8q10 0 16 -10zM363 274h148l-74 160z" />
    <glyph glyph-name="aogonek" unicode="&#x105;" horiz-adv-x="564" 
d="M508 24q2 -10 -3.5 -17t-16.5 -7h2q-126 -69 -126 -112q0 -14 10 -23t29 -9q30 0 69 14q12 4 21 -1t9 -16v-66q0 -14 -13 -23q-34 -25 -83.5 -32t-85.5 5q-88 26 -88 106q0 48 46.5 93t110.5 64h1q-27 0 -35 42q-51 -47 -145 -47q-78 0 -121.5 37t-43.5 101
q0 73 65.5 118.5t209.5 69.5q0 40 -56 40q-40 0 -129 -36q-20 -9 -29 12l-32 81q-9 21 14 32q109 51 220 51q83 0 140 -42.5t53 -123.5q-9 -184 7 -311zM319 150v46q-39 -6 -71.5 -20t-32.5 -32q0 -24 32 -24q43 0 72 30z" />
    <glyph glyph-name="Cacute" unicode="&#x106;" horiz-adv-x="798" 
d="M373 853l218 88q19 10 6 32l-72 119q-5 8 -14.5 8t-16.5 -6l-194 -129q-14 -9 -5 -24l49 -82q7 -16 29 -6zM621 246l122 -101q16 -14 2 -28q-56 -59 -131.5 -91.5t-158.5 -32.5q-171 0 -290.5 118.5t-119.5 288.5q0 169 119.5 288t290.5 119q83 0 159.5 -33t131.5 -92
q14 -14 -1 -28l-123 -103q-15 -12 -28 0q-35 34 -67.5 50.5t-77.5 16.5q-80 0 -143 -66t-63 -151q0 -87 63 -153t144 -66q45 0 76.5 15.5t66.5 48.5q13 13 28 0z" />
    <glyph glyph-name="cacute" unicode="&#x107;" horiz-adv-x="525" 
d="M212 579l218 88q19 10 6 32l-72 119q-5 8 -14.5 8t-16.5 -6l-194 -129q-14 -9 -5 -24l49 -82q7 -16 29 -6zM407 179l67 -95q11 -19 -3 -30q-76 -61 -170 -61q-110 0 -185.5 71t-75.5 182q0 112 75.5 184t185.5 72q99 0 176 -69q15 -14 2 -30l-72 -88q-11 -15 -34 -2
q-32 19 -64 19q-35 0 -60 -25.5t-25 -60.5q0 -33 25 -58.5t60 -25.5q29 0 66 21q21 13 32 -4z" />
    <glyph glyph-name="Cdotaccent" unicode="&#x10a;" horiz-adv-x="798" 
d="M446 887q-40 0 -67.5 28t-27.5 67q0 38 27.5 66t67.5 28q38 0 65.5 -28t27.5 -66q0 -39 -27.5 -67t-65.5 -28zM621 246l122 -101q16 -14 2 -28q-56 -59 -131.5 -91.5t-158.5 -32.5q-171 0 -290.5 118.5t-119.5 288.5q0 169 119.5 288t290.5 119q83 0 159.5 -33t131.5 -92
q14 -14 -1 -28l-123 -103q-15 -12 -28 0q-35 34 -67.5 50.5t-77.5 16.5q-80 0 -143 -66t-63 -151q0 -87 63 -153t144 -66q45 0 76.5 15.5t66.5 48.5q13 13 28 0z" />
    <glyph glyph-name="cdotaccent" unicode="&#x10b;" horiz-adv-x="525" 
d="M285 613q-40 0 -67.5 28t-27.5 67q0 38 28 66t67 28q38 0 65.5 -28t27.5 -66q0 -39 -27.5 -67t-65.5 -28zM407 179l67 -95q11 -19 -3 -30q-76 -61 -170 -61q-110 0 -185.5 71t-75.5 182q0 112 75.5 184t185.5 72q99 0 176 -69q15 -14 2 -30l-72 -88q-11 -15 -34 -2
q-32 19 -64 19q-35 0 -60 -25.5t-25 -60.5q0 -33 25 -58.5t60 -25.5q29 0 66 21q21 13 32 -4z" />
    <glyph glyph-name="Ccaron" unicode="&#x10c;" horiz-adv-x="798" 
d="M459 859l187 103q14 7 14 20v109q0 16 -10 21t-24 -1l-180 -72l-181 72q-15 6 -25 1t-10 -21v-109q0 -12 15 -20l186 -103q14 -9 28 0zM621 246l122 -101q16 -14 2 -28q-56 -59 -131.5 -91.5t-158.5 -32.5q-171 0 -290.5 118.5t-119.5 288.5q0 169 119.5 288t290.5 119
q83 0 159.5 -33t131.5 -92q14 -14 -1 -28l-123 -103q-15 -12 -28 0q-35 34 -67.5 50.5t-77.5 16.5q-80 0 -143 -66t-63 -151q0 -87 63 -153t144 -66q45 0 76.5 15.5t66.5 48.5q13 13 28 0z" />
    <glyph glyph-name="ccaron" unicode="&#x10d;" horiz-adv-x="525" 
d="M298 585l187 103q14 7 14 20v109q0 16 -10 21t-24 -1l-180 -72l-181 72q-15 6 -25 1t-10 -21v-109q0 -12 15 -20l186 -103q14 -9 28 0zM407 179l67 -95q11 -19 -3 -30q-76 -61 -170 -61q-110 0 -185.5 71t-75.5 182q0 112 75.5 184t185.5 72q99 0 176 -69q15 -14 2 -30
l-72 -88q-11 -15 -34 -2q-32 19 -64 19q-35 0 -60 -25.5t-25 -60.5q0 -33 25 -58.5t60 -25.5q29 0 66 21q21 13 32 -4z" />
    <glyph glyph-name="Dcaron" unicode="&#x10e;" horiz-adv-x="814" 
d="M382 845l187 103q14 7 14 20v109q0 16 -10 21t-24 -1l-180 -72l-181 72q-15 6 -25 1t-10 -21v-109q0 -12 15 -20l186 -103q14 -9 28 0zM80 800h268q94 0 173.5 -35.5t130.5 -93t79 -127.5t28 -140q0 -109 -47.5 -199.5t-142.5 -147.5t-221 -57h-267q-9 0 -15 6t-6 15v759
q0 8 5.5 14t14.5 6zM258 193h90q97 0 154.5 64t57.5 147q0 85 -57 144t-155 59h-90v-414z" />
    <glyph glyph-name="dcaron" unicode="&#x10f;" horiz-adv-x="899" 
d="M870 690q10 -74 -11 -154q-16 -49 -50.5 -90t-71.5 -64q-17 -8 -27 3l-23 29q-7 10 0 15q81 60 94 145q-18 -5 -33 -5q-47 0 -81.5 35t-34.5 82q0 48 34.5 82t81.5 34q61 0 97 -51q21 -28 25 -61zM388 800h124q60 0 60 -59v-718q0 -23 -22 -23h-93q-38 0 -60 33
q-47 -40 -117 -40q-101 0 -170.5 76.5t-69.5 180.5q0 108 66.5 178.5t170.5 70.5q59 0 106 -26v218q0 20 -13 82q-2 11 3 19t15 8zM220 249q0 -38 27 -62t65 -24q36 0 71 21v127q-37 20 -72 20q-37 0 -64 -22t-27 -60z" />
    <glyph glyph-name="Dcroat" unicode="&#x110;" horiz-adv-x="824" 
d="M90 800h268q94 0 173.5 -35.5t130.5 -93t79 -127.5t28 -140q0 -109 -47.5 -199.5t-142.5 -147.5t-221 -57h-267q-9 0 -15 6t-6 15v291h-30q-8 0 -14 5.5t-6 14.5v135q0 8 6 14.5t14 6.5h30v292q0 8 5.5 14t14.5 6zM268 193h90q97 0 154.5 64t57.5 147q0 85 -57 144
t-155 59h-90v-119h99q8 0 14.5 -6t6.5 -14v-135q0 -9 -6 -15t-15 -6h-99v-119z" />
    <glyph glyph-name="dcroat" unicode="&#x111;" horiz-adv-x="639" 
d="M572 700h27q8 0 14 -5.5t6 -13.5v-106q0 -8 -6 -14t-14 -6h-27v-532q0 -23 -22 -23h-93q-38 0 -60 33q-47 -40 -117 -40q-101 0 -170.5 76.5t-69.5 180.5q0 108 66.5 178.5t170.5 70.5q59 0 106 -26v82h-176q-8 0 -14 5.5t-6 13.5v106q0 8 5.5 14t14.5 6h176
q-1 20 -13 73q-2 11 3 19t15 8h124q60 0 60 -59v-41zM220 249q0 -38 27 -62t65 -24q36 0 71 21v127q-37 20 -72 20q-37 0 -64 -22t-27 -60z" />
    <glyph glyph-name="Emacron" unicode="&#x112;" horiz-adv-x="674" 
d="M537 866h-392q-8 0 -14 6t-6 14v114q0 8 6 14t14 6h392q8 0 14 -5.5t6 -13.5v-114q0 -8 -6 -14.5t-14 -6.5zM588 624h-319v-146h170q8 0 14.5 -6t6.5 -14v-135q0 -9 -6 -15t-15 -6h-170v-126h319q8 0 14.5 -6t6.5 -14v-135q0 -9 -6 -15t-15 -6h-492q-9 0 -15 6t-6 15v759
q0 8 5.5 14t14.5 6h493q8 0 14.5 -6t6.5 -14v-135q0 -9 -6 -15t-15 -6z" />
    <glyph glyph-name="emacron" unicode="&#x113;" horiz-adv-x="569" 
d="M73 624v114q0 8 6 14t14 6h392q8 0 14 -5.5t6 -13.5v-114q0 -8 -6 -14.5t-14 -6.5h-392q-8 0 -14 6t-6 14zM208 189h238q39 0 61 21.5t22 56.5q0 94 -66.5 164.5t-174.5 70.5q-105 0 -177 -75t-72 -179q0 -110 76 -182t186 -72q130 0 186 76q16 19 4 36l-26 43
q-12 21 -35 11q-53 -22 -119 -22q-36 0 -66 14.5t-37 36.5zM368 307h-162q4 16 26 30.5t55 14.5q34 0 55.5 -14.5t25.5 -30.5z" />
    <glyph glyph-name="Edotaccent" unicode="&#x116;" horiz-adv-x="674" 
d="M341 871q-40 0 -67.5 28t-27.5 67q0 38 28 66t67 28q38 0 65.5 -28t27.5 -66q0 -39 -27.5 -67t-65.5 -28zM588 624h-319v-146h170q8 0 14.5 -6t6.5 -14v-135q0 -9 -6 -15t-15 -6h-170v-126h319q8 0 14.5 -6t6.5 -14v-135q0 -9 -6 -15t-15 -6h-492q-9 0 -15 6t-6 15v759
q0 8 5.5 14t14.5 6h493q8 0 14.5 -6t6.5 -14v-135q0 -9 -6 -15t-15 -6z" />
    <glyph glyph-name="edotaccent" unicode="&#x117;" horiz-adv-x="569" 
d="M288 609q-40 0 -67.5 28t-27.5 67q0 38 27.5 66t67.5 28q38 0 65.5 -28t27.5 -66q0 -39 -27.5 -67t-65.5 -28zM208 189h238q39 0 61 21.5t22 56.5q0 94 -66.5 164.5t-174.5 70.5q-105 0 -177 -75t-72 -179q0 -110 76 -182t186 -72q130 0 186 76q16 19 4 36l-26 43
q-12 21 -35 11q-53 -22 -119 -22q-36 0 -66 14.5t-37 36.5zM368 307h-162q4 16 26 30.5t55 14.5q34 0 55.5 -14.5t25.5 -30.5z" />
    <glyph glyph-name="Eogonek" unicode="&#x118;" horiz-adv-x="674" 
d="M588 624h-319v-146h170q8 0 14.5 -6t6.5 -14v-135q0 -9 -6 -15t-15 -6h-170v-126h319q8 0 14.5 -6t6.5 -14v-135q0 -9 -6 -15t-15 -6q-126 -69 -126 -112q0 -14 10 -23t29 -9q30 0 69 14q12 4 21 -1t9 -16v-66q0 -14 -13 -23q-34 -25 -83.5 -32t-85.5 5q-88 26 -88 106
q0 48 46.5 93t110.5 64h-391q-9 0 -15 6t-6 15v759q0 8 5.5 14t14.5 6h493q8 0 14.5 -6t6.5 -14v-135q0 -9 -6 -15t-15 -6z" />
    <glyph glyph-name="eogonek" unicode="&#x119;" horiz-adv-x="569" 
d="M529 267q0 -35 -22 -56.5t-61 -21.5h-238q7 -22 37 -36.5t66 -14.5q66 0 119 22q23 10 35 -11l26 -43q12 -17 -4 -36q-42 -55 -122 -70q-125 -69 -125 -112q0 -14 10 -23t29 -9q30 0 69 14q12 4 21 -1t9 -16v-66q0 -14 -13 -23q-34 -25 -83.5 -32t-85.5 5q-88 26 -88 106
q0 47 44 90.5t105 63.5q-94 15 -156 84t-62 167q0 104 72 179t177 75q108 0 174.5 -70.5t66.5 -164.5zM206 307h162q-4 16 -25.5 30.5t-55.5 14.5q-33 0 -55 -14.5t-26 -30.5z" />
    <glyph glyph-name="Ecaron" unicode="&#x11a;" horiz-adv-x="674" 
d="M326 843l-186 103q-15 8 -15 20v109q0 16 10 21t25 -1l181 -72l180 72q14 6 24 1t10 -21v-109q0 -13 -14 -20l-187 -103q-14 -9 -28 0zM588 624h-319v-146h170q8 0 14.5 -6t6.5 -14v-135q0 -9 -6 -15t-15 -6h-170v-126h319q8 0 14.5 -6t6.5 -14v-135q0 -9 -6 -15t-15 -6
h-492q-9 0 -15 6t-6 15v759q0 8 5.5 14t14.5 6h493q8 0 14.5 -6t6.5 -14v-135q0 -9 -6 -15t-15 -6z" />
    <glyph glyph-name="ecaron" unicode="&#x11b;" horiz-adv-x="569" 
d="M302 581l187 103q14 7 14 20v109q0 16 -10 21t-24 -1l-180 -72l-181 72q-15 6 -25 1t-10 -21v-109q0 -12 15 -20l186 -103q14 -9 28 0zM208 189h238q39 0 61 21.5t22 56.5q0 94 -66.5 164.5t-174.5 70.5q-105 0 -177 -75t-72 -179q0 -110 76 -182t186 -72q130 0 186 76
q16 19 4 36l-26 43q-12 21 -35 11q-53 -22 -119 -22q-36 0 -66 14.5t-37 36.5zM368 307h-162q4 16 26 30.5t55 14.5q34 0 55.5 -14.5t25.5 -30.5z" />
    <glyph glyph-name="Gbreve" unicode="&#x11e;" horiz-adv-x="798" 
d="M437 895q-75 0 -131.5 47t-59.5 118q-2 29 20 29h82q10 0 19 -22q20 -47 70 -47t69 47q10 22 21 22h82q22 0 20 -29q-4 -71 -60.5 -118t-131.5 -47zM751 416v-281q3 -9 -6 -18q-56 -59 -131.5 -91.5t-158.5 -32.5q-171 0 -290.5 118.5t-119.5 288.5q0 169 119.5 288
t290.5 119q83 0 159.5 -33t131.5 -92q14 -14 -1 -28l-123 -103q-15 -12 -28 0q-35 34 -67.5 50.5t-77.5 16.5q-80 0 -143 -66t-63 -151q0 -87 63 -153t144 -66q72 0 133 55v23h-126q-21 0 -21 20v135q0 21 20 21l275 -3q20 5 20 -17z" />
    <glyph glyph-name="gbreve" unicode="&#x11f;" 
d="M114 793q3 -71 59.5 -118t131.5 -47t131.5 47t60.5 118q2 29 -20 29h-82q-11 0 -21 -22q-19 -47 -69 -47t-70 47q-9 22 -19 22h-82q-22 0 -20 -29zM379 9q110 -16 155.5 -55t45.5 -128q0 -91 -80 -136.5t-206 -43.5q-112 2 -176.5 47.5t-56.5 127.5q6 70 98 92
q-122 28 -124 115q-2 50 28.5 79t87.5 25q-23 12 -47 49.5t-25 88.5q-2 96 62.5 163t159.5 67q24 0 94 -7.5t137 -4.5q8 1 14.5 -5t5.5 -15l-6 -79q-1 -11 -38 -20q22 -42 22 -103q0 -100 -64.5 -160t-163.5 -56q-25 1 -79 14q-16 4 -24 2.5t-10.5 -5t-1.5 -7.5
q1 -15 52 -24l78.5 -11.5t61.5 -9.5zM305 337q-25 0 -43 -18t-18 -44q0 -24 18.5 -41.5t42.5 -17.5q25 0 42 17.5t17 41.5q0 27 -17 44.5t-42 17.5zM302 -199q94 0 94 38q0 21 -31 29q-47 14 -101 22q-23 4 -36 -9t-13 -37q0 -23 20 -33t67 -10z" />
    <glyph glyph-name="Gdotaccent" unicode="&#x120;" horiz-adv-x="798" 
d="M437 880q-40 0 -67.5 28t-27.5 67t28 66.5t67 27.5q38 0 65.5 -28t27.5 -66q0 -39 -27.5 -67t-65.5 -28zM751 416v-281q3 -9 -6 -18q-56 -59 -131.5 -91.5t-158.5 -32.5q-171 0 -290.5 118.5t-119.5 288.5q0 169 119.5 288t290.5 119q83 0 159.5 -33t131.5 -92
q14 -14 -1 -28l-123 -103q-15 -12 -28 0q-35 34 -67.5 50.5t-77.5 16.5q-80 0 -143 -66t-63 -151q0 -87 63 -153t144 -66q72 0 133 55v23h-126q-21 0 -21 20v135q0 21 20 21l275 -3q20 5 20 -17z" />
    <glyph glyph-name="gdotaccent" unicode="&#x121;" 
d="M304 613q-40 0 -67.5 28t-27.5 67q0 38 27.5 66t67.5 28q38 0 65.5 -28t27.5 -66q0 -39 -27.5 -67t-65.5 -28zM379 9q110 -16 155.5 -55t45.5 -128q0 -91 -80 -136.5t-206 -43.5q-112 2 -176.5 47.5t-56.5 127.5q6 70 98 92q-122 28 -124 115q-2 50 28.5 79t87.5 25
q-23 12 -47 49.5t-25 88.5q-2 96 62.5 163t159.5 67q24 0 94 -7.5t137 -4.5q8 1 14.5 -5t5.5 -15l-6 -79q-1 -11 -38 -20q22 -42 22 -103q0 -100 -64.5 -160t-163.5 -56q-25 1 -79 14q-16 4 -24 2.5t-10.5 -5t-1.5 -7.5q1 -15 52 -24l78.5 -11.5t61.5 -9.5zM305 337
q-25 0 -43 -18t-18 -44q0 -24 18.5 -41.5t42.5 -17.5q25 0 42 17.5t17 41.5q0 27 -17 44.5t-42 17.5zM302 -199q94 0 94 38q0 21 -31 29q-47 14 -101 22q-23 4 -36 -9t-13 -37q0 -23 20 -33t67 -10z" />
    <glyph glyph-name="Gcommaaccent" unicode="&#x122;" horiz-adv-x="798" 
d="M751 416v-281q3 -9 -6 -18q-56 -59 -131.5 -91.5t-158.5 -32.5q-171 0 -290.5 118.5t-119.5 288.5q0 169 119.5 288t290.5 119q83 0 159.5 -33t131.5 -92q14 -14 -1 -28l-123 -103q-15 -12 -28 0q-35 34 -67.5 50.5t-77.5 16.5q-80 0 -143 -66t-63 -151q0 -87 63 -153
t144 -66q72 0 133 55v23h-126q-21 0 -21 20v135q0 21 20 21l275 -3q20 5 20 -17zM540 -164q23 -29 29 -66q10 -72 -12 -154q-16 -49 -50.5 -90t-71.5 -64q-16 -8 -26 3l-23 29q-7 10 0 15q81 62 93 145q-18 -5 -33 -5q-47 0 -81 35t-34 82q0 48 34 82t81 34q58 0 94 -46z
" />
    <glyph glyph-name="gcommaaccent" unicode="&#x123;" 
d="M236 661q-16 24 -21 54q-10 71 12 153q16 49 50 90t72 65q16 7 26 -3l24 -30q6 -8 0 -14q-82 -61 -94 -146q18 5 33 5q47 0 81 -34.5t34 -82.5q0 -47 -34 -81t-81 -34q-32 0 -59.5 16t-42.5 42zM379 9q110 -16 155.5 -55t45.5 -128q0 -91 -80 -136.5t-206 -43.5
q-112 2 -176.5 47.5t-56.5 127.5q6 70 98 92q-122 28 -124 115q-2 50 28.5 79t87.5 25q-23 12 -47 49.5t-25 88.5q-2 96 62.5 163t159.5 67q24 0 94 -7.5t137 -4.5q8 1 14.5 -5t5.5 -15l-6 -79q-1 -11 -38 -20q22 -42 22 -103q0 -100 -64.5 -160t-163.5 -56q-25 1 -79 14
q-16 4 -24 2.5t-10.5 -5t-1.5 -7.5q1 -15 52 -24l78.5 -11.5t61.5 -9.5zM305 337q-25 0 -43 -18t-18 -44q0 -24 18.5 -41.5t42.5 -17.5q25 0 42 17.5t17 41.5q0 27 -17 44.5t-42 17.5zM302 -199q94 0 94 38q0 21 -31 29q-47 14 -101 22q-23 4 -36 -9t-13 -37q0 -23 20 -33
t67 -10z" />
    <glyph glyph-name="Hbar" unicode="&#x126;" horiz-adv-x="835" 
d="M584 800h156q8 0 14 -6t6 -14v-759q0 -21 -19 -21h-125q-24 0 -38 15t-14 39v238h-294v-271q0 -8 -6 -14.5t-14 -6.5h-154q-9 0 -15 6t-6 15v759q0 8 5.5 14t14.5 6h154q8 0 14.5 -6t6.5 -14v-57h294v57q0 8 5.5 14t14.5 6zM270 488h294v57h-294v-57z" />
    <glyph glyph-name="hbar" unicode="&#x127;" horiz-adv-x="667" 
d="M616 26q2 -10 -1.5 -18t-11.5 -8h-133q-24 0 -37.5 15t-13.5 38v192q0 33 -16.5 51t-45.5 18q-40 0 -69 -26v-268q0 -8 -5.5 -14t-14.5 -6h-149q-13 0 -18 12q-2 4 -2 8v532h-48q-8 0 -14.5 6t-6.5 14v107q0 9 6 15t15 6h48q-1 20 -13 73q-2 11 2.5 19t14.5 8h125
q60 0 60 -59v-41h61q8 0 14 -5.5t6 -14.5l1 -107q0 -8 -6 -14.5t-15 -6.5h-61v-83q57 31 113 31q90 0 148.5 -55.5t58.5 -148.5v-202q0 -32 8 -68z" />
    <glyph glyph-name="Imacron" unicode="&#x12a;" horiz-adv-x="353" 
d="M-38 888v114q0 8 6 14t14 6h392q8 0 14 -5.5t6 -13.5v-114q0 -8 -6 -14.5t-14 -6.5h-392q-8 0 -14 6t-6 14zM252 800h-152q-9 0 -14.5 -6t-5.5 -14v-759q0 -9 6 -15t15 -6h152q8 0 14 6.5t6 14.5v759q0 8 -6.5 14t-14.5 6z" />
    <glyph glyph-name="imacron" unicode="&#x12b;" horiz-adv-x="339" 
d="M-46 628v114q0 8 6 14t14 6h392q8 0 14 -5.5t6 -13.5v-114q0 -8 -6 -14.5t-14 -6.5h-392q-8 0 -14 6t-6 14zM244 495h-149q-9 0 -14.5 -6t-5.5 -14v-421q0 -24 14 -39t38 -15h118q19 0 19 21v454q0 8 -6 14t-14 6z" />
    <glyph glyph-name="Iogonek" unicode="&#x12e;" horiz-adv-x="353" 
d="M100 800h152q8 0 14.5 -6t6.5 -14v-759q0 -8 -6 -14.5t-14 -6.5h-18q-126 -69 -126 -112q0 -14 10 -23t29 -9q30 0 69 14q12 4 21 -1t9 -16v-66q0 -14 -13 -23q-34 -25 -83.5 -32t-85.5 5q-88 26 -88 106q0 48 46.5 93t110.5 64h-33q-9 0 -15 6t-6 15v759q0 8 5.5 14
t14.5 6z" />
    <glyph glyph-name="iogonek" unicode="&#x12f;" horiz-adv-x="339" 
d="M170 613q-40 0 -67.5 28t-27.5 67q0 38 27.5 66t67.5 28q38 0 65.5 -28t27.5 -66q0 -39 -27.5 -67t-65.5 -28zM95 495h149q8 0 14 -6t6 -14v-454q0 -21 -19 -21q-126 -69 -126 -112q0 -14 10 -23t29 -9q30 0 69 14q12 4 21 -1t9 -16v-66q0 -14 -13 -23q-34 -25 -83.5 -32
t-85.5 5q-88 26 -88 106q0 48 46.5 93t110.5 64h-17q-24 0 -38 15t-14 39v421q0 8 5.5 14t14.5 6z" />
    <glyph glyph-name="Idotaccent" unicode="&#x130;" horiz-adv-x="353" 
d="M177 873q-40 0 -67.5 28t-27.5 67q0 38 28 66t67 28q38 0 65.5 -28t27.5 -66q0 -39 -27.5 -67t-65.5 -28zM252 800h-152q-9 0 -14.5 -6t-5.5 -14v-759q0 -9 6 -15t15 -6h152q8 0 14 6.5t6 14.5v759q0 8 -6.5 14t-14.5 6z" />
    <glyph glyph-name="dotlessi" unicode="&#x131;" horiz-adv-x="339" 
d="M244 495h-149q-9 0 -14.5 -6t-5.5 -14v-421q0 -24 14 -39t38 -15h118q19 0 19 21v454q0 8 -6 14t-14 6z" />
    <glyph glyph-name="IJ" unicode="&#x132;" horiz-adv-x="711" 
d="M252 800h-152q-9 0 -14.5 -6t-5.5 -14v-759q0 -9 6 -15t15 -6h152q8 0 14 6.5t6 14.5v759q0 8 -6.5 14t-14.5 6zM445 800h170q10 0 17 -7t7 -17v-870q-3 -173 -156 -249q-18 -8 -27 8l-76 141q-9 16 10 26q51 31 51 83v795q-1 26 -9 64q-2 10 1.5 18t11.5 8z" />
    <glyph glyph-name="ij" unicode="&#x133;" horiz-adv-x="664" 
d="M166 611q-40 0 -68 27.5t-28 67.5q0 39 28 67t68 28q38 0 66 -28t28 -67q0 -40 -28 -67.5t-66 -27.5zM498 607q-40 0 -68 28.5t-28 68.5t28 68t68 28t68 -28t28 -68t-28 -68.5t-68 -28.5zM240 495h-149q-9 0 -14.5 -6t-5.5 -14v-421q0 -24 14 -39t38 -15h118q19 0 19 21
v454q0 8 -6 14t-14 6zM573 495h-148q-9 0 -14.5 -6t-5.5 -14v-562q0 -49 -56 -83q-19 -10 -10 -26l76 -141q9 -16 27 -8q152 75 152 257v563q0 8 -6.5 14t-14.5 6z" />
    <glyph glyph-name="Kcommaaccent" unicode="&#x136;" horiz-adv-x="756" 
d="M378 415l333 -366q14 -16 7.5 -32.5t-27.5 -16.5h-154q-15 0 -24 10l-254 282v-271q0 -8 -6 -14.5t-14 -6.5h-153q-9 0 -15 6t-6 15v689q-1 26 -9 64q-2 10 1.5 18t11.5 8h165q11 0 18 -6.5t7 -16.5v-237l220 249q10 11 25 11h157q19 0 26.5 -15.5t-5.5 -29.5zM443 -164
q23 -29 29 -66q10 -72 -12 -154q-16 -49 -50.5 -90t-71.5 -64q-16 -8 -26 3l-23 29q-7 10 0 15q81 62 93 145q-18 -5 -33 -5q-47 0 -81 35t-34 82q0 48 34 82t81 34q58 0 94 -46z" />
    <glyph glyph-name="kcommaaccent" unicode="&#x137;" horiz-adv-x="649" 
d="M406 270l195 -223q13 -15 6 -30.5t-27 -15.5h-151q-16 0 -25 13l-141 171v-165q0 -8 -5.5 -14t-14.5 -6h-149q-8 0 -14 6t-6 14v671q0 20 -13 82q-2 11 2.5 19t14.5 8h125q60 0 60 -59v-391l116 132q12 13 27 13h143q20 0 26.5 -17t-7.5 -32zM393 -164q23 -29 29 -66
q10 -72 -12 -154q-16 -49 -50.5 -90t-71.5 -64q-16 -8 -26 3l-23 29q-7 10 0 15q81 62 93 145q-18 -5 -33 -5q-47 0 -81 35t-34 82q0 48 34 82t81 34q58 0 94 -46z" />
    <glyph glyph-name="Lacute" unicode="&#x139;" horiz-adv-x="627" 
d="M188 839l218 88q19 10 6 32l-72 119q-5 8 -14.5 8t-16.5 -6l-194 -129q-14 -9 -5 -24l49 -82q7 -16 29 -6zM259 176h293q8 0 14 -5.5t6 -14.5v-135q0 -8 -6 -14.5t-14 -6.5h-467q-8 0 -14 6t-6 15v759q0 8 5.5 14t14.5 6h153q8 0 14.5 -6t6.5 -14v-604z" />
    <glyph glyph-name="lacute" unicode="&#x13a;" horiz-adv-x="334" 
d="M100 847l218 88q19 10 6 32l-72 119q-5 8 -14.5 8t-16.5 -6l-194 -129q-14 -9 -5 -24l49 -82q7 -16 29 -6zM244 800h-149q-9 0 -14.5 -6t-5.5 -14v-726q0 -24 14 -39t38 -15h118q19 0 19 21v759q0 8 -6 14t-14 6z" />
    <glyph glyph-name="Lcommaaccent" unicode="&#x13b;" horiz-adv-x="627" 
d="M259 176h293q8 0 14 -5.5t6 -14.5v-135q0 -8 -6 -14.5t-14 -6.5h-467q-8 0 -14 6t-6 15v759q0 8 5.5 14t14.5 6h153q8 0 14.5 -6t6.5 -14v-604zM385 -164q23 -29 29 -66q10 -72 -12 -154q-16 -49 -50.5 -90t-71.5 -64q-16 -8 -26 3l-23 29q-7 10 0 15q81 62 93 145
q-18 -5 -33 -5q-47 0 -81 35t-34 82q0 48 34 82t81 34q58 0 94 -46z" />
    <glyph glyph-name="lcommaaccent" unicode="&#x13c;" horiz-adv-x="334" 
d="M245 0h-118q-24 0 -38 15t-14 39v726q0 8 5.5 14t14.5 6h149q8 0 14 -6t6 -14v-759q0 -21 -19 -21zM291 -230q10 -72 -12 -154q-16 -49 -50.5 -90t-71.5 -64q-16 -8 -26 3l-23 29q-7 10 0 15q81 62 93 145q-18 -5 -33 -5q-47 0 -81 35t-34 82q0 48 34 82t81 34
q58 0 94 -46q23 -29 29 -66z" />
    <glyph glyph-name="Lcaron" unicode="&#x13d;" horiz-adv-x="653" 
d="M589 689q10 -74 -11 -154q-16 -49 -50.5 -90t-71.5 -64q-17 -8 -27 3l-23 29q-7 10 0 15q81 60 94 145q-18 -5 -33 -5q-47 0 -81.5 35t-34.5 82q0 48 34.5 82t81.5 34q61 0 97 -51q21 -28 25 -61zM259 176h293q8 0 14 -5.5t6 -14.5v-135q0 -8 -6 -14.5t-14 -6.5h-467
q-8 0 -14 6t-6 15v759q0 8 5.5 14t14.5 6h153q8 0 14.5 -6t6.5 -14v-604z" />
    <glyph glyph-name="lcaron" unicode="&#x13e;" horiz-adv-x="623" 
d="M594 698q10 -72 -12 -154q-16 -49 -50.5 -90t-71.5 -64q-17 -9 -26 3l-24 29q-7 10 0 15q91 67 96 167q-15 -7 -35 -7q-39 0 -67 29t-28 68q1 40 28.5 68t66.5 28h6q-2 12 -3 19q46 0 79 -32.5t41 -78.5zM95 800h149q8 0 14 -6t6 -14v-759q0 -21 -19 -21h-118
q-24 0 -38 15t-14 39v726q0 8 5.5 14t14.5 6z" />
    <glyph glyph-name="Ldot" unicode="&#x13f;" horiz-adv-x="627" 
d="M259 176h293q8 0 14 -5.5t6 -14.5v-135q0 -8 -6 -14.5t-14 -6.5h-467q-8 0 -14 6t-6 15v759q0 8 5.5 14t14.5 6h153q8 0 14.5 -6t6.5 -14v-604zM447 275q-48 0 -81.5 34.5t-33.5 82.5t33.5 82t81.5 34t82.5 -34t34.5 -82q0 -47 -35 -82t-82 -35z" />
    <glyph glyph-name="ldot" unicode="&#x140;" horiz-adv-x="607" 
d="M244 800h-149q-9 0 -14.5 -6t-5.5 -14v-726q0 -24 14 -39t38 -15h118q19 0 19 21v759q0 8 -6 14t-14 6zM440 284q-47 0 -81 34.5t-34 82.5q0 47 34 81t81 34q48 0 82.5 -34t34.5 -81q0 -48 -34.5 -82.5t-82.5 -34.5z" />
    <glyph glyph-name="Lslash" unicode="&#x141;" horiz-adv-x="699" 
d="M331 176h293q8 0 14 -5.5t6 -14.5v-135q0 -8 -6 -14.5t-14 -6.5h-467q-20 0 -20 21v215l-9 -5q-18 -11 -29 7l-71 127q-10 19 9 31l100 55v329q0 8 5.5 14t14.5 6h153q8 0 14.5 -6t6.5 -14v-222l60 33q7 4 15.5 1.5t12.5 -9.5l71 -128q11 -20 -7 -29l-152 -83v-167z" />
    <glyph glyph-name="lslash" unicode="&#x142;" horiz-adv-x="397" 
d="M374 516l18 -29q15 -22 -10 -39l-89 -48v-379q0 -21 -19 -21h-118q-24 0 -38 15t-14 39v243l-43 -23q-25 -14 -39 11l-18 28q-11 24 13 39l87 47v381q0 8 5.5 14t14.5 6h149q8 0 14 -6t6 -14v-277l43 23q25 12 38 -10z" />
    <glyph glyph-name="Nacute" unicode="&#x143;" horiz-adv-x="850" 
d="M347 837l218 88q19 10 6 32l-72 119q-5 8 -14.5 8t-16.5 -6l-194 -129q-14 -9 -5 -24l49 -82q7 -16 29 -6zM601 799l153 1q8 0 14.5 -6t6.5 -15v-759q0 -8 -6 -14t-14 -6h-53q-53 0 -107 61l-327 368v-408q0 -8 -6 -14.5t-14 -6.5h-152q-9 0 -15 6t-6 15v759q0 8 6 14
t14 6h94q14 0 29 -16l363 -415v410q0 8 6 14t14 6z" />
    <glyph glyph-name="nacute" unicode="&#x144;" horiz-adv-x="628" 
d="M205 585l-49 82q-9 15 5 24l194 129q7 6 16.5 6t14.5 -8l72 -119q13 -22 -6 -32l-218 -88q-22 -10 -29 6zM577 26q2 -10 -1.5 -18t-11.5 -8h-133q-24 0 -37.5 15t-13.5 38v192q0 33 -16.5 51t-45.5 18q-40 0 -69 -26v-267q0 -8 -6 -14.5t-14 -6.5h-149q-20 0 -20 21v454
q0 8 5.5 14t13.5 6h120q3 -26 24 -42q69 47 139 47q90 0 148.5 -55.5t58.5 -148.5v-202q0 -32 8 -68z" />
    <glyph glyph-name="Ncommaaccent" unicode="&#x145;" horiz-adv-x="850" 
d="M601 799l153 1q8 0 14.5 -6t6.5 -15v-759q0 -8 -6 -14t-14 -6h-53q-53 0 -107 61l-327 368v-408q0 -8 -6 -14.5t-14 -6.5h-152q-9 0 -15 6t-6 15v759q0 8 6 14t14 6h94q14 0 29 -16l363 -415v410q0 8 6 14t14 6zM510 -164q23 -29 29 -66q10 -72 -12 -154
q-16 -49 -50.5 -90t-71.5 -64q-16 -8 -26 3l-23 29q-7 10 0 15q81 62 93 145q-18 -5 -33 -5q-47 0 -81 35t-34 82q0 48 34 82t81 34q58 0 94 -46z" />
    <glyph glyph-name="ncommaaccent" unicode="&#x146;" horiz-adv-x="628" 
d="M577 26q2 -10 -1.5 -18t-11.5 -8h-133q-24 0 -37.5 15t-13.5 38v192q0 33 -16.5 51t-45.5 18q-40 0 -69 -26v-267q0 -8 -6 -14.5t-14 -6.5h-149q-20 0 -20 21v454q0 8 5.5 14t13.5 6h120q3 -26 24 -42q69 47 139 47q90 0 148.5 -55.5t58.5 -148.5v-202q0 -32 8 -68z
M402 -164q23 -29 29 -66q10 -72 -12 -154q-16 -49 -50.5 -90t-71.5 -64q-16 -8 -26 3l-23 29q-7 10 0 15q81 62 93 145q-18 -5 -33 -5q-47 0 -81 35t-34 82q0 48 34 82t81 34q58 0 94 -46z" />
    <glyph glyph-name="Ncaron" unicode="&#x147;" horiz-adv-x="850" 
d="M434 843l187 103q14 7 14 20v109q0 16 -10 21t-24 -1l-180 -72l-181 72q-15 6 -25 1t-10 -21v-109q0 -12 15 -20l186 -103q14 -9 28 0zM601 799l153 1q8 0 14.5 -6t6.5 -15v-759q0 -8 -6 -14t-14 -6h-53q-53 0 -107 61l-327 368v-408q0 -8 -6 -14.5t-14 -6.5h-152
q-9 0 -15 6t-6 15v759q0 8 6 14t14 6h94q14 0 29 -16l363 -415v410q0 8 6 14t14 6z" />
    <glyph glyph-name="ncaron" unicode="&#x148;" horiz-adv-x="628" 
d="M292 585l-186 103q-15 8 -15 20v109q0 16 10 21t25 -1l181 -72l180 72q14 6 24 1t10 -21v-109q0 -13 -14 -20l-187 -103q-14 -9 -28 0zM577 26q2 -10 -1.5 -18t-11.5 -8h-133q-24 0 -37.5 15t-13.5 38v192q0 33 -16.5 51t-45.5 18q-40 0 -69 -26v-267q0 -8 -6 -14.5
t-14 -6.5h-149q-20 0 -20 21v454q0 8 5.5 14t13.5 6h120q3 -26 24 -42q69 47 139 47q90 0 148.5 -55.5t58.5 -148.5v-202q0 -32 8 -68z" />
    <glyph glyph-name="Eng" unicode="&#x14a;" horiz-adv-x="854" 
d="M599 799l155 1q9 0 15 -6t6 -15v-873q0 -172 -155 -249q-18 -8 -27 8l-76 141q-9 16 10 26q51 30 52 83v162l-304 347v-403q0 -8 -6 -14.5t-14 -6.5h-155q-9 0 -15 6t-6 15v759q0 8 6 14t14 6h95q13 0 24 -14l361 -417v410q0 8 6 14t14 6z" />
    <glyph glyph-name="eng" unicode="&#x14b;" horiz-adv-x="639" 
d="M362 500q90 0 148.5 -55.5t58.5 -148.5v-385q0 -177 -148 -248q-17 -8 -26 8l-75 137q-10 17 10 25q50 30 50 82v329q0 33 -16.5 51t-45.5 18q-40 0 -69 -26v-266q0 -8 -6 -14.5t-14 -6.5h-149q-20 0 -20 21v454q0 8 5.5 14t13.5 6h120q3 -26 24 -42q69 47 139 47z" />
    <glyph glyph-name="Omacron" unicode="&#x14c;" horiz-adv-x="936" 
d="M253 894v114q0 8 6 14t14 6h392q8 0 14 -5.5t6 -13.5v-114q0 -8 -6 -14.5t-14 -6.5h-392q-8 0 -14 6t-6 14zM469 -7q169 0 288 119t119 288t-119 288t-288 119q-170 0 -289.5 -119t-119.5 -288t119.5 -288t289.5 -119zM468 182q-84 0 -147 66t-63 153t63 152t147 65
q85 0 147.5 -65t62.5 -152t-62.5 -153t-147.5 -66z" />
    <glyph glyph-name="omacron" unicode="&#x14d;" 
d="M89 628v114q0 8 6 14t14 6h392q8 0 14 -5.5t6 -13.5v-114q0 -8 -6 -14.5t-14 -6.5h-392q-8 0 -14 6t-6 14zM305 -7q108 0 186.5 73.5t78.5 179.5q0 109 -78.5 182.5t-186.5 73.5q-109 0 -187 -73.5t-78 -182.5q0 -106 78.5 -179.5t186.5 -73.5zM305 162q-36 0 -60.5 25.5
t-24.5 58.5q0 34 24.5 60t60.5 26t60.5 -26t24.5 -60q0 -33 -24.5 -58.5t-60.5 -25.5z" />
    <glyph glyph-name="Ohungarumlaut" unicode="&#x150;" horiz-adv-x="936" 
d="M387 887h-106q-8 0 -14.5 6t-6.5 14v193q0 8 6 14.5t14 6.5h136q9 0 15.5 -6t5.5 -15l-30 -193q-4 -20 -20 -20zM626 887h-106q-8 0 -14.5 6t-6.5 14v193q0 8 6 14.5t14 6.5h136q9 0 15.5 -6t5.5 -15l-30 -193q-4 -20 -20 -20zM469 -7q169 0 288 119t119 288t-119 288
t-288 119q-170 0 -289.5 -119t-119.5 -288t119.5 -288t289.5 -119zM468 182q-84 0 -147 66t-63 153t63 152t147 65q85 0 147.5 -65t62.5 -152t-62.5 -153t-147.5 -66z" />
    <glyph glyph-name="ohungarumlaut" unicode="&#x151;" 
d="M223 621h-106q-8 0 -14.5 6t-6.5 14v193q0 8 6 14.5t14 6.5h136q9 0 15.5 -6t5.5 -15l-30 -193q-4 -20 -20 -20zM462 621h-106q-8 0 -14.5 6t-6.5 14v193q0 8 6 14.5t14 6.5h136q9 0 15.5 -6t5.5 -15l-30 -193q-4 -20 -20 -20zM305 -7q108 0 186.5 73.5t78.5 179.5
q0 109 -78.5 182.5t-186.5 73.5q-109 0 -187 -73.5t-78 -182.5q0 -106 78.5 -179.5t186.5 -73.5zM305 162q-36 0 -60.5 25.5t-24.5 58.5q0 34 24.5 60t60.5 26t60.5 -26t24.5 -60q0 -33 -24.5 -58.5t-60.5 -25.5z" />
    <glyph glyph-name="OE" unicode="&#x152;" horiz-adv-x="1426" 
d="M1340 624h-319v-146h170q8 0 14.5 -6t6.5 -14v-135q0 -9 -6 -15t-15 -6h-170v-126h319q8 0 14.5 -6t6.5 -14v-135q0 -9 -6 -15t-15 -6h-492q-9 0 -15 6t-6 15v185q-53 -97 -148.5 -155t-209.5 -58q-170 0 -289.5 119t-119.5 288t119.5 288t289.5 119q114 0 209.5 -58
t148.5 -155v186q0 8 5.5 14t14.5 6h493q8 0 14.5 -6t6.5 -14v-135q0 -9 -6 -15t-15 -6zM468 182q85 0 147.5 66t62.5 153t-62.5 152t-147.5 65q-84 0 -147 -65t-63 -152t63 -153t147 -66z" />
    <glyph glyph-name="oe" unicode="&#x153;" horiz-adv-x="918" 
d="M799 189h-236l-1 -4q9 -20 38 -33.5t63 -13.5q66 0 120 22q22 9 34 -11l26 -43q11 -17 -3 -36q-57 -76 -187 -76q-101 0 -174 62q-74 -63 -174 -63q-108 0 -186.5 73.5t-78.5 179.5q0 109 78 182.5t187 73.5q98 0 173 -61q69 61 162 61q108 0 175 -70.5t67 -164.5
q0 -35 -22 -56.5t-61 -21.5zM640 352q-30 0 -51 -12t-28 -27l2 -6h157q-3 16 -25 30.5t-55 14.5zM305 162q36 0 60.5 25.5t24.5 58.5q0 34 -24.5 60t-60.5 26t-60.5 -26t-24.5 -60q0 -33 24.5 -58.5t60.5 -25.5z" />
    <glyph glyph-name="Racute" unicode="&#x154;" horiz-adv-x="750" 
d="M260 845l-49 82q-9 15 5 24l194 129q7 6 16.5 6t14.5 -8l72 -119q13 -22 -6 -32l-218 -88q-22 -10 -29 6zM546 289l160 -265q6 -10 2 -17t-16 -7h-149q-20 0 -38.5 14t-26.5 29l-118 205h-106v-227q0 -8 -6 -14.5t-14 -6.5h-153q-9 0 -15 6t-6 15v759q0 8 5.5 14t14.5 6
h325q80 0 145 -44t97.5 -105.5t32.5 -122.5q0 -68 -36 -134t-98 -105zM254 624v-200h121q55 0 80.5 31t25.5 70q0 38 -26 68.5t-80 30.5h-121z" />
    <glyph glyph-name="racute" unicode="&#x155;" horiz-adv-x="501" 
d="M152 585l-49 82q-9 15 5 24l194 129q7 6 16.5 6t14.5 -8l72 -119q13 -22 -6 -32l-218 -88q-22 -10 -29 6zM466 469q22 -12 10 -35l-64 -115q-9 -17 -28 -7q-23 10 -55 10q-46 0 -80 -37v-264q0 -8 -6 -14.5t-14 -6.5h-149q-20 0 -20 21v454q0 8 5.5 14t13.5 6h120
q5 -27 24 -42q64 46 127 46q67 0 116 -30z" />
    <glyph glyph-name="Rcommaaccent" unicode="&#x156;" horiz-adv-x="750" 
d="M546 289l160 -265q6 -10 2 -17t-16 -7h-149q-20 0 -38.5 14t-26.5 29l-118 205h-106v-227q0 -8 -6 -14.5t-14 -6.5h-153q-9 0 -15 6t-6 15v759q0 8 5.5 14t14.5 6h325q80 0 145 -44t97.5 -105.5t32.5 -122.5q0 -68 -36 -134t-98 -105zM254 624v-200h121q55 0 80.5 31
t25.5 70q0 38 -26 68.5t-80 30.5h-121zM451 -164q23 -29 29 -66q10 -72 -12 -154q-16 -49 -50.5 -90t-71.5 -64q-16 -8 -26 3l-23 29q-7 10 0 15q81 62 93 145q-18 -5 -33 -5q-47 0 -81 35t-34 82q0 48 34 82t81 34q58 0 94 -46z" />
    <glyph glyph-name="rcommaaccent" unicode="&#x157;" horiz-adv-x="501" 
d="M466 469q22 -12 10 -35l-64 -115q-9 -17 -28 -7q-23 10 -55 10q-46 0 -80 -37v-264q0 -8 -6 -14.5t-14 -6.5h-149q-20 0 -20 21v454q0 8 5.5 14t13.5 6h120q5 -27 24 -42q64 46 127 46q67 0 116 -30zM319 -164q23 -29 29 -66q10 -72 -12 -154q-16 -49 -50.5 -90
t-71.5 -64q-16 -8 -26 3l-23 29q-7 10 0 15q81 62 93 145q-18 -5 -33 -5q-47 0 -81 35t-34 82q0 48 34 82t81 34q58 0 94 -46z" />
    <glyph glyph-name="Rcaron" unicode="&#x158;" horiz-adv-x="750" 
d="M347 845l-186 103q-15 8 -15 20v109q0 16 10 21t25 -1l181 -72l180 72q14 6 24 1t10 -21v-109q0 -13 -14 -20l-187 -103q-14 -9 -28 0zM546 289l160 -265q6 -10 2 -17t-16 -7h-149q-20 0 -38.5 14t-26.5 29l-118 205h-106v-227q0 -8 -6 -14.5t-14 -6.5h-153q-9 0 -15 6
t-6 15v759q0 8 5.5 14t14.5 6h325q80 0 145 -44t97.5 -105.5t32.5 -122.5q0 -68 -36 -134t-98 -105zM254 624v-200h121q55 0 80.5 31t25.5 70q0 38 -26 68.5t-80 30.5h-121z" />
    <glyph glyph-name="rcaron" unicode="&#x159;" horiz-adv-x="501" 
d="M455 688l-187 -103q-14 -9 -28 0l-186 103q-15 8 -15 20v109q0 16 10 21t25 -1l181 -72l180 72q14 6 24 1t10 -21v-109q0 -13 -14 -20zM466 469q22 -12 10 -35l-64 -115q-9 -17 -28 -7q-23 10 -55 10q-46 0 -80 -37v-264q0 -8 -6 -14.5t-14 -6.5h-149q-20 0 -20 21v454
q0 8 5.5 14t13.5 6h120q5 -27 24 -42q64 46 127 46q67 0 116 -30z" />
    <glyph glyph-name="Sacute" unicode="&#x15a;" horiz-adv-x="643" 
d="M247 845l218 88q19 10 6 32l-72 119q-5 8 -14.5 8t-16.5 -6l-194 -129q-14 -9 -5 -24l49 -82q7 -16 29 -6zM53 140l76 106q8 11 21 12.5t19 -5.5q2 -1 13 -10.5l16.5 -14t17.5 -13t21 -13t21.5 -10t26 -8t26.5 -2.5q36 0 62 15.5t26 40.5q0 17 -14 29.5t-46 28.5
q-139 73 -178 100q-96 68 -103 158q-1 9 -1 18q0 94 76 165t203 71q113 0 224 -83q4 -3 6 -4q22 -17 6 -38l-77 -107q-19 -27 -43 -12q-83 54 -135 54q-25 0 -43.5 -13.5t-18.5 -31.5q0 -19 12 -29.5t50 -28.5l40.5 -20t42 -21l37.5 -20t38.5 -22.5l32.5 -23.5t31 -27.5
l23.5 -29.5t20 -35t10.5 -38.5t5 -44.5q0 -100 -79.5 -170t-200.5 -70q-25 0 -48.5 3t-44 8.5t-38.5 12t-34 15.5l-28 16t-24.5 17l-19 15t-15.5 13.5t-10 9.5q-19 17 -3 37z" />
    <glyph glyph-name="sacute" unicode="&#x15b;" horiz-adv-x="483" 
d="M164 579l218 88q19 10 6 32l-72 119q-5 8 -14.5 8t-16.5 -6l-194 -129q-14 -9 -5 -24l49 -82q7 -16 29 -6zM47 76l52 83q13 20 32 10q70 -41 105 -42q35 -2 35 21q0 11 -13 18t-61 21q-68 20 -108 61.5t-41 96.5q-1 63 51 110t139 47q50 0 85.5 -12.5t77.5 -37.5
q21 -13 11 -27l-57 -87q-10 -14 -26 -6q-61 34 -88 34q-34 0 -34 -23q0 -11 13 -17.5t46 -15.5q76 -21 124 -62t48 -103q0 -65 -56.5 -108.5t-145.5 -43.5q-53 0 -105 20t-78 39q-15 11 -6 24z" />
    <glyph glyph-name="Scedilla" unicode="&#x15e;" horiz-adv-x="643" 
d="M598 233q0 -87 -61 -152.5t-160 -82.5l-31 -67q42 -12 69.5 -46.5t27.5 -78.5q0 -53 -40 -92t-95 -39q-59 0 -97 45q-7 8 2 17l46 45q8 8 18 0q18 -10 30 -10q16 0 26 9.5t10 24.5q0 14 -10 24t-26 10t-33 -15q-7 -7 -14 -1l-53 44q-6 6 -2 14l1 2l56 113q-24 4 -47 10.5
t-42.5 15.5t-34.5 17t-29.5 19.5t-22 17t-18.5 15.5t-12 11q-19 17 -3 37l76 106q8 11 21 12.5t19 -5.5q2 -1 13 -10.5l16.5 -14t17.5 -13t21 -13t21.5 -10t26 -8t26.5 -2.5q36 0 62 15.5t26 40.5q0 17 -14 29.5t-46 28.5q-139 73 -178 100q-96 68 -103 158q-1 9 -1 18
q0 94 76 165t203 71q113 0 224 -83q4 -3 6 -4q22 -17 6 -38l-77 -107q-19 -27 -43 -12q-83 54 -135 54q-25 0 -43.5 -13.5t-18.5 -31.5q0 -19 12 -29.5t50 -28.5l40.5 -20t42 -21l37.5 -20t38.5 -22.5l32.5 -23.5t31 -27.5l23.5 -29.5t20 -35t10.5 -38.5t5 -44.5z" />
    <glyph glyph-name="scedilla" unicode="&#x15f;" horiz-adv-x="483" 
d="M438 145q0 -52 -37 -91.5t-100 -53.5l-32 -69q42 -12 69.5 -46.5t27.5 -78.5q0 -53 -40 -92t-95 -39q-59 0 -97 45q-7 8 2 17l46 45q8 8 18 0q18 -10 30 -10q16 0 26 9.5t10 24.5q0 14 -10 24t-26 10t-33 -15q-7 -7 -14 -1l-53 44q-6 6 -2 14l1 2l56 114q-79 15 -132 54
q-15 11 -6 24l52 83q13 20 32 10q70 -41 105 -42q35 -2 35 21q0 11 -13 18t-61 21q-68 20 -108 61.5t-41 96.5q-1 63 51 110t139 47q50 0 85.5 -12.5t77.5 -37.5q21 -13 11 -27l-57 -87q-10 -14 -26 -6q-61 34 -88 34q-34 0 -34 -23q0 -11 13 -17.5t46 -15.5q76 -21 124 -62
t48 -103z" />
    <glyph glyph-name="Scaron" unicode="&#x160;" horiz-adv-x="643" 
d="M333 851l187 103q14 7 14 20v109q0 16 -10 21t-24 -1l-180 -72l-181 72q-15 6 -25 1t-10 -21v-109q0 -12 15 -20l186 -103q14 -9 28 0zM53 140l76 106q8 11 21 12.5t19 -5.5q2 -1 13 -10.5l16.5 -14t17.5 -13t21 -13t21.5 -10t26 -8t26.5 -2.5q36 0 62 15.5t26 40.5
q0 17 -14 29.5t-46 28.5q-139 73 -178 100q-96 68 -103 158q-1 9 -1 18q0 94 76 165t203 71q113 0 224 -83q4 -3 6 -4q22 -17 6 -38l-77 -107q-19 -27 -43 -12q-83 54 -135 54q-25 0 -43.5 -13.5t-18.5 -31.5q0 -19 12 -29.5t50 -28.5l40.5 -20t42 -21l37.5 -20t38.5 -22.5
l32.5 -23.5t31 -27.5l23.5 -29.5t20 -35t10.5 -38.5t5 -44.5q0 -100 -79.5 -170t-200.5 -70q-25 0 -48.5 3t-44 8.5t-38.5 12t-34 15.5l-28 16t-24.5 17l-19 15t-15.5 13.5t-10 9.5q-19 17 -3 37z" />
    <glyph glyph-name="scaron" unicode="&#x161;" horiz-adv-x="483" 
d="M251 585l187 103q14 7 14 20v109q0 16 -10 21t-24 -1l-180 -72l-181 72q-15 6 -25 1t-10 -21v-109q0 -12 15 -20l186 -103q14 -9 28 0zM47 76l52 83q13 20 32 10q70 -41 105 -42q35 -2 35 21q0 11 -13 18t-61 21q-68 20 -108 61.5t-41 96.5q-1 63 51 110t139 47
q50 0 85.5 -12.5t77.5 -37.5q21 -13 11 -27l-57 -87q-10 -14 -26 -6q-61 34 -88 34q-34 0 -34 -23q0 -11 13 -17.5t46 -15.5q76 -21 124 -62t48 -103q0 -65 -56.5 -108.5t-145.5 -43.5q-53 0 -105 20t-78 39q-15 11 -6 24z" />
    <glyph glyph-name="Tcedilla" unicode="&#x162;" horiz-adv-x="740" 
d="M70 800h600q8 0 14 -5.5t6 -14.5v-135q0 -8 -6 -14.5t-14 -6.5h-203v-603q0 -21 -19 -21h-20l-32 -69q42 -12 69.5 -46.5t27.5 -78.5q0 -53 -40 -92t-95 -39q-59 0 -97 45q-7 8 2 17l46 45q8 8 18 0q18 -10 30 -10q16 0 26 9.5t10 24.5q0 14 -10 24t-26 10t-33 -15
q-7 -7 -14 -1l-53 44q-6 6 -2 14l1 2l57 116h12q-24 0 -38 15t-14 39v570h-203q-8 0 -14.5 6t-6.5 14v135q0 9 6 15t15 6z" />
    <glyph glyph-name="tcedilla" unicode="&#x163;" horiz-adv-x="491" 
d="M400 171l49 -111q5 -11 -7 -23q-30 -26 -79 -37h3l-32 -69q42 -12 69.5 -46.5t27.5 -78.5q0 -53 -40 -92t-95 -39q-59 0 -97 45q-7 8 2 17l46 45q8 8 18 0q18 -10 30 -10q16 0 26 9.5t10 24.5q0 14 -10 24t-26 10t-33 -15q-7 -7 -14 -1l-53 44q-6 6 -2 14l1 2l57 116h5
q-67 15 -105 64t-38 129v131h-53q-8 0 -14 6.5t-6 14.5v33q0 17 9 28q138 161 185 225q14 20 28 20h24q8 0 13.5 -6t5.5 -14v-136h88q9 0 15 -6t6 -15v-130q0 -8 -6.5 -14t-14.5 -6h-68q-15 0 -23 1v-107q0 -40 33 -45q17 -2 39 8q19 9 26 -10z" />
    <glyph glyph-name="Tcaron" unicode="&#x164;" horiz-adv-x="740" 
d="M355 838l-186 103q-15 7 -15 20v109q0 16 10 21t25 -1l181 -72l180 72q14 6 24 1t10 -21v-109q0 -13 -14 -20l-187 -103q-14 -9 -28 0zM70 800h600q8 0 14 -5.5t6 -14.5v-135q0 -8 -6 -14.5t-14 -6.5h-203v-603q0 -21 -19 -21h-123q-24 0 -38 15t-14 39v570h-203
q-8 0 -14.5 6t-6.5 14v135q0 9 6 15t15 6z" />
    <glyph glyph-name="tcaron" unicode="&#x165;" horiz-adv-x="644" 
d="M635 695q10 -72 -12 -154q-16 -49 -50.5 -90t-71.5 -64q-17 -9 -26 3l-24 29q-7 10 0 15q82 61 94 145q-18 -5 -33 -5q-47 0 -81 35t-34 82q0 48 34 82t81 34q56 0 92 -44q25 -30 31 -68zM400 171l49 -111q5 -11 -7 -23q-23 -20 -58.5 -31.5t-68.5 -11.5q-93 0 -147.5 51
t-54.5 148v131h-53q-8 0 -14 6.5t-6 14.5v33q0 17 9 28q138 161 185 225q14 20 28 20h24q8 0 13.5 -6t5.5 -14v-136h88q9 0 15 -6t6 -15v-130q0 -8 -6.5 -14t-14.5 -6h-68q-15 0 -23 1v-107q0 -40 33 -45q17 -2 39 8q19 9 26 -10z" />
    <glyph glyph-name="Tbar" unicode="&#x166;" horiz-adv-x="740" 
d="M70 800h600q8 0 14 -5.5t6 -14.5v-135q0 -8 -6 -14.5t-14 -6.5h-203v-145h132q15 0 15 -16v-111q0 -7 -4.5 -12t-10.5 -5h-132v-314q0 -21 -19 -21h-123q-24 0 -38 15t-14 39v281h-131q-7 0 -12 4.5t-5 11.5v111q0 7 5 12t12 5h131v145h-203q-8 0 -14.5 6t-6.5 14v135
q0 9 6 15t15 6z" />
    <glyph glyph-name="tbar" unicode="&#x167;" horiz-adv-x="491" 
d="M400 171l49 -111q5 -11 -7 -23q-23 -20 -58.5 -31.5t-68.5 -11.5q-93 0 -147.5 51t-54.5 148v19h-53q-20 0 -20 14v58q0 6 6 11t14 5h53v24h-53q-8 0 -14 6.5t-6 14.5v33q0 17 9 28q138 161 185 225q14 20 28 20h24q8 0 13.5 -6t5.5 -14v-136h88q9 0 15 -6t6 -15v-130
q0 -8 -6.5 -14t-14.5 -6h-68q-15 0 -23 1v-25h90q8 0 14.5 -4.5t6.5 -10.5v-58q0 -15 -21 -15h-90q3 -34 33 -39q17 -2 39 8q19 9 26 -10z" />
    <glyph glyph-name="Utilde" unicode="&#x168;" horiz-adv-x="790" 
d="M169 928l55 -65q13 -16 26 -1q31 35 66 35q33 0 74.5 -25.5t89.5 -25.5q84 0 147 74q14 14 3 30l-50 76q-14 18 -35 -1q-39 -31 -75 -31q-27 0 -72.5 27t-83.5 27q-22 0 -42 -6.5t-34 -15t-27.5 -20.5t-20.5 -21l-14 -18l-6 -9q-13 -16 -1 -30zM700 800h-154
q-9 0 -14.5 -6t-5.5 -14v-463q0 -60 -32.5 -99.5t-100.5 -39.5t-98.5 39t-30.5 100v463q0 8 -6 14t-14 6h-154q-9 0 -14.5 -6t-5.5 -14v-492q1 -127 87 -211t236 -84q151 0 238.5 84t88.5 211v492q0 8 -6 14t-14 6z" />
    <glyph glyph-name="utilde" unicode="&#x169;" horiz-adv-x="623" 
d="M129 604l-55 65q-12 14 1 30l7 9q6 9 13 18t20.5 21t27.5 20.5t34 15t42 6.5q38 0 83.5 -27t72.5 -27q36 0 75 31q21 20 35 1l50 -76q11 -16 -3 -30q-63 -74 -147 -74q-48 0 -89.5 25.5t-74.5 25.5q-35 0 -66 -35q-13 -15 -26 1zM399 495h149q20 0 20 -21v-454
q0 -8 -5.5 -14t-13.5 -6h-122q-3 26 -22 42q-69 -48 -140 -48q-89 0 -147.5 56.5t-58.5 148.5v206q0 32 -8 68q-2 10 1.5 18t11.5 8h133q24 0 37.5 -15t13.5 -38v-194q0 -33 16.5 -51t46.5 -18q41 0 68 30v261q0 8 6 14.5t14 6.5z" />
    <glyph glyph-name="Umacron" unicode="&#x16a;" horiz-adv-x="790" 
d="M180 887v114q0 8 6 14t14 6h392q8 0 14 -5.5t6 -13.5v-114q0 -8 -6 -14.5t-14 -6.5h-392q-8 0 -14 6t-6 14zM700 800h-154q-9 0 -14.5 -6t-5.5 -14v-463q0 -60 -32.5 -99.5t-100.5 -39.5t-98.5 39t-30.5 100v463q0 8 -6 14t-14 6h-154q-9 0 -14.5 -6t-5.5 -14v-492
q1 -127 87 -211t236 -84q151 0 238.5 84t88.5 211v492q0 8 -6 14t-14 6z" />
    <glyph glyph-name="umacron" unicode="&#x16b;" horiz-adv-x="623" 
d="M497 608h-392q-8 0 -14 6t-6 14v114q0 8 6 14t14 6h392q8 0 14 -5.5t6 -13.5v-114q0 -8 -6 -14.5t-14 -6.5zM399 495h149q20 0 20 -21v-454q0 -8 -5.5 -14t-13.5 -6h-122q-3 26 -22 42q-69 -48 -140 -48q-89 0 -147.5 56.5t-58.5 148.5v206q0 32 -8 68q-2 10 1.5 18
t11.5 8h133q24 0 37.5 -15t13.5 -38v-194q0 -33 16.5 -51t46.5 -18q41 0 68 30v261q0 8 6 14.5t14 6.5z" />
    <glyph glyph-name="Ubreve" unicode="&#x16c;" horiz-adv-x="790" 
d="M205 1052q3 -71 59.5 -118t131.5 -47t131.5 47t60.5 118q2 29 -20 29h-82q-11 0 -21 -22q-19 -47 -69 -47t-70 47q-9 22 -19 22h-82q-22 0 -20 -29zM700 800h-154q-9 0 -14.5 -6t-5.5 -14v-463q0 -60 -32.5 -99.5t-100.5 -39.5t-98.5 39t-30.5 100v463q0 8 -6 14t-14 6
h-154q-9 0 -14.5 -6t-5.5 -14v-492q1 -127 87 -211t236 -84q151 0 238.5 84t88.5 211v492q0 8 -6 14t-14 6z" />
    <glyph glyph-name="ubreve" unicode="&#x16d;" horiz-adv-x="623" 
d="M301 628q-75 0 -131.5 47t-59.5 118q-2 29 20 29h82q10 0 19 -22q20 -47 70 -47t69 47q10 22 21 22h82q22 0 20 -29q-4 -71 -60.5 -118t-131.5 -47zM399 495h149q20 0 20 -21v-454q0 -8 -5.5 -14t-13.5 -6h-122q-3 26 -22 42q-69 -48 -140 -48q-89 0 -147.5 56.5
t-58.5 148.5v206q0 32 -8 68q-2 10 1.5 18t11.5 8h133q24 0 37.5 -15t13.5 -38v-194q0 -33 16.5 -51t46.5 -18q41 0 68 30v261q0 8 6 14.5t14 6.5z" />
    <glyph glyph-name="Uring" unicode="&#x16e;" horiz-adv-x="790" 
d="M396 815q-51 0 -88 37t-37 88q0 52 37 88.5t88 36.5t88 -36.5t37 -88.5q0 -51 -37 -88t-88 -37zM396 905q14 0 25.5 10.5t11.5 24.5q0 15 -11.5 26t-25.5 11q-15 0 -26 -11t-11 -26q0 -14 11 -24.5t26 -10.5zM700 800h-154q-9 0 -14.5 -6t-5.5 -14v-463
q0 -60 -32.5 -99.5t-100.5 -39.5t-98.5 39t-30.5 100v463q0 8 -6 14t-14 6h-154q-9 0 -14.5 -6t-5.5 -14v-492q1 -127 87 -211t236 -84q151 0 238.5 84t88.5 211v492q0 8 -6 14t-14 6z" />
    <glyph glyph-name="uring" unicode="&#x16f;" horiz-adv-x="623" 
d="M301 556q-51 0 -88 37t-37 88q0 52 37 88.5t88 36.5t88 -36.5t37 -88.5q0 -51 -37 -88t-88 -37zM301 718q-15 0 -26 -11t-11 -26q0 -14 11 -24.5t26 -10.5q14 0 25.5 10.5t11.5 24.5q0 15 -11.5 26t-25.5 11zM399 495h149q20 0 20 -21v-454q0 -8 -5.5 -14t-13.5 -6h-122
q-3 26 -22 42q-69 -48 -140 -48q-89 0 -147.5 56.5t-58.5 148.5v206q0 32 -8 68q-2 10 1.5 18t11.5 8h133q24 0 37.5 -15t13.5 -38v-194q0 -33 16.5 -51t46.5 -18q41 0 68 30v261q0 8 6 14.5t14 6.5z" />
    <glyph glyph-name="Uhungarumlaut" unicode="&#x170;" horiz-adv-x="790" 
d="M314 880h-106q-8 0 -14.5 6t-6.5 14v193q0 8 6 14.5t14 6.5h136q9 0 15.5 -6t5.5 -15l-30 -193q-4 -20 -20 -20zM553 880h-106q-8 0 -14.5 6t-6.5 14v193q0 8 6 14.5t14 6.5h136q9 0 15.5 -6t5.5 -15l-30 -193q-4 -20 -20 -20zM700 800h-154q-9 0 -14.5 -6t-5.5 -14v-463
q0 -60 -32.5 -99.5t-100.5 -39.5t-98.5 39t-30.5 100v463q0 8 -6 14t-14 6h-154q-9 0 -14.5 -6t-5.5 -14v-492q1 -127 87 -211t236 -84q151 0 238.5 84t88.5 211v492q0 8 -6 14t-14 6z" />
    <glyph glyph-name="uhungarumlaut" unicode="&#x171;" horiz-adv-x="623" 
d="M219 621h-106q-8 0 -14.5 6t-6.5 14v193q0 8 6 14.5t14 6.5h136q9 0 15.5 -6t5.5 -15l-30 -193q-4 -20 -20 -20zM458 621h-106q-8 0 -14.5 6t-6.5 14v193q0 8 6 14.5t14 6.5h136q9 0 15.5 -6t5.5 -15l-30 -193q-4 -20 -20 -20zM399 495h149q20 0 20 -21v-454
q0 -8 -5.5 -14t-13.5 -6h-122q-3 26 -22 42q-69 -48 -140 -48q-89 0 -147.5 56.5t-58.5 148.5v206q0 32 -8 68q-2 10 1.5 18t11.5 8h133q24 0 37.5 -15t13.5 -38v-194q0 -33 16.5 -51t46.5 -18q41 0 68 30v261q0 8 6 14.5t14 6.5z" />
    <glyph glyph-name="Uogonek" unicode="&#x172;" horiz-adv-x="790" 
d="M546 800h154q8 0 14 -6t6 -14v-492q-1 -108 -66.5 -187.5t-180.5 -100.5q-126 -69 -126 -112q0 -14 10 -23t29 -9q30 0 69 14q12 4 21 -1t9 -16v-66q0 -14 -13 -23q-34 -25 -83.5 -32t-85.5 5q-88 26 -88 106q0 45 41 87t100 64q-134 11 -209.5 93t-76.5 201v492
q0 8 5.5 14t14.5 6h154q8 0 14 -6t6 -14v-463q0 -61 30.5 -100t98.5 -39t100.5 39.5t32.5 99.5v463q0 8 5.5 14t14.5 6z" />
    <glyph glyph-name="uogonek" unicode="&#x173;" horiz-adv-x="623" 
d="M399 495h149q20 0 20 -21v-454q0 -8 -5.5 -14t-13.5 -6q-126 -69 -126 -112q0 -14 10 -23t29 -9q30 0 69 14q12 4 21 -1t9 -16v-66q0 -14 -13 -23q-34 -25 -83.5 -32t-85.5 5q-88 26 -88 106q0 48 46.5 93t110.5 64h-21q-3 26 -22 42q-69 -48 -140 -48q-89 0 -147.5 56.5
t-58.5 148.5v206q0 32 -8 68q-2 10 1.5 18t11.5 8h133q24 0 37.5 -15t13.5 -38v-194q0 -33 16.5 -51t46.5 -18q41 0 68 30v261q0 8 6 14.5t14 6.5z" />
    <glyph glyph-name="Wcircumflex" unicode="&#x174;" horiz-adv-x="1149" 
d="M574 904l-176 -70q-39 -15 -39 18v109q0 13 15 20l186 103q16 9 28 0l187 -103q15 -7 15 -20v-109q0 -34 -40 -18zM939 800h165q11 0 17 -7.5t0 -20.5l-373 -759q-10 -21 -23 -21h-11q-12 0 -23 21l-113 230l-111 -230q-8 -21 -22 -21h-12q-13 0 -23 21l-381 760
q-5 13 0 20t16 7h165q14 0 26 -25l203 -416l39 87l-161 327q-5 13 0 20t16 7h165q14 0 26 -25l52 -111l50 111q11 25 25 25h165q11 0 17 -7.5t0 -20.5l-156 -323l42 -90l195 416q11 25 25 25z" />
    <glyph glyph-name="wcircumflex" unicode="&#x175;" horiz-adv-x="809" 
d="M405 646l-176 -70q-39 -15 -39 18v109q0 13 15 20l186 103q16 9 28 0l187 -103q15 -7 15 -20v-109q0 -34 -40 -18zM610 495h156q11 0 15.5 -6.5t0.5 -17.5l-181 -458q-6 -13 -20 -13h-49q-13 0 -20 13l-108 211l-108 -211q-7 -13 -20 -13h-48q-14 0 -20 13l-181 458
q-9 24 15 24h157q19 0 24 -15l59 -175l89 174q7 15 24 15h18q17 0 24 -15l89 -174l60 175q5 15 24 15z" />
    <glyph glyph-name="Ycircumflex" unicode="&#x176;" horiz-adv-x="783" 
d="M378 1087l-186 -103q-15 -8 -15 -20v-109q0 -33 39 -18l176 70l176 -70q40 -16 40 18v109q0 12 -15 20l-187 103q-12 9 -28 0zM572 800h183q9 0 12 -6.5t-2 -14.5l-275 -419v-339q0 -21 -19 -21h-123q-24 0 -38 15t-14 39v303l-277 422q-5 8 -2 14.5t12 6.5h184
q3 0 5.5 -1t5 -3.5t3.5 -4t4 -6.5t4 -6l157 -238l157 238q13 21 23 21z" />
    <glyph glyph-name="ycircumflex" unicode="&#x177;" horiz-adv-x="650" 
d="M316 826l-186 -103q-15 -7 -15 -20v-109q0 -33 39 -18l176 70l176 -70q40 -16 40 18v109q0 13 -15 20l-187 103q-12 9 -28 0zM450 495h156q12 0 16.5 -6.5t-1.5 -17.5l-192 -392q-130 -264 -238 -394q-15 -18 -39 0l-90 83q-19 16 1 41q121 142 171 276l-206 386
q-6 11 -1.5 17.5t16.5 6.5h155q16 0 23 -15l105 -211l100 211q6 15 24 15z" />
    <glyph glyph-name="Ydieresis" unicode="&#x178;" horiz-adv-x="783" 
d="M243 868q-40 0 -68.5 29.5t-28.5 68.5q0 40 28 68.5t69 28.5t69.5 -28.5t28.5 -68.5q0 -39 -29 -68.5t-69 -29.5zM540 868q-40 0 -68.5 29.5t-28.5 68.5q0 41 28 69t69 28q40 0 69.5 -28.5t29.5 -68.5q0 -39 -29.5 -68.5t-69.5 -29.5zM572 800h183q9 0 12 -6.5t-2 -14.5
l-275 -419v-339q0 -21 -19 -21h-123q-24 0 -38 15t-14 39v303l-277 422q-5 8 -2 14.5t12 6.5h184q3 0 5.5 -1t5 -3.5t3.5 -4t4 -6.5t4 -6l157 -238l157 238q13 21 23 21z" />
    <glyph glyph-name="Zacute" unicode="&#x179;" horiz-adv-x="663" 
d="M228 843l-49 82q-9 15 5 24l194 129q7 6 16.5 6t14.5 -8l72 -119q13 -22 -6 -32l-218 -88q-22 -10 -29 6zM628 780v-29v-1l-290 -554h266q8 0 14 -5.5t6 -14.5v-125q0 -23 -13.5 -37t-36.5 -14h-518q-8 0 -14.5 6.5t-6.5 13.5v29l29 53l265 502h-270q-8 0 -14 5.5
t-6 14.5v155q0 8 6 14.5t14 6.5h548q8 0 14.5 -6.5t6.5 -13.5z" />
    <glyph glyph-name="zacute" unicode="&#x17a;" horiz-adv-x="535" 
d="M194 579l218 88q19 10 6 32l-72 119q-5 8 -14.5 8t-16.5 -6l-194 -129q-14 -9 -5 -24l49 -82q7 -16 29 -6zM323 189h134q8 0 14 -5.5t6 -14.5v-148q0 -8 -6 -14.5t-14 -6.5h-384q-10 0 -17 8t-6 16l2 38l159 244h-133q-8 0 -14 5.5t-6 14.5v148q0 8 6 14.5t14 6.5h385
q9 0 15.5 -7.5t5.5 -15.5l-1 -38z" />
    <glyph glyph-name="Zdotaccent" unicode="&#x17b;" horiz-adv-x="663" 
d="M330 871q-40 0 -67.5 28t-27.5 67q0 38 27.5 66t67.5 28q38 0 65.5 -28t27.5 -66q0 -39 -27.5 -67t-65.5 -28zM628 780v-29v-1l-290 -554h266q8 0 14 -5.5t6 -14.5v-125q0 -23 -13.5 -37t-36.5 -14h-518q-8 0 -14.5 6.5t-6.5 13.5v29l29 53l265 502h-270q-8 0 -14 5.5
t-6 14.5v155q0 8 6 14.5t14 6.5h548q8 0 14.5 -6.5t6.5 -13.5z" />
    <glyph glyph-name="zdotaccent" unicode="&#x17c;" horiz-adv-x="535" 
d="M267 613q-40 0 -67.5 28t-27.5 67q0 38 28 66t67 28q38 0 65.5 -28t27.5 -66q0 -39 -27.5 -67t-65.5 -28zM323 189h134q8 0 14 -5.5t6 -14.5v-148q0 -8 -6 -14.5t-14 -6.5h-384q-10 0 -17 8t-6 16l2 38l159 244h-133q-8 0 -14 5.5t-6 14.5v148q0 8 6 14.5t14 6.5h385
q9 0 15.5 -7.5t5.5 -15.5l-1 -38z" />
    <glyph glyph-name="Zcaron" unicode="&#x17d;" horiz-adv-x="663" 
d="M315 843l-186 103q-15 8 -15 20v109q0 16 10 21t25 -1l181 -72l180 72q14 6 24 1t10 -21v-109q0 -13 -14 -20l-187 -103q-14 -9 -28 0zM628 780v-29v-1l-290 -554h266q8 0 14 -5.5t6 -14.5v-125q0 -23 -13.5 -37t-36.5 -14h-518q-8 0 -14.5 6.5t-6.5 13.5v29l29 53
l265 502h-270q-8 0 -14 5.5t-6 14.5v155q0 8 6 14.5t14 6.5h548q8 0 14.5 -6.5t6.5 -13.5z" />
    <glyph glyph-name="zcaron" unicode="&#x17e;" horiz-adv-x="535" 
d="M280 585l187 103q14 7 14 20v109q0 16 -10 21t-24 -1l-180 -72l-181 72q-15 6 -25 1t-10 -21v-109q0 -12 15 -20l186 -103q14 -9 28 0zM323 189h134q8 0 14 -5.5t6 -14.5v-148q0 -8 -6 -14.5t-14 -6.5h-384q-10 0 -17 8t-6 16l2 38l159 244h-133q-8 0 -14 5.5t-6 14.5
v148q0 8 6 14.5t14 6.5h385q9 0 15.5 -7.5t5.5 -15.5l-1 -38z" />
    <glyph glyph-name="florin" unicode="&#x192;" horiz-adv-x="582" 
d="M423 641q-34 -5 -34 -46v-94h78q8 0 14.5 -6t6.5 -14v-142q0 -9 -6 -15t-15 -6h-78v-544q-2 -94 -60 -145t-151 -51q-77 0 -129 44q-14 12 -7 25l56 110q11 18 27 10q20 -13 34 -10q34 5 34 46v515h-69q-8 0 -14 5.5t-6 14.5v142q0 8 6 14.5t14 6.5h69v118q0 96 58 148.5
t153 52.5q77 0 129 -44q14 -12 7 -25l-56 -110q-9 -18 -27 -10q-20 13 -34 10z" />
    <glyph glyph-name="Acaron" unicode="&#x1cd;" horiz-adv-x="874" 
d="M423 864l-186 103q-15 7 -15 20v109q0 16 10 21t25 -1l181 -72l180 72q14 6 24 1t10 -21v-109q0 -13 -14 -20l-187 -103q-14 -9 -28 0zM457 794l374 -771q5 -10 1 -16.5t-15 -6.5h-164q-15 0 -21 13l-41 89h-308l-41 -89q-6 -13 -21 -13h-164q-10 0 -14.5 6.5t0.5 16.5
l374 771q6 10 16 10h8q10 0 16 -10zM363 274h148l-74 160z" />
    <glyph glyph-name="acaron" unicode="&#x1ce;" horiz-adv-x="564" 
d="M302 585l187 103q14 7 14 20v109q0 16 -10 21t-24 -1l-180 -72l-181 72q-15 6 -25 1t-10 -21v-109q0 -12 15 -20l186 -103q14 -9 28 0zM508 24q-16 127 -7 311q4 81 -53 123.5t-140 42.5q-111 0 -220 -51q-23 -11 -14 -32l32 -81q9 -21 29 -12q89 36 129 36q56 0 56 -40
q-144 -24 -209.5 -69.5t-65.5 -118.5q0 -64 43.5 -101t121.5 -37q94 0 145 47q8 -42 35 -42h98q11 0 16.5 7t3.5 17zM247 120q-32 0 -32 24q0 18 32.5 32t71.5 20v-46q-29 -30 -72 -30z" />
    <glyph glyph-name="Icaron" unicode="&#x1cf;" horiz-adv-x="353" 
d="M191 845l187 103q14 7 14 20v109q0 16 -10 21t-24 -1l-180 -72l-181 72q-15 6 -25 1t-10 -21v-109q0 -12 15 -20l186 -103q14 -9 28 0zM252 800h-152q-9 0 -14.5 -6t-5.5 -14v-759q0 -9 6 -15t15 -6h152q8 0 14 6.5t6 14.5v759q0 8 -6.5 14t-14.5 6z" />
    <glyph glyph-name="icaron" unicode="&#x1d0;" horiz-adv-x="339" 
d="M183 585l187 103q14 7 14 20v109q0 16 -10 21t-24 -1l-180 -72l-181 72q-15 6 -25 1t-10 -21v-109q0 -12 15 -20l186 -103q14 -9 28 0zM244 495h-149q-9 0 -14.5 -6t-5.5 -14v-421q0 -24 14 -39t38 -15h118q19 0 19 21v454q0 8 -6 14t-14 6z" />
    <glyph glyph-name="Ocaron" unicode="&#x1d1;" horiz-adv-x="936" 
d="M482 851l187 103q14 7 14 20v109q0 16 -10 21t-24 -1l-180 -72l-181 72q-15 6 -25 1t-10 -21v-109q0 -12 15 -20l186 -103q14 -9 28 0zM469 -7q169 0 288 119t119 288t-119 288t-288 119q-170 0 -289.5 -119t-119.5 -288t119.5 -288t289.5 -119zM468 182q-84 0 -147 66
t-63 153t63 152t147 65q85 0 147.5 -65t62.5 -152t-62.5 -153t-147.5 -66z" />
    <glyph glyph-name="ocaron" unicode="&#x1d2;" 
d="M318 585l187 103q14 7 14 20v109q0 16 -10 21t-24 -1l-180 -72l-181 72q-15 6 -25 1t-10 -21v-109q0 -12 15 -20l186 -103q14 -9 28 0zM305 -7q108 0 186.5 73.5t78.5 179.5q0 109 -78.5 182.5t-186.5 73.5q-109 0 -187 -73.5t-78 -182.5q0 -106 78.5 -179.5t186.5 -73.5
zM305 162q-36 0 -60.5 25.5t-24.5 58.5q0 34 24.5 60t60.5 26t60.5 -26t24.5 -60q0 -33 -24.5 -58.5t-60.5 -25.5z" />
    <glyph glyph-name="Ucaron" unicode="&#x1d3;" horiz-adv-x="790" 
d="M409 844l187 103q14 7 14 20v109q0 16 -10 21t-24 -1l-180 -72l-181 72q-15 6 -25 1t-10 -21v-109q0 -13 15 -20l186 -103q14 -9 28 0zM700 800h-154q-9 0 -14.5 -6t-5.5 -14v-463q0 -60 -32.5 -99.5t-100.5 -39.5t-98.5 39t-30.5 100v463q0 8 -6 14t-14 6h-154
q-9 0 -14.5 -6t-5.5 -14v-492q1 -127 87 -211t236 -84q151 0 238.5 84t88.5 211v492q0 8 -6 14t-14 6z" />
    <glyph glyph-name="ucaron" unicode="&#x1d4;" horiz-adv-x="623" 
d="M286 585l-186 103q-15 8 -15 20v109q0 16 10 21t25 -1l181 -72l180 72q14 6 24 1t10 -21v-109q0 -13 -14 -20l-187 -103q-14 -9 -28 0zM399 495h149q20 0 20 -21v-454q0 -8 -5.5 -14t-13.5 -6h-122q-3 26 -22 42q-69 -48 -140 -48q-89 0 -147.5 56.5t-58.5 148.5v206
q0 32 -8 68q-2 10 1.5 18t11.5 8h133q24 0 37.5 -15t13.5 -38v-194q0 -33 16.5 -51t46.5 -18q41 0 68 30v261q0 8 6 14.5t14 6.5z" />
    <glyph glyph-name="Gcaron" unicode="&#x1e6;" horiz-adv-x="798" 
d="M423 852l-186 103q-15 7 -15 20v109q0 16 10 21t25 -1l181 -72l180 72q14 6 24 1t10 -21v-109q0 -13 -14 -20l-187 -103q-14 -9 -28 0zM751 416v-281q3 -9 -6 -18q-56 -59 -131.5 -91.5t-158.5 -32.5q-171 0 -290.5 118.5t-119.5 288.5q0 169 119.5 288t290.5 119
q83 0 159.5 -33t131.5 -92q14 -14 -1 -28l-123 -103q-15 -12 -28 0q-35 34 -67.5 50.5t-77.5 16.5q-80 0 -143 -66t-63 -151q0 -87 63 -153t144 -66q72 0 133 55v23h-126q-21 0 -21 20v135q0 21 20 21l275 -3q20 5 20 -17z" />
    <glyph glyph-name="gcaron" unicode="&#x1e7;" 
d="M318 585l187 103q14 7 14 20v109q0 16 -10 21t-24 -1l-180 -72l-181 72q-15 6 -25 1t-10 -21v-109q0 -12 15 -20l186 -103q14 -9 28 0zM379 9q110 -16 155.5 -55t45.5 -128q0 -91 -80 -136.5t-206 -43.5q-112 2 -176.5 47.5t-56.5 127.5q6 70 98 92q-122 28 -124 115
q-2 50 28.5 79t87.5 25q-23 12 -47 49.5t-25 88.5q-2 96 62.5 163t159.5 67q24 0 94 -7.5t137 -4.5q8 1 14.5 -5t5.5 -15l-6 -79q-1 -11 -38 -20q22 -42 22 -103q0 -100 -64.5 -160t-163.5 -56q-25 1 -79 14q-16 4 -24 2.5t-10.5 -5t-1.5 -7.5q1 -15 52 -24l78.5 -11.5
t61.5 -9.5zM305 337q-25 0 -43 -18t-18 -44q0 -24 18.5 -41.5t42.5 -17.5q25 0 42 17.5t17 41.5q0 27 -17 44.5t-42 17.5zM302 -199q94 0 94 38q0 21 -31 29q-47 14 -101 22q-23 4 -36 -9t-13 -37q0 -23 20 -33t67 -10z" />
    <glyph glyph-name="Scommaaccent" unicode="&#x218;" horiz-adv-x="643" 
d="M317 515l40.5 -20t42 -21l37.5 -20t38.5 -22.5l32.5 -23.5t31 -27.5l23.5 -29.5t20 -35t10.5 -38.5t5 -44.5q0 -100 -79.5 -170t-200.5 -70q-25 0 -48.5 3t-44 8.5t-38.5 12t-34 15.5l-28 16t-24.5 17l-19 15t-15.5 13.5t-10 9.5q-19 17 -3 37l76 106q8 11 21 12.5
t19 -5.5q2 -1 13 -10.5l16.5 -14t17.5 -13t21 -13t21.5 -10t26 -8t26.5 -2.5q36 0 62 15.5t26 40.5q0 17 -14 29.5t-46 28.5q-139 73 -178 100q-96 68 -103 158q-1 9 -1 18q0 94 76 165t203 71q113 0 224 -83q4 -3 6 -4q22 -17 6 -38l-77 -107q-19 -27 -43 -12
q-83 54 -135 54q-25 0 -43.5 -13.5t-18.5 -31.5q0 -19 12 -29.5t50 -28.5zM409 -164q23 -29 29 -66q10 -72 -12 -154q-16 -49 -50.5 -90t-71.5 -64q-16 -8 -26 3l-23 29q-7 10 0 15q81 62 93 145q-18 -5 -33 -5q-47 0 -81 35t-34 82q0 48 34 82t81 34q58 0 94 -46z" />
    <glyph glyph-name="scommaaccent" unicode="&#x219;" horiz-adv-x="483" 
d="M266 310q76 -21 124 -62t48 -103q0 -65 -56.5 -108.5t-145.5 -43.5q-53 0 -105 20t-78 39q-15 11 -6 24l52 83q13 20 32 10q70 -41 105 -42q35 -2 35 21q0 11 -13 18t-61 21q-68 20 -108 61.5t-41 96.5q-1 63 51 110t139 47q50 0 85.5 -12.5t77.5 -37.5q21 -13 11 -27
l-57 -87q-10 -14 -26 -6q-61 34 -88 34q-34 0 -34 -23q0 -11 13 -17.5t46 -15.5zM332 -164q23 -29 29 -66q10 -72 -12 -154q-16 -49 -50.5 -90t-71.5 -64q-16 -8 -26 3l-23 29q-7 10 0 15q81 62 93 145q-18 -5 -33 -5q-47 0 -81 35t-34 82q0 48 34 82t81 34q58 0 94 -46z
" />
    <glyph glyph-name="uni021A" unicode="&#x21a;" horiz-adv-x="740" 
d="M70 800h600q8 0 14 -5.5t6 -14.5v-135q0 -8 -6 -14.5t-14 -6.5h-203v-603q0 -21 -19 -21h-123q-24 0 -38 15t-14 39v570h-203q-8 0 -14.5 6t-6.5 14v135q0 9 6 15t15 6zM459 -164q23 -29 29 -66q10 -72 -12 -154q-16 -49 -50.5 -90t-71.5 -64q-16 -8 -26 3l-23 29
q-7 10 0 15q81 62 93 145q-18 -5 -33 -5q-47 0 -81 35t-34 82q0 48 34 82t81 34q58 0 94 -46z" />
    <glyph glyph-name="uni021B" unicode="&#x21b;" horiz-adv-x="491" 
d="M400 171l49 -111q5 -11 -7 -23q-23 -20 -58.5 -31.5t-68.5 -11.5q-93 0 -147.5 51t-54.5 148v131h-53q-8 0 -14 6.5t-6 14.5v33q0 17 9 28q138 161 185 225q14 20 28 20h24q8 0 13.5 -6t5.5 -14v-136h88q9 0 15 -6t6 -15v-130q0 -8 -6.5 -14t-14.5 -6h-68q-15 0 -23 1
v-107q0 -40 33 -45q17 -2 39 8q19 9 26 -10zM397 -164q23 -29 29 -66q10 -72 -12 -154q-16 -49 -50.5 -90t-71.5 -64q-16 -8 -26 3l-23 29q-7 10 0 15q81 62 93 145q-18 -5 -33 -5q-47 0 -81 35t-34 82q0 48 34 82t81 34q58 0 94 -46z" />
    <glyph glyph-name="uni0228" unicode="&#x228;" horiz-adv-x="674" 
d="M588 624h-319v-146h170q8 0 14.5 -6t6.5 -14v-135q0 -9 -6 -15t-15 -6h-170v-126h319q8 0 14.5 -6t6.5 -14v-135q0 -9 -6 -15t-15 -6h-198l-32 -69q42 -12 69.5 -46.5t27.5 -78.5q0 -53 -40 -92t-95 -39q-59 0 -97 45q-7 8 2 17l46 45q8 8 18 0q18 -10 30 -10
q16 0 26 9.5t10 24.5q0 14 -10 24t-26 10t-33 -15q-7 -7 -14 -1l-53 44q-6 6 -2 14l1 2l57 116h-179q-9 0 -15 6t-6 15v759q0 8 5.5 14t14.5 6h493q8 0 14.5 -6t6.5 -14v-135q0 -9 -6 -15t-15 -6z" />
    <glyph glyph-name="uni0229" unicode="&#x229;" horiz-adv-x="569" 
d="M529 267q0 -35 -22 -56.5t-61 -21.5h-238q7 -22 37 -36.5t66 -14.5q66 0 119 22q23 10 35 -11l26 -43q12 -17 -4 -36q-43 -59 -131 -72l1 2h-115q-89 18 -146 86t-57 162q0 104 72 179t177 75q108 0 174.5 -70.5t66.5 -164.5zM206 307h162q-4 16 -25.5 30.5t-55.5 14.5
q-33 0 -55 -14.5t-26 -30.5zM185 -116l57 116q28 -6 59 -6q32 0 55 4l-31 -67q42 -12 69.5 -46.5t27.5 -78.5q0 -53 -40 -92t-95 -39q-59 0 -97 45q-7 8 2 17l46 45q8 8 18 0q18 -10 30 -10q16 0 26 9.5t10 24.5q0 14 -10 24t-26 10t-33 -15q-7 -7 -14 -1l-53 44q-6 6 -2 14
z" />
    <glyph glyph-name="dotlessj" unicode="&#x237;" horiz-adv-x="328" 
d="M237 495h-148q-9 0 -14.5 -6t-5.5 -14v-562q0 -49 -56 -83q-19 -10 -10 -26l76 -141q9 -16 27 -8q152 75 152 257v563q0 8 -6.5 14t-14.5 6z" />
    <glyph glyph-name="circumflex" unicode="&#x2c6;" horiz-adv-x="511" 
d="M241 836l-186 -103q-15 -7 -15 -20v-109q0 -33 39 -18l176 70l176 -70q40 -16 40 18v109q0 13 -15 20l-187 103q-12 9 -28 0z" />
    <glyph glyph-name="caron" unicode="&#x2c7;" horiz-adv-x="511" 
d="M269 585l187 103q14 7 14 20v109q0 16 -10 21t-24 -1l-180 -72l-181 72q-15 6 -25 1t-10 -21v-109q0 -12 15 -20l186 -103q14 -9 28 0z" />
    <glyph glyph-name="breve" unicode="&#x2d8;" horiz-adv-x="446" 
d="M32 793q3 -71 59.5 -118t131.5 -47t131.5 47t60.5 118q2 29 -20 29h-82q-11 0 -21 -22q-19 -47 -69 -47t-70 47q-9 22 -19 22h-82q-22 0 -20 -29z" />
    <glyph glyph-name="dotaccent" unicode="&#x2d9;" horiz-adv-x="275" 
d="M137 613q-40 0 -67.5 28t-27.5 67q0 38 28 66t67 28q38 0 65.5 -28t27.5 -66q0 -39 -27.5 -67t-65.5 -28z" />
    <glyph glyph-name="ring" unicode="&#x2da;" horiz-adv-x="352" 
d="M176 556q-51 0 -88 37t-37 88q0 52 37 88.5t88 36.5t88 -36.5t37 -88.5q0 -51 -37 -88t-88 -37zM176 646q14 0 25.5 10.5t11.5 24.5q0 15 -11.5 26t-25.5 11q-15 0 -26 -11t-11 -26q0 -14 11 -24.5t26 -10.5z" />
    <glyph glyph-name="ogonek" unicode="&#x2db;" horiz-adv-x="341" 
d="M289 0h-101q-64 -19 -110.5 -64t-46.5 -93q0 -80 88 -106q36 -12 85.5 -5t83.5 32q13 9 13 23v66q0 11 -9 16t-21 1q-39 -14 -69 -14q-19 0 -29 9t-10 23q0 43 126 112z" />
    <glyph glyph-name="tilde" unicode="&#x2dc;" horiz-adv-x="549" 
d="M44 669l55 -65q13 -16 26 -1q31 35 66 35q33 0 74.5 -25.5t89.5 -25.5q84 0 147 74q14 14 3 30l-50 76q-14 19 -35 -1q-39 -31 -75 -31q-27 0 -72.5 27t-83.5 27q-22 0 -42 -6.5t-34 -15t-27.5 -20.5t-20.5 -21t-13 -18l-7 -9q-13 -16 -1 -30z" />
    <glyph glyph-name="hungarumlaut" unicode="&#x2dd;" horiz-adv-x="496" 
d="M167 621h-106q-8 0 -14.5 6t-6.5 14v193q0 8 6 14.5t14 6.5h136q9 0 15.5 -6t5.5 -15l-30 -193q-4 -20 -20 -20zM406 621h-106q-8 0 -14.5 6t-6.5 14v193q0 8 6 14.5t14 6.5h136q9 0 15.5 -6t5.5 -15l-30 -193q-4 -20 -20 -20z" />
    <glyph glyph-name="uni0326" unicode="&#x326;" horiz-adv-x="0" 
d="M308 -230q10 -72 -12 -154q-16 -49 -50.5 -90t-71.5 -64q-16 -8 -26 3l-23 29q-7 10 0 15q81 62 93 145q-18 -5 -33 -5q-47 0 -81 35t-34 82q0 48 34 82t81 34q58 0 94 -46q23 -29 29 -66z" />
    <glyph glyph-name="Delta" unicode="&#x394;" horiz-adv-x="853" 
d="M446 795l365 -773q8 -22 -14 -22h-741q-10 0 -14.5 6.5t0.5 16.5l365 772q4 10 17 10h6q12 0 16 -10zM317 209h219l-109 251z" />
    <glyph glyph-name="Omega" unicode="&#x3a9;" horiz-adv-x="865" 
d="M24 174v-152q0 -9 6 -15.5t15 -6.5h325q21 0 21 22v113q0 9 -1 15t-4.5 10.5l-5 6.5t-9 6.5t-9.5 5.5q-139 85 -139 220q0 91 56.5 151t153.5 60q96 0 152 -60t56 -151q0 -135 -140 -220q-2 -1 -5 -3l-4.5 -3t-4 -2.5t-3.5 -2.5l-3 -3t-2.5 -4t-2 -5t-1.5 -6t-0.5 -6.5
t-0.5 -8.5v-113q0 -22 19 -22h328q8 0 14 6.5t6 15.5v152q0 8 -6.5 14.5t-13.5 6.5h-76q35 23 67.5 83.5t32.5 130.5q0 170 -120 286.5t-292 116.5q-173 0 -293 -116.5t-120 -286.5q0 -71 30.5 -130.5t66.5 -83.5h-72q-9 0 -15 -6.5t-6 -14.5z" />
    <glyph glyph-name="mu" unicode="&#x3bc;" horiz-adv-x="602" 
d="M406 500h155q8 0 14 -6.5t6 -14.5v-258q0 -104 -56.5 -169t-157.5 -65q-56 -3 -106 28v-195q0 -8 -6.5 -14t-14.5 -6h-154q-9 0 -14.5 6t-5.5 14v659q0 9 6 15t14 6h155q8 0 14 -6.5t6 -14.5v-269q20 -24 49.5 -28t52 15.5t22.5 59.5v222q0 9 6 15t15 6z" />
    <glyph glyph-name="pi" unicode="&#x3c0;" horiz-adv-x="720" 
d="M60 501h599q8 0 14.5 -6t6.5 -14v-142q0 -9 -6 -15t-15 -6h-54v-111q0 -53 50 -83q19 -10 10 -26l-75 -140q-9 -16 -27 -8q-150 73 -154 246v122h-97v-297q0 -8 -6 -14.5t-14 -6.5h-154q-9 0 -15 6t-6 15v297h-57q-8 0 -14 5.5t-6 14.5v142q0 8 6 14.5t14 6.5z" />
    <glyph glyph-name="uni0401" unicode="&#x401;" horiz-adv-x="674" 
d="M192 865q-40 0 -68.5 29.5t-28.5 68.5q0 41 28.5 69t68.5 28q41 0 69.5 -28.5t28.5 -68.5q0 -39 -29 -68.5t-69 -29.5zM489 865q-40 0 -68.5 29.5t-28.5 68.5q0 41 28 69t69 28q40 0 69.5 -28.5t29.5 -68.5q0 -39 -29.5 -68.5t-69.5 -29.5zM588 624h-319v-146h170
q8 0 14.5 -6t6.5 -14v-135q0 -9 -6 -15t-15 -6h-170v-126h319q8 0 14.5 -6t6.5 -14v-135q0 -9 -6 -15t-15 -6h-492q-9 0 -15 6t-6 15v759q0 8 5.5 14t14.5 6h493q8 0 14.5 -6t6.5 -14v-135q0 -9 -6 -15t-15 -6z" />
    <glyph glyph-name="uni0403" unicode="&#x403;" horiz-adv-x="651" 
d="M226 843l-49 82q-9 15 5 24l194 129q7 6 16.5 6t14.5 -8l72 -119q13 -22 -6 -32l-218 -88q-22 -10 -29 6zM75 800h502q10 0 16.5 -7t6.5 -18v-147q0 -8 -8 -11.5t-18 -1.5q-38 8 -64 9h-261v-603q0 -8 -6 -14.5t-14 -6.5h-153q-9 0 -15 6t-6 15v759q0 8 5.5 14t14.5 6z
" />
    <glyph glyph-name="uni0404" unicode="&#x404;" horiz-adv-x="798" 
d="M621 246l122 -101q16 -14 2 -28q-56 -59 -131.5 -91.5t-158.5 -32.5q-171 0 -290.5 118.5t-119.5 288.5q0 169 119.5 288t290.5 119q83 0 159.5 -33t131.5 -92q14 -14 -1 -28l-123 -103q-15 -12 -28 0q-35 34 -67.5 50.5t-77.5 16.5q-58 0 -109.5 -36.5t-77.5 -93.5h250
q9 0 15 -6t6 -15v-135q0 -8 -6.5 -14t-14.5 -6h-249q26 -57 77.5 -93.5t109.5 -36.5q45 0 76.5 15.5t66.5 48.5q13 13 28 0z" />
    <glyph glyph-name="uni0406" unicode="&#x406;" horiz-adv-x="353" 
d="M252 800h-152q-9 0 -14.5 -6t-5.5 -14v-759q0 -9 6 -15t15 -6h152q8 0 14 6.5t6 14.5v759q0 8 -6.5 14t-14.5 6z" />
    <glyph glyph-name="uni0407" unicode="&#x407;" horiz-adv-x="353" 
d="M29 867q-40 0 -68.5 29.5t-28.5 68.5q0 41 28 69t69 28t69.5 -28.5t28.5 -68.5q0 -39 -29 -68.5t-69 -29.5zM326 867q-40 0 -68.5 29.5t-28.5 68.5q0 41 28 69t69 28q40 0 69.5 -28.5t29.5 -68.5q0 -39 -29.5 -68.5t-69.5 -29.5zM252 800h-152q-9 0 -14.5 -6t-5.5 -14
v-759q0 -9 6 -15t15 -6h152q8 0 14 6.5t6 14.5v759q0 8 -6.5 14t-14.5 6z" />
    <glyph glyph-name="uni0408" unicode="&#x408;" horiz-adv-x="367" 
d="M93 800h169q10 0 17.5 -7t7.5 -17v-870q-3 -173 -156 -249q-18 -8 -27 8l-76 141q-9 16 10 26q51 31 51 83v795q-1 26 -9 64q-2 10 1.5 18t11.5 8z" />
    <glyph glyph-name="uni040C" unicode="&#x40c;" horiz-adv-x="712" 
d="M254 843l-49 82q-9 15 5 24l194 129q7 6 16.5 6t14.5 -8l72 -119q13 -22 -6 -32l-218 -88q-22 -10 -29 6zM365 415l322 -366q14 -16 7.5 -32.5t-27.5 -16.5h-154q-14 0 -24 10l-234 268v-257q0 -8 -6 -14.5t-14 -6.5h-155q-9 0 -15 6t-6 15v689q-1 26 -9 64q-2 10 1.5 18
t11.5 8h167q10 0 17.5 -6.5t7.5 -16.5v-226l211 238q9 11 25 11h157q19 0 26 -15.5t-5 -29.5z" />
    <glyph glyph-name="uni040D" unicode="&#x40d;" horiz-adv-x="850" 
d="M282 916l218 -88q22 -8 29 6l49 82q9 15 -5 24l-194 129q-7 6 -16.5 6t-14.5 -8l-72 -119q-13 -22 6 -32zM96 800l152 -1q8 0 14 -6t6 -14v-410l364 415q15 16 29 16h94q8 0 14 -6t6 -14v-759q0 -9 -6 -15t-15 -6h-152q-8 0 -14.5 6.5t-6.5 14.5v408l-327 -368
q-54 -61 -107 -61h-52q-8 0 -14 6t-6 14v759q0 9 6 15t15 6z" />
    <glyph glyph-name="uni040E" unicode="&#x40e;" horiz-adv-x="748" 
d="M183 1051q3 -71 59.5 -118t131.5 -47t131.5 47t60.5 118q2 29 -20 29h-82q-11 0 -21 -22q-19 -47 -69 -47t-70 47q-9 22 -19 22h-82q-22 0 -20 -29zM550 800h166q11 0 15 -7t-1 -18l-248 -485q-55 -108 -125.5 -190t-119.5 -120q-14 -11 -35 10l-86 93q-17 17 2 35
q6 5 32 30l38.5 37.5t35 40.5t43.5 60l-248 489q-6 11 -1.5 18t15.5 7h167q16 0 24 -16l150 -302l152 302q8 16 24 16z" />
    <glyph glyph-name="uni0410" unicode="&#x410;" horiz-adv-x="874" 
d="M457 794l374 -771q5 -10 1 -16.5t-15 -6.5h-164q-15 0 -21 13l-41 89h-308l-41 -89q-6 -13 -21 -13h-164q-10 0 -14.5 6.5t0.5 16.5l374 771q6 10 16 10h8q10 0 16 -10zM363 274h148l-74 160z" />
    <glyph glyph-name="uni0411" unicode="&#x411;" horiz-adv-x="679" 
d="M245 494h132q107 0 179 -74t72 -173q0 -100 -71.5 -173.5t-175.5 -73.5h-309q-9 0 -15 6t-6 15v759q0 8 5.5 14t14.5 6h501q10 0 17 -7.5t7 -17.5v-147q0 -8 -8 -11.5t-18 -1.5q-38 8 -64 9h-261v-130zM245 176h104q46 0 65 36t0 71.5t-65 35.5h-104v-143z" />
    <glyph glyph-name="uni0412" unicode="&#x412;" horiz-adv-x="684" 
d="M508 432q59 -37 92.5 -90.5t33.5 -113.5q0 -96 -72.5 -162t-170.5 -66h-315q-9 0 -15 6t-6 15v759q0 8 5.5 14t14.5 6h289q99 0 162 -65t63 -143q0 -110 -81 -160zM249 483h74q34 0 53.5 22t20 48.5t-19 48.5t-54.5 22h-74v-141zM249 176h100q36 0 57 22t21 48.5
t-20.5 48.5t-57.5 22h-100v-141z" />
    <glyph glyph-name="uni0413" unicode="&#x413;" horiz-adv-x="651" 
d="M75 800h502q10 0 16.5 -7t6.5 -18v-147q0 -8 -8 -11.5t-18 -1.5q-38 8 -64 9h-261v-603q0 -8 -6 -14.5t-14 -6.5h-153q-9 0 -15 6t-6 15v759q0 8 5.5 14t14.5 6z" />
    <glyph glyph-name="uni0414" unicode="&#x414;" horiz-adv-x="810" 
d="M707 194h42q9 0 15 -6t6 -15v-247q0 -20 -21 -20h-154q-18 0 -18 20v74h-339v-74q0 -20 -18 -20h-155q-21 0 -21 20v247q0 9 6 15t15 6h41q56 189 56 585v1q0 20 20 20h505q20 0 20 -20v-586zM513 606h-159q0 -261 -47 -412h206v412z" />
    <glyph glyph-name="uni0415" unicode="&#x415;" horiz-adv-x="674" 
d="M588 624h-319v-146h170q8 0 14.5 -6t6.5 -14v-135q0 -9 -6 -15t-15 -6h-170v-126h319q8 0 14.5 -6t6.5 -14v-135q0 -9 -6 -15t-15 -6h-492q-9 0 -15 6t-6 15v759q0 8 5.5 14t14.5 6h493q8 0 14.5 -6t6.5 -14v-135q0 -9 -6 -15t-15 -6z" />
    <glyph glyph-name="uni0416" unicode="&#x416;" horiz-adv-x="1187" 
d="M809 415l333 -366q14 -16 7.5 -32.5t-27.5 -16.5h-154q-15 0 -24 10l-254 282v-271q0 -8 -6 -14.5t-14 -6.5h-153q-9 0 -15 6t-6 15v272l-254 -283q-9 -10 -24 -10h-154q-21 0 -27.5 16.5t7.5 32.5l333 367l-304 339q-13 14 -5.5 29.5t26.5 15.5h157q15 0 25 -11
l220 -248v169q-1 26 -9 64q-2 10 1.5 18t11.5 8h165q11 0 18 -6.5t7 -16.5v-237l220 249q10 11 25 11h157q19 0 26.5 -15.5t-5.5 -29.5z" />
    <glyph glyph-name="uni0417" unicode="&#x417;" horiz-adv-x="683" 
d="M520 408q118 -69 118 -191q0 -97 -90 -160.5t-208 -63.5q-99 0 -166.5 31t-122.5 98q-12 15 1 28l105 98q13 13 28 -2q57 -60 144 -60q43 0 72 18.5t29 48.5q0 37 -31 55.5t-103 19.5v160q121 1 121 62q0 29 -25.5 46.5t-62.5 17.5q-69 0 -125 -59q-15 -15 -28 -2
l-106 97q-14 11 -1 28q55 66 119 97.5t152 31.5q115 0 200 -65t85 -157q0 -112 -105 -177z" />
    <glyph glyph-name="uni0418" unicode="&#x418;" horiz-adv-x="850" 
d="M96 800l152 -1q8 0 14 -6t6 -14v-410l364 415q15 16 29 16h94q8 0 14 -6t6 -14v-759q0 -9 -6 -15t-15 -6h-152q-8 0 -14.5 6.5t-6.5 14.5v408l-327 -368q-54 -61 -107 -61h-52q-8 0 -14 6t-6 14v759q0 9 6 15t15 6z" />
    <glyph glyph-name="uni0419" unicode="&#x419;" horiz-adv-x="846" 
d="M255 954q3 -72 59.5 -118.5t131.5 -46.5q74 0 130.5 46.5t60.5 118.5q3 29 -19 29h-83q-10 0 -20 -22q-21 -47 -69 -47q-52 0 -70 47q-11 22 -20 22h-82q-22 0 -19 -29zM96 800l152 -1q8 0 14 -6t6 -14v-410l364 415q15 16 29 16h94q8 0 14 -6t6 -14v-759q0 -9 -6 -15
t-15 -6h-152q-8 0 -14.5 6.5t-6.5 14.5v408l-327 -368q-54 -61 -107 -61h-52q-8 0 -14 6t-6 14v759q0 9 6 15t15 6z" />
    <glyph glyph-name="uni041A" unicode="&#x41a;" horiz-adv-x="712" 
d="M365 415l322 -366q14 -16 7.5 -32.5t-27.5 -16.5h-154q-14 0 -24 10l-234 268v-257q0 -8 -6 -14.5t-14 -6.5h-155q-9 0 -15 6t-6 15v689q-1 26 -9 64q-2 10 1.5 18t11.5 8h167q10 0 17.5 -6.5t7.5 -16.5v-226l211 238q9 11 25 11h157q19 0 26 -15.5t-5 -29.5z" />
    <glyph glyph-name="uni041B" unicode="&#x41b;" horiz-adv-x="808" 
d="M136 800h592q20 0 20 -20v-760q0 -20 -20 -20h-153q-20 0 -20 20v586h-247v-374q0 -65 -20.5 -114t-52 -74.5t-63 -37.5t-60.5 -12q-87 0 -87 26v111q0 29 26 29q27 0 46 16.5t19 55.5v548q0 20 20 20z" />
    <glyph glyph-name="uni041C" unicode="&#x41c;" horiz-adv-x="1067" 
d="M825 800h146q8 0 14.5 -6t6.5 -14v-759q0 -8 -6 -14.5t-14 -6.5h-153q-9 0 -15 6t-6 15v389l-239 -356q-10 -15 -25 -15h-8q-14 0 -24 15l-233 355v-388q0 -8 -6 -14.5t-14 -6.5h-153q-9 0 -15 6t-6 15v759q0 8 5.5 14t14.5 6h146q12 0 21 -14l268 -414l274 414
q9 14 21 14z" />
    <glyph glyph-name="uni041D" unicode="&#x41d;" horiz-adv-x="835" 
d="M584 800h156q8 0 14 -6t6 -14v-759q0 -21 -19 -21h-125q-24 0 -38 15t-14 39v238h-294v-271q0 -8 -6 -14.5t-14 -6.5h-154q-9 0 -15 6t-6 15v759q0 8 5.5 14t14.5 6h154q8 0 14.5 -6t6.5 -14v-292h294v292q0 8 5.5 14t14.5 6z" />
    <glyph glyph-name="uni041E" unicode="&#x41e;" horiz-adv-x="936" 
d="M469 -7q169 0 288 119t119 288t-119 288t-288 119q-170 0 -289.5 -119t-119.5 -288t119.5 -288t289.5 -119zM468 182q-84 0 -147 66t-63 153t63 152t147 65q85 0 147.5 -65t62.5 -152t-62.5 -153t-147.5 -66z" />
    <glyph glyph-name="uni041F" unicode="&#x41f;" horiz-adv-x="805" 
d="M734 780l1 -759q0 -8 -6 -14.5t-14 -6.5h-154q-9 0 -15 6t-6 15v585h-276l1 -585q0 -8 -6 -14.5t-14 -6.5h-154q-9 0 -15 6t-6 15v759q0 8 5.5 14t14.5 6h624q8 0 14 -6t6 -14z" />
    <glyph glyph-name="uni0420" unicode="&#x420;" horiz-adv-x="686" 
d="M90 800h284q114 0 198 -86.5t84 -186.5q0 -107 -83.5 -193t-198.5 -86h-110v-227q0 -8 -6 -14.5t-14 -6.5h-153q-9 0 -15 6t-6 15v759q0 8 5.5 14t14.5 6zM264 437h108q40 0 65 26.5t25 63.5q0 34 -25.5 59t-64.5 25h-108v-174z" />
    <glyph glyph-name="uni0421" unicode="&#x421;" horiz-adv-x="798" 
d="M621 246l122 -101q16 -14 2 -28q-56 -59 -131.5 -91.5t-158.5 -32.5q-171 0 -290.5 118.5t-119.5 288.5q0 169 119.5 288t290.5 119q83 0 159.5 -33t131.5 -92q14 -14 -1 -28l-123 -103q-15 -12 -28 0q-35 34 -67.5 50.5t-77.5 16.5q-80 0 -143 -66t-63 -151
q0 -87 63 -153t144 -66q45 0 76.5 15.5t66.5 48.5q13 13 28 0z" />
    <glyph glyph-name="uni0422" unicode="&#x422;" horiz-adv-x="740" 
d="M70 800h600q8 0 14 -5.5t6 -14.5v-135q0 -8 -6 -14.5t-14 -6.5h-203v-603q0 -21 -19 -21h-123q-24 0 -38 15t-14 39v570h-203q-8 0 -14.5 6t-6.5 14v135q0 9 6 15t15 6z" />
    <glyph glyph-name="uni0423" unicode="&#x423;" horiz-adv-x="748" 
d="M550 800h166q11 0 15 -7t-1 -18l-248 -485q-55 -108 -125.5 -190t-119.5 -120q-14 -11 -35 10l-86 93q-17 17 2 35q6 5 32 30l38.5 37.5t35 40.5t43.5 60l-248 489q-6 11 -1.5 18t15.5 7h167q16 0 24 -16l150 -302l152 302q8 16 24 16z" />
    <glyph glyph-name="uni0424" unicode="&#x424;" horiz-adv-x="941" 
d="M556 700h10q73 0 135.5 -26.5t101.5 -69.5t61 -95t22 -105q0 -126 -86.5 -214t-233.5 -88h-10v-87q0 -6 -4.5 -11t-10.5 -5h-144q-16 0 -16 16v87h-1q-146 0 -233 88t-87 214q0 53 22 105t61 95t101.5 69.5t135.5 26.5h1v87q0 14 15 14h145q6 0 10.5 -4t4.5 -10v-87z
M556 259h3q70 0 110 43.5t40 101.5q0 57 -39.5 98t-110.5 41h-3v-284zM238 404q0 -57 38 -100t105 -45v284q-69 -2 -106 -42.5t-37 -96.5z" />
    <glyph glyph-name="uni0425" unicode="&#x425;" horiz-adv-x="775" 
d="M496 399l246 -378q5 -7 1 -14t-12 -7h-187q-4 0 -7.5 2.5t-5 4t-4.5 7.5t-4 7l-136 210l-136 -210q-1 -1 -4 -7t-4.5 -7.5t-5 -4t-7.5 -2.5h-185q-8 0 -12 7t1 14l245 378l-246 381q-5 8 -2 14t12 6h185q4 0 7 -2t4.5 -3.5t4.5 -7t4 -7.5l139 -213l138 213q1 2 4 7.5
t4.5 7t4.5 3.5t7 2h187q9 0 12 -6t-2 -14z" />
    <glyph glyph-name="uni0426" unicode="&#x426;" horiz-adv-x="804" 
d="M774 -64q2 -10 -1.5 -18t-11.5 -8h-139q-23 0 -37 13.5t-14 36.5v40h-510q-8 0 -14 6t-6 14l-1 760q0 8 6 14.5t14 6.5h154q9 0 15 -6t6 -15l-1 -586h256v586q0 8 6 14.5t14 6.5h154q9 0 15 -6t6 -15v-586h7q73 0 73 -73v-121q1 -26 9 -64z" />
    <glyph glyph-name="uni0427" unicode="&#x427;" horiz-adv-x="726" 
d="M675 26q2 -10 -1.5 -18t-11.5 -8h-130q-59 0 -60 59v292q-77 -41 -152 -41q-121 0 -197 58.5t-78 149.5v192q-1 26 -9 64q-2 10 1.5 18t11.5 8h138q24 0 38 -15t14 -39v-164q0 -44 31 -69t94 -25q66 0 108 42v250q0 8 6 14t14 6h154q8 0 14 -6t6 -14v-681q1 -36 9 -73z
" />
    <glyph glyph-name="uni0428" unicode="&#x428;" horiz-adv-x="1119" 
d="M895 800h153q9 0 15 -6t6 -15v-759q0 -8 -5.5 -14t-14.5 -6h-978q-8 0 -14 6t-6 14l-1 759q0 8 6 14.5t14 6.5h154q9 0 15 -6t6 -15l-1 -585h219l-1 585q0 8 6 14.5t14 6.5h154q9 0 15 -6t6 -15l-1 -585h219v585q0 8 6 14.5t14 6.5z" />
    <glyph glyph-name="uni0429" unicode="&#x429;" horiz-adv-x="1189" 
d="M1158 -64q2 -10 -1.5 -18t-11.5 -8h-138q-23 0 -37.5 13.5t-14.5 36.5v40h-884q-8 0 -14 6t-6 14l-1 759q0 8 6 14.5t14 6.5h154q9 0 15 -6t6 -15l-1 -585h219l-1 585q0 8 6 14.5t14 6.5h154q9 0 15 -6t6 -15l-1 -585h219v586q0 8 6 14.5t14 6.5h153q9 0 15 -6t6 -15
v-586h8q72 0 72 -73v-121q1 -26 9 -64z" />
    <glyph glyph-name="uni042A" unicode="&#x42a;" horiz-adv-x="805" 
d="M370 496h135q107 0 178.5 -74.5t71.5 -174.5t-71 -173.5t-175 -73.5h-311q-9 0 -15 6t-6 15v585h-72q-26 -1 -64 -9q-10 -2 -18 1.5t-8 11.5v165q0 11 6.5 18t16.5 7h312q8 0 14 -6t6 -14v-284zM371 178h104q35 0 54.5 22t20 49t-19.5 49t-55 22h-104v-142z" />
    <glyph glyph-name="uni042B" unicode="&#x42b;" horiz-adv-x="1005" 
d="M244 496h134q107 0 178.5 -74.5t71.5 -174.5t-71 -173.5t-175 -73.5h-311q-9 0 -15 6t-6 15v759q0 8 5.5 14t14.5 6h153q8 0 14.5 -6t6.5 -14v-284zM751 800h153q8 0 14.5 -6t6.5 -14v-759q0 -8 -6 -14.5t-14 -6.5h-153q-9 0 -15 6t-6 15v759q0 8 5.5 14t14.5 6zM244 178
h104q35 0 54.5 22t20 49t-19.5 49t-55 22h-104v-142z" />
    <glyph glyph-name="uni042C" unicode="&#x42c;" horiz-adv-x="679" 
d="M245 496h134q107 0 178.5 -74.5t71.5 -174.5t-71 -173.5t-175 -73.5h-311q-9 0 -15 6t-6 15v759q0 8 5.5 14t14.5 6h153q8 0 14.5 -6t6.5 -14v-284zM245 178h105q46 0 65 35.5t0 71t-65 35.5h-105v-142z" />
    <glyph glyph-name="uni042D" unicode="&#x42d;" horiz-adv-x="798" 
d="M343 807q170 0 290 -119t120 -288t-120 -288t-290 -119q-84 0 -159.5 32.5t-130.5 91.5q-14 14 1 28l122 101q16 12 28 0q35 -33 67 -48.5t77 -15.5q58 0 109.5 36.5t76.5 93.5h-248q-8 0 -14.5 6t-6.5 14v135q0 9 6 15t15 6h249q-26 57 -77 93.5t-109 36.5
q-45 0 -77.5 -16.5t-67.5 -50.5q-14 -12 -28 0l-123 103q-15 14 -1 28q55 59 131.5 92t159.5 33z" />
    <glyph glyph-name="uni042E" unicode="&#x42e;" horiz-adv-x="1252" 
d="M785 807q169 0 288 -119t119 -288t-119 -288t-288 -119q-146 0 -257.5 90t-142.5 229h-112v-291q0 -8 -6 -14.5t-14 -6.5h-152q-9 0 -15 6t-6 15v759q0 8 5.5 14t14.5 6h152q8 0 14.5 -6t6.5 -14v-292h113q30 138 141.5 228.5t257.5 90.5zM785 182q84 0 146.5 66
t62.5 153t-62.5 152t-146.5 65q-85 0 -147.5 -65t-62.5 -152t62.5 -153t147.5 -66z" />
    <glyph glyph-name="uni042F" unicode="&#x42f;" horiz-adv-x="755" 
d="M332 800h343q9 0 14.5 -6t5.5 -14v-759q0 -9 -6 -15t-15 -6h-155q-8 0 -14 6.5t-6 14.5v227h-105l-117 -205q-8 -15 -26.5 -29t-38.5 -14h-149q-12 0 -16 7t2 17l157 262q-60 39 -95.5 106t-35.5 136q0 60 31.5 122t92.5 106t133 44zM350 435h149v177h-149
q-35 0 -55 -25.5t-21 -61.5t19.5 -63t56.5 -27z" />
    <glyph glyph-name="uni0430" unicode="&#x430;" horiz-adv-x="569" 
d="M508 24q-16 127 -7 311q4 81 -53 123.5t-140 42.5q-111 0 -220 -51q-23 -11 -14 -32l32 -81q9 -21 29 -12q89 36 129 36q56 0 56 -40q-144 -24 -209.5 -69.5t-65.5 -118.5q0 -64 43.5 -101t121.5 -37q94 0 145 47q8 -42 35 -42h98q11 0 16.5 7t3.5 17zM247 120
q-32 0 -32 24q0 18 32.5 32t71.5 20v-46q-29 -30 -72 -30z" />
    <glyph glyph-name="uni0431" unicode="&#x431;" horiz-adv-x="632" 
d="M324 502q109 0 187 -73.5t78 -182.5q0 -106 -78.5 -179.5t-186.5 -73.5q-92 0 -165 55.5t-93 140.5q-21 66 -21 175q0 63 10.5 122.5t36.5 117.5t65.5 100.5t102 69t140.5 26.5h36q34 1 64 9q9 3 17.5 -0.5t8.5 -12.5v-139q0 -12 -7.5 -20t-18.5 -8h-100
q-143 0 -185 -150q51 23 109 23zM324 162q37 0 61 25.5t24 58.5q0 34 -24 60t-61 26q-36 0 -60.5 -26t-24.5 -60q0 -33 24.5 -58.5t60.5 -25.5z" />
    <glyph glyph-name="uni0432" unicode="&#x432;" horiz-adv-x="608" 
d="M446 264q59 -18 85.5 -49.5t26.5 -83.5q0 -56 -53.5 -93.5t-143.5 -37.5h-290q-16 0 -16 16v464q0 15 15 15h271q87 0 142.5 -36.5t55.5 -85.5q0 -48 -23 -73.5t-70 -35.5zM231 305h71q54 0 54 36q0 35 -54 35h-71v-71zM231 119h73q31 0 47.5 11t16.5 26q0 37 -64 37h-73
v-74z" />
    <glyph glyph-name="uni0433" unicode="&#x433;" horiz-adv-x="512" 
d="M75 495h363q10 0 17 -7.5t7 -17.5v-142q0 -8 -8 -11.5t-18 -1.5q-38 8 -64 9h-128v-303q0 -8 -6 -14.5t-14 -6.5h-148q-9 0 -15 6t-6 15v454q0 8 5.5 14t14.5 6z" />
    <glyph glyph-name="uni0434" unicode="&#x434;" horiz-adv-x="724" 
d="M621 171h43q9 0 15 -6t6 -15v-214q0 -20 -21 -20h-150q-18 0 -18 20v64h-268v-64q0 -20 -18 -20h-150q-21 0 -21 20v214q0 9 6 15t15 6h57q40 101 40 303v1q0 20 20 20h424q20 0 20 -20v-304zM432 324h-88q0 -75 -35 -153h123v153z" />
    <glyph glyph-name="uni0435" unicode="&#x435;" horiz-adv-x="569" 
d="M208 189h238q39 0 61 21.5t22 56.5q0 94 -66.5 164.5t-174.5 70.5q-105 0 -177 -75t-72 -179q0 -110 76 -182t186 -72q130 0 186 76q16 19 4 36l-26 43q-12 21 -35 11q-53 -22 -119 -22q-36 0 -66 14.5t-37 36.5zM368 307h-162q4 16 26 30.5t55 14.5q34 0 55.5 -14.5
t25.5 -30.5z" />
    <glyph glyph-name="uni0436" unicode="&#x436;" horiz-adv-x="997" 
d="M731 251l223 -214q11 -11 6 -24t-21 -13h-161q-10 0 -18 9l-170 178v-166q0 -8 -6 -14.5t-14 -6.5h-143q-9 0 -15 6t-6 15v171l-179 -184q-7 -8 -17 -8h-153q-16 0 -21 13t6 24l224 214l-204 211q-10 10 -4.5 21.5t19.5 11.5h154q14 0 20 -7l155 -172v89q0 21 -9 64
q-2 10 1.5 18t11.5 8h156q10 0 17 -6.5t7 -16.5v-151l146 166q7 8 21 8h162q14 0 20 -11.5t-4 -21.5z" />
    <glyph glyph-name="uni0437" unicode="&#x437;" horiz-adv-x="521" 
d="M397 253q80 -33 79 -109q-1 -63 -65 -106t-149 -43q-135 0 -213 86q-9 11 0 21l68 76q11 12 23 0q16 -16 49.5 -26.5t64.5 -10.5q21 0 38 9.5t17 20.5q0 14 -15 21t-57 8v106q42 1 53.5 7t11.5 20q0 9 -16 16.5t-37 7.5q-26 0 -54.5 -11t-45.5 -26q-12 -12 -23 -1l-67 78
q-10 11 -2 20q79 87 205 87q84 0 145 -43t62 -104q1 -73 -72 -104z" />
    <glyph glyph-name="uni0438" unicode="&#x438;" horiz-adv-x="650" 
d="M481 495h89q6 0 10.5 -4.5t4.5 -10.5v-464q0 -16 -16 -16h-152q-6 0 -11 5t-5 11v208l-210 -210q-14 -14 -26 -14h-86q-14 0 -14 15v466q0 14 15 14h155q14 0 14 -14v-212l209 209q3 2 6.5 6t5.5 6t5 3.5t6 1.5z" />
    <glyph glyph-name="uni0439" unicode="&#x439;" horiz-adv-x="650" 
d="M138 788q3 -71 59.5 -118t131.5 -47t131.5 47t60.5 118q2 29 -20 29h-82q-11 0 -21 -22q-19 -47 -69 -47t-70 47q-9 22 -19 22h-82q-22 0 -20 -29zM481 495h89q6 0 10.5 -4.5t4.5 -10.5v-464q0 -16 -16 -16h-152q-6 0 -11 5t-5 11v208l-210 -210q-14 -14 -26 -14h-86
q-14 0 -14 15v466q0 14 15 14h155q14 0 14 -14v-212l209 209q3 2 6.5 6t5.5 6t5 3.5t6 1.5z" />
    <glyph glyph-name="uni043A" unicode="&#x43a;" horiz-adv-x="646" 
d="M380 251l223 -214q11 -11 6 -24t-21 -13h-160q-12 0 -19 9l-169 177v-165q0 -8 -6 -14.5t-14 -6.5h-144q-9 0 -15 6t-6 15v384q0 21 -9 64q-2 10 1.5 18t11.5 8h156q10 0 17.5 -6.5t7.5 -16.5v-150l145 165q7 8 22 8h162q14 0 19.5 -11.5t-4.5 -21.5z" />
    <glyph glyph-name="uni043B" unicode="&#x43b;" horiz-adv-x="625" 
d="M109 495h446q20 0 20 -20v-455q0 -20 -20 -20h-149q-20 0 -20 20v304h-109v-101q0 -220 -222 -227q-30 -2 -30 28v109q0 26 26 29q18 3 28 20t10 41v252q0 20 20 20z" />
    <glyph glyph-name="uni043C" unicode="&#x43c;" horiz-adv-x="826" 
d="M587 495h159q15 0 15 -16v-463q0 -6 -4 -11t-10 -5h-160q-6 0 -10.5 4.5t-4.5 11.5v198l-140 -198q-9 -13 -18 -13h-5q-9 0 -17 13l-138 197v-197q0 -6 -4.5 -11t-11.5 -5h-158q-15 0 -15 16v463q0 16 15 16h158q9 0 17 -11l157 -210l157 210q8 11 18 11z" />
    <glyph glyph-name="uni043D" unicode="&#x43d;" horiz-adv-x="655" 
d="M416 495h157q17 0 17 -14v-465q0 -6 -4.5 -11t-10.5 -5h-158q-16 0 -16 16v146h-147v-146q0 -6 -4.5 -11t-10.5 -5h-158q-16 0 -16 16v465q0 14 15 14h158q6 0 11 -4t5 -10v-148h147v148q0 14 15 14z" />
    <glyph glyph-name="uni043E" unicode="&#x43e;" horiz-adv-x="627" 
d="M305 -7q108 0 186.5 73.5t78.5 179.5q0 109 -78.5 182.5t-186.5 73.5q-109 0 -187 -73.5t-78 -182.5q0 -106 78.5 -179.5t186.5 -73.5zM305 162q-36 0 -60.5 25.5t-24.5 58.5q0 34 24.5 60t60.5 26t60.5 -26t24.5 -60q0 -33 -24.5 -58.5t-60.5 -25.5z" />
    <glyph glyph-name="uni043F" unicode="&#x43f;" horiz-adv-x="622" 
d="M561 475l1 -454q0 -8 -6 -14.5t-14 -6.5h-149q-9 0 -15 6t-6 15v303h-123l1 -303q0 -8 -6 -14.5t-14 -6.5h-149q-9 0 -15 6t-6 15v454q0 8 5.5 14t14.5 6h461q8 0 14 -6t6 -14z" />
    <glyph glyph-name="uni0440" unicode="&#x440;" horiz-adv-x="650" 
d="M369 500q101 0 166 -70.5t65 -178.5q0 -105 -68 -181t-169 -76q-58 0 -100 27v-238q0 -33 -22.5 -55t-51.5 -22h-93q-22 0 -22 23v657q0 20 -13 82q-2 11 2.5 19t14.5 8h125q39 0 52 -24q48 29 114 29zM331 164q37 0 63 24.5t26 61.5q0 36 -26 59t-62 23q-32 0 -69 -19
v-130q35 -19 68 -19z" />
    <glyph glyph-name="uni0441" unicode="&#x441;" horiz-adv-x="525" 
d="M407 179l67 -95q11 -19 -3 -30q-76 -61 -170 -61q-110 0 -185.5 71t-75.5 182q0 112 75.5 184t185.5 72q99 0 176 -69q15 -14 2 -30l-72 -88q-11 -15 -34 -2q-32 19 -64 19q-35 0 -60 -25.5t-25 -60.5q0 -33 25 -58.5t60 -25.5q29 0 66 21q21 13 32 -4z" />
    <glyph glyph-name="uni0442" unicode="&#x442;" horiz-adv-x="569" 
d="M65 495h439q7 0 11.5 -4.5t4.5 -10.5v-141q0 -5 -5 -10t-11 -5h-125v-308q0 -6 -4.5 -11t-10.5 -5h-158q-16 0 -16 16v308h-125q-7 0 -11.5 4.5t-4.5 10.5v140q0 16 16 16z" />
    <glyph glyph-name="uni0443" unicode="&#x443;" horiz-adv-x="650" 
d="M450 495h156q12 0 16.5 -6.5t-1.5 -17.5l-192 -392q-130 -264 -238 -394q-15 -18 -39 0l-90 83q-19 16 1 41q121 142 171 276l-206 386q-6 11 -1.5 17.5t16.5 6.5h155q16 0 23 -15l105 -211l100 211q6 15 24 15z" />
    <glyph glyph-name="uni0444" unicode="&#x444;" horiz-adv-x="957" 
d="M673 499q103 0 168.5 -70.5t65.5 -178.5q0 -105 -68 -181t-168 -76q-59 0 -101 27v-237q0 -33 -22.5 -55t-50.5 -22h-94q-22 0 -22 23v291q-42 -27 -99 -27q-101 0 -169 76t-68 181q0 108 65.5 178.5t168.5 70.5q57 0 102 -24v216q0 20 -13 82q-2 11 3 19t15 8h124
q60 0 60 -59v-267q43 25 103 25zM314 163q33 0 67 19v131q-37 18 -68 18q-36 0 -62 -23t-26 -59q0 -37 26 -61.5t63 -24.5zM638 163q37 0 63 24.5t26 61.5q0 36 -26 59t-62 23q-32 0 -69 -19v-130q35 -19 68 -19z" />
    <glyph glyph-name="uni0445" unicode="&#x445;" 
d="M392 247l163 -213q8 -10 2.5 -22t-16.5 -12h-156q-12 0 -23 15l-58 85l-57 -85q-10 -15 -24 -15h-155q-11 0 -16 12t2 22l162 213l-162 215q-7 10 -2 21.5t16 11.5h155q14 0 24 -15l57 -85l58 85q10 15 23 15h156q11 0 16.5 -11.5t-1.5 -21.5z" />
    <glyph glyph-name="uni0446" unicode="&#x446;" horiz-adv-x="656" 
d="M625 -64q2 -10 -1.5 -18t-11.5 -8h-133q-23 0 -37.5 13.5t-14.5 36.5v40h-366q-8 0 -14 6t-6 14l-1 454q0 8 6 14.5t14 6.5h149q9 0 15 -6t6 -15l-1 -303h118v303q0 8 6 14.5t14 6.5h148q9 0 15 -6t6 -15v-303h7q73 0 73 -73v-98q1 -26 9 -64z" />
    <glyph glyph-name="uni0447" unicode="&#x447;" horiz-adv-x="652" 
d="M586 26q2 -10 -1.5 -18t-11.5 -8h-131q-60 0 -60 59v95q-57 -31 -115 -31q-85 0 -148.5 56t-63.5 144v82q0 21 -9 64q-2 10 1.5 18t11.5 8h140q24 0 38 -15t14 -39v-54q0 -31 17.5 -52t42.5 -21q44 0 71 27v134q0 8 5.5 14t14.5 6h155q8 0 14 -6t6 -14v-376q1 -36 9 -73z
" />
    <glyph glyph-name="uni0448" unicode="&#x448;" horiz-adv-x="906" 
d="M686 495h149q9 0 15 -6t6 -15v-454q0 -8 -5.5 -14t-14.5 -6h-765q-8 0 -14 6t-6 14l-1 454q0 8 6 14.5t14 6.5h149q9 0 15 -6t6 -15v-303h119l-1 303q0 8 6 14.5t14 6.5h149q9 0 15 -6t6 -15v-303h119l-1 303q0 8 6 14.5t14 6.5z" />
    <glyph glyph-name="uni0449" unicode="&#x449;" horiz-adv-x="985" 
d="M954 -64q2 -10 -1.5 -18t-11.5 -8h-139q-23 0 -37 13.5t-14 36.5v40h-670q-8 0 -14 6t-6 14l-1 454q0 8 6 14.5t14 6.5h149q9 0 15 -6t6 -15v-303h119l-1 303q0 8 6 14.5t14 6.5h149q9 0 15 -6t6 -15v-303h119l-1 303q0 8 6 14.5t14 6.5h149q9 0 15 -6t6 -15v-303h6
q73 0 73 -73v-98q1 -26 9 -64z" />
    <glyph glyph-name="uni044A" unicode="&#x44a;" horiz-adv-x="732" 
d="M358 426h98q103 0 164.5 -59.5t61.5 -154.5q0 -94 -61.5 -153t-164.5 -59h-266q-9 0 -15 6t-6 15v303h-64q-21 0 -64 -9q-10 -2 -18 1.5t-8 11.5v142q0 11 6.5 18t16.5 7h299q8 0 14.5 -6t6.5 -14v-49zM358 169h81q35 0 49 22t0 44t-49 22h-81v-88z" />
    <glyph glyph-name="uni044B" unicode="&#x44b;" horiz-adv-x="904" 
d="M239 426h98q103 0 164.5 -59.5t61.5 -154.5q0 -94 -61.5 -153t-164.5 -59h-266q-9 0 -15 6t-6 15v454q0 8 5.5 14t14.5 6h148q8 0 14.5 -6t6.5 -14v-49zM655 495h148q8 0 14.5 -6t6.5 -14v-454q0 -8 -6 -14.5t-14 -6.5h-148q-9 0 -15 6t-6 15v454q0 8 5.5 14t14.5 6z
M239 169h81q34 0 48.5 22t0.5 44t-49 22h-81v-88z" />
    <glyph glyph-name="uni044C" unicode="&#x44c;" horiz-adv-x="615" 
d="M240 426h98q103 0 164.5 -59.5t61.5 -154.5q0 -94 -61.5 -153t-164.5 -59h-266q-9 0 -15 6t-6 15v454q0 8 5.5 14t14.5 6h148q8 0 14.5 -6t6.5 -14v-49zM240 169h81q35 0 49.5 22t0 44t-49.5 22h-81v-88z" />
    <glyph glyph-name="uni044D" unicode="&#x44d;" horiz-adv-x="535" 
d="M229 502q110 0 185.5 -72t75.5 -184q0 -111 -75.5 -182t-185.5 -71q-94 0 -170 61q-14 11 -3 30l67 95q11 17 32 4q37 -21 66 -21q39 0 64 30h-92q-8 0 -14.5 6t-6.5 14v68q0 9 6 15t15 6h93q-26 31 -65 31q-32 0 -64 -19q-23 -13 -34 2l-72 88q-13 16 2 30q77 69 176 69
z" />
    <glyph glyph-name="uni044E" unicode="&#x44e;" horiz-adv-x="908" 
d="M603 502q108 0 186.5 -73.5t78.5 -182.5q0 -106 -78.5 -179.5t-186.5 -73.5q-84 0 -153 46.5t-97 121.5h-84v-141q0 -21 -19 -21h-118q-24 0 -38 15t-14 39v421q0 8 5.5 14t14.5 6h149q8 0 14 -6t6 -14v-142h84q28 76 96.5 123t153.5 47zM603 162q36 0 60.5 25.5
t24.5 58.5q0 34 -24.5 60t-60.5 26t-60.5 -26t-24.5 -60q0 -33 24.5 -58.5t60.5 -25.5z" />
    <glyph glyph-name="uni044F" unicode="&#x44f;" horiz-adv-x="583" 
d="M256 495h266q9 0 15 -6t6 -15v-454q0 -8 -5.5 -14t-14.5 -6h-148q-8 0 -14.5 6t-6.5 14v49h-85l-41 -57q-9 -12 -18 -12h-158q-9 0 -12.5 5t2.5 13l70 93q-82 60 -82 172q0 94 61.5 153t164.5 59zM354 326h-80q-35 0 -49.5 -22t0 -44t49.5 -22h80v88z" />
    <glyph glyph-name="uni0451" unicode="&#x451;" horiz-adv-x="566" 
d="M141 607q-39 0 -68 29.5t-29 68.5q0 40 28.5 68.5t68.5 28.5q41 0 70 -28.5t29 -68.5q0 -39 -29.5 -68.5t-69.5 -29.5zM438 607q-39 0 -67.5 29.5t-28.5 68.5q0 41 28 69t68 28q41 0 70 -28.5t29 -68.5q0 -39 -29.5 -68.5t-69.5 -29.5zM209 189h238q39 0 61 21.5t22 56.5
q0 94 -67 164.5t-175 70.5q-104 0 -176 -75t-72 -179q0 -110 76 -182t185 -72q131 0 187 76q16 19 4 36l-26 43q-12 21 -35 11q-53 -22 -120 -22q-36 0 -65.5 14.5t-36.5 36.5zM368 307h-161q4 16 26 30.5t55 14.5q34 0 55.5 -14.5t24.5 -30.5z" />
    <glyph glyph-name="uni0453" unicode="&#x453;" horiz-adv-x="512" 
d="M154 580l-49 82q-9 15 5 24l194 129q7 6 16.5 6t14.5 -8l72 -119q13 -22 -6 -32l-218 -88q-22 -10 -29 6zM75 495h363q10 0 17 -7.5t7 -17.5v-142q0 -8 -8 -11.5t-18 -1.5q-38 8 -64 9h-128v-303q0 -8 -6 -14.5t-14 -6.5h-148q-9 0 -15 6t-6 15v454q0 8 5.5 14t14.5 6z
" />
    <glyph glyph-name="uni0454" unicode="&#x454;" horiz-adv-x="535" 
d="M314 332q-39 0 -65 -31h93q9 0 15 -6t6 -15v-68q0 -8 -6.5 -14t-14.5 -6h-92q25 -30 64 -30q29 0 66 21q21 13 32 -4l67 -95q11 -19 -3 -30q-76 -61 -170 -61q-110 0 -185.5 71t-75.5 182q0 112 75.5 184t185.5 72q99 0 176 -69q15 -14 2 -30l-72 -88q-11 -15 -34 -2
q-32 19 -64 19z" />
    <glyph glyph-name="uni0456" unicode="&#x456;" horiz-adv-x="330" 
d="M166 611q-40 0 -68 27.5t-28 67.5q0 39 28 67t68 28q38 0 66 -28t28 -67q0 -40 -28 -67.5t-66 -27.5zM240 495h-149q-9 0 -14.5 -6t-5.5 -14v-421q0 -24 14 -39t38 -15h118q19 0 19 21v454q0 8 -6 14t-14 6z" />
    <glyph glyph-name="uni0457" unicode="&#x457;" horiz-adv-x="453" 
d="M77 607q-39 0 -68 29.5t-29 68.5q0 40 28.5 68.5t68.5 28.5q41 0 69.5 -28.5t28.5 -68.5q0 -39 -29 -68.5t-69 -29.5zM374 607q-39 0 -67.5 29.5t-28.5 68.5q0 41 28 69t68 28t69.5 -28.5t29.5 -68.5q0 -39 -29.5 -68.5t-69.5 -29.5zM301 495h-149q-9 0 -14.5 -6
t-5.5 -14v-421q0 -24 14 -39t38 -15h118q19 0 19 21v454q0 8 -6 14t-14 6z" />
    <glyph glyph-name="uni0458" unicode="&#x458;" horiz-adv-x="334" 
d="M168 607q-40 0 -68 28.5t-28 68.5t28 68t68 28t68 -28t28 -68t-28 -68.5t-68 -28.5zM243 495h-148q-9 0 -14.5 -6t-5.5 -14v-562q0 -49 -56 -83q-19 -10 -10 -26l76 -141q9 -16 27 -8q152 75 152 257v563q0 8 -6.5 14t-14.5 6z" />
    <glyph glyph-name="uni045C" unicode="&#x45c;" horiz-adv-x="646" 
d="M206 580l-49 82q-9 15 5 24l194 129q7 6 16.5 6t14.5 -8l72 -119q13 -22 -6 -32l-218 -88q-22 -10 -29 6zM380 251l223 -214q11 -11 6 -24t-21 -13h-160q-12 0 -19 9l-169 177v-165q0 -8 -6 -14.5t-14 -6.5h-144q-9 0 -15 6t-6 15v384q0 21 -9 64q-2 10 1.5 18t11.5 8
h156q10 0 17.5 -6.5t7.5 -16.5v-150l145 165q7 8 22 8h162q14 0 19.5 -11.5t-4.5 -21.5z" />
    <glyph glyph-name="uni045D" unicode="&#x45d;" horiz-adv-x="650" 
d="M185 653l218 -88q22 -8 29 6l49 82q9 15 -5 24l-194 129q-7 6 -16.5 6t-14.5 -8l-72 -119q-13 -22 6 -32zM481 495h89q6 0 10.5 -4.5t4.5 -10.5v-464q0 -16 -16 -16h-152q-6 0 -11 5t-5 11v208l-210 -210q-14 -14 -26 -14h-86q-14 0 -14 15v466q0 14 15 14h155
q14 0 14 -14v-212l209 209q3 2 6.5 6t5.5 6t5 3.5t6 1.5z" />
    <glyph glyph-name="uni045E" unicode="&#x45e;" horiz-adv-x="650" 
d="M138 793q3 -71 59.5 -118t131.5 -47t131.5 47t60.5 118q2 29 -20 29h-82q-11 0 -21 -22q-19 -47 -69 -47t-70 47q-9 22 -19 22h-82q-22 0 -20 -29zM450 495h156q12 0 16.5 -6.5t-1.5 -17.5l-192 -392q-130 -264 -238 -394q-15 -18 -39 0l-90 83q-19 16 1 41
q121 142 171 276l-206 386q-6 11 -1.5 17.5t16.5 6.5h155q16 0 23 -15l105 -211l100 211q6 15 24 15z" />
    <glyph glyph-name="uni0490" unicode="&#x490;" horiz-adv-x="661" 
d="M457 890h139q8 0 11.5 -8t1.5 -18q-8 -38 -9 -64v-121q0 -23 -19.5 -39t-53.5 -16h-278v-603q0 -8 -6 -14.5t-14 -6.5h-153q-9 0 -15 6t-6 15v759q0 8 5.5 14t14.5 6h331v40q0 23 14 36.5t37 13.5z" />
    <glyph glyph-name="uni0491" unicode="&#x491;" horiz-adv-x="538" 
d="M336 585h138q8 0 11.5 -8t1.5 -18q-8 -38 -9 -64v-98q0 -73 -73 -73h-165v-303q0 -8 -6 -14.5t-14 -6.5h-148q-9 0 -15 6t-6 15v454q0 8 5.5 14t14.5 6h213v40q0 23 14.5 36.5t37.5 13.5z" />
    <glyph glyph-name="uni04C0" unicode="&#x4c0;" horiz-adv-x="353" 
d="M252 800h-152q-9 0 -14.5 -6t-5.5 -14v-759q0 -9 6 -15t15 -6h152q8 0 14 6.5t6 14.5v759q0 8 -6.5 14t-14.5 6z" />
    <glyph glyph-name="uni04E2" unicode="&#x4e2;" horiz-adv-x="850" 
d="M211 886v114q0 8 6 14t14 6h392q8 0 14 -5.5t6 -13.5v-114q0 -8 -6 -14.5t-14 -6.5h-392q-8 0 -14 6t-6 14zM96 800l152 -1q8 0 14 -6t6 -14v-410l364 415q15 16 29 16h94q8 0 14 -6t6 -14v-759q0 -9 -6 -15t-15 -6h-152q-8 0 -14.5 6.5t-6.5 14.5v408l-327 -368
q-54 -61 -107 -61h-52q-8 0 -14 6t-6 14v759q0 9 6 15t15 6z" />
    <glyph glyph-name="uni04E3" unicode="&#x4e3;" horiz-adv-x="650" 
d="M113 623v114q0 8 6 14t14 6h392q8 0 14 -5.5t6 -13.5v-114q0 -8 -6 -14.5t-14 -6.5h-392q-8 0 -14 6t-6 14zM481 495h89q6 0 10.5 -4.5t4.5 -10.5v-464q0 -16 -16 -16h-152q-6 0 -11 5t-5 11v208l-210 -210q-14 -14 -26 -14h-86q-14 0 -14 15v466q0 14 15 14h155
q14 0 14 -14v-212l209 209q3 2 6.5 6t5.5 6t5 3.5t6 1.5z" />
    <glyph glyph-name="uni04EC" unicode="&#x4ec;" horiz-adv-x="798" 
d="M227 877q-39 0 -68 29.5t-29 68.5q0 40 28.5 68.5t68.5 28.5q41 0 69.5 -28.5t28.5 -68.5q0 -39 -29 -68.5t-69 -29.5zM524 877q-40 0 -68.5 29.5t-28.5 68.5q0 41 28 69t69 28q40 0 69.5 -28.5t29.5 -68.5q0 -39 -29.5 -68.5t-69.5 -29.5zM343 807q170 0 290 -119
t120 -288t-120 -288t-290 -119q-84 0 -159.5 32.5t-130.5 91.5q-14 14 1 28l122 101q16 12 28 0q35 -33 67 -48.5t77 -15.5q58 0 109.5 36.5t76.5 93.5h-248q-8 0 -14.5 6t-6.5 14v135q0 9 6 15t15 6h249q-26 57 -77 93.5t-109 36.5q-45 0 -77.5 -16.5t-67.5 -50.5
q-14 -12 -28 0l-123 103q-15 14 -1 28q55 59 131.5 92t159.5 33z" />
    <glyph glyph-name="uni04ED" unicode="&#x4ed;" horiz-adv-x="584" 
d="M142 649q-39 0 -68 29.5t-29 68.5q0 40 28.5 68.5t68.5 28.5q41 0 70 -28.5t29 -68.5q0 -39 -29.5 -68.5t-69.5 -29.5zM439 649q-39 0 -67.5 29.5t-28.5 68.5q0 41 28 69t68 28q41 0 70 -28.5t29 -68.5q0 -39 -29.5 -68.5t-69.5 -29.5zM254 502q110 0 185.5 -72
t75.5 -184q0 -111 -75.5 -182t-185.5 -71q-94 0 -170 61q-14 11 -3 30l67 95q11 17 32 4q37 -21 66 -21q39 0 64 30h-92q-8 0 -14.5 6t-6.5 14v68q0 9 6 15t15 6h93q-26 31 -65 31q-32 0 -64 -19q-23 -13 -34 2l-72 88q-13 16 2 30q77 69 176 69z" />
    <glyph glyph-name="uni04EE" unicode="&#x4ee;" horiz-adv-x="748" 
d="M158 886v114q0 8 6 14t14 6h392q8 0 14 -5.5t6 -13.5v-114q0 -8 -6 -14.5t-14 -6.5h-392q-8 0 -14 6t-6 14zM550 800h166q11 0 15 -7t-1 -18l-248 -485q-55 -108 -125.5 -190t-119.5 -120q-14 -11 -35 10l-86 93q-17 17 2 35q6 5 32 30l38.5 37.5t35 40.5t43.5 60
l-248 489q-6 11 -1.5 18t15.5 7h167q16 0 24 -16l150 -302l152 302q8 16 24 16z" />
    <glyph glyph-name="uni04EF" unicode="&#x4ef;" horiz-adv-x="650" 
d="M113 628v114q0 8 6 14t14 6h392q8 0 14 -5.5t6 -13.5v-114q0 -8 -6 -14.5t-14 -6.5h-392q-8 0 -14 6t-6 14zM450 495h156q12 0 16.5 -6.5t-1.5 -17.5l-192 -392q-130 -264 -238 -394q-15 -18 -39 0l-90 83q-19 16 1 41q121 142 171 276l-206 386q-6 11 -1.5 17.5
t16.5 6.5h155q16 0 23 -15l105 -211l100 211q6 15 24 15z" />
    <glyph glyph-name="Macute" unicode="&#x1e3e;" horiz-adv-x="1067" 
d="M457 836l218 88q19 10 6 32l-72 119q-5 8 -14.5 8t-16.5 -6l-194 -129q-14 -9 -5 -24l49 -82q7 -16 29 -6zM825 800h146q8 0 14.5 -6t6.5 -14v-759q0 -8 -6 -14.5t-14 -6.5h-153q-9 0 -15 6t-6 15v389l-239 -356q-10 -15 -25 -15h-8q-14 0 -24 15l-233 355v-388
q0 -8 -6 -14.5t-14 -6.5h-153q-9 0 -15 6t-6 15v759q0 8 5.5 14t14.5 6h146q12 0 21 -14l268 -414l274 414q9 14 21 14z" />
    <glyph glyph-name="macute" unicode="&#x1e3f;" horiz-adv-x="952" 
d="M400 585l-49 82q-9 15 5 24l194 129q7 6 16.5 6t14.5 -8l72 -119q13 -22 -6 -32l-218 -88q-22 -10 -29 6zM901 26q2 -10 -1.5 -18t-11.5 -8h-133q-24 0 -37.5 15t-13.5 38v190q0 69 -63 69q-40 0 -67 -30v-188q0 -32 8 -68q2 -10 -1.5 -18t-11.5 -8h-133q-24 0 -37.5 15
t-13.5 38v190q0 33 -16.5 51t-46.5 18q-41 0 -68 -30v-261q0 -8 -6 -14.5t-14 -6.5h-149q-20 0 -20 21v454q0 8 5.5 14t13.5 6h120q3 -26 24 -42q68 48 139 48q97 0 157 -66q77 66 163 66q89 0 147.5 -56.5t58.5 -148.5v-202q0 -32 8 -68z" />
    <glyph glyph-name="Wgrave" unicode="&#x1e80;" horiz-adv-x="1149" 
d="M647 828l-218 88q-19 10 -6 32l72 119q5 8 14.5 8t16.5 -6l194 -129q14 -9 5 -24l-49 -82q-7 -14 -29 -6zM939 800h165q11 0 17 -7.5t0 -20.5l-373 -759q-10 -21 -23 -21h-11q-12 0 -23 21l-113 230l-111 -230q-8 -21 -22 -21h-12q-13 0 -23 21l-381 760q-5 13 0 20t16 7
h165q14 0 26 -25l203 -416l39 87l-161 327q-5 13 0 20t16 7h165q14 0 26 -25l52 -111l50 111q11 25 25 25h165q11 0 17 -7.5t0 -20.5l-156 -323l42 -90l195 416q11 25 25 25z" />
    <glyph glyph-name="wgrave" unicode="&#x1e81;" horiz-adv-x="809" 
d="M478 570l-218 88q-19 10 -6 32l72 119q5 8 14.5 8t16.5 -6l194 -129q14 -9 5 -24l-49 -82q-7 -14 -29 -6zM610 495h156q11 0 15.5 -6.5t0.5 -17.5l-181 -458q-6 -13 -20 -13h-49q-13 0 -20 13l-108 211l-108 -211q-7 -13 -20 -13h-48q-14 0 -20 13l-181 458q-9 24 15 24
h157q19 0 24 -15l59 -175l89 174q7 15 24 15h18q17 0 24 -15l89 -174l60 175q5 15 24 15z" />
    <glyph glyph-name="Wacute" unicode="&#x1e82;" horiz-adv-x="1149" 
d="M471 843l-49 82q-9 15 5 24l194 129q7 6 16.5 6t14.5 -8l72 -119q13 -22 -6 -32l-218 -88q-22 -10 -29 6zM939 800h165q11 0 17 -7.5t0 -20.5l-373 -759q-10 -21 -23 -21h-11q-12 0 -23 21l-113 230l-111 -230q-8 -21 -22 -21h-12q-13 0 -23 21l-381 760q-5 13 0 20t16 7
h165q14 0 26 -25l203 -416l39 87l-161 327q-5 13 0 20t16 7h165q14 0 26 -25l52 -111l50 111q11 25 25 25h165q11 0 17 -7.5t0 -20.5l-156 -323l42 -90l195 416q11 25 25 25z" />
    <glyph glyph-name="wacute" unicode="&#x1e83;" horiz-adv-x="809" 
d="M302 585l-49 82q-9 15 5 24l194 129q7 6 16.5 6t14.5 -8l72 -119q13 -22 -6 -32l-218 -88q-22 -10 -29 6zM610 495h156q11 0 15.5 -6.5t0.5 -17.5l-181 -458q-6 -13 -20 -13h-49q-13 0 -20 13l-108 211l-108 -211q-7 -13 -20 -13h-48q-14 0 -20 13l-181 458q-9 24 15 24
h157q19 0 24 -15l59 -175l89 174q7 15 24 15h18q17 0 24 -15l89 -174l60 175q5 15 24 15z" />
    <glyph glyph-name="Wdieresis" unicode="&#x1e84;" horiz-adv-x="1149" 
d="M425 865q-40 0 -68.5 29.5t-28.5 68.5q0 41 28 69t69 28t69.5 -28.5t28.5 -68.5q0 -39 -29 -68.5t-69 -29.5zM722 865q-40 0 -68.5 29.5t-28.5 68.5q0 41 28 69t69 28q40 0 69.5 -28.5t29.5 -68.5q0 -39 -29.5 -68.5t-69.5 -29.5zM939 800h165q11 0 17 -7.5t0 -20.5
l-373 -759q-10 -21 -23 -21h-11q-12 0 -23 21l-113 230l-111 -230q-8 -21 -22 -21h-12q-13 0 -23 21l-381 760q-5 13 0 20t16 7h165q14 0 26 -25l203 -416l39 87l-161 327q-5 13 0 20t16 7h165q14 0 26 -25l52 -111l50 111q11 25 25 25h165q11 0 17 -7.5t0 -20.5l-156 -323
l42 -90l195 416q11 25 25 25z" />
    <glyph glyph-name="wdieresis" unicode="&#x1e85;" horiz-adv-x="809" 
d="M256 607q-40 0 -68.5 29.5t-28.5 68.5q0 41 28.5 69t68.5 28q41 0 69.5 -28.5t28.5 -68.5q0 -39 -29 -68.5t-69 -29.5zM553 607q-40 0 -68.5 29.5t-28.5 68.5q0 41 28 69t69 28q40 0 69.5 -28.5t29.5 -68.5q0 -39 -29.5 -68.5t-69.5 -29.5zM610 495h156q11 0 15.5 -6.5
t0.5 -17.5l-181 -458q-6 -13 -20 -13h-49q-13 0 -20 13l-108 211l-108 -211q-7 -13 -20 -13h-48q-14 0 -20 13l-181 458q-9 24 15 24h157q19 0 24 -15l59 -175l89 174q7 15 24 15h18q17 0 24 -15l89 -174l60 175q5 15 24 15z" />
    <glyph glyph-name="Ygrave" unicode="&#x1ef2;" horiz-adv-x="783" 
d="M248 919l218 -88q22 -8 29 6l49 82q9 15 -5 24l-194 129q-7 6 -16.5 6t-14.5 -8l-72 -119q-13 -22 6 -32zM572 800h183q9 0 12 -6.5t-2 -14.5l-275 -419v-339q0 -21 -19 -21h-123q-24 0 -38 15t-14 39v303l-277 422q-5 8 -2 14.5t12 6.5h184q3 0 5.5 -1t5 -3.5t3.5 -4
t4 -6.5t4 -6l157 -238l157 238q13 21 23 21z" />
    <glyph glyph-name="ygrave" unicode="&#x1ef3;" horiz-adv-x="650" 
d="M185 658l218 -88q22 -8 29 6l49 82q9 15 -5 24l-194 129q-7 6 -16.5 6t-14.5 -8l-72 -119q-13 -22 6 -32zM450 495h156q12 0 16.5 -6.5t-1.5 -17.5l-192 -392q-130 -264 -238 -394q-15 -18 -39 0l-90 83q-19 16 1 41q121 142 171 276l-206 386q-6 11 -1.5 17.5t16.5 6.5
h155q16 0 23 -15l105 -211l100 211q6 15 24 15z" />
    <glyph glyph-name="endash" unicode="&#x2013;" horiz-adv-x="699" 
d="M619 354v-110q0 -8 -6 -14.5t-14 -6.5h-498q-8 0 -14.5 6t-6.5 14v110q0 9 6 15t15 6h498q8 0 14 -5.5t6 -14.5z" />
    <glyph glyph-name="emdash" unicode="&#x2014;" horiz-adv-x="914" 
d="M854 354v-110q0 -8 -6 -14.5t-14 -6.5h-753q-8 0 -14.5 6t-6.5 14v110q0 9 6 15t15 6h753q8 0 14 -5.5t6 -14.5z" />
    <glyph glyph-name="quoteleft" unicode="&#x2018;" horiz-adv-x="283" 
d="M147 716q47 0 81 -35t34 -83q0 -47 -34 -81t-81 -34q-50 0 -83 35q-33 31 -39 77q-10 74 11 154q16 49 50.5 90t71.5 64q17 8 27 -3l23 -29q7 -10 0 -15q-81 -60 -93 -145q17 5 32 5z" />
    <glyph glyph-name="quoteright" unicode="&#x2019;" horiz-adv-x="262" 
d="M238 709q10 -72 -12 -154q-16 -49 -50 -90t-72 -65q-16 -7 -26 3l-23 30q-6 9 0 14q81 62 93 146q-18 -5 -33 -5q-47 0 -81 34.5t-34 82.5q0 47 34 81t81 34q57 0 94 -45q23 -29 29 -66z" />
    <glyph glyph-name="quotesinglbase" unicode="&#x201a;" horiz-adv-x="644" 
d="M271 166q21 -27 27 -63q10 -74 -11 -154q-16 -49 -50.5 -90t-71.5 -64q-17 -9 -26 3l-24 29q-7 10 0 15q81 60 94 145q-18 -5 -33 -5q-47 0 -81 35t-34 82q0 48 34 82t81 34q61 0 95 -49zM580 103q10 -74 -11 -154q-16 -49 -50.5 -90t-71.5 -64q-17 -8 -27 3l-23 29
q-7 10 0 15q81 60 94 145q-18 -5 -33 -5q-47 0 -81.5 35t-34.5 82q0 48 34.5 82t81.5 34q61 0 97 -51q21 -28 25 -61z" />
    <glyph glyph-name="quotedblleft" unicode="&#x201c;" horiz-adv-x="584" 
d="M156 633q48 0 82 -34.5t34 -82.5t-34 -82t-82 -34q-70 0 -104 62q-13 22 -18 50q-10 72 12 154q16 49 50.5 90t71.5 64q16 9 26 -3l23 -29q7 -10 0 -15q-81 -62 -93 -145q17 5 32 5zM438 633q48 0 82 -34.5t34 -82.5t-34 -82t-82 -34q-61 0 -97 51q-21 28 -25 61
q-10 70 11 154q17 49 51 90t71 64q17 8 27 -3l23 -29q7 -10 0 -15q-81 -60 -94 -145q18 5 33 5z" />
    <glyph glyph-name="quotedblright" unicode="&#x201d;" horiz-adv-x="586" 
d="M239 775q23 -29 29 -66q10 -72 -12 -154q-16 -49 -50 -90t-72 -65q-16 -7 -26 3l-23 30q-6 9 0 14q81 62 93 146q-18 -5 -33 -5q-47 0 -81 34.5t-34 82.5q0 47 34 81t81 34q57 0 94 -45zM550 709q10 -72 -12 -154q-16 -49 -50 -90t-72 -65q-16 -7 -26 3l-24 30q-6 9 0 14
q82 61 94 146q-18 -5 -33 -5q-47 0 -81 34.5t-34 82.5q0 47 34 81t81 34q66 0 100 -54q17 -27 23 -57z" />
    <glyph glyph-name="quotedblbase" unicode="&#x201e;" horiz-adv-x="645" 
d="M271 166q21 -27 27 -63q10 -74 -11 -154q-16 -49 -50.5 -90t-71.5 -64q-17 -9 -26 3l-24 29q-7 10 0 15q81 60 94 145q-18 -5 -33 -5q-47 0 -81 35t-34 82q0 48 34 82t81 34q61 0 95 -49zM580 103q10 -74 -11 -154q-16 -49 -50.5 -90t-71.5 -64q-17 -8 -27 3l-23 29
q-7 10 0 15q81 60 94 145q-18 -5 -33 -5q-47 0 -81.5 35t-34.5 82q0 48 34.5 82t81.5 34q61 0 97 -51q21 -28 25 -61z" />
    <glyph glyph-name="dagger" unicode="&#x2020;" horiz-adv-x="514" 
d="M344 482h110q20 0 20 -20v-157q0 -20 -20 -20h-118l-17 -465q-2 -20 -20 -20h-94q-20 0 -20 20l-13 465h-112q-20 0 -20 20v157q0 20 20 20h107l-8 298q0 20 20 20h156q22 0 20 -20z" />
    <glyph glyph-name="daggerdbl" unicode="&#x2021;" horiz-adv-x="514" 
d="M454 354h-115l-1 -38h116q20 0 20 -20v-157q0 -20 -20 -20h-124l-11 -299q-2 -20 -20 -20h-94q-20 0 -20 20l-8 299h-117q-20 0 -20 20v157q0 20 20 20h112l-1 38h-111q-20 0 -20 20v157q0 20 20 20h105l-6 229q0 20 20 20h156q22 0 20 -20l-9 -229h108q20 0 20 -20v-157
q0 -20 -20 -20z" />
    <glyph glyph-name="bullet" unicode="&#x2022;" horiz-adv-x="457" 
d="M231 73q-73 0 -127 53t-54 125q0 73 54 126t127 53q72 0 124 -53t52 -126t-52 -125.5t-124 -52.5z" />
    <glyph glyph-name="ellipsis" unicode="&#x2026;" horiz-adv-x="954" 
d="M166 -13q-48 0 -82 34.5t-34 82.5t34 82t82 34t82.5 -34t34.5 -82q0 -47 -34.5 -82t-82.5 -35zM476 -13q-47 0 -81 35t-34 82q0 48 34 82t81 34q48 0 83 -34t35 -82q0 -47 -35 -82t-83 -35zM787 -13q-48 0 -82 34.5t-34 82.5t34 82t82 34t82.5 -34t34.5 -82
q0 -47 -35 -82t-82 -35z" />
    <glyph glyph-name="perthousand" unicode="&#x2030;" horiz-adv-x="1030" 
d="M155 505q-60 0 -102.5 42t-42.5 102q0 59 42.5 101t102.5 42q58 0 100 -42.5t42 -100.5q0 -60 -42 -102t-100 -42zM50 20l412 757q7 12 21 12h130q9 0 13.5 -7t0.5 -15l-410 -754q-8 -13 -21 -13h-132q-10 0 -14 6t0 14zM529 0q-60 0 -102.5 42t-42.5 102q0 59 42.5 101
t102.5 42q58 0 100 -42t42 -101q0 -60 -41.5 -102t-100.5 -42zM877 0q-60 0 -102.5 42t-42.5 102q0 59 42.5 101t102.5 42q59 0 101 -42.5t42 -100.5q0 -60 -42 -102t-101 -42z" />
    <glyph glyph-name="guilsinglleft" unicode="&#x2039;" horiz-adv-x="400" 
d="M54 215l129 -195q6 -11 18 -11h123q32 0 18 38l-69 184l73 175q7 18 2 29t-20 11h-116q-13 0 -23 -15l-135 -187q-8 -15 0 -29z" />
    <glyph glyph-name="guilsinglright" unicode="&#x203a;" horiz-adv-x="400" 
d="M217 20l129 195q8 14 0 29l-135 187q-10 15 -23 15h-116q-15 0 -20 -11t2 -29l74 -175l-70 -184q-14 -38 18 -38h123q12 0 18 11z" />
    <glyph glyph-name="fraction" unicode="&#x2044;" horiz-adv-x="220" 
d="M-133 24l397 762q7 14 23 14h50q12 0 16 -7t-1 -17l-397 -762q-7 -14 -23 -14h-50q-12 0 -16 7t1 17z" />
    <glyph glyph-name="Euro" unicode="&#x20ac;" horiz-adv-x="792" 
d="M626 250l117 -119q14 -15 1 -28q-119 -111 -281 -111q-126 0 -228 68.5t-150 179.5h-55q-8 0 -14 5.5t-6 14.5v109q0 8 6 14.5t14 6.5h21v13v11h-21q-8 0 -14 5.5t-6 14.5v109q0 8 6 14.5t14 6.5h54q47 112 150 181.5t229 69.5q162 0 282 -112q13 -13 -1 -28l-118 -120
q-12 -13 -28 0q-33 29 -64 40t-76 11q-68 0 -121 -42h98q8 0 14.5 -6t6.5 -14v-109q0 -9 -6 -15t-15 -6h-175v-10v-14h175q8 0 14.5 -6t6.5 -14v-109q0 -9 -6 -15t-15 -6h-95q53 -40 119 -40q45 0 74.5 10.5t64.5 39.5q16 13 28 0z" />
    <glyph glyph-name="trademark" unicode="&#x2122;" horiz-adv-x="644" 
d="M44 800h192q15 0 15 -14v-56q0 -15 -15 -15h-53v-201q0 -6 -4.5 -10.5t-10.5 -4.5h-55q-7 0 -11.5 4.5t-4.5 10.5v201h-53q-14 0 -14 15v56q0 14 14 14zM557 800h43q14 0 14 -14v-272q0 -15 -14 -15h-56q-6 0 -10.5 4.5t-4.5 10.5v100l-65 -105q-5 -9 -14 -9h-2
q-10 0 -15 9l-62 105v-100q0 -6 -4.5 -10.5t-10.5 -4.5h-56q-6 0 -10.5 4.5t-4.5 10.5v272q0 14 15 14h39q10 0 15 -8l95 -153l93 153q4 8 15 8z" />
    <glyph glyph-name="oneeighth" unicode="&#x215b;" horiz-adv-x="751" 
d="M125 462v212l-60 -4q-15 -2 -15 10v44q0 12 10 15q32 9 65 46l8 10q5 5 11 5h62q5 0 9 -3.5t4 -8.5v-326q0 -13 -13 -13h-67q-14 0 -14 13zM536 800h50q12 0 16 -7t-1 -17l-397 -762q-7 -14 -23 -14h-50q-12 0 -16 7t1 17l397 762q7 14 23 14zM642 184v-2q59 -31 59 -89
q0 -43 -32.5 -71.5t-89.5 -28.5q-55 0 -86.5 28.5t-31.5 71.5q0 34 19.5 57t38.5 32v2q-51 27 -51 81q0 44 31.5 70.5t79.5 26.5q50 0 82.5 -26.5t32.5 -70.5q0 -51 -52 -81zM580 296q-15 0 -26 -10t-11 -24t11 -25.5t26 -11.5q16 0 27 11.5t11 25.5t-11.5 24t-26.5 10z
M581 55q18 0 31 12t13 30q0 17 -12 30.5t-32 13.5t-32 -13.5t-12 -30.5t13.5 -29.5t30.5 -12.5z" />
    <glyph glyph-name="threeeighths" unicode="&#x215c;" horiz-adv-x="746" 
d="M267 482q-46 -50 -110.5 -46t-113.5 62q-6 7 0 13l37 39q6 6 13 -1q14 -15 29.5 -25t37 -15t36.5 11q30 26 9.5 55t-55.5 14q-6 -6 -12 2l-31 38q-5 7 0 13l66 81h-109q-10 0 -10 8v58q0 11 10 11h204q10 0 10 -10v-57q0 -3 -2 -5l-67 -74q53 -12 73 -70t-15 -102z
M541 800h50q12 0 16 -7t-1 -17l-397 -762q-7 -14 -23 -14h-50q-12 0 -16 7t1 17l397 762q7 14 23 14zM647 184v-2q59 -31 59 -89q0 -43 -32.5 -71.5t-89.5 -28.5q-55 0 -86.5 28.5t-31.5 71.5q0 34 19.5 57t38.5 32v2q-51 27 -51 81q0 44 31.5 70.5t79.5 26.5
q50 0 82.5 -26.5t32.5 -70.5q0 -51 -52 -81zM585 296q-15 0 -26 -10t-11 -24t11 -25.5t26 -11.5q16 0 27 11.5t11 25.5t-11.5 24t-26.5 10zM586 55q18 0 31 12t13 30q0 17 -12 30.5t-32 13.5t-32 -13.5t-12 -30.5t13.5 -29.5t30.5 -12.5z" />
    <glyph glyph-name="fiveeighths" unicode="&#x215d;" horiz-adv-x="752" 
d="M258 481q-42 -47 -104.5 -45t-109.5 57q-5 7 2 14l36 38q8 8 14 -3q14 -21 40 -31.5t50 4.5q19 16 17.5 40t-20 34t-47.5 -1h-1h-4l-9 1l-53 5q-9 0 -9 12l-2 124v2v58q0 10 10 10h184q11 0 11 -9v-59q0 -8 -11 -8h-117v-65q39 9 69 1t48.5 -29.5t26.5 -47.5t2.5 -54
t-23.5 -48zM547 800h50q12 0 16 -7t-1 -17l-397 -762q-7 -14 -23 -14h-50q-12 0 -16 7t1 17l397 762q7 14 23 14zM653 184v-2q59 -31 59 -89q0 -43 -32.5 -71.5t-89.5 -28.5q-55 0 -86.5 28.5t-31.5 71.5q0 34 19.5 57t38.5 32v2q-51 27 -51 81q0 44 31.5 70.5t79.5 26.5
q50 0 82.5 -26.5t32.5 -70.5q0 -51 -52 -81zM591 296q-15 0 -26 -10t-11 -24t11 -25.5t26 -11.5q16 0 27 11.5t11 25.5t-11.5 24t-26.5 10zM592 55q18 0 31 12t13 30q0 17 -12 30.5t-32 13.5t-32 -13.5t-12 -30.5t13.5 -29.5t30.5 -12.5z" />
    <glyph glyph-name="seveneighths" unicode="&#x215e;" horiz-adv-x="702" 
d="M273 767l-149 -314q-2 -4 -12 -4h-63q-4 0 -5.5 4.5t0.5 6.5l122 262h-116q-10 0 -10 9v59q0 10 10 10h216q8 0 8 -10v-17q0 -4 -1 -6zM497 800h50q12 0 16 -7t-1 -17l-397 -762q-7 -14 -23 -14h-50q-12 0 -16 7t1 17l397 762q7 14 23 14zM603 184v-2q59 -31 59 -89
q0 -43 -32.5 -71.5t-89.5 -28.5q-55 0 -86.5 28.5t-31.5 71.5q0 34 19.5 57t38.5 32v2q-51 27 -51 81q0 44 31.5 70.5t79.5 26.5q50 0 82.5 -26.5t32.5 -70.5q0 -51 -52 -81zM541 296q-15 0 -26 -10t-11 -24t11 -25.5t26 -11.5q16 0 27 11.5t11 25.5t-11.5 24t-26.5 10z
M542 55q18 0 31 12t13 30q0 17 -12 30.5t-32 13.5t-32 -13.5t-12 -30.5t13.5 -29.5t30.5 -12.5z" />
    <glyph glyph-name="partialdiff" unicode="&#x2202;" horiz-adv-x="599" 
d="M475 627q43 -59 64.5 -140t19.5 -164q0 -114 -35 -189q-31 -67 -92.5 -108.5t-136.5 -41.5q-106 0 -180.5 74.5t-74.5 178.5t74.5 174.5t181.5 70.5q29 0 59 -8q-20 53 -64.5 84.5t-108.5 32.5q-22 0 -20 21l16 148q2 20 21 20q89 -4 160.5 -48.5t115.5 -104.5zM368 231
q3 28 -18.5 50.5t-50.5 22.5q-27 0 -47.5 -21t-20.5 -49t20.5 -49t47.5 -21q28 0 48 20t21 47z" />
    <glyph glyph-name="emptyset" unicode="&#x2205;" horiz-adv-x="909" 
d="M781 831l101 -101q16 -14 0 -29l-79 -79q63 -101 63 -220q0 -171 -120.5 -291.5t-291.5 -120.5q-120 0 -219 63l-80 -80q-6 -6 -14.5 -6t-14.5 6l-101 102q-14 14 0 28l80 80q-63 99 -63 219q0 171 120.5 291.5t291.5 120.5q117 0 219 -62l79 79q15 14 29 0zM254 403
q0 -34 10 -61l250 251q-28 9 -59 9q-83 0 -142 -58.5t-59 -140.5zM653 403q0 31 -9 60l-250 -251q28 -9 61 -9q81 0 139.5 58.5t58.5 141.5z" />
    <glyph glyph-name="product" unicode="&#x220f;" horiz-adv-x="770" 
d="M729 780l1 -759q0 -8 -6 -14.5t-14 -6.5h-159q-9 0 -15 6t-6 15v580h-291l1 -580q0 -8 -6 -14.5t-14 -6.5h-159q-9 0 -15 6t-6 15v759q0 8 5.5 14t14.5 6h649q8 0 14 -6t6 -14z" />
    <glyph glyph-name="summation" unicode="&#x2211;" horiz-adv-x="678" 
d="M638 780v-154q0 -9 -6 -15t-15 -6h-274l170 -183q14 -16 14 -24v-2q0 -8 -14 -24l-169 -176h273q8 0 14.5 -6t6.5 -14v-155q0 -9 -6 -15t-15 -6h-557q-8 0 -14 5.5t-6 14.5v155q0 10 14 24l218 198l-218 203q-14 14 -14 24v155q0 8 6 14.5t14 6.5h557q8 0 14.5 -6
t6.5 -14z" />
    <glyph glyph-name="minus" unicode="&#x2212;" horiz-adv-x="579" 
d="M539 426v-107q0 -8 -6 -14.5t-14 -6.5h-458q-8 0 -14.5 6t-6.5 14v107q0 9 6 15t15 6h458q8 0 14 -5.5t6 -14.5z" />
    <glyph glyph-name="radical" unicode="&#x221a;" horiz-adv-x="731" 
d="M306 -9h-11q-3 0 -6 1t-5 3.5t-3.5 4t-3.5 5.5l-3 6l-248 469q-4 8 3 14t17 6h155q10 0 20 -19l81 -154l207 454q8 19 20 19h156q10 0 16.5 -6t3.5 -14l-375 -769q-9 -20 -24 -20z" />
    <glyph glyph-name="infinity" unicode="&#x221e;" horiz-adv-x="868" 
d="M432 327h3q11 -20 29.5 -40.5t60 -42t90.5 -21.5q98 0 160.5 62t62.5 170q0 111 -62 172t-161 61q-67 0 -112 -29.5t-68 -72.5h-4q-63 102 -192 102q-91 0 -150 -64.5t-59 -168.5q0 -101 59 -166.5t150 -65.5q132 0 193 104zM252 525q29 0 50 -19.5t21 -50.5
q0 -30 -21 -49.5t-50 -19.5q-28 0 -48 19.5t-20 47.5q0 31 19.5 51.5t48.5 20.5zM684 455q0 -28 -18.5 -48.5t-45.5 -20.5q-26 0 -47 18.5t-21 50.5t21 51t47 19q27 0 45.5 -21t18.5 -49z" />
    <glyph glyph-name="integral" unicode="&#x222b;" horiz-adv-x="582" 
d="M533 776q14 -12 7 -25l-56 -110q-9 -18 -27 -10q-20 13 -34 10q-34 -5 -34 -46v-821q-2 -94 -60 -145t-151 -51q-77 0 -129 44q-14 12 -7 25l56 110q11 18 27 10q20 -13 34 -10q34 5 34 46v816q0 96 58 148.5t153 52.5q77 0 129 -44z" />
    <glyph glyph-name="approxequal" unicode="&#x2248;" horiz-adv-x="602" 
d="M20 411q12 -11 41 -43.5t33 -36.5q7 -8 17.5 -7.5t17.5 10.5q47 62 97 62q7 0 13 -1t12.5 -3.5l10.5 -4t11 -6t9.5 -6t10.5 -7.5t9 -7q22 -16 36.5 -24.5t39 -16.5t52.5 -8q42 0 90 29t76 57l27 29q6 6 6 15t-5 15l-66 79q-18 18 -36 -1q-49 -64 -100 -64q-8 0 -17 2.5
l-14.5 4t-15.5 7.5t-12.5 8t-13.5 10l-11 8q-63 45 -119 45q-42 0 -91.5 -28.5t-77.5 -57.5l-29 -29q-13 -13 -1 -30zM19 133q11 -10 39.5 -41.5t34.5 -37.5q7 -8 17 -7.5t18 9.5q46 62 97 62q7 0 13 -1t12.5 -3.5l10.5 -4t11 -6t9.5 -6t10.5 -7.5t9 -7q24 -16 37 -24
t38 -16t53 -8q42 0 90 28.5t75 56.5l28 29q14 16 0 30l-65 80q-7 8 -18 7.5t-18 -9.5q-49 -64 -100 -64q-7 0 -14 1t-14 4t-12 5.5t-12.5 7.5t-11 7t-11 8t-9.5 7q-61 46 -119 46q-42 0 -91.5 -29t-78.5 -58l-28 -29q-13 -13 -1 -30z" />
    <glyph glyph-name="notequal" unicode="&#x2260;" horiz-adv-x="600" 
d="M519 384h-139l-9 -26h148q8 0 14 -5.5t6 -14.5v-115q0 -8 -6 -14.5t-14 -6.5h-204l-67 -188q-6 -14 -21 -14h-132q-8 0 -12 6t-1 14l65 182h-77q-8 0 -14.5 6t-6.5 14v115q0 9 6 15t15 6h133l9 26h-142q-8 0 -14.5 6t-6.5 14v115q0 9 6 15t15 6h198l73 204q5 13 21 13
h128q9 0 13.5 -7t1.5 -15l-70 -195h84q8 0 14 -5.5t6 -14.5v-115q0 -8 -6 -14.5t-14 -6.5z" />
    <glyph glyph-name="lessequal" unicode="&#x2264;" horiz-adv-x="498" 
d="M40 464v-5q0 -12 10 -18l359 -218q11 -6 20 -1t9 18v138q0 11 -10 17l-135 68l135 68q10 8 10 17v138q0 13 -9.5 18t-19.5 -1l-359 -221q-10 -6 -10 -18zM46 21v115q0 9 6 14.5t14 5.5h351q9 0 15 -6t6 -15v-115q0 -8 -6.5 -14t-14.5 -6h-351q-8 0 -14 6.5t-6 14.5z" />
    <glyph glyph-name="greaterequal" unicode="&#x2265;" horiz-adv-x="498" 
d="M458 459v5q0 12 -10 18l-359 221q-10 6 -19.5 1t-9.5 -18v-138q0 -9 10 -17l135 -68l-135 -68q-10 -6 -10 -17v-138q0 -13 9 -18t20 1l359 218q10 6 10 18zM452 136v-115q0 -8 -6 -14.5t-14 -6.5h-351q-8 0 -14.5 6t-6.5 14v115q0 9 6 15t15 6h351q8 0 14 -5.5t6 -14.5z
" />
    <glyph glyph-name="lozenge" unicode="&#x25ca;" horiz-adv-x="869" 
d="M45 412l370 370q20 20 40 0l369 -370q20 -20 0 -40l-369 -370q-20 -20 -40 0l-370 370q-20 20 0 40zM435 565l-173 -173l173 -173l173 173z" />
    <glyph glyph-name="W.ss01" horiz-adv-x="1228" 
d="M44 800h160q18 0 26 -25l130 -400l165 400q11 25 27 25h124q16 0 27 -25l165 -400l131 400q8 25 25 25h160q26 0 16 -28l-292 -759q-8 -21 -23 -21h-25q-15 0 -23 21l-223 542l-223 -542q-6 -21 -22 -21h-26q-15 0 -23 21l-292 759q-5 13 0 20.5t16 7.5z" />
    <glyph glyph-name="i.loclTRK" horiz-adv-x="339" 
d="M170 613q-40 0 -67.5 28t-27.5 67q0 38 27.5 66t67.5 28q38 0 65.5 -28t27.5 -66q0 -39 -27.5 -67t-65.5 -28zM244 495h-149q-9 0 -14.5 -6t-5.5 -14v-421q0 -24 14 -39t38 -15h118q19 0 19 21v454q0 8 -6 14t-14 6z" />
    <glyph glyph-name="zero.osf" horiz-adv-x="607" 
d="M304 -13q-109 0 -186 77t-77 186t77 186t186 77t186 -77t77 -186t-77 -186t-186 -77zM307 172q32 0 55 23.5t23 55.5t-23 55t-55 23q-33 0 -55.5 -23t-22.5 -55q0 -33 22.5 -56t55.5 -23z" />
    <glyph glyph-name="one.osf" horiz-adv-x="415" 
d="M191 500h143q8 0 14.5 -6t6.5 -14v-459q0 -8 -6 -14.5t-14 -6.5h-154q-9 0 -15 6t-6 15v229l-101 -4q-23 -2 -23 16l-1 98q0 19 17 24q29 9 53.5 31.5t54.5 59.5v1l13 16q7 8 18 8z" />
    <glyph glyph-name="two.osf" 
d="M463 170h82q20 0 20 -20v-129q0 -8 -6 -14.5t-14 -6.5h-456q-8 0 -14.5 6t-6.5 14v34q0 12 13 19l219 121q66 36 66 91q0 23 -18.5 40.5t-42.5 17.5q-54 0 -70 -47q-5 -20 -23 -20h-148q-10 0 -15.5 6.5t-3.5 16.5q13 91 80.5 150.5t188.5 59.5q106 0 171.5 -56.5
t65.5 -131.5q0 -47 -23 -81q-10 -15 -65 -70z" />
    <glyph glyph-name="three.osf" horiz-adv-x="618" 
d="M97 495h431q21 0 21 -21v-132q0 -20 -15 -37l-126 -133q55 -16 96 -55q69 -66 69 -172q0 -96 -77.5 -163t-184.5 -67q-146 0 -259 133q-13 14 1 28l102 97q13 13 28 -2q71 -71 126 -71q33 0 52 22.5t19 48.5q0 25 -16 44.5t-43 19.5q-10 0 -24.5 -3.5t-18.5 -3.5
q-10 0 -17 8l-69 94q-13 16 1 30l155 156h-251q-8 0 -14.5 6t-6.5 14v138q0 9 6 15t15 6z" />
    <glyph glyph-name="four.osf" horiz-adv-x="624" 
d="M526 22h23q20 0 20 -20v-134q0 -8 -6 -14.5t-14 -6.5h-23v-112q0 -20 -20 -20h-130q-8 0 -14.5 6t-6.5 14v112h-288q-8 0 -14.5 6t-6.5 14l-1 134q0 10 9 17q136 112 207 291q29 73 30 166q0 20 20 20h150q9 0 15 -6t6 -15q-5 -175 -73 -291q-62 -105 -117 -161h63v26
q0 17 20 22l130 27q9 2 15 -5t6 -17v-53z" />
    <glyph glyph-name="five.osf" horiz-adv-x="624" 
d="M268 319v-95q33 9 86 9q102 0 163.5 -76t61.5 -177q0 -110 -77.5 -186t-195.5 -76q-144 0 -254 130q-12 15 1 29l102 107q14 15 30 -1q68 -66 127 -66q30 0 48 17t18 44q0 26 -17 44t-45 18q-23 0 -47 -11l-165 41q-10 2 -16.5 9.5t-6.5 15.5v378q0 11 6 18t18 6
q128 -4 207 -4q78 0 206 4q25 2 25 -22v-129q0 -8 -5.5 -14t-13.5 -7q-77 -8 -169 -8q-59 0 -87 2z" />
    <glyph glyph-name="six.osf" horiz-adv-x="619" 
d="M326 481q101 0 174.5 -70.5t73.5 -173.5q0 -104 -75 -175.5t-186 -71.5q-122 0 -195 95.5t-73 237.5q0 64 16 128t47.5 122t75.5 103t104.5 73t128.5 31q21 2 23 -22l7 -145q0 -9 -7.5 -15.5t-16.5 -6.5q-122 -1 -165 -118q24 8 68 8zM314 168q28 0 48 20.5t20 49.5
q0 28 -20.5 50t-47.5 22q-28 0 -48.5 -22t-20.5 -50q0 -29 20 -49.5t49 -20.5z" />
    <glyph glyph-name="seven.osf" horiz-adv-x="600" 
d="M560 475v-36q0 -9 -5 -16l-272 -679q-9 -19 -28 -19h-164q-9 0 -12.5 11t-0.5 19l236 555h-257q-8 0 -15 6.5t-7 14.5v142q0 9 6.5 15.5t15.5 6.5h483q20 0 20 -20z" />
    <glyph glyph-name="eight.osf" horiz-adv-x="624" 
d="M175 399v-3q-17 -9 -34 -21t-41.5 -35t-39.5 -57.5t-15 -74.5q0 -95 72 -156.5t193 -61.5q124 0 196.5 61.5t72.5 156.5q0 40 -12.5 73t-35.5 55t-41 34.5t-43 25.5v4q22 13 38 25t34.5 32.5t28.5 49.5t10 65q0 91 -70 149.5t-178 58.5q-105 0 -174 -58.5t-69 -149.5
q0 -114 108 -173zM375 557q0 -23 -18 -42.5t-45 -19.5q-28 0 -46 19t-18 43t18.5 41t43.5 17q28 0 46.5 -17t18.5 -41zM312 155q-30 0 -51.5 18.5t-21.5 44.5q0 25 20.5 45.5t52.5 20.5q33 0 53 -20.5t20 -45.5q0 -26 -21.5 -44.5t-51.5 -18.5z" />
    <glyph glyph-name="nine.osf" horiz-adv-x="619" 
d="M293 9q-101 0 -174.5 70.5t-73.5 173.5q0 104 75 175.5t186 71.5q122 0 195 -95.5t73 -237.5q0 -109 -43 -210.5t-130 -171.5t-200 -75q-21 -2 -23 22l-6 145q-1 9 7 15.5t17 6.5q120 1 165 118q-25 -8 -68 -8zM304 322q-27 0 -47.5 -21t-20.5 -49t20.5 -50t47.5 -22
q29 0 49.5 22t20.5 50q0 29 -20.5 49.5t-49.5 20.5z" />
    <glyph glyph-name="zero.dnom" horiz-adv-x="355" 
d="M177 -8q-69 0 -103 49.5t-34 128.5q0 81 34 131.5t103 50.5q70 0 104 -50.5t34 -131.5q0 -79 -34 -128.5t-104 -49.5zM177 75q36 0 48.5 25t12.5 70q0 46 -12.5 71.5t-48.5 25.5q-35 0 -48 -25.5t-13 -71.5q0 -45 13 -70t48 -25z" />
    <glyph glyph-name="one.dnom" horiz-adv-x="269" 
d="M144 351h62q5 0 9 -3.5t4 -8.5v-326q0 -13 -13 -13h-67q-14 0 -14 13v212l-60 -4q-15 -2 -15 10v44q0 12 10 15q32 9 65 46l8 10q5 5 11 5z" />
    <glyph glyph-name="two.dnom" horiz-adv-x="335" 
d="M201 83h85q9 0 9 -10v-62q0 -11 -9 -11h-219q-11 0 -11 11v12l48 60l69 88q2 3 10.5 14.5t12.5 17.5t8 15.5t4 17.5q0 19 -14 32.5t-34 13.5q-29 0 -64 -37q-7 -9 -14 0l-39 41q-7 7 -1 14q37 52 97.5 61.5t103.5 -24.5q37 -26 43 -78.5t-22 -90.5z" />
    <glyph glyph-name="three.dnom" horiz-adv-x="325" 
d="M274 283l-67 -74q53 -12 73 -70t-15 -102q-46 -50 -110.5 -46t-113.5 62q-6 7 0 13l37 39q6 6 13 -1q14 -15 29.5 -25t37 -15t36.5 11q30 26 9.5 55t-55.5 14q-6 -6 -12 2l-31 38q-5 6 0 13l66 81h-109q-10 0 -10 8v58q0 11 10 11h204q10 0 10 -10v-57q0 -3 -2 -5z" />
    <glyph glyph-name="four.dnom" horiz-adv-x="322" 
d="M254 153h18q10 0 10 -10v-58q0 -9 -10 -9h-18v-67q0 -9 -9 -9h-58q-10 0 -10 9v67h-127q-9 0 -9 9l-1 57q0 5 4 9q66 52 95 125q14 36 14 73q0 10 10 10h61q9 0 9 -10q-1 -59 -34 -131q-17 -32 -59 -65h37v8q0 10 9 10l58 5q10 0 10 -11v-12z" />
    <glyph glyph-name="five.dnom" horiz-adv-x="323" 
d="M134 283v-65q39 9 69 1t48.5 -29.5t26.5 -47.5t2.5 -54t-23.5 -48q-42 -47 -104.5 -45t-109.5 57q-5 7 2 14l36 38q8 8 14 -3q14 -21 40 -31.5t50 4.5q19 16 17.5 40t-20 34t-47.5 -1h-1h-4l-9 1l-53 5q-9 0 -9 12l-2 124v2v58q0 10 10 10h184q11 0 11 -9v-59
q0 -8 -11 -8h-117z" />
    <glyph glyph-name="six.dnom" horiz-adv-x="311" 
d="M159 224q51 0 86.5 -32.5t35.5 -80.5q0 -49 -36 -83t-86 -34q-35 0 -63.5 17.5t-43.5 46.5q-21 39 -21 92q-2 84 42 141q53 68 132 71q9 0 10 -9l5 -55q1 -4 -2 -6.5t-8 -2.5q-35 0 -58 -20.5t-34 -52.5q21 8 41 8zM157 62q20 0 34.5 14t14.5 34t-15 34.5t-34 14.5
q-21 0 -35.5 -16t-12.5 -36t14.5 -32.5t33.5 -12.5z" />
    <glyph glyph-name="seven.dnom" horiz-adv-x="314" 
d="M274 341v-17q0 -4 -1 -6l-149 -314q-2 -4 -12 -4h-63q-4 0 -5.5 4.5t0.5 6.5l122 262h-116q-10 0 -10 9v59q0 10 10 10h216q8 0 8 -10z" />
    <glyph glyph-name="eight.dnom" horiz-adv-x="300" 
d="M88 184v-2q-10 -5 -21.5 -14t-24 -30t-12.5 -45q0 -43 31.5 -71.5t86.5 -28.5q57 0 89.5 28.5t32.5 71.5q0 58 -59 89v2q52 30 52 81q0 44 -32.5 70.5t-82.5 26.5q-48 0 -79.5 -26.5t-31.5 -70.5q0 -54 51 -81zM187 262q0 -14 -11 -25.5t-27 -11.5q-15 0 -26 11.5
t-11 25.5t11 24t26 10t26.5 -10t11.5 -24zM150 55q-17 0 -30.5 12.5t-13.5 29.5t12 30.5t32 13.5t32 -13.5t12 -30.5q0 -18 -13 -30t-31 -12z" />
    <glyph glyph-name="nine.dnom" horiz-adv-x="310" 
d="M280 206q2 -84 -42 -141q-53 -68 -132 -71q-8 0 -10 9l-5 55q-1 4 2 6.5t8 2.5q35 0 58 20.5t34 52.5q-21 -8 -41 -8q-51 0 -86.5 32.5t-35.5 80.5q0 49 36 83t86 34q35 0 63.5 -17.5t43.5 -46.5q21 -39 21 -92zM154 197q21 0 35.5 16t12.5 36t-14.5 32.5t-33.5 12.5
q-20 0 -34.5 -14t-14.5 -34t14.5 -34.5t34.5 -14.5z" />
    <glyph glyph-name="zero.numr" horiz-adv-x="355" 
d="M177 444q-69 0 -103 49.5t-34 128.5q0 81 34 131.5t103 50.5q70 0 104 -50.5t34 -131.5q0 -79 -34 -128.5t-104 -49.5zM177 527q36 0 48.5 25t12.5 70q0 46 -12.5 71.5t-48.5 25.5q-35 0 -48 -25.5t-13 -71.5q0 -45 13 -70t48 -25z" />
    <glyph glyph-name="one.numr" horiz-adv-x="269" 
d="M144 800h62q5 0 9 -3.5t4 -8.5v-326q0 -13 -13 -13h-67q-14 0 -14 13v212l-60 -4q-15 -2 -15 10v44q0 12 10 15q32 9 65 46l8 10q5 5 11 5z" />
    <glyph glyph-name="two.numr" horiz-adv-x="336" 
d="M202 532h85q9 0 9 -10v-62q0 -11 -9 -11h-219q-11 0 -11 11v12l48 60l69 88q2 3 10.5 14.5t12.5 17.5t8 15.5t4 17.5q0 19 -14 32.5t-34 13.5q-29 0 -64 -37q-7 -9 -14 0l-39 41q-7 7 -1 14q37 52 97.5 61.5t103.5 -24.5q37 -26 43 -78.5t-22 -90.5z" />
    <glyph glyph-name="three.numr" horiz-adv-x="329" 
d="M276 728l-67 -74q53 -12 73 -70t-15 -102q-46 -50 -110.5 -46t-113.5 62q-6 7 0 13l37 39q6 6 13 -1q14 -15 29.5 -25t37 -15t36.5 11q30 26 9.5 55t-55.5 14q-6 -6 -12 2l-31 38q-5 7 0 13l66 81h-109q-10 0 -10 8v58q0 11 10 11h204q10 0 10 -10v-57q0 -3 -2 -5z" />
    <glyph glyph-name="four.numr" horiz-adv-x="322" 
d="M254 594h18q10 0 10 -10v-58q0 -9 -10 -9h-18v-67q0 -9 -9 -9h-58q-10 0 -10 9v67h-127q-9 0 -9 9l-1 57q0 5 4 9q66 52 95 125q14 36 14 73q0 10 10 10h61q9 0 9 -10q-1 -59 -34 -131q-17 -32 -59 -65h37v8q0 10 9 10l58 5q10 0 10 -11v-12z" />
    <glyph glyph-name="five.numr" horiz-adv-x="324" 
d="M135 724v-65q39 9 69 1t48.5 -29.5t26.5 -47.5t2.5 -54t-23.5 -48q-42 -47 -104.5 -45t-109.5 57q-5 7 2 14l36 38q8 8 14 -3q14 -21 40 -31.5t50 4.5q19 16 17.5 40t-20 34t-47.5 -1h-1h-4l-9 1l-53 5q-9 0 -9 12l-2 124v2v58q0 10 10 10h184q11 0 11 -9v-59
q0 -8 -11 -8h-117z" />
    <glyph glyph-name="six.numr" horiz-adv-x="310" 
d="M158 673q51 0 86.5 -32.5t35.5 -80.5q0 -49 -36 -83t-86 -34q-35 0 -63.5 17.5t-43.5 46.5q-21 39 -21 92q-2 84 42 141q53 68 132 71q8 0 10 -9l5 -55q1 -4 -2 -6.5t-8 -2.5q-35 0 -58 -20.5t-34 -52.5q21 8 41 8zM156 511q20 0 34.5 14t14.5 34q0 19 -14.5 34t-34.5 15
q-21 0 -35.5 -16t-12.5 -36t14.5 -32.5t33.5 -12.5z" />
    <glyph glyph-name="seven.numr" horiz-adv-x="314" 
d="M274 790v-17q0 -4 -1 -6l-149 -314q-2 -4 -12 -4h-63q-4 0 -5.5 4.5t0.5 6.5l122 262h-116q-10 0 -10 9v59q0 10 10 10h216q8 0 8 -10z" />
    <glyph glyph-name="eight.numr" horiz-adv-x="300" 
d="M88 626v-2q-10 -5 -21.5 -14t-24 -30t-12.5 -45q0 -43 31.5 -71.5t86.5 -28.5q57 0 89.5 28.5t32.5 71.5q0 58 -59 89v2q52 30 52 81q0 44 -32.5 70.5t-82.5 26.5q-48 0 -79.5 -26.5t-31.5 -70.5q0 -54 51 -81zM187 704q0 -14 -11 -25.5t-27 -11.5q-15 0 -26 11.5
t-11 25.5t11 24t26 10t26.5 -10t11.5 -24zM150 497q-17 0 -30.5 12.5t-13.5 29.5t12 30.5t32 13.5t32 -13.5t12 -30.5q0 -18 -13 -30t-31 -12z" />
    <glyph glyph-name="nine.numr" horiz-adv-x="310" 
d="M280 650q2 -84 -42 -141q-53 -68 -132 -71q-8 0 -10 9l-5 55q-1 4 2 6.5t8 2.5q35 0 58 20.5t34 52.5q-21 -8 -41 -8q-51 0 -86.5 32.5t-35.5 80.5q0 49 36 83t86 34q35 0 63.5 -17.5t43.5 -46.5q21 -39 21 -92zM154 641q21 0 35.5 16t12.5 36t-14.5 32.5t-33.5 12.5
q-20 0 -34.5 -14t-14.5 -34t14.5 -34.5t34.5 -14.5z" />
    <glyph glyph-name="ligaf" horiz-adv-x="577" 
d="M358 627q-70 0 -70 -56v-76h84q15 0 15 -15v-140q0 -6 -4.5 -10.5t-10.5 -4.5h-84v-304q0 -8 -6.5 -14.5t-14.5 -6.5h-113q-24 0 -39.5 15.5t-15.5 39.5v270h-53q-15 0 -15 14v118q0 18 10.5 28t28.5 10h29v109q0 98 60.5 151t166.5 53q56 0 120.5 -22.5t100.5 -43
t65 -41.5l-74 -145q-36 26 -87.5 48.5t-92.5 22.5z" />
    <glyph glyph-name="ligafex" horiz-adv-x="577" 
d="M358 627q-70 0 -70 -56v-76h202q15 0 15 -15v-140q0 -6 -4.5 -10.5t-10.5 -4.5h-202v-304q0 -8 -6.5 -14.5t-14.5 -6.5h-113q-24 0 -39.5 15.5t-15.5 39.5v270h-53q-15 0 -15 14v118q0 18 10.5 28t28.5 10h29v109q0 98 60.5 151t166.5 53q56 0 120.5 -22.5t100.5 -43
t65 -41.5l-74 -145q-36 26 -87.5 48.5t-92.5 22.5z" />
    </font>
</defs>
</svg>
